<svg width="49" height="48" viewBox="0 0 49 48" fill="none" xmlns="http://www.w3.org/2000/svg">
<path d="M20.4064 9.35547C16.601 9.35547 12.8811 10.4887 9.71707 12.612C6.55303 14.7352 4.08697 17.753 2.63072 21.2838C1.17447 24.8146 0.793454 28.6998 1.53584 32.4481C2.27823 36.1964 4.11068 39.6394 6.80148 42.3417C9.49227 45.0441 12.9205 46.8844 16.6528 47.63C20.385 48.3756 24.2536 47.9929 27.7693 46.5304C31.285 45.0679 34.2899 42.5913 36.404 39.4136C38.5182 36.236 39.6466 32.5001 39.6466 28.6784H20.4064V9.35547Z" stroke="white" stroke-width="2" stroke-linecap="round" stroke-linejoin="round"/>
<path d="M28.1025 20.9479H47.3427C47.3427 15.8232 45.3156 10.9083 41.7074 7.28455C38.0991 3.6608 33.2053 1.625 28.1025 1.625V20.9479Z" stroke="#2CBB7F" stroke-width="3" stroke-linecap="round" stroke-linejoin="round"/>
</svg>
