<svg width="32" height="19" viewBox="0 0 32 19" fill="none" xmlns="http://www.w3.org/2000/svg">
<path d="M8.76816 6.75675C8.76816 7.1396 8.80955 7.45001 8.88198 7.67765C8.96476 7.90529 9.06823 8.15363 9.21309 8.42265C9.26483 8.50543 9.28552 8.58821 9.28552 8.66064C9.28552 8.76411 9.22344 8.86758 9.08893 8.97106L8.43705 9.40564C8.34392 9.46772 8.2508 9.49877 8.16802 9.49877C8.06455 9.49877 7.96108 9.44703 7.8576 9.3539C7.71274 9.1987 7.58858 9.03314 7.4851 8.86758C7.38163 8.69168 7.27816 8.49508 7.16434 8.2571C6.35726 9.20904 5.34323 9.68502 4.12225 9.68502C3.25308 9.68502 2.55982 9.43668 2.0528 8.94002C1.54579 8.44335 1.28711 7.78112 1.28711 6.95335C1.28711 6.07383 1.59753 5.35987 2.22871 4.82181C2.85989 4.28376 3.69802 4.01473 4.76378 4.01473C5.11559 4.01473 5.47774 4.04577 5.86059 4.09751C6.24344 4.14924 6.63663 4.23202 7.05052 4.32515V3.5698C7.05052 2.78341 6.88496 2.235 6.5642 1.91424C6.23309 1.59347 5.67434 1.43827 4.8776 1.43827C4.51545 1.43827 4.14295 1.47966 3.7601 1.57278C3.37725 1.66591 3.00475 1.77973 2.6426 1.92459C2.47704 1.99702 2.35287 2.03841 2.28044 2.0591C2.20801 2.0798 2.15628 2.09014 2.11489 2.09014C1.97003 2.09014 1.8976 1.98667 1.8976 1.76938V1.26236C1.8976 1.09681 1.91829 0.972641 1.97003 0.90021C2.02176 0.827779 2.11489 0.755348 2.25975 0.682918C2.6219 0.496667 3.05649 0.341459 3.5635 0.217292C4.07052 0.0827779 4.60857 0.0206945 5.17767 0.0206945C6.40899 0.0206945 7.3092 0.30007 7.88865 0.858821C8.45774 1.41757 8.74747 2.26605 8.74747 3.40424V6.75675H8.76816ZM4.56718 8.32953C4.90864 8.32953 5.26045 8.26744 5.63295 8.14328C6.00545 8.01911 6.33656 7.79147 6.61594 7.48105C6.78149 7.28446 6.90566 7.06716 6.96774 6.81883C7.02983 6.5705 7.07121 6.27043 7.07121 5.91862V5.48404C6.77114 5.41161 6.45038 5.34952 6.11927 5.30813C5.78816 5.26675 5.46739 5.24605 5.14663 5.24605C4.45336 5.24605 3.94635 5.38056 3.60489 5.65994C3.26343 5.93932 3.09788 6.33251 3.09788 6.84987C3.09788 7.33619 3.22204 7.69835 3.48072 7.94668C3.72906 8.20536 4.09121 8.32953 4.56718 8.32953V8.32953ZM12.876 9.44703C12.6898 9.44703 12.5656 9.41599 12.4828 9.34356C12.4 9.28147 12.3276 9.13661 12.2655 8.94002L9.83393 0.941599C9.77184 0.734654 9.7408 0.60014 9.7408 0.527709C9.7408 0.362153 9.82358 0.269028 9.98914 0.269028H11.0032C11.1998 0.269028 11.3343 0.30007 11.4067 0.372501C11.4895 0.434584 11.5516 0.579445 11.6137 0.776043L13.352 7.62592L14.9662 0.776043C15.0179 0.569098 15.08 0.434584 15.1628 0.372501C15.2455 0.310417 15.3904 0.269028 15.5766 0.269028H16.4044C16.601 0.269028 16.7355 0.30007 16.8183 0.372501C16.9011 0.434584 16.9735 0.579445 17.0149 0.776043L18.6498 7.70869L20.4398 0.776043C20.5019 0.569098 20.5744 0.434584 20.6468 0.372501C20.7296 0.310417 20.8641 0.269028 21.0503 0.269028H22.0126C22.1782 0.269028 22.2713 0.351806 22.2713 0.527709C22.2713 0.579445 22.261 0.631182 22.2506 0.693265C22.2403 0.755349 22.2196 0.838126 22.1782 0.951946L19.6845 8.95036C19.6224 9.15731 19.55 9.29182 19.4672 9.3539C19.3844 9.41599 19.2499 9.45738 19.074 9.45738H18.1841C17.9875 9.45738 17.853 9.42634 17.7703 9.3539C17.6875 9.28147 17.615 9.14696 17.5737 8.94002L15.9698 2.26605L14.3764 8.92967C14.3246 9.13661 14.2625 9.27113 14.1798 9.34356C14.097 9.41599 13.9521 9.44703 13.7659 9.44703H12.876ZM26.1722 9.72641C25.6342 9.72641 25.0961 9.66432 24.5787 9.54016C24.0614 9.41599 23.6578 9.28147 23.3888 9.12627C23.2233 9.03314 23.1094 8.92967 23.068 8.83654C23.0267 8.74342 23.006 8.63994 23.006 8.54682V8.01911C23.006 7.80182 23.0887 7.69835 23.2439 7.69835C23.306 7.69835 23.3681 7.70869 23.4302 7.72939C23.4923 7.75008 23.5854 7.79147 23.6889 7.83286C24.0407 7.98807 24.4235 8.11224 24.8271 8.19501C25.241 8.27779 25.6445 8.31918 26.0584 8.31918C26.7103 8.31918 27.2173 8.20536 27.5691 7.97772C27.9209 7.75008 28.1071 7.41897 28.1071 6.99473C28.1071 6.70501 28.014 6.46703 27.8278 6.27043C27.6415 6.07383 27.2897 5.89793 26.7827 5.73237L25.2824 5.26675C24.527 5.02876 23.9683 4.67695 23.6268 4.21133C23.2853 3.75605 23.1094 3.24903 23.1094 2.71098C23.1094 2.27639 23.2026 1.89354 23.3888 1.56243C23.5751 1.23132 23.8234 0.941599 24.1338 0.71396C24.4442 0.475973 24.796 0.30007 25.2099 0.175903C25.6238 0.0517362 26.0584 0 26.5137 0C26.7413 0 26.9793 0.0103472 27.2069 0.041389C27.4449 0.0724307 27.6622 0.11382 27.8795 0.155209C28.0865 0.206945 28.283 0.258681 28.4693 0.320764C28.6555 0.382848 28.8004 0.444931 28.9039 0.507015C29.0487 0.589793 29.1522 0.672571 29.2143 0.765696C29.2764 0.848474 29.3074 0.962293 29.3074 1.10715V1.59347C29.3074 1.81077 29.2246 1.92459 29.0694 1.92459C28.9867 1.92459 28.8521 1.8832 28.6762 1.80042C28.0865 1.53139 27.4242 1.39688 26.6896 1.39688C26.0998 1.39688 25.6342 1.49 25.3134 1.6866C24.9926 1.8832 24.8271 2.18327 24.8271 2.6075C24.8271 2.89723 24.9305 3.14556 25.1375 3.34216C25.3444 3.53876 25.7273 3.73535 26.2757 3.91126L27.745 4.37688C28.49 4.61487 29.028 4.94598 29.3488 5.37022C29.6696 5.79445 29.8248 6.28077 29.8248 6.81883C29.8248 7.26376 29.7317 7.6673 29.5558 8.01911C29.3695 8.37092 29.1212 8.68133 28.8004 8.92967C28.4796 9.18835 28.0968 9.3746 27.6519 9.50911C27.1862 9.65397 26.6999 9.72641 26.1722 9.72641V9.72641Z" fill="white"/>
<path fill-rule="evenodd" clip-rule="evenodd" d="M28.1271 14.7558C24.7228 17.2702 19.7769 18.605 15.5242 18.605C9.56415 18.605 4.19394 16.401 0.137827 12.7381C-0.182937 12.4484 0.106785 12.0552 0.489633 12.2828C4.87686 14.8283 10.2885 16.37 15.8863 16.37C19.663 16.37 23.8123 15.5836 27.6304 13.9694C28.1995 13.7108 28.6858 14.3419 28.1271 14.7558V14.7558Z" fill="#FF9900"/>
<path fill-rule="evenodd" clip-rule="evenodd" d="M29.5437 13.1412C29.1091 12.5824 26.6672 12.8721 25.5601 13.0067C25.2289 13.048 25.1772 12.7583 25.4773 12.541C27.4225 11.1752 30.6198 11.5684 30.9923 12.0237C31.3648 12.4893 30.8888 15.6866 29.0677 17.218C28.7884 17.456 28.5193 17.3318 28.6435 17.0214C29.0574 15.997 29.9783 13.6896 29.5437 13.1412V13.1412Z" fill="#FF9900"/>
</svg>
