<svg width="28" height="32" viewBox="0 0 28 32" fill="none" xmlns="http://www.w3.org/2000/svg">
<path d="M27.4322 0L24.9331 27.9967L13.6993 31.1111L2.4965 28.0011L0 0H27.4322Z" fill="#264DE4"/>
<path d="M22.7942 26.2136L24.9299 2.28906H13.7168V28.7302L22.7942 26.2136Z" fill="#2965F1"/>
<path d="M5.72266 12.6748L6.03046 16.109H13.7156V12.6748H5.72266Z" fill="#EBEBEB"/>
<path d="M13.7169 5.72363H13.705H5.10547L5.41765 9.1579H13.7169V5.72363Z" fill="#EBEBEB"/>
<path d="M13.7153 25.1669V21.5939L13.7002 21.5979L9.87551 20.5651L9.63102 17.8262H7.7725H6.18359L6.66473 23.2184L13.6995 25.1713L13.7153 25.1669Z" fill="#EBEBEB"/>
<path d="M17.9339 16.1088L17.5353 20.5627L13.7051 21.5965V25.1694L20.7454 23.2182L20.7971 22.638L21.6041 13.5968L21.6879 12.6746L22.3079 5.72363H13.7051V9.15789H18.5442L18.2318 12.6746H13.7051V16.1088H17.9339Z" fill="white"/>
</svg>
