<svg width="32" height="32" viewBox="0 0 32 32" fill="none" xmlns="http://www.w3.org/2000/svg">
<path fill-rule="evenodd" clip-rule="evenodd" d="M15.5488 31.1111V25.0819C21.9306 25.0819 26.8845 18.7532 24.4338 12.0362C23.9837 10.8023 23.2693 9.68161 22.3406 8.75278C21.4119 7.82396 20.2913 7.10941 19.0574 6.65918C12.3405 4.22653 6.01172 9.16235 6.01172 15.5442H0C0 5.37296 9.8373 -2.5603 20.5027 0.771023C25.1571 2.23511 28.8766 5.9365 30.3226 10.5915C33.6545 21.2738 25.7387 31.1111 15.5488 31.1111Z" fill="#0080FF"/>
<path fill-rule="evenodd" clip-rule="evenodd" d="M9.57174 25.0991H15.5654V19.1055H9.57236L9.57174 25.0991ZM4.95295 29.7179H9.57112V25.0998H4.95295V29.7179ZM1.0918 25.0998H4.95295V21.2379H1.0918V25.0998Z" fill="#0080FF"/>
</svg>
