<svg width="32" height="23" viewBox="0 0 32 23" fill="none" xmlns="http://www.w3.org/2000/svg">
<path d="M30.8043 8.42765C30.7199 8.36064 29.9322 7.76589 28.2711 7.76589C27.8325 7.7678 27.3948 7.80542 26.9622 7.87839C26.6407 5.67475 24.8188 4.60035 24.7372 4.55216L24.2911 4.29492L23.9977 4.71826C23.6303 5.28694 23.3621 5.91383 23.2047 6.57228C22.9073 7.8302 23.0881 9.0117 23.7271 10.0218C22.9555 10.4518 21.7177 10.5576 21.4672 10.567H0.97386C0.438579 10.5677 0.00422411 11.0003 0.00130693 11.5355C-0.0225965 13.3309 0.281574 15.1155 0.89884 16.8015C1.6048 18.6529 2.65507 20.0166 4.02149 20.8512C5.55266 21.7889 8.04031 22.3247 10.8602 22.3247C12.1341 22.3288 13.4056 22.2135 14.658 21.9805C16.399 21.6608 18.0743 21.0523 19.6146 20.18C20.8837 19.4451 22.0259 18.5101 22.9971 17.411C24.6207 15.5731 25.5879 13.5261 26.3073 11.707H26.5939C28.3716 11.707 29.4647 10.9956 30.0675 10.3995C30.4682 10.0193 30.7809 9.55621 30.9838 9.04252L31.1111 8.67013L30.8043 8.42765Z" fill="#2496ED"/>
<path d="M2.87259 9.9671H5.61878C5.75123 9.9671 5.85856 9.85973 5.85856 9.72733V7.28116C5.8593 7.14871 5.75254 7.04078 5.62013 7.04004C5.6197 7.04004 5.61922 7.04004 5.61878 7.04004H2.87259C2.74014 7.04004 2.63281 7.14741 2.63281 7.27981V7.28116V9.72728C2.63281 9.85973 2.74014 9.9671 2.87259 9.9671V9.9671Z" fill="#2496ED"/>
<path d="M6.65718 9.9671H9.40338C9.53583 9.9671 9.64316 9.85973 9.64316 9.72733V7.28116C9.6439 7.14871 9.53714 7.04078 9.40469 7.04004C9.40425 7.04004 9.40377 7.04004 9.40334 7.04004H6.65714C6.52395 7.04004 6.41602 7.14797 6.41602 7.28116V9.72728C6.4168 9.85995 6.52452 9.9671 6.65718 9.9671" fill="#2496ED"/>
<path d="M10.4996 9.9671H13.2458C13.3782 9.9671 13.4856 9.85973 13.4856 9.72733V7.28116C13.4863 7.14871 13.3795 7.04078 13.2471 7.04004C13.2467 7.04004 13.2462 7.04004 13.2457 7.04004H10.4995C10.3671 7.04004 10.2598 7.14741 10.2598 7.27981V7.28116V9.72728C10.2598 9.85973 10.3672 9.9671 10.4996 9.9671V9.9671Z" fill="#2496ED"/>
<path d="M14.2964 9.9671H17.0426C17.1753 9.9671 17.283 9.85999 17.2837 9.72733V7.28116C17.2837 7.14797 17.1758 7.04004 17.0426 7.04004H14.2964C14.164 7.04004 14.0566 7.14741 14.0566 7.27981V7.28116V9.72728C14.0566 9.85973 14.164 9.9671 14.2964 9.9671V9.9671Z" fill="#2496ED"/>
<path d="M6.65714 6.44753H9.40334C9.53596 6.44679 9.64311 6.33903 9.64311 6.2064V3.76028C9.64311 3.62783 9.53574 3.52051 9.40334 3.52051H6.65714C6.52452 3.52051 6.41676 3.62762 6.41602 3.76028V6.2064C6.41676 6.33929 6.52426 6.44679 6.65714 6.44753Z" fill="#2496ED"/>
<path d="M10.4995 6.44753H13.2457C13.3784 6.44679 13.4855 6.33903 13.4855 6.2064V3.76028C13.4855 3.62783 13.3781 3.52051 13.2457 3.52051H10.4995C10.3671 3.52051 10.2598 3.62788 10.2598 3.76028V6.2064C10.2598 6.33903 10.3669 6.44679 10.4995 6.44753Z" fill="#2496ED"/>
<path d="M14.2964 6.44753H17.0426C17.1755 6.44679 17.283 6.33929 17.2837 6.2064V3.76028C17.283 3.62762 17.1753 3.52051 17.0426 3.52051H14.2964C14.164 3.52051 14.0566 3.62788 14.0566 3.76028V6.2064C14.0566 6.33903 14.1638 6.44679 14.2964 6.44753Z" fill="#2496ED"/>
<path d="M14.2964 2.92706H17.0426C17.1753 2.92706 17.283 2.81991 17.2837 2.68729V0.239775C17.283 0.107108 17.1753 0 17.0426 0H14.2964C14.164 0 14.0566 0.107326 14.0566 0.239775V2.68724C14.0566 2.81969 14.164 2.92706 14.2964 2.92706Z" fill="#2496ED"/>
<path d="M18.1265 9.9671H20.8727C21.0054 9.9671 21.1131 9.85999 21.1138 9.72733V7.28116C21.1138 7.14797 21.0059 7.04004 20.8727 7.04004H18.1265C17.9941 7.04004 17.8867 7.14741 17.8867 7.27981V7.28116V9.72728C17.8867 9.85973 17.9941 9.9671 18.1265 9.9671" fill="#2496ED"/>
</svg>
