<svg width="24" height="32" viewBox="0 0 24 32" fill="none" xmlns="http://www.w3.org/2000/svg">
<path d="M15.5181 11.6812L12.4067 14.5781L9.51855 8.75016L11.0105 5.39917C11.3876 4.73074 12.0044 4.72191 12.3815 5.39917L15.5181 11.6812Z" fill="#FFA000"/>
<path d="M12.4078 14.5767L0.769531 25.4015L9.5197 8.75L12.4078 14.5767Z" fill="#F57F17"/>
<path d="M18.9295 7.25055C19.4869 6.71959 20.0607 6.89868 20.2058 7.65287L23.2314 25.2554L13.1961 31.2801C12.8442 31.4768 11.9109 31.5538 11.9109 31.5538C11.9109 31.5538 11.0621 31.4503 10.7367 31.2713L0.769531 25.4017L18.9295 7.25055Z" fill="#FFCA28"/>
<path d="M9.51969 8.75089L0.769531 25.4024L4.66914 1.06392C4.81544 0.30973 5.24298 0.232797 5.62891 0.901229L9.51969 8.75089Z" fill="#FFA000"/>
</svg>
