<svg width="23" height="32" viewBox="0 0 23 32" fill="none" xmlns="http://www.w3.org/2000/svg">
<path d="M7.38936 24.0605C7.38936 24.0605 6.20051 24.7518 8.23546 24.9857C10.7008 25.267 11.9607 25.2267 14.6776 24.7125C14.6776 24.7125 15.3919 25.1603 16.3893 25.5483C10.299 28.1584 2.60568 25.397 7.38936 24.0605V24.0605ZM6.64513 20.6543C6.64513 20.6543 5.31171 21.6414 7.34819 21.852C9.98171 22.1236 12.0614 22.1459 15.6602 21.4529C15.6602 21.4529 16.158 21.9575 16.9407 22.2335C9.57708 24.3867 1.3754 22.4033 6.64513 20.6543" fill="#14B8A6"/>
<path d="M12.9194 14.8759C14.4201 16.6036 12.5251 18.1584 12.5251 18.1584C12.5251 18.1584 16.3355 16.1913 14.5856 13.7281C12.9512 11.4311 11.6978 10.2896 18.483 6.35449C18.483 6.35449 7.83245 9.01449 12.9194 14.8758" fill="#EA580C"/>
<path d="M20.9743 26.5796C20.9743 26.5796 21.8541 27.3044 20.0054 27.8652C16.49 28.9302 5.37387 29.2518 2.28583 27.9077C1.1758 27.4248 3.2575 26.7547 3.91227 26.614C4.59515 26.4659 4.98546 26.4935 4.98546 26.4935C3.75094 25.6238 -2.99389 28.2011 1.55944 28.9391C13.9769 30.9529 24.1952 28.0324 20.9743 26.5796ZM7.96135 17.1248C7.96135 17.1248 2.30709 18.4678 5.95911 18.9554C7.50106 19.1619 10.575 19.1152 13.4383 18.8753C15.7783 18.678 18.128 18.2582 18.128 18.2582C18.128 18.2582 17.3029 18.6116 16.7059 19.0192C10.964 20.5294 -0.128342 19.8269 3.065 18.2821C5.76562 16.9767 7.96144 17.1248 7.96144 17.1248H7.96135ZM18.1046 22.7945C23.9417 19.7614 21.2429 16.8466 19.3592 17.2394C18.8974 17.3354 18.6916 17.4186 18.6916 17.4186C18.6916 17.4186 18.863 17.1502 19.1903 17.034C22.9169 15.7238 25.7829 20.8981 17.9874 22.9473C17.9874 22.9474 18.0777 22.8667 18.1046 22.7945" fill="#14B8A6"/>
<path d="M14.5862 9.00765e-05C14.5862 9.00765e-05 17.8188 3.23388 11.5202 8.20626C6.46942 12.1951 10.3684 14.4694 11.5181 17.0678C8.56986 14.4078 6.40619 12.0662 7.85779 9.88683C9.98822 6.68755 15.8904 5.1365 14.5862 0" fill="#EA580C"/>
<path d="M8.53513 31.0131C14.1379 31.3718 22.7415 30.8141 22.9452 28.1631C22.9452 28.1631 22.5536 29.1682 18.3149 29.9662C13.5328 30.8661 7.63489 30.7611 4.13672 30.1843C4.13681 30.1843 4.85284 30.777 8.53522 31.0131" fill="#14B8A6"/>
</svg>
