<svg width="32" height="32" viewBox="0 0 32 32" fill="none" xmlns="http://www.w3.org/2000/svg">
<path d="M31.1111 0H0V31.1111H31.1111V0Z" fill="#F7DF1E"/>
<path d="M20.8986 24.3058C21.5252 25.329 22.3405 26.0811 23.7825 26.0811C24.9939 26.0811 25.7677 25.4757 25.7677 24.6392C25.7677 23.6367 24.9726 23.2816 23.6393 22.6984L22.9084 22.3848C20.7988 21.4861 19.3973 20.3601 19.3973 17.9799C19.3973 15.7873 21.0679 14.1182 23.6788 14.1182C25.5376 14.1182 26.8739 14.7651 27.8368 16.4589L25.5603 17.9206C25.0591 17.0219 24.5183 16.6678 23.6788 16.6678C22.8225 16.6678 22.2798 17.211 22.2798 17.9206C22.2798 18.7977 22.823 19.1527 24.0773 19.6959L24.8082 20.009C27.2921 21.0742 28.6946 22.1601 28.6946 24.6016C28.6946 27.2337 26.627 28.6757 23.8502 28.6757C21.1351 28.6757 19.381 27.3819 18.5228 25.6861L20.8986 24.3058ZM10.5712 24.5592C11.0304 25.374 11.4482 26.0629 12.4526 26.0629C13.4131 26.0629 14.0191 25.6871 14.0191 24.2258V14.2851H16.9425V24.2653C16.9425 27.2925 15.1677 28.6703 12.5771 28.6703C10.2363 28.6703 8.88079 27.4589 8.19141 25.9999L10.5712 24.5592Z" fill="black"/>
</svg>
