<svg width="14" height="32" viewBox="0 0 14 32" fill="none" xmlns="http://www.w3.org/2000/svg">
<path d="M6.88893 0.0849609L7.71915 1.64429C7.9058 1.93205 8.10801 2.18675 8.34619 2.42395C9.04447 3.11352 9.69535 3.8495 10.2944 4.62684C11.7011 6.47393 12.6499 8.52516 13.3275 10.7436C13.7339 12.0988 13.9545 13.489 13.9711 14.8947C14.0391 19.0973 12.5984 22.7059 9.69359 25.705C9.2211 26.1806 8.71065 26.6169 8.16731 27.0096C7.87955 27.0096 7.74345 26.7889 7.62485 26.5858C7.40886 26.209 7.26512 25.7952 7.20099 25.3657C7.09891 24.8573 7.03183 24.3488 7.06489 23.8239V23.5867C7.04156 23.5361 6.78782 0.204535 6.88893 0.0849609V0.0849609Z" fill="#599636"/>
<path d="M6.88971 0.0334449C6.85569 -0.0346056 6.82166 0.0169183 6.78764 0.0499715C6.80416 0.390224 6.68556 0.693535 6.49988 0.983236C6.29573 1.27099 6.02547 1.49167 5.75424 1.72888C4.24741 3.0335 3.06138 4.60936 2.11159 6.37187C0.847791 8.74391 0.196449 11.2861 0.0117404 13.9624C-0.0728368 14.9278 0.316996 18.3342 0.621279 19.317C1.4515 21.9263 2.94278 24.1126 4.87444 26.0103C5.34885 26.4672 5.85632 26.891 6.38128 27.2984C6.53391 27.2984 6.55043 27.1623 6.58543 27.0612C6.65235 26.8448 6.70336 26.6239 6.73806 26.4001L7.07831 23.8589L6.88971 0.0334449Z" fill="#6CAC48"/>
<path d="M7.71951 28.0423C7.75354 27.6535 7.94019 27.3307 8.14337 27.0089C7.93922 26.9243 7.78756 26.7562 7.66896 26.5685C7.56669 26.3909 7.48204 26.2037 7.4162 26.0096C7.179 25.2979 7.12845 24.5513 7.06039 23.8242V23.3838C6.97582 23.4518 6.95832 24.0273 6.95832 24.1129C6.90885 24.8815 6.80686 25.6457 6.65306 26.4004C6.60251 26.7056 6.56848 27.0099 6.38086 27.2811C6.38086 27.3151 6.38086 27.3492 6.39739 27.3997C6.70264 28.298 6.78625 29.2128 6.83777 30.1451V30.4853C6.83777 30.8917 6.82124 30.8061 7.15858 30.9422C7.29468 30.9928 7.44634 31.0103 7.58244 31.1114C7.68452 31.1114 7.70104 31.0268 7.70104 30.9587L7.65049 30.3998V28.8404C7.63397 28.5682 7.68452 28.298 7.71854 28.0433L7.71951 28.0423Z" fill="#C2BFBF"/>
</svg>
