<svg width="32" height="34" viewBox="0 0 32 34" fill="none" xmlns="http://www.w3.org/2000/svg">
<path d="M15.7174 19.6644C17.2323 19.6644 18.4603 18.4364 18.4603 16.9215C18.4603 15.4067 17.2323 14.1787 15.7174 14.1787C14.2026 14.1787 12.9746 15.4067 12.9746 16.9215C12.9746 18.4364 14.2026 19.6644 15.7174 19.6644Z" fill="#61DAFB"/>
<path fill-rule="evenodd" clip-rule="evenodd" d="M2.82666 15.4762C2.20554 16.0369 2 16.5269 2 16.9212C2 17.3156 2.20554 17.8056 2.82666 18.3663C3.44768 18.9269 4.40246 19.4776 5.66739 19.9605C8.19037 20.9239 11.7434 21.5407 15.7176 21.5407C19.6918 21.5407 23.2449 20.9239 25.7678 19.9605C27.0328 19.4776 27.9875 18.9269 28.6086 18.3663C29.2297 17.8056 29.4352 17.3156 29.4352 16.9212C29.4352 16.5269 29.2297 16.0369 28.6086 15.4762C27.9875 14.9155 27.0328 14.3648 25.7678 13.8819C23.2449 12.9186 19.6918 12.3018 15.7176 12.3018C11.7434 12.3018 8.19037 12.9186 5.66739 13.8819C4.40246 14.3648 3.44768 14.9155 2.82666 15.4762ZM4.95399 12.0134C7.75773 10.9429 11.5635 10.3018 15.7176 10.3018C19.8717 10.3018 23.6775 10.9429 26.4812 12.0134C27.8797 12.5474 29.0802 13.2076 29.9487 13.9916C30.8171 14.7755 31.4352 15.7638 31.4352 16.9212C31.4352 18.0786 30.8171 19.0669 29.9487 19.8508C29.0802 20.6348 27.8797 21.295 26.4812 21.829C23.6775 22.8995 19.8717 23.5407 15.7176 23.5407C11.5635 23.5407 7.75773 22.8995 4.95399 21.829C3.55555 21.295 2.35499 20.6348 1.4865 19.8508C0.618127 19.0669 0 18.0786 0 16.9212C0 15.7638 0.618127 14.7755 1.4865 13.9916C2.35499 13.2076 3.55555 12.5474 4.95399 12.0134Z" fill="#61DAFB"/>
<path fill-rule="evenodd" clip-rule="evenodd" d="M10.524 5.03516C9.72782 4.7776 9.2007 4.8446 8.85918 5.04178C8.51767 5.23895 8.19608 5.66195 8.02106 6.48022C7.84607 7.29834 7.84654 8.40055 8.06074 9.7375C8.48797 12.4041 9.73031 15.7895 11.7174 19.2313C13.7045 22.6731 16.0152 25.4417 18.111 27.145C19.1617 27.999 20.116 28.5505 20.912 28.808C21.7082 29.0656 22.2353 28.9986 22.5768 28.8014C22.9183 28.6042 23.2399 28.1812 23.4149 27.3629C23.5899 26.5448 23.5894 25.4426 23.3752 24.1057C22.948 21.439 21.7057 18.0536 19.7186 14.6119C17.7314 11.1701 15.4208 8.40147 13.325 6.69816C12.2743 5.84419 11.32 5.29268 10.524 5.03516ZM14.5864 5.14612C16.9154 7.03897 19.3736 10.0143 21.4506 13.6119C23.5276 17.2094 24.8753 20.8259 25.3501 23.7893C25.5869 25.2673 25.6154 26.6371 25.3707 27.7813C25.126 28.9253 24.5792 29.9547 23.5768 30.5334C22.5744 31.1121 21.4095 31.071 20.2964 30.7109C19.1832 30.3508 18.0112 29.6411 16.8495 28.697C14.5206 26.8042 12.0624 23.8288 9.98538 20.2313C7.90833 16.6338 6.5607 13.0173 6.08592 10.0539C5.84912 8.57584 5.82058 7.20602 6.0653 6.06189C6.30999 4.91791 6.85682 3.88844 7.85918 3.30973C8.86154 2.73101 10.0265 2.77217 11.1396 3.13226C12.2528 3.49239 13.4248 4.20201 14.5864 5.14612Z" fill="#61DAFB"/>
<path fill-rule="evenodd" clip-rule="evenodd" d="M23.4141 6.4799C23.2391 5.66164 22.9175 5.23864 22.576 5.04146C22.2345 4.84429 21.7073 4.77729 20.9112 5.03485C20.1152 5.29236 19.1609 5.84388 18.1101 6.69785C16.0144 8.40116 13.7037 11.1698 11.7166 14.6115C9.72949 18.0533 8.48715 21.4387 8.05992 24.1053C7.84572 25.4423 7.84525 26.5445 8.02024 27.3626C8.19526 28.1809 8.51685 28.6039 8.85837 28.8011C9.19988 28.9982 9.727 29.0652 10.5232 28.8077C11.3192 28.5502 12.2735 27.9987 13.3242 27.1447C15.42 25.4414 17.7306 22.6728 19.7177 19.231C21.7049 15.7892 22.9472 12.4038 23.3744 9.73719C23.5886 8.40024 23.5891 7.29802 23.4141 6.4799ZM25.3492 10.0536C24.8745 13.017 23.5268 16.6335 21.4498 20.231C19.3727 23.8285 16.9146 26.8039 14.5856 28.6967C13.424 29.6408 12.252 30.3505 11.1388 30.7106C10.0257 31.0707 8.86072 31.1118 7.85837 30.5331C6.85601 29.9544 6.30917 28.9249 6.06448 27.781C5.81976 26.6368 5.8483 25.267 6.0851 23.789C6.55988 20.8256 7.90752 17.2091 9.98456 13.6115C12.0616 10.014 14.5198 7.03866 16.8487 5.14581C18.0104 4.2017 19.1824 3.49208 20.2956 3.13195C21.4087 2.77186 22.5736 2.7307 23.576 3.30941C24.5783 3.88813 25.1252 4.91759 25.3699 6.06158C25.6146 7.20571 25.586 8.57552 25.3492 10.0536Z" fill="#61DAFB"/>
</svg>
