<svg width="32" height="30" viewBox="0 0 32 30" fill="none" xmlns="http://www.w3.org/2000/svg">
<path d="M21.5567 20.6273C22.7048 20.5084 23.5758 19.5187 23.5362 18.3309C23.4967 17.1432 22.5068 16.193 21.3192 16.193H21.24C20.0126 16.2326 19.0625 17.2619 19.1021 18.4892C19.1417 19.0831 19.3792 19.5978 19.7355 19.9541C18.3895 22.6068 16.3308 24.5468 13.2428 26.17C11.1445 27.2786 8.96706 27.6745 6.78964 27.3975C5.00804 27.1599 3.62238 26.3681 2.75127 25.0615C1.48446 23.1215 1.36573 21.0231 2.43469 18.9248C3.18695 17.4203 4.37452 16.3117 5.12678 15.7574C4.96842 15.2427 4.73084 14.3718 4.6121 13.7383C-1.12851 17.8954 -0.534603 23.5174 1.20738 26.17C2.5138 28.1497 5.16639 29.377 8.09607 29.377C8.88782 29.377 9.67957 29.2978 10.4715 29.0999C15.539 28.1101 19.3793 25.1011 21.5567 20.6273V20.6273ZM28.5247 15.7179C25.5158 12.1942 21.0817 10.2543 16.0141 10.2543H15.3807C15.0244 9.54163 14.2721 9.06646 13.4407 9.06646H13.3615C12.1343 9.10608 11.1842 10.1354 11.2237 11.3628C11.2633 12.5505 12.253 13.5008 13.4407 13.5008H13.5199C14.3908 13.4611 15.1431 12.9069 15.4598 12.1546H16.1724C19.1814 12.1546 22.0318 13.0256 24.6053 14.7281C26.5847 16.0346 28.01 17.7371 28.8017 19.7958C29.4748 21.4586 29.4352 23.0819 28.7225 24.4677C27.6141 26.566 25.7533 27.7142 23.2987 27.7142C21.7151 27.7142 20.2107 27.239 19.4188 26.8827C18.9834 27.2786 18.1915 27.912 17.6372 28.3081C19.3397 29.0998 21.0817 29.5354 22.7444 29.5354C26.5451 29.5354 29.356 27.437 30.425 25.3387C31.5731 23.0423 31.4938 19.0831 28.5247 15.7179V15.7179ZM8.41277 21.3002C8.45239 22.488 9.44211 23.4381 10.6298 23.4381H10.709C11.9363 23.3986 12.8865 22.3691 12.8468 21.1418C12.8073 19.954 11.8175 19.0039 10.6298 19.0039H10.5507C10.4715 19.0039 10.3526 19.0039 10.2736 19.0434C8.65036 16.3512 7.97733 13.4215 8.21492 10.2541C8.37315 7.87865 9.16503 5.81984 10.5507 4.11736C11.6988 2.65247 13.9158 1.93983 15.4203 1.90033C19.6168 1.82109 21.3983 7.04715 21.5171 9.14557C22.0318 9.2643 22.9028 9.54151 23.4967 9.73948C23.0215 3.32573 19.0625 0 15.262 0C11.6988 0 8.41277 2.57347 7.10622 6.37425C5.28513 11.442 6.47282 16.3117 8.68985 20.1521C8.492 20.4292 8.37315 20.8647 8.41277 21.3003V21.3002Z" fill="#8B5CF6"/>
</svg>
