<svg width="29" height="32" viewBox="0 0 29 32" fill="none" xmlns="http://www.w3.org/2000/svg">
<path fill-rule="evenodd" clip-rule="evenodd" d="M16.8544 4.00577L23.243 7.69445C23.4274 7.49929 23.6391 7.3318 23.8714 7.19715C25.1963 6.43544 26.8863 6.88769 27.6559 8.2127C28.4176 9.53771 27.9653 11.2276 26.6403 11.9972C26.4097 12.13 26.1612 12.2289 25.9025 12.291V19.671C26.1584 19.7332 26.4042 19.8315 26.6324 19.9629C27.9653 20.7325 28.4176 22.4225 27.648 23.7475C26.8863 25.0724 25.1884 25.5246 23.8634 24.763C23.6067 24.6158 23.3755 24.428 23.1786 24.2071L16.8289 27.8731C16.9219 28.1546 16.9691 28.4493 16.9688 28.7458C16.9688 30.2691 15.7311 31.5149 14.1998 31.5149C12.6685 31.5149 11.4309 30.277 11.4309 28.7458C11.4309 28.4736 11.47 28.2107 11.5429 27.9624L5.15604 24.2748C4.97362 24.4661 4.76494 24.6305 4.53626 24.763C3.20337 25.5246 1.51338 25.0724 0.751668 23.7475C-0.0099378 22.4225 0.442316 20.7325 1.76721 19.9629C1.99546 19.8314 2.24124 19.7331 2.49717 19.6709V12.291C2.23841 12.2289 1.98992 12.13 1.75933 11.9972C0.434323 11.2356 -0.0179308 9.53771 0.743783 8.2127C1.5055 6.88769 3.20326 6.43544 4.52826 7.19715C4.75931 7.33108 4.96993 7.4975 5.15366 7.69132L11.5441 4.00167C11.4688 3.74599 11.4306 3.4808 11.4309 3.21425C11.4309 1.68315 12.6685 0.445312 14.1998 0.445312C15.7311 0.445312 16.9688 1.68304 16.9688 3.21425C16.9688 3.48947 16.9288 3.75507 16.8544 4.00577ZM16.1888 5.1423L22.5926 8.83961C22.4906 9.19606 22.4614 9.56938 22.5066 9.93737C22.5518 10.3053 22.6706 10.6605 22.8558 10.9816C23.2457 11.6597 23.8807 12.1093 24.5855 12.2845V19.6737C24.5495 19.6825 24.5137 19.6921 24.4782 19.7022L16.1144 5.21629C16.1396 5.19209 16.1645 5.16746 16.1888 5.1424V5.1423ZM12.287 5.21791L3.92328 19.7036C3.88711 19.6932 3.85074 19.6835 3.81418 19.6745V12.2845C4.51897 12.1093 5.15399 11.6597 5.54381 10.9816C5.72942 10.6599 5.84829 10.304 5.89333 9.93526C5.93837 9.56653 5.90866 9.1925 5.80596 8.83551L12.2079 5.13927C12.2338 5.16595 12.2601 5.1922 12.287 5.2178V5.21791ZM14.9735 5.87409L23.3353 20.3566C23.1438 20.5394 22.9796 20.7488 22.8478 20.9784C22.7164 21.2067 22.6182 21.4525 22.556 21.7084H5.84387C5.78163 21.4524 5.68328 21.2067 5.5518 20.9784C5.41959 20.7504 5.25573 20.5422 5.06509 20.3602L13.4285 5.87474C13.6792 5.94694 13.9389 5.98344 14.1998 5.98318C14.4685 5.98318 14.728 5.94516 14.9735 5.87409ZM16.2475 26.8804L22.6098 23.2071C22.5907 23.1471 22.5737 23.0865 22.5587 23.0254H5.84031C5.83145 23.0614 5.82184 23.097 5.81158 23.1325L12.2049 26.8239C12.4631 26.5555 12.7729 26.342 13.1158 26.1964C13.4586 26.0509 13.8274 25.9762 14.1998 25.9769C14.5853 25.9762 14.9667 26.0563 15.3193 26.2119C15.672 26.3675 15.9882 26.5952 16.2475 26.8804V26.8804Z" fill="#E535AB"/>
</svg>
