<svg width="26" height="32" viewBox="0 0 26 32" fill="none" xmlns="http://www.w3.org/2000/svg">
<path d="M24.2514 4.11625C21.3609 -0.0184697 15.6517 -1.24403 11.5242 1.3847L4.27573 6.0029C3.7881 6.30929 3.33319 6.66553 2.9193 7.06592C2.50489 7.46631 2.13359 7.90876 1.8111 8.386C1.48861 8.86324 1.21649 9.37268 0.998901 9.90601C0.781841 10.4396 0.620686 10.9942 0.518023 11.561C0.432338 12.0362 0.3856 12.5181 0.379368 13.0011C0.372617 13.4846 0.406372 13.9675 0.479594 14.4448C0.552817 14.9225 0.665506 15.3935 0.816105 15.8526C0.966704 16.3117 1.15521 16.7572 1.37955 17.1851C1.22522 17.4197 1.08275 17.6618 0.952683 17.9106C0.822337 18.1594 0.704974 18.4149 0.600593 18.6756C0.496212 18.9362 0.405334 19.2021 0.327957 19.4722C0.25058 19.7422 0.187225 20.0159 0.137371 20.2922C-0.069779 21.4539 -0.0424111 22.6454 0.217864 23.7964C0.347691 24.3703 0.534122 24.9301 0.77508 25.4671C1.01604 26.004 1.30945 26.5161 1.65219 26.9949C4.54265 31.1296 10.2514 32.3551 14.3788 29.7264L21.6273 25.1274C22.115 24.8205 22.5688 24.4638 22.9827 24.0628C23.3965 23.6623 23.7678 23.2199 24.0904 22.7428C24.4129 22.266 24.685 21.7566 24.9026 21.2233C25.1202 20.6905 25.2817 20.1358 25.385 19.5693C25.4707 19.0941 25.5169 18.6127 25.5232 18.1298C25.5294 17.6468 25.4956 17.1638 25.4219 16.6866C25.3487 16.2094 25.236 15.7389 25.0849 15.2798C24.9338 14.8213 24.7453 14.3757 24.5209 13.9478C24.6751 13.7136 24.818 13.4711 24.9483 13.2223C25.0781 12.9736 25.196 12.7181 25.3004 12.4574C25.4048 12.1967 25.4962 11.9308 25.5741 11.6608C25.6514 11.3912 25.7158 11.1176 25.7662 10.8413C25.869 10.2617 25.9137 9.67336 25.9002 9.08499C25.8867 8.49661 25.8145 7.91135 25.6847 7.337C25.5549 6.76316 25.3684 6.20335 25.1275 5.66639C24.8868 5.12933 24.5933 4.61755 24.2514 4.13859" fill="#FF3E00"/>
<path d="M10.816 27.3947C10.2487 27.5421 9.66223 27.602 9.07685 27.5723C8.49159 27.5422 7.91412 27.4238 7.3647 27.2197C6.81525 27.0159 6.30007 26.7296 5.8369 26.3706C5.37411 26.0114 4.96873 25.5838 4.6347 25.1025C4.42854 24.8143 4.25198 24.5068 4.10761 24.1838C3.96282 23.861 3.85061 23.5246 3.77266 23.1795C3.69528 22.8341 3.65166 22.482 3.64387 22.1284C3.63608 21.7747 3.6636 21.4211 3.72592 21.0726C3.73578 21.016 3.74721 20.9594 3.75967 20.9033C3.77162 20.8467 3.78512 20.7907 3.79966 20.7351C3.81368 20.679 3.82926 20.6234 3.84588 20.5679C3.86198 20.5128 3.87963 20.4578 3.89781 20.4033L4.03439 19.9863L4.40673 20.2641C4.62016 20.4199 4.84035 20.5668 5.06625 20.7039C5.29215 20.8416 5.52376 20.9693 5.76056 21.0867C5.99684 21.2045 6.23884 21.3126 6.48447 21.4097C6.73011 21.5073 6.97989 21.594 7.23331 21.6704L7.51114 21.7509L7.48622 22.0287C7.47282 22.2178 7.4925 22.4077 7.54438 22.5901C7.56982 22.6815 7.60358 22.7697 7.6446 22.8549C7.68563 22.9401 7.73392 23.0216 7.78897 23.0985C7.88983 23.2434 8.01224 23.3721 8.15197 23.4802C8.29114 23.5882 8.44641 23.6744 8.61207 23.7357C8.77773 23.7969 8.95118 23.8322 9.12774 23.8411C9.30379 23.8504 9.48035 23.8322 9.6512 23.7876C9.69067 23.7772 9.7291 23.7653 9.76753 23.7517C9.80596 23.7382 9.84387 23.7237 9.88074 23.7071C9.91813 23.691 9.95448 23.6733 9.99083 23.6541C10.0267 23.6354 10.0615 23.6152 10.0957 23.5934L17.3333 18.9746C17.422 18.919 17.5047 18.8543 17.58 18.7815C17.6553 18.7082 17.7223 18.6277 17.7809 18.541C17.8396 18.4543 17.8884 18.3613 17.9279 18.2642C17.9669 18.1671 17.9959 18.0664 18.0146 17.9635C18.0328 17.8581 18.0406 17.7517 18.038 17.6447C18.0354 17.5382 18.0219 17.4323 17.998 17.3279C17.9746 17.2241 17.9404 17.1228 17.8962 17.0252C17.8526 16.928 17.7986 16.8356 17.7363 16.7489C17.6355 16.604 17.5135 16.4757 17.3738 16.3677C17.2341 16.2597 17.0788 16.1735 16.9137 16.1122C16.7482 16.0509 16.5743 16.0152 16.398 16.0063C16.2215 15.9975 16.0449 16.0156 15.8741 16.0598C15.8351 16.0702 15.7962 16.0821 15.7577 16.0956C15.7193 16.1091 15.6819 16.1236 15.6445 16.1397C15.6071 16.1564 15.5708 16.174 15.5349 16.1932C15.4991 16.2119 15.4638 16.2327 15.4295 16.2545L12.6502 18.0191C12.537 18.0908 12.4207 18.1583 12.3023 18.2216C12.1833 18.2845 12.0629 18.3432 11.9398 18.3972C11.8167 18.4512 11.6916 18.5005 11.5648 18.5447C11.4381 18.5893 11.3099 18.6288 11.18 18.6636C10.6135 18.81 10.0282 18.8692 9.444 18.8391C8.85978 18.809 8.28387 18.6901 7.73548 18.487C7.18709 18.2834 6.67298 17.9973 6.2108 17.639C5.74862 17.2807 5.34356 16.8543 5.00964 16.3739C4.80452 16.0857 4.62847 15.7778 4.48462 15.4548C4.34026 15.1318 4.22861 14.7953 4.15123 14.4504C4.07385 14.1051 4.03127 13.753 4.024 13.3994C4.01621 13.0462 4.04373 12.6926 4.10657 12.3446C4.22935 11.6596 4.49358 11.0077 4.88241 10.4305C5.27151 9.85328 5.77685 9.36368 6.36607 8.99303L13.626 4.37483C13.7387 4.30317 13.854 4.23566 13.9718 4.1723C14.0897 4.10947 14.2102 4.05079 14.3322 3.99678C14.4545 3.94275 14.5789 3.89355 14.7051 3.84929C14.8308 3.80463 14.9585 3.76465 15.0878 3.72985C15.6549 3.58289 16.2412 3.52265 16.8259 3.55225C17.4112 3.58237 17.9881 3.70077 18.5376 3.90486C19.087 4.10843 19.6016 4.39509 20.0649 4.75393C20.5275 5.11336 20.9327 5.54115 21.2665 6.0226C21.4722 6.31029 21.6493 6.61772 21.7941 6.94073C21.939 7.26374 22.0512 7.59973 22.1296 7.94507C22.2075 8.29041 22.2511 8.6425 22.2589 8.99615C22.2672 9.3498 22.2402 9.70345 22.1779 10.0519C22.167 10.109 22.1556 10.1661 22.1426 10.2228C22.1301 10.2794 22.1166 10.336 22.1021 10.392C22.0881 10.4487 22.0725 10.5047 22.0564 10.5603C22.0403 10.6164 22.0237 10.672 22.0055 10.727L21.8668 11.144L21.4971 10.8662C21.2831 10.7088 21.0624 10.5613 20.836 10.4227C20.6096 10.2846 20.377 10.1558 20.1396 10.0368C19.6645 9.79982 19.1703 9.60318 18.6622 9.44899L18.3839 9.36849L18.4093 9.09066C18.4171 8.99563 18.4166 8.90008 18.4077 8.80556C18.3994 8.71105 18.3823 8.61705 18.3574 8.52514C18.3319 8.43374 18.2992 8.3439 18.2582 8.25821C18.2177 8.17201 18.1694 8.08996 18.1143 8.01206C18.013 7.86973 17.8906 7.74365 17.7513 7.63816C17.6123 7.53219 17.4578 7.44812 17.2933 7.38889C16.9628 7.26897 16.6035 7.25285 16.2635 7.34267C16.2241 7.35306 16.1851 7.365 16.1472 7.37799C16.1088 7.39149 16.0709 7.40655 16.0335 7.42265C15.9966 7.43875 15.9597 7.45692 15.9239 7.47562C15.8881 7.49483 15.8528 7.51508 15.8185 7.5369L8.56741 12.1473C8.47913 12.2029 8.39656 12.2678 8.32178 12.3405C8.247 12.4132 8.17949 12.4937 8.12081 12.5799C8.06262 12.6666 8.01338 12.759 7.97384 12.8556C7.93438 12.9528 7.9053 13.053 7.8866 13.1558C7.86843 13.2612 7.86063 13.3682 7.86323 13.4752C7.86946 13.6893 7.91763 13.9001 8.005 14.0957C8.04906 14.1931 8.10245 14.286 8.16443 14.3731C8.26466 14.5164 8.38617 14.6441 8.52483 14.7511C8.6632 14.8586 8.81712 14.9444 8.9813 15.0056C9.31144 15.1283 9.67105 15.148 10.0126 15.0622C10.0516 15.0513 10.0905 15.0393 10.129 15.0258C10.1669 15.0123 10.2048 14.9973 10.2422 14.9812C10.2794 14.965 10.3159 14.9473 10.3517 14.9282C10.3876 14.9095 10.4229 14.8892 10.4572 14.8674L13.2365 13.1059C13.3502 13.0332 13.466 12.9647 13.5849 12.9013C13.7034 12.8375 13.8244 12.7788 13.9479 12.7243C14.0711 12.6702 14.1964 12.621 14.3234 12.5768C14.4506 12.5321 14.5794 12.4926 14.7098 12.4584C15.2768 12.3109 15.8626 12.2506 16.4479 12.2797C17.0331 12.3093 17.6101 12.4277 18.1595 12.6313C18.7084 12.8349 19.2236 13.121 19.6863 13.4804C20.1495 13.8392 20.5546 14.2666 20.8885 14.748C21.0941 15.0362 21.2707 15.3436 21.4156 15.6667C21.5604 15.9895 21.6728 16.3259 21.751 16.671C21.8289 17.0158 21.8726 17.3679 21.8809 17.7216C21.8892 18.0757 21.8617 18.4294 21.7999 18.7773C21.7386 19.1189 21.642 19.4532 21.5116 19.7749C21.3814 20.0966 21.2178 20.4038 21.0235 20.6915C20.8298 20.9792 20.6065 21.2461 20.3572 21.4876C20.108 21.729 19.8343 21.944 19.5404 22.1289L12.2888 26.7471C12.175 26.8193 12.0587 26.8873 11.9403 26.9507C11.8214 27.014 11.7004 27.0727 11.5768 27.1267C11.4537 27.1813 11.3286 27.2306 11.2013 27.2752C11.0746 27.3199 10.9458 27.3599 10.816 27.3947" fill="#1E2235"/>
</svg>
