<svg width="32" height="32" viewBox="0 0 32 32" fill="none" xmlns="http://www.w3.org/2000/svg">
<path d="M0.844727 0.445312H31.9558V31.5564H0.844727V0.445312Z" fill="#017ACB"/>
<path d="M15.7828 11.9669H17.2752V14.5433H13.2405V26.0058L13.1335 26.035C12.9877 26.0739 11.0675 26.0739 10.6543 26.0301L10.3238 26.001V14.5433H6.28906V11.9669L7.56754 11.9523C8.26754 11.9426 10.0662 11.9426 11.5634 11.9523C13.0606 11.9621 14.9564 11.9669 15.7828 11.9669V11.9669ZM27.1724 24.7905C26.5794 25.4176 25.9426 25.7676 24.8828 26.0544C24.421 26.1808 24.3433 26.1857 23.303 26.1808C22.2627 26.176 22.1801 26.176 21.6745 26.0447C20.3669 25.7093 19.312 25.053 18.5926 24.1246C18.3884 23.8621 18.053 23.3176 18.053 23.2496C18.053 23.2301 18.1016 23.1864 18.1648 23.1572C18.228 23.128 18.3592 23.0454 18.4662 22.9822C18.5731 22.919 18.7676 22.8023 18.8988 22.7343C19.0301 22.6662 19.4092 22.4426 19.7398 22.2433C20.0703 22.044 20.3717 21.8836 20.4058 21.8836C20.4398 21.8836 20.503 21.9516 20.5516 22.0343C20.8433 22.5253 21.5238 23.1523 22.0051 23.3662C22.3016 23.4926 22.9578 23.6336 23.2738 23.6336C23.5655 23.6336 24.1002 23.5072 24.387 23.376C24.6933 23.235 24.8488 23.094 25.0335 22.8121C25.1599 22.6128 25.1745 22.5593 25.1696 22.1801C25.1696 21.8301 25.1502 21.7329 25.053 21.5725C24.7808 21.1253 24.4113 20.8919 22.9141 20.2308C21.3683 19.5454 20.6731 19.1371 20.1092 18.5878C19.6912 18.1794 19.6085 18.0676 19.346 17.5572C19.0058 16.901 18.962 16.6871 18.9571 15.71C18.9523 15.0246 18.9669 14.801 19.0398 14.5676C19.1419 14.2176 19.4724 13.5419 19.6231 13.3718C19.9342 13.0072 20.046 12.8954 20.2648 12.7155C20.9259 12.1711 21.9565 11.8114 22.9433 11.7773C23.0551 11.7773 23.4245 11.7968 23.7696 11.8211C24.7613 11.9037 25.437 12.1468 26.0884 12.6669C26.5794 13.0558 27.3231 13.9697 27.2502 14.0912C27.2016 14.1641 25.262 15.4572 25.1356 15.4961C25.0578 15.5204 25.0044 15.4912 24.8974 15.3648C24.2363 14.5725 23.969 14.4023 23.3273 14.3635C22.8703 14.3343 22.6273 14.3878 22.321 14.5919C22.0002 14.8058 21.8446 15.1315 21.8446 15.5836C21.8495 16.2447 22.1023 16.5558 23.0356 17.0176C23.6384 17.3141 24.1537 17.5572 24.1926 17.5572C24.2509 17.5572 25.5002 18.1794 25.8259 18.3739C27.3426 19.2635 27.9599 20.1773 28.1203 21.7523C28.237 22.9385 27.9016 24.0225 27.1724 24.7905V24.7905Z" fill="#1E2235"/>
</svg>
