<svg width="32" height="31" viewBox="0 0 32 31" fill="none" xmlns="http://www.w3.org/2000/svg">
<path d="M0.295996 10.7333C0.295996 10.7333 -0.461754 10.1871 0.447546 9.45772L2.56609 7.56334C2.56609 7.56334 3.17229 6.92557 3.81322 7.48125L23.3632 22.2827V29.3802C23.3632 29.3802 23.3537 30.4948 21.9234 30.3716L0.295996 10.7333Z" fill="#2489CA"/>
<path d="M5.33558 15.3076L0.296538 19.8888C0.296538 19.8888 -0.221258 20.274 0.296538 20.9623L2.63609 23.0903C2.63609 23.0903 3.19178 23.6871 4.01268 23.0082L9.35482 18.9574L5.33558 15.3076Z" fill="#1070B3"/>
<path d="M14.181 15.3462L23.4224 8.28961L23.3624 1.22989C23.3624 1.22989 22.9678 -0.310878 21.6512 0.491077L9.35352 11.6837L14.181 15.3462Z" fill="#0877B9"/>
<path d="M21.9239 30.3807C22.4606 30.9301 23.111 30.7501 23.111 30.7501L30.3128 27.2013C31.2347 26.573 31.1053 25.7932 31.1053 25.7932V4.6014C31.1053 3.66999 30.1518 3.34795 30.1518 3.34795L23.9098 0.339044C22.5459 -0.503955 21.6523 0.490594 21.6523 0.490594C21.6523 0.490594 22.8016 -0.336618 23.3636 1.2294V29.2504C23.3636 29.443 23.3226 29.6325 23.2405 29.803C23.0763 30.1345 22.7195 30.4439 21.8639 30.3144L21.9239 30.3807Z" fill="#3C99D4"/>
</svg>
