<svg width="28" height="32" viewBox="0 0 28 32" fill="none" xmlns="http://www.w3.org/2000/svg">
<path d="M13.7476 0L-0.000944838 7.77778V23.3333L13.7476 31.1111L27.4961 23.3333V7.77778L13.7476 0Z" fill="#1E2235"/>
<path d="M2.4559 22.7963L13.2955 28.9278V24.1522L6.54183 20.4371L2.4559 22.7963ZM1.71442 22.1248V9.30188L5.68109 11.5911V19.833L1.71442 22.1248ZM25.0866 22.7963L14.247 28.9278V24.1522L21.0007 20.4371L25.0866 22.7963V22.7963ZM25.8281 22.1248V9.30188L21.8615 11.5911V19.833L25.8281 22.1248V22.1248ZM25.3641 8.47225L14.247 2.18262V6.80002L21.3689 10.7174L21.4233 10.7485L25.3641 8.47225V8.47225ZM2.17849 8.47225L13.2955 2.18262V6.80002L6.17368 10.7174L6.11924 10.7485L2.17849 8.47225V8.47225Z" fill="#8ED6FB"/>
<path d="M14.2472 23.0665L20.9102 19.4031V12.1439L14.2472 15.9913V23.0665ZM13.2957 23.0665L6.63275 19.4031V12.1439L13.2957 15.9913V23.0665ZM20.459 11.3039L13.7702 7.625L7.08127 11.3039L13.7702 15.1669L20.459 11.3039" fill="#1C78C0"/>
</svg>
