<svg width="32" height="32" viewBox="0 0 32 32" fill="none" xmlns="http://www.w3.org/2000/svg">
<path d="M9.21938 14.3713C9.07662 14.185 8.86585 14.0627 8.63318 14.0314C8.40052 14 8.16491 14.0621 7.97792 14.2041C7.86791 14.2909 7.77918 14.4016 7.71848 14.5279L0.0960641 29.777C-0.0118953 29.9931 -0.0296281 30.2432 0.0467636 30.4724C0.123155 30.7016 0.28742 30.8911 0.503451 30.9992C0.629725 31.063 0.769329 31.0961 0.910837 31.0957H11.5308C11.7009 31.1 11.8685 31.0547 12.0133 30.9652C12.158 30.8757 12.2734 30.7459 12.3455 30.5918C14.6376 25.8575 13.2482 18.6596 9.21938 14.3713Z" fill="url(#paint0_linear_87_1133)"/>
<path d="M14.8229 0.494816C12.9228 3.41889 11.8153 6.78671 11.6093 10.2679C11.4034 13.749 12.1059 17.224 13.648 20.3517L18.7682 30.5921C18.8438 30.7435 18.9601 30.8708 19.104 30.9598C19.2479 31.0488 19.4138 31.096 19.583 31.096H30.2008C30.3205 31.0963 30.4391 31.0729 30.5498 31.0272C30.6605 30.9815 30.7611 30.9144 30.8458 30.8297C30.9304 30.7451 30.9975 30.6445 31.0432 30.5338C31.0889 30.4231 31.1123 30.3045 31.112 30.1848C31.1121 30.0435 31.0798 29.9042 31.0177 29.7774L16.3732 0.490528C16.3037 0.343775 16.1939 0.21977 16.0567 0.132934C15.9195 0.0460984 15.7604 0 15.5981 0C15.4357 0 15.2766 0.0460984 15.1394 0.132934C15.0022 0.21977 14.8925 0.343775 14.8229 0.490528V0.494816Z" fill="#2684FF"/>
<defs>
<linearGradient id="paint0_linear_87_1133" x1="13.4155" y1="16.702" x2="5.36634" y2="30.6432" gradientUnits="userSpaceOnUse">
<stop stop-color="#0052CC"/>
<stop offset="0.92" stop-color="#2684FF"/>
</linearGradient>
</defs>
</svg>
