<svg width="28" height="31" viewBox="0 0 28 31" fill="none" xmlns="http://www.w3.org/2000/svg">
<path d="M27.5602 9.05661C27.56 8.53864 27.4486 8.08094 27.2234 7.68823C27.0021 7.30184 26.6707 6.97808 26.2262 6.7221C22.557 4.61816 18.8842 2.52066 15.2162 0.414578C14.2273 -0.15315 13.2685 -0.132345 12.2869 0.443532C10.8265 1.29995 3.51447 5.4659 1.33558 6.72092C0.438257 7.2376 0.00161758 8.02818 0.0014019 9.05564C0 13.2868 0.0014019 17.5179 0 21.7491C0 22.2557 0.106868 22.7046 0.322222 23.0914C0.543615 23.4894 0.879641 23.822 1.3344 24.0838C3.51339 25.3388 10.8264 29.5044 12.2865 30.3612C13.2685 30.9374 14.2273 30.958 15.2165 30.3901C18.8846 28.284 22.5576 26.1865 26.2274 24.0825C26.6821 23.8208 27.0181 23.488 27.2395 23.0903C27.4546 22.7034 27.5616 22.2546 27.5616 21.7479C27.5616 21.7479 27.5616 13.2879 27.5602 9.05661Z" fill="#A179DC"/>
<path d="M13.823 15.3613L0.322266 23.0916C0.543659 23.4896 0.879684 23.8222 1.33444 24.084C3.51343 25.339 10.8264 29.5046 12.2865 30.3614C13.2685 30.9376 14.2273 30.9582 15.2165 30.3903C18.8847 28.2841 22.5576 26.1866 26.2274 24.0827C26.6822 23.821 27.0182 23.4882 27.2396 23.0905L13.823 15.3613Z" fill="#280068"/>
<path d="M27.5595 9.05686C27.5593 8.53889 27.4479 8.08119 27.2226 7.68848L13.8223 15.3615L27.2388 23.0906C27.4539 22.7037 27.5607 22.2549 27.5609 21.7482C27.5609 21.7482 27.5609 13.2881 27.5595 9.05686" fill="#390091"/>
<path d="M21.7712 12.4717V13.9166H23.2242V12.4717H23.9508V13.9166H25.4038V14.6391H23.9508V16.0839H25.4038V16.8064H23.9508V18.2514H23.2242V16.8064H21.7712V18.2514H21.0447V16.8064H19.5918V16.0839H21.0447V14.6391H19.5918V13.9166H21.0447V12.4717H21.7712ZM23.2242 14.639H21.7712V16.0839H23.2242V14.639Z" fill="white"/>
<path d="M13.8522 5.21495C17.6421 5.21495 20.9509 7.26173 22.7232 10.3041L22.706 10.2748L18.2469 12.828C17.3684 11.3489 15.7579 10.3506 13.9103 10.33L13.8521 10.3296C11.0348 10.3296 8.75079 12.601 8.75079 15.4026C8.74987 16.2857 8.98185 17.1535 9.4236 17.9195C10.3029 19.4461 11.956 20.4757 13.8522 20.4757C15.7602 20.4757 17.4226 19.433 18.2974 17.8902L18.2762 17.9272L22.7285 20.4921C20.9756 23.5088 17.7121 25.5492 13.9663 25.5899L13.8522 25.5905C10.0504 25.5905 6.73216 23.5311 4.96425 20.4726C4.10122 18.9795 3.60742 17.2485 3.60742 15.4026C3.60742 9.77618 8.19402 5.21484 13.8521 5.21484L13.8522 5.21495Z" fill="white"/>
</svg>
