<svg width="29" height="32" viewBox="0 0 29 32" fill="none" xmlns="http://www.w3.org/2000/svg">
<path d="M12.8422 0.331912C13.6136 -0.109639 14.6184 -0.111634 15.3891 0.331912C19.2667 2.52294 23.1455 4.71053 27.0224 6.90288C27.7516 7.31363 28.2393 8.12515 28.2319 8.96537V22.1474C28.2373 23.0224 27.7014 23.8533 26.9321 24.2548C23.0672 26.4337 19.2044 28.6153 15.3403 30.7943C14.5529 31.2445 13.528 31.2098 12.7652 30.7227C11.6065 30.051 10.4459 29.3827 9.28708 28.7116C9.05029 28.5705 8.78336 28.4581 8.61616 28.2285C8.76397 28.0293 9.02824 28.0045 9.24298 27.9175C9.72663 27.7637 10.1708 27.5168 10.6152 27.2773C10.7275 27.2004 10.8647 27.2299 10.9724 27.2987C11.9632 27.8668 12.9452 28.4514 13.9394 29.014C14.1515 29.1365 14.3662 28.9739 14.5475 28.8728C18.34 26.7294 22.1373 24.594 25.9292 22.4498C26.0697 22.3822 26.1474 22.2331 26.1359 22.0792C26.1386 17.7307 26.1366 13.3814 26.1373 9.03296C26.1533 8.85834 26.0523 8.69778 25.8944 8.62632C22.043 6.45734 18.1936 4.28504 14.3428 2.11551C14.2761 2.06965 14.1971 2.04504 14.1161 2.04492C14.0351 2.0448 13.956 2.06918 13.8892 2.11485C10.0384 4.28504 6.18968 6.45934 2.33893 8.6282C2.18159 8.69978 2.076 8.85767 2.09472 9.03296C2.09539 13.3814 2.09472 17.7307 2.09472 22.0798C2.08804 22.1549 2.10454 22.2303 2.14198 22.2957C2.17942 22.3611 2.23602 22.4135 2.30414 22.4458C3.33173 23.0285 4.36065 23.6071 5.3889 24.1879C5.96818 24.4997 6.67943 24.6849 7.31766 24.446C7.88087 24.244 8.27566 23.6693 8.26491 23.0713C8.27023 18.7482 8.26226 14.4244 8.2689 10.102C8.25483 9.91008 8.43688 9.75152 8.62347 9.76958C9.11721 9.76626 9.61162 9.76294 10.1054 9.77091C10.3115 9.76626 10.4533 9.97291 10.4278 10.1663C10.4258 14.5167 10.4331 18.8673 10.4245 23.2178C10.4258 24.3772 9.94946 25.6388 8.87699 26.2061C7.55577 26.8906 5.92275 26.7454 4.61749 26.0891C3.48752 25.5251 2.40918 24.8596 1.29926 24.2553C0.527962 23.8561 -0.00533399 23.0219 9.53684e-05 22.1475V8.96537C-0.00799327 8.10776 0.499154 7.2815 1.25106 6.87673C5.11522 4.69601 8.97871 2.51363 12.8422 0.331912Z" fill="#8CC84B"/>
<path d="M16.2132 9.46289C17.8985 9.35441 19.7028 9.39862 21.2193 10.2289C22.3935 10.8651 23.0445 12.2004 23.0652 13.5049C23.0324 13.6808 22.8485 13.7779 22.6805 13.7658C22.1915 13.7652 21.7024 13.7725 21.2135 13.7625C21.006 13.7705 20.8855 13.5792 20.8594 13.3959C20.7189 12.7717 20.3785 12.1535 19.7911 11.8525C18.8892 11.401 17.8436 11.4237 16.8602 11.4331C16.1423 11.4712 15.3704 11.5334 14.7622 11.9555C14.2952 12.2753 14.1534 12.9208 14.32 13.4407C14.4772 13.814 14.9081 13.9345 15.2607 14.0455C17.2917 14.5767 19.4439 14.5238 21.4362 15.2229C22.261 15.5079 23.0679 16.0619 23.3502 16.9255C23.7195 18.0829 23.5576 19.4664 22.7341 20.3956C22.0663 21.1603 21.0937 21.5765 20.1236 21.8025C18.8331 22.0903 17.4938 22.0976 16.1832 21.9698C14.9508 21.8293 13.6684 21.5055 12.7171 20.6659C11.9035 19.9595 11.5062 18.8589 11.5456 17.7966C11.5551 17.6172 11.7337 17.4921 11.9055 17.5069C12.3979 17.5029 12.8904 17.5016 13.3828 17.5075C13.5794 17.4935 13.7253 17.6634 13.7353 17.8488C13.8262 18.4435 14.0497 19.0677 14.5682 19.4202C15.569 20.0659 16.8248 20.0217 17.9707 20.0397C18.92 19.9976 19.9858 19.9849 20.7605 19.3574C21.1692 18.9995 21.2903 18.4007 21.1799 17.8856C21.0602 17.4507 20.6053 17.248 20.2146 17.1155C18.2096 16.4813 16.0333 16.7114 14.0477 15.9942C13.2416 15.7093 12.4621 15.1707 12.1524 14.3426C11.7203 13.1705 11.9183 11.7207 12.8281 10.8229C13.7152 9.92981 14.9957 9.58588 16.2132 9.46278V9.46289Z" fill="#8CC84B"/>
</svg>
