<svg width="32" height="31" viewBox="0 0 32 31" fill="none" xmlns="http://www.w3.org/2000/svg">
<path d="M15.4435 0C7.54552 0 8.03866 3.42502 8.03866 3.42502L8.04743 6.97344H15.5843V8.03877H5.0539C5.0539 8.03877 0 7.4656 0 15.4346C0 23.4038 4.41117 23.1212 4.41117 23.1212H7.04374V19.4231C7.04374 19.4231 6.90181 15.012 11.3845 15.012H18.8597C18.8597 15.012 23.0595 15.0798 23.0595 10.953V4.12951C23.0595 4.12951 23.6974 0 15.4435 0ZM11.2876 2.38624C11.4657 2.38608 11.6421 2.42104 11.8067 2.48913C11.9713 2.55721 12.1208 2.65708 12.2467 2.78301C12.3727 2.90895 12.4726 3.05848 12.5406 3.22306C12.6087 3.38763 12.6437 3.56402 12.6435 3.74212C12.6437 3.92022 12.6087 4.09661 12.5406 4.26118C12.4726 4.42575 12.3727 4.57529 12.2467 4.70123C12.1208 4.82716 11.9713 4.92703 11.8067 4.99511C11.6421 5.06319 11.4657 5.09816 11.2876 5.09799C11.1095 5.09816 10.9332 5.06319 10.7686 4.99511C10.604 4.92703 10.4545 4.82716 10.3285 4.70123C10.2026 4.57529 10.1027 4.42575 10.0346 4.26118C9.96657 4.09661 9.9316 3.92022 9.93177 3.74212C9.9316 3.56402 9.96657 3.38763 10.0346 3.22306C10.1027 3.05848 10.2026 2.90895 10.3285 2.78301C10.4545 2.65708 10.604 2.55721 10.7686 2.48913C10.9332 2.42104 11.1095 2.38608 11.2876 2.38624V2.38624Z" fill="#0891B2"/>
<path d="M15.6686 30.9496C23.5666 30.9496 23.0734 27.5246 23.0734 27.5246L23.0647 23.9763H15.5277V22.9109H26.0581C26.0581 22.9109 31.112 23.4841 31.112 15.5149C31.112 7.54576 26.7008 7.82839 26.7008 7.82839H24.0682V11.5263C24.0682 11.5263 24.2102 15.9375 19.7275 15.9375H12.2522C12.2522 15.9375 8.05244 15.8696 8.05244 19.9966V26.8202C8.05244 26.8202 7.4147 30.9496 15.6685 30.9496H15.6686ZM19.8244 28.5636C19.6463 28.5637 19.47 28.5288 19.3054 28.4607C19.1408 28.3926 18.9913 28.2927 18.8653 28.1668C18.7394 28.0409 18.6395 27.8913 18.5715 27.7268C18.5034 27.5622 18.4684 27.3858 18.4686 27.2077C18.4684 27.0296 18.5033 26.8532 18.5714 26.6886C18.6395 26.524 18.7394 26.3745 18.8653 26.2485C18.9912 26.1226 19.1408 26.0227 19.3054 25.9546C19.4699 25.8865 19.6463 25.8515 19.8244 25.8517C20.0025 25.8515 20.1789 25.8865 20.3435 25.9546C20.5081 26.0227 20.6576 26.1225 20.7836 26.2485C20.9095 26.3744 21.0094 26.5239 21.0774 26.6885C21.1455 26.8531 21.1805 27.0295 21.1803 27.2076C21.1805 27.3857 21.1455 27.5621 21.0774 27.7266C21.0094 27.8912 20.9095 28.0407 20.7836 28.1667C20.6576 28.2926 20.5081 28.3925 20.3435 28.4606C20.1789 28.5287 20.0025 28.5636 19.8244 28.5635V28.5636Z" fill="#FACC15"/>
</svg>
