<svg width="32" height="32" viewBox="0 0 32 32" fill="none" xmlns="http://www.w3.org/2000/svg">
<path d="M31.1701 5.04961L16.8227 31.1499C16.5264 31.6888 15.7654 31.6919 15.4647 31.1557L0.832871 5.05204C0.505253 4.46774 0.996441 3.75988 1.64738 3.87834L16.0102 6.48997C16.1018 6.50663 16.1957 6.50647 16.2872 6.48949L30.3496 3.88199C30.9984 3.7617 31.4919 4.4641 31.1701 5.04961V5.04961Z" fill="url(#paint0_linear_76_207)"/>
<path d="M22.852 0.452972L12.2346 2.56952C12.1498 2.58642 12.0729 2.63153 12.016 2.69776C11.9591 2.76398 11.9255 2.84755 11.9204 2.93534L11.2673 14.1572C11.2637 14.2188 11.2743 14.2803 11.2981 14.337C11.322 14.3937 11.3585 14.4439 11.4048 14.4837C11.4511 14.5235 11.5059 14.5518 11.5648 14.5663C11.6237 14.5808 11.6851 14.5811 11.7442 14.5672L14.7002 13.8732C14.9768 13.8083 15.2267 14.0561 15.1698 14.339L14.2916 18.7143C14.2326 19.0087 14.5042 19.2605 14.7869 19.1731L16.6127 18.6088C16.8957 18.5214 17.1678 18.7739 17.1079 19.0686L15.7122 25.941C15.6249 26.3709 16.1869 26.6052 16.4213 26.2367L16.5779 25.9906L25.2296 8.42515C25.3746 8.13106 25.1246 7.7957 24.8073 7.85809L21.7643 8.4555C21.4785 8.51157 21.2352 8.24066 21.3158 7.95616L23.3018 0.952189C23.3826 0.666957 23.1384 0.395926 22.8522 0.452972H22.852Z" fill="url(#paint1_linear_76_207)"/>
<defs>
<linearGradient id="paint0_linear_76_207" x1="0.475622" y1="5.98413" x2="16.2957" y2="27.1032" gradientUnits="userSpaceOnUse">
<stop stop-color="#41D1FF"/>
<stop offset="1" stop-color="#BD34FE"/>
</linearGradient>
<linearGradient id="paint1_linear_76_207" x1="17.3415" y1="1.02766" x2="20.6336" y2="23.2261" gradientUnits="userSpaceOnUse">
<stop stop-color="#FFEA83"/>
<stop offset="0.083" stop-color="#FFDD35"/>
<stop offset="1" stop-color="#FFA800"/>
</linearGradient>
</defs>
</svg>
