<svg width="48" height="49" viewBox="0 0 48 49" fill="none" xmlns="http://www.w3.org/2000/svg">
<path d="M25.1812 38.6893C25.1812 39.2556 24.722 39.7145 24.1561 39.7145C23.5897 39.7145 23.1309 39.2556 23.1309 38.6893C23.1309 38.1233 23.5897 37.6641 24.1561 37.6641C24.722 37.6641 25.1812 38.1233 25.1812 38.6893Z" fill="#21242C" fill-opacity="0.76"/>
<path d="M6.62598 5.26856C7.75636 5.26856 8.67627 4.34863 8.67627 3.21826C8.67627 2.08789 7.75635 1.16797 6.62598 1.16797C5.49561 1.16797 4.57568 2.08789 4.57568 3.21826C4.57568 4.34863 5.49561 5.26856 6.62598 5.26856ZM6.62598 2.19307C7.19117 2.19307 7.65117 2.65303 7.65117 3.21826C7.65117 3.7835 7.19121 4.24346 6.62598 4.24346C6.06074 4.24346 5.60078 3.7835 5.60078 3.21826C5.60078 2.65303 6.06074 2.19307 6.62598 2.19307Z" fill="#21242C" fill-opacity="0.76"/>
<path d="M43.0164 7.31894C44.7123 7.31894 46.0919 5.93945 46.0919 4.24346C46.0919 2.54746 44.7124 1.16797 43.0164 1.16797C41.3205 1.16797 39.9409 2.54746 39.9409 4.24346C39.9409 5.93945 41.3208 7.31894 43.0164 7.31894ZM43.0164 2.19316C44.1468 2.19316 45.0667 3.11309 45.0667 4.24346C45.0667 5.37383 44.1468 6.29375 43.0164 6.29375C41.886 6.29375 40.9661 5.37383 40.9661 4.24346C40.9661 3.11309 41.886 2.19316 43.0164 2.19316Z" fill="#21242C" fill-opacity="0.76"/>
<path d="M16.3657 2.96036C16.3657 3.38499 16.0213 3.72894 15.5967 3.72894C15.1721 3.72894 14.8281 3.38499 14.8281 2.96036C14.8281 2.53573 15.1721 2.19141 15.5967 2.19141C16.0213 2.19141 16.3657 2.53573 16.3657 2.96036Z" fill="#21242C" fill-opacity="0.76"/>
<path d="M37.8915 6.03811C37.8915 6.46275 37.5476 6.80707 37.123 6.80707C36.6983 6.80707 36.354 6.46275 36.354 6.03811C36.354 5.61348 36.6983 5.26953 37.123 5.26953C37.5476 5.26953 37.8915 5.61348 37.8915 6.03811Z" fill="#21242C" fill-opacity="0.76"/>
<path d="M22.515 5.52286C22.515 5.94749 22.1706 6.29181 21.746 6.29181C21.3214 6.29181 20.9771 5.94749 20.9771 5.52286C20.9771 5.09823 21.3214 4.75391 21.746 4.75391C22.1706 4.75391 22.515 5.09823 22.515 5.52286Z" fill="#21242C" fill-opacity="0.76"/>
<path d="M43.4798 8.34582H31.4535L34.855 4.94431C35.6288 4.17089 35.6288 2.91819 34.855 2.14439L33.4354 0.724733C32.6619 -0.0486839 31.4092 -0.0490551 30.6358 0.724733L23.0147 8.34582H4.62788C2.62108 8.34582 0.98877 9.97814 0.98877 11.9849V38.5362C0.98877 40.5426 2.62108 42.1753 4.62788 42.1753H6.11446V43.7128C6.11446 43.9958 6.34388 44.2252 6.62684 44.2252H16.8778C17.1608 44.2252 17.3902 43.9958 17.3902 43.7128V42.1753H18.4154V47.8134H17.0828C16.7998 47.8134 16.5704 48.0429 16.5704 48.3258C16.5704 48.6088 16.7998 48.8382 17.0828 48.8382H18.9278H31.2292C31.5122 48.8382 31.7416 48.6088 31.7416 48.3258C31.7416 48.0428 31.5122 47.8134 31.2292 47.8134H29.7939V42.1753H30.7165V43.7128C30.7165 43.9958 30.9459 44.2252 31.2288 44.2252H41.4798C41.7628 44.2252 41.9922 43.9958 41.9922 43.7128V42.1753H43.4788C45.4856 42.1753 47.1179 40.5426 47.1179 38.5362L47.119 11.9849C47.119 9.97814 45.4863 8.34582 43.4799 8.34582H43.4798ZM27.6402 5.17L28.6906 6.22042L18.9613 15.9498L17.32 15.4902L27.6402 5.17ZM29.6373 3.17292L32.4071 5.94275L31.1351 7.21478L28.3653 4.44494L29.6373 3.17292ZM18.6924 16.9383L19.2029 18.863L16.0156 19.6111L16.7232 16.3865L18.6924 16.9383ZM15.8776 15.5265C15.8672 15.5488 15.8583 15.5715 15.8508 15.5949C15.8493 15.5997 15.8467 15.6038 15.8452 15.6086C15.8441 15.6124 15.8441 15.6161 15.8434 15.6194C15.8211 15.7064 14.8353 20.2123 14.8372 20.202C14.832 20.2295 14.8294 20.257 14.8291 20.2845C14.8291 20.2882 14.8279 20.2919 14.8279 20.2957C14.8279 20.2979 14.8287 20.3001 14.8287 20.3024C14.8317 20.534 14.9927 20.6723 14.9808 20.6608C14.9889 20.669 14.9986 20.6746 15.0072 20.682C15.0648 20.7318 15.0581 20.7225 15.0934 20.7419C15.1548 20.7761 15.1392 20.7671 15.1894 20.7828C15.3273 20.8252 14.1598 20.8043 36.9488 20.808C37.4698 20.808 37.8933 21.2316 37.8933 21.7525C37.8933 22.2735 37.4698 22.697 36.9488 22.697L25.5917 22.6973C24.4613 22.6973 23.5414 23.6173 23.5414 24.7476C23.5414 25.878 24.4613 26.7979 25.5917 26.7979H29.1795C29.4625 26.7979 29.6919 26.5685 29.6919 26.2855C29.6919 26.0026 29.4625 25.7732 29.1795 25.7732H25.5917C25.0265 25.7732 24.5665 25.3132 24.5665 24.748C24.5665 24.1827 25.0265 23.7228 25.5917 23.7228H36.9488C38.0349 23.7228 38.9184 22.8393 38.9184 21.7532C38.9184 20.6671 38.0349 19.7836 36.9488 19.7836H19.767C19.7815 19.7803 19.9507 19.7405 19.9652 19.7368C19.9697 19.7357 19.9738 19.7331 19.9782 19.7319C20.063 19.707 20.1385 19.6617 20.1965 19.6037L27.3539 12.4462H43.0193V34.9996H5.08998V12.4462H18.9154C15.6982 15.6663 15.9373 15.4027 15.8786 15.5265L15.8776 15.5265ZM20.1005 18.2494L19.6837 16.6776L29.4159 6.94539L30.4101 7.93965C28.812 9.53817 20.8912 17.4586 20.1011 18.2497L20.1005 18.2494ZM31.3605 1.44932C31.7331 1.07636 32.3373 1.07599 32.7107 1.44932L34.1303 2.86898C34.5037 3.24193 34.5037 3.84582 34.1303 4.21915L33.1316 5.21788L30.3622 2.44805L31.3605 1.44932ZM16.3653 43.1996H7.13927V42.1744H16.3653V43.1996ZM28.7694 47.8129H19.4408V42.1749H28.7694V47.8129ZM40.968 43.1996H31.742V42.1744H40.968V43.1996ZM46.0938 38.5353C46.0938 39.9765 44.9211 41.1493 43.4798 41.1493H4.62807C3.18642 41.1493 2.01406 39.9765 2.01406 38.5353L2.01369 11.9849C2.01369 10.5433 3.18643 9.37092 4.62769 9.37092H21.9894L19.9391 11.4212H4.57639C4.29342 11.4212 4.064 11.6506 4.064 11.9336V35.5121C4.064 35.7951 4.29343 36.0245 4.57639 36.0245H43.5309C43.8139 36.0245 44.0433 35.7951 44.0433 35.5121L44.0437 11.9336C44.0437 11.6506 43.8143 11.4212 43.5313 11.4212H28.378L30.4283 9.37092H43.4798C44.9211 9.37092 46.0938 10.5437 46.0938 11.9849V38.5353Z" fill="#21242C" fill-opacity="0.76"/>
<path d="M31.2304 26.2821C31.2304 26.9655 30.2056 26.9655 30.2056 26.2821C30.2056 25.5987 31.2304 25.5987 31.2304 26.2821Z" fill="#21242C" fill-opacity="0.76"/>
<path d="M32.7654 26.2821C32.7654 26.9655 31.7402 26.9655 31.7402 26.2821C31.7402 25.5987 32.7654 25.5987 32.7654 26.2821Z" fill="#21242C" fill-opacity="0.76"/>
<path d="M6.62625 33.972H21.4901C21.7731 33.972 22.0025 33.7426 22.0025 33.4596L22.0029 23.2077C22.0029 22.9247 21.7735 22.6953 21.4905 22.6953H6.62567C6.3427 22.6953 6.11328 22.9247 6.11328 23.2077V33.4596C6.11328 33.7426 6.34271 33.972 6.62567 33.972H6.62625ZM7.13901 23.721H20.9777V32.9474L7.13901 32.947V23.721Z" fill="#21242C" fill-opacity="0.76"/>
<path d="M19.4386 24.7461H8.6745C8.39153 24.7461 8.16211 24.9755 8.16211 25.2585C8.16211 25.5414 8.39154 25.7709 8.6745 25.7709H19.4386C19.7215 25.7709 19.9509 25.5414 19.9509 25.2585C19.9509 24.9755 19.7215 24.7461 19.4386 24.7461Z" fill="#21242C" fill-opacity="0.76"/>
<path d="M19.4386 26.793H8.6745C8.39153 26.793 8.16211 27.0224 8.16211 27.3054C8.16211 27.5883 8.39154 27.8177 8.6745 27.8177H19.4386C19.7215 27.8177 19.9509 27.5883 19.9509 27.3054C19.9509 27.0224 19.7215 26.793 19.4386 26.793Z" fill="#21242C" fill-opacity="0.76"/>
<path d="M19.4386 28.8477H8.6745C8.39153 28.8477 8.16211 29.0771 8.16211 29.36C8.16211 29.643 8.39154 29.8724 8.6745 29.8724H19.4386C19.7215 29.8724 19.9509 29.643 19.9509 29.36C19.9509 29.0771 19.7215 28.8477 19.4386 28.8477Z" fill="#21242C" fill-opacity="0.76"/>
<path d="M12.7751 30.8945H8.6745C8.39153 30.8945 8.16211 31.124 8.16211 31.4069C8.16211 31.6899 8.39154 31.9193 8.6745 31.9193H12.7751C13.0581 31.9193 13.2875 31.6899 13.2875 31.4069C13.2875 31.124 13.058 30.8945 12.7751 30.8945Z" fill="#21242C" fill-opacity="0.76"/>
</svg>
