<svg width="54" height="51" viewBox="0 0 54 51" fill="none" xmlns="http://www.w3.org/2000/svg">
<path fill-rule="evenodd" clip-rule="evenodd" d="M8.8466 10.1924C6.04906 12.29 3.98034 15.8987 2.63781 21.0198C2.12794 23.0787 1.90082 24.8176 1.9577 26.2348C2.10898 30.1271 4.15009 32.5638 8.08113 33.5466C8.83625 33.7357 9.61159 33.8672 10.4058 33.9435C11.3122 34.0193 12.1531 34.1319 12.9288 34.2831C13.137 34.3211 13.2874 34.4154 13.3826 34.5663C13.4956 34.7365 13.5339 34.9163 13.4956 35.1046C13.4774 35.2749 13.3917 35.4162 13.2404 35.53C13.1081 35.6433 12.9663 35.6994 12.8151 35.6994L12.6737 35.6718C11.9742 35.5387 11.1709 35.4261 10.264 35.3321C9.31847 35.2369 8.47758 35.096 7.74105 34.9068C3.09163 33.7729 0.691371 30.8908 0.539739 26.2624C0.482857 24.6367 0.729347 22.7761 1.27714 20.6789C2.65629 15.2372 4.90608 11.3639 8.02419 9.058C8.17546 8.94588 8.3457 8.89766 8.53406 8.91662C8.72243 8.95454 8.88401 9.04893 9.0155 9.1998C9.12884 9.35107 9.16677 9.53119 9.12885 9.73812C9.09216 9.92855 8.99777 10.079 8.84649 10.1923L8.8466 10.1924ZM12.135 8.52094C11.9466 8.57782 11.7669 8.55803 11.5963 8.46364C11.4269 8.36966 11.3131 8.22828 11.2566 8.03868C11.1998 7.84907 11.2195 7.6706 11.3135 7.49995C11.3894 7.33054 11.5221 7.21678 11.7105 7.1603C12.6931 6.87713 13.6102 6.69742 14.4605 6.62198C20.8482 5.99876 26.3188 7.97274 30.8741 12.5451C32.7075 14.4341 34.522 17.052 36.3175 20.3953C36.4119 20.5659 36.4209 20.7456 36.3459 20.934C36.289 21.1232 36.1757 21.265 36.0054 21.3594C35.9296 21.4163 35.8257 21.4443 35.6934 21.4443C35.4103 21.4443 35.193 21.312 35.0418 21.0474C33.3221 17.7981 31.5925 15.3031 29.854 13.5654C25.6773 9.3145 20.5838 7.47117 14.5747 8.03876C13.7615 8.11419 12.9482 8.27495 12.1358 8.52102L12.135 8.52094ZM14.6015 13.8484C15.4713 14.7177 15.9057 15.7664 15.9057 16.9942C15.9057 18.222 15.4712 19.2521 14.6015 20.0835C13.7516 20.9718 12.7208 21.4161 11.5118 21.4161C10.3016 21.4161 9.25348 20.9718 8.36522 20.0835C7.51488 19.2336 7.08948 18.204 7.08948 16.9942C7.08948 15.7852 7.51485 14.7363 8.36522 13.8484C9.27161 12.9791 10.321 12.5447 11.5118 12.5447C12.7018 12.5451 13.7323 12.98 14.6015 13.8484ZM11.5114 13.9626C10.6982 13.9626 9.98052 14.2552 9.35689 14.8406C8.79014 15.4452 8.50655 16.1637 8.50655 16.9951C8.50655 17.8075 8.79014 18.5065 9.35689 19.0923C9.96158 19.6969 10.6792 19.9999 11.5114 19.9999C12.3044 19.9999 13.0036 19.6969 13.609 19.0923C14.1947 18.5065 14.4878 17.8075 14.4878 16.9951C14.4878 16.1447 14.1947 15.4267 13.609 14.8406C12.9854 14.2548 12.2863 13.9626 11.5114 13.9626ZM5.13283 25.555C5.24618 28.1052 6.52274 29.7589 8.96003 30.5153C9.14841 30.5722 9.28154 30.6855 9.35697 30.8549C9.45095 31.0243 9.46991 31.2049 9.41385 31.3933C9.31946 31.7329 9.10224 31.9039 8.76136 31.9039L8.53425 31.8467C5.45402 30.9019 3.85718 28.8142 3.74386 25.5831C3.72489 25.3947 3.78095 25.234 3.91409 25.1017C4.06495 24.9504 4.2356 24.8746 4.42396 24.8746C4.61234 24.8556 4.77391 24.9117 4.9054 25.0448C5.05708 25.1952 5.13292 25.3651 5.13292 25.5551L5.13283 25.555ZM15.5653 35.701C15.6411 35.5126 15.7738 35.3893 15.9622 35.3333C16.1506 35.257 16.3311 35.2665 16.5009 35.3617C17.9559 36.0608 18.8438 36.996 19.1661 38.1675C19.5058 39.5471 19.0149 41.1344 17.6913 42.9291C16.0289 45.2341 15.414 46.9157 15.8488 47.9742C16.1707 48.7104 17.1056 49.1935 18.6559 49.4189C22.6243 49.986 26.5274 48.2099 30.3633 44.0905C33.2169 41.0292 35.0313 37.4493 35.8062 33.3486L31.7804 39.6407C31.6675 39.8101 31.5162 39.9144 31.327 39.9523C31.1374 39.9902 30.9581 39.9617 30.7883 39.8674L27.5003 37.7697C27.3671 37.6753 27.2641 37.5241 27.1883 37.3163C27.1693 37.1267 27.1981 36.9474 27.2732 36.7776L42.9787 12.3181C42.9408 12.0539 42.9214 11.6949 42.9214 11.2415C42.9214 9.95623 43.1671 8.91676 43.6589 8.12367C44.3773 6.93288 45.5677 6.10233 47.2309 5.6295C47.5141 5.49636 47.7791 4.81708 48.0244 3.58916C48.3644 1.7566 49.1299 0.839844 50.3211 0.839844C51.5679 0.839844 52.4851 1.49234 53.0709 2.79565C53.5053 3.77831 53.7233 5.01611 53.7233 6.50827C53.7233 9.00328 53.1459 10.9961 51.9938 12.4887C50.9728 13.849 49.4044 14.8406 47.2878 15.4647L45.9552 17.5334C45.8422 17.7036 45.691 17.8075 45.5018 17.845C45.3122 17.8829 45.1325 17.8545 44.963 17.7601C44.7928 17.6472 44.6889 17.4959 44.6514 17.3067C44.6135 17.1175 44.6407 16.9378 44.7363 16.768L45.8979 14.9828L43.8007 13.651L28.8612 36.9487L30.9597 38.2813L42.7515 19.8586C42.8645 19.6884 43.0157 19.5845 43.2053 19.5466C43.3945 19.5095 43.5742 19.5371 43.7437 19.6324C43.9139 19.7453 44.0178 19.8966 44.0553 20.0858C44.0936 20.275 44.066 20.4547 43.9708 20.6245L37.5641 30.6002C37.2237 36.2311 35.164 41.0582 31.3838 45.0839C27.6989 48.9951 23.9282 50.9506 20.0732 50.9506C19.7146 50.9506 19.1754 50.9127 18.4578 50.8372C16.3601 50.5165 15.056 49.7511 14.5461 48.5413C13.9039 46.9919 14.5746 44.8477 16.558 42.1075C17.6169 40.6149 18.0229 39.4146 17.7773 38.5079C17.6078 37.7898 16.983 37.1666 15.9064 36.6377C15.718 36.5615 15.5948 36.4296 15.5375 36.2408C15.4616 36.0524 15.4711 35.8727 15.5659 35.7021L15.5653 35.701ZM49.4129 3.84451C49.0547 5.67749 48.4673 6.71623 47.6553 6.9623C46.3132 7.39675 45.3875 8.01993 44.8768 8.83243C44.5182 9.43711 44.3385 10.2405 44.3385 11.2417L44.4234 12.3756L47.0605 14.0479C48.7612 13.5372 50.0369 12.7247 50.8877 11.6098C51.832 10.4009 52.3049 8.70021 52.3049 6.50772C52.3049 5.16646 52.1342 4.1273 51.7942 3.39077C51.4356 2.63482 50.9438 2.25686 50.3206 2.25686C49.9232 2.25686 49.6207 2.78651 49.4129 3.84461L49.4129 3.84451ZM30.3623 22.0119C30.1739 21.8223 29.9369 21.7283 29.6538 21.7283C29.3512 21.7283 29.1056 21.8223 28.9168 22.0119C28.7276 22.2002 28.6336 22.4368 28.6336 22.7196C28.6336 23.0221 28.7276 23.2583 28.9168 23.4281C29.1431 23.6738 29.3887 23.7962 29.6538 23.7962C29.9184 23.7962 30.1447 23.6841 30.3339 23.4566L30.3908 23.4281C30.5791 23.2389 30.6739 23.0032 30.6739 22.7196C30.6739 22.4554 30.5701 22.2287 30.3623 22.0399L30.3623 22.0119ZM29.6533 20.3112C30.3153 20.3112 30.8817 20.5466 31.3544 21.0197C31.8453 21.4917 32.0914 22.0585 32.0914 22.7196C32.0914 23.438 31.8458 24.0139 31.3544 24.4487C30.8816 24.9594 30.3149 25.2141 29.6533 25.2141C28.9922 25.2141 28.4061 24.9594 27.8954 24.4487C27.4416 24.0332 27.2153 23.4566 27.2153 22.7196C27.2153 22.0584 27.451 21.4916 27.9242 21.0197C28.3966 20.5465 28.9732 20.3112 29.6533 20.3112ZM26.0813 16.6262C26.0813 17.5706 25.7313 18.3735 25.0323 19.0355C24.409 19.7152 23.6151 20.0552 22.6511 20.0552C21.6878 20.0552 20.8659 19.7156 20.1854 19.0355C19.5235 18.3554 19.1929 17.5516 19.1929 16.6262C19.1929 15.7005 19.5144 14.8884 20.1574 14.1885C20.8375 13.5274 21.6697 13.1964 22.6516 13.1964C23.6342 13.1964 24.4285 13.5274 25.0327 14.1885C25.7322 14.8884 26.0813 15.7004 26.0813 16.6262ZM22.651 14.6144C22.0472 14.6144 21.5554 14.8028 21.1775 15.1811C20.7991 15.5966 20.6107 16.0789 20.6107 16.6267C20.6107 17.1563 20.7991 17.6279 21.1775 18.043C21.6119 18.4399 22.1032 18.6386 22.651 18.6386C23.2182 18.6386 23.6729 18.4399 24.0125 18.043C24.4469 17.6646 24.665 17.193 24.665 16.6267C24.665 16.116 24.4564 15.6345 24.0409 15.1811C23.6621 14.8028 23.1993 14.6144 22.651 14.6144ZM23.8418 38.5632C24.8435 38.5632 25.6464 38.8933 26.2515 39.5553C26.9316 40.235 27.2721 41.0475 27.2721 41.993C27.2721 42.9567 26.9324 43.7592 26.2515 44.4014C25.6274 45.0815 24.8245 45.422 23.8418 45.422C22.8963 45.422 22.0839 45.0823 21.4041 44.4014C20.7611 43.7403 20.4396 42.9365 20.4396 41.993C20.4396 41.0475 20.7512 40.2351 21.3749 39.5553C22.0558 38.8937 22.8785 38.5632 23.8418 38.5632ZM25.2598 40.5475C24.881 40.1691 24.4095 39.9807 23.8423 39.9807C23.2565 39.9807 22.7739 40.1691 22.3967 40.5475C22.0373 40.925 21.858 41.4073 21.858 41.993C21.858 42.5598 22.0472 43.0317 22.4252 43.4093C22.8221 43.8062 23.2945 44.0049 23.8423 44.0049C24.428 44.0049 24.8905 43.8062 25.2322 43.4093C25.6469 43.0507 25.8554 42.5779 25.8554 41.993C25.855 41.4633 25.6572 40.9819 25.2598 40.5475Z" fill="#21242C" fill-opacity="0.76"/>
</svg>
