<svg width="8" height="7" viewBox="0 0 8 7" fill="none" xmlns="http://www.w3.org/2000/svg">
<path fill-rule="evenodd" clip-rule="evenodd" d="M4.04638 5.87131C3.95679 5.78535 3.90784 5.67008 3.91028 5.55082C3.91271 5.43157 3.96634 5.31808 4.05938 5.23531L6.61908 3.00931L4.05938 0.783306C4.01106 0.742844 3.97203 0.69384 3.9446 0.639197C3.91716 0.584555 3.9019 0.525386 3.89969 0.465196C3.89749 0.405006 3.9084 0.345021 3.93177 0.288793C3.95514 0.232566 3.9905 0.181242 4.03576 0.137861C4.08101 0.0944807 4.13524 0.0599265 4.19523 0.0362464C4.25522 0.0125662 4.31974 0.00024179 4.38499 3.52223e-06C4.45023 -0.000234745 4.51486 0.0116178 4.57505 0.0348591C4.63524 0.0581003 4.68976 0.0922574 4.73538 0.135306L7.66038 2.68531C7.70757 2.72728 7.74509 2.77761 7.77073 2.83328C7.79636 2.88895 7.80957 2.94882 7.80957 3.00931C7.80957 3.0698 7.79636 3.12966 7.77073 3.18533C7.74509 3.241 7.70757 3.29133 7.66038 3.33331L4.73538 5.88331C4.64227 5.966 4.51739 6.01119 4.38819 6.00894C4.259 6.00669 4.13606 5.95719 4.04638 5.87131Z" fill="#2CBB7F"/>
<path fill-rule="evenodd" clip-rule="evenodd" d="M0.14697 5.87131C0.0573799 5.78535 0.00842485 5.67008 0.0108625 5.55082C0.0133001 5.43157 0.066931 5.31808 0.159969 5.23531L2.71967 3.00931L0.159969 0.783306C0.111645 0.742844 0.0726116 0.69384 0.0451811 0.639197C0.0177505 0.584555 0.00248121 0.525386 0.00027805 0.465196C-0.00192511 0.405006 0.00898258 0.345021 0.0323549 0.288793C0.0557273 0.232566 0.0910889 0.181242 0.136344 0.137861C0.181599 0.0944807 0.235827 0.0599265 0.295815 0.0362464C0.355802 0.0125662 0.420329 0.00024179 0.485571 3.52223e-06C0.550814 -0.000234745 0.615444 0.0116178 0.675633 0.0348591C0.735821 0.0581003 0.790344 0.0922574 0.835969 0.135306L3.76097 2.68531C3.80815 2.72728 3.84568 2.77761 3.87131 2.83328C3.89695 2.88895 3.91016 2.94882 3.91016 3.00931C3.91016 3.0698 3.89695 3.12966 3.87131 3.18533C3.84568 3.241 3.80815 3.29133 3.76097 3.33331L0.835969 5.88331C0.742851 5.966 0.617974 6.01119 0.488779 6.00894C0.359584 6.00669 0.236642 5.95719 0.14697 5.87131Z" fill="#2CBB7F"/>
</svg>
