<svg width="52" height="51" viewBox="0 0 52 51" fill="none" xmlns="http://www.w3.org/2000/svg">
<path d="M42.168 13.8146C41.7588 13.5691 41.2678 13.7327 41.0222 14.142C40.7767 14.5512 40.9404 15.0422 41.3496 15.2878C46.342 18.0704 49.3702 23.2265 49.3702 28.8737V44.3425C49.3702 47.1252 47.1605 49.3349 44.3778 49.3349C42.4954 49.3349 40.7767 48.271 39.9583 46.5523C39.7946 46.1431 39.3035 45.9794 38.8943 46.1431C38.4851 46.3067 38.3214 46.7978 38.4851 47.207C39.549 49.4986 41.9225 50.9718 44.3778 50.9718C48.0607 50.9718 51.0071 48.0255 51.0071 44.3425V28.8737C51.0071 22.6536 47.5697 16.9246 42.168 13.8146Z" fill="#21242C" fill-opacity="0.76"/>
<path d="M36.9294 13.6483C37.5023 13.7301 37.9934 13.8938 38.5663 14.0575H38.8118C39.1392 14.0575 39.4666 13.812 39.6302 13.4846C39.7939 13.0754 39.5484 12.5843 39.1392 12.4206C38.5663 12.2569 37.9115 12.0933 37.3386 11.9296C36.9294 11.8477 36.4384 12.0933 36.3565 12.5843C36.1928 13.0754 36.5202 13.5664 36.9294 13.6483Z" fill="#21242C" fill-opacity="0.76"/>
<path d="M1.57238 24.78H1.81791C2.14528 24.78 2.47265 24.5344 2.63634 24.2071C4.68242 17.8233 10.7388 13.3215 17.4504 13.3215H33.819C34.3101 13.3215 34.6374 12.9941 34.6374 12.503C34.6374 12.012 34.3101 11.6846 33.819 11.6846H28.1718V10.1296C28.1718 9.2293 27.4353 8.49271 26.535 8.41087V7.67428C26.535 7.18322 26.9442 6.77401 27.4353 6.77401H30.5453C31.9366 6.77401 33.0824 5.62821 33.0824 4.23687V1.04499C33.0824 0.553935 32.7551 0.226562 32.264 0.226562C31.7729 0.226562 31.4456 0.553935 31.4456 1.04499V4.23687C31.4456 4.72793 31.0364 5.13715 30.5453 5.13715H27.4353C26.0439 5.13715 24.8981 6.28295 24.8981 7.67428V8.41087C23.9978 8.49271 23.2613 9.2293 23.2613 10.1296V11.6846H17.4504C9.92084 11.6846 3.37339 16.5133 1.08179 23.7151C0.918103 24.1243 1.16363 24.6153 1.57285 24.779L1.57238 24.78ZM24.8981 10.1305L24.98 10.0487H26.3713C26.4531 10.0487 26.535 10.1305 26.535 10.1305V11.6855H24.8981V10.1305Z" fill="#21242C" fill-opacity="0.76"/>
<path d="M19.1675 34.5984H18.7583C17.6125 34.5984 16.6303 35.2531 16.2211 36.2352L11.6379 46.1387C10.9832 48.1029 9.10077 49.3306 6.97285 49.3306C4.19019 49.3306 1.89858 47.1208 1.89858 44.3382V28.8694C1.89858 28.3783 1.89858 27.8054 1.98042 27.3143C2.06227 26.9051 1.73489 26.4959 1.24384 26.4141C0.83462 26.4141 0.425405 26.6596 0.343562 27.1507C0.261719 27.7236 0.261719 28.2965 0.261719 28.8694V44.3382C0.261719 48.0211 3.28991 50.9675 6.97285 50.9675C9.75552 50.9675 12.2108 49.2487 13.1111 46.7116L17.6943 36.8904C17.858 36.4812 18.2672 36.2357 18.7583 36.2357H19.1675C19.6585 36.2357 19.9859 35.9083 19.9859 35.4173C19.9859 34.9262 19.6585 34.5988 19.1675 34.5988V34.5984Z" fill="#21242C" fill-opacity="0.76"/>
<path d="M38.4029 43.2769L35.0473 36.2384C34.5562 35.2563 33.5741 34.6016 32.5101 34.6016H22.4439C21.9529 34.6016 21.6255 34.9289 21.6255 35.42C21.6255 35.9111 21.9529 36.2384 22.4439 36.2384H32.5101C33.0012 36.2384 33.3286 36.484 33.5741 36.8932L36.9297 43.9317C37.0934 44.259 37.3389 44.4227 37.6663 44.4227C37.7481 44.4227 37.9118 44.4227 37.9936 44.3409C38.4029 44.1772 38.5665 43.6861 38.4029 43.2769Z" fill="#21242C" fill-opacity="0.76"/>
<path d="M37.1731 21.5043C38.5644 21.5043 39.6284 20.4404 39.6284 19.049C39.6284 17.6577 38.5644 16.5938 37.1731 16.5938C35.7817 16.5938 34.7178 17.6577 34.7178 19.049C34.7178 20.4404 35.7817 21.5043 37.1731 21.5043ZM37.1731 18.2306C37.6641 18.2306 37.9915 18.558 37.9915 19.049C37.9915 19.5401 37.6641 19.8675 37.1731 19.8675C36.682 19.8675 36.3546 19.5401 36.3546 19.049C36.3546 18.558 36.682 18.2306 37.1731 18.2306Z" fill="#21242C" fill-opacity="0.76"/>
<path d="M42.084 23.1447C42.575 23.1447 42.9024 22.8173 42.9024 22.3262C42.9024 21.8352 42.575 21.5078 42.084 21.5078C40.6926 21.5078 39.6287 22.5718 39.6287 23.9631C39.6287 25.3544 40.6926 26.4184 42.084 26.4184C43.4753 26.4184 44.5392 25.3544 44.5392 23.9631C44.5392 23.472 44.2119 23.1447 43.7208 23.1447C43.2298 23.1447 42.9024 23.472 42.9024 23.9631C42.9024 24.4542 42.575 24.7815 42.084 24.7815C41.5929 24.7815 41.2655 24.4542 41.2655 23.9631C41.2655 23.472 41.5929 23.1447 42.084 23.1447Z" fill="#21242C" fill-opacity="0.76"/>
<path d="M32.2622 21.5078C30.8708 21.5078 29.8069 22.5718 29.8069 23.9631C29.8069 25.3544 30.8708 26.4184 32.2622 26.4184C33.6535 26.4184 34.7175 25.3544 34.7175 23.9631C34.7175 22.5718 33.6535 21.5078 32.2622 21.5078ZM32.2622 24.7815C31.7711 24.7815 31.4437 24.4542 31.4437 23.9631C31.4437 23.472 31.7711 23.1447 32.2622 23.1447C32.7532 23.1447 33.0806 23.472 33.0806 23.9631C33.0806 24.4542 32.7532 24.7815 32.2622 24.7815Z" fill="#21242C" fill-opacity="0.76"/>
<path d="M37.1731 29.6878C36.682 29.6878 36.3546 30.0152 36.3546 30.5062C36.3546 30.9973 36.682 31.3246 37.1731 31.3246C38.5644 31.3246 39.6284 30.2607 39.6284 28.8694C39.6284 27.478 38.5644 26.4141 37.1731 26.4141C35.7817 26.4141 34.7178 27.478 34.7178 28.8694C34.7178 29.3604 35.0451 29.6878 35.5362 29.6878C36.0273 29.6878 36.3546 29.3604 36.3546 28.8694C36.3546 28.3783 36.682 28.0509 37.1731 28.0509C37.6641 28.0509 37.9915 28.3783 37.9915 28.8694C37.9915 29.3604 37.6641 29.6878 37.1731 29.6878Z" fill="#21242C" fill-opacity="0.76"/>
<path d="M21.6215 22.3262C21.6215 21.8352 21.2941 21.5078 20.8031 21.5078H19.1662C18.9207 21.5078 18.757 21.5897 18.5933 21.7533L16.9565 23.3902C16.6291 23.7176 16.6291 24.2086 16.9565 24.536L18.5933 26.1729C18.757 26.3366 18.9207 26.4184 19.1662 26.4184H20.8031C21.2941 26.4184 21.6215 26.091 21.6215 25.6V22.3262ZM19.9847 24.7815H19.4936L18.6752 23.9631L19.4936 23.1447H19.9847V24.7815Z" fill="#21242C" fill-opacity="0.76"/>
<path d="M9.91735 26.1729L11.5542 24.536C11.8816 24.2086 11.8816 23.7176 11.5542 23.3902C11.2268 23.0628 10.7358 23.0628 10.4084 23.3902L9.01708 24.7815H8.52602V23.1447H9.34445C9.83551 23.1447 10.1629 22.8173 10.1629 22.3262C10.1629 21.8352 9.83551 21.5078 9.34445 21.5078H7.70759C7.21653 21.5078 6.88916 21.8352 6.88916 22.3262V25.6C6.88916 26.091 7.21653 26.4184 7.70759 26.4184H9.34445C9.58998 26.4184 9.75367 26.3366 9.91735 26.1729Z" fill="#21242C" fill-opacity="0.76"/>
<path d="M12.6185 31.3246H15.8922C16.3833 31.3246 16.7106 30.9973 16.7106 30.5062V28.8694C16.7106 28.3783 16.3833 28.0509 15.8922 28.0509C15.4011 28.0509 15.0738 28.3783 15.0738 28.8694V29.6878H13.4369V29.1967L14.8282 27.8054C15.1556 27.478 15.1556 26.987 14.8282 26.6596C14.5009 26.3322 14.0098 26.3322 13.6824 26.6596L12.0456 28.2965C11.8819 28.4601 11.8 28.6238 11.8 28.8694V30.5062C11.8 30.9973 12.1274 31.3246 12.6185 31.3246Z" fill="#21242C" fill-opacity="0.76"/>
<path d="M16.7106 17.4122C16.7106 16.9211 16.3833 16.5938 15.8922 16.5938H12.6185C12.1274 16.5938 11.8 16.9211 11.8 17.4122V19.049C11.8 19.2946 11.8819 19.4583 12.0456 19.6219L13.6824 21.2588C13.8461 21.4225 14.0917 21.5043 14.2553 21.5043C14.419 21.5043 14.6646 21.4225 14.8282 21.2588L16.4651 19.6219C16.6288 19.4583 16.7106 19.2946 16.7106 19.049V17.4122ZM15.0738 18.7217L14.2553 19.5401L13.4369 18.7217V18.2306H15.0738V18.7217Z" fill="#21242C" fill-opacity="0.76"/>
<path d="M27.3511 29.6914C26.8601 29.6914 26.5327 30.0188 26.5327 30.5098C26.5327 31.0009 26.8601 31.3283 27.3511 31.3283H28.988C29.4791 31.3283 29.8064 31.0009 29.8064 30.5098C29.8064 30.0188 29.4791 29.6914 28.988 29.6914H27.3511Z" fill="#21242C" fill-opacity="0.76"/>
<path d="M22.4403 29.6914C21.9492 29.6914 21.6218 30.0188 21.6218 30.5098C21.6218 31.0009 21.9492 31.3283 22.4403 31.3283H24.0771C24.5682 31.3283 24.8955 31.0009 24.8955 30.5098C24.8955 30.0188 24.5682 29.6914 24.0771 29.6914H22.4403Z" fill="#21242C" fill-opacity="0.76"/>
<path d="M5.2521 43.6036C5.2521 43.1125 4.92472 42.7852 4.43367 42.7852C3.94261 42.7852 3.61523 43.1125 3.61523 43.6036C3.61523 45.8952 5.41578 47.6957 7.70739 47.6957C8.19845 47.6957 8.52582 47.3684 8.52582 46.8773C8.52582 46.3863 8.19845 46.0589 7.70739 46.0589C6.31606 46.0589 5.2521 44.9949 5.2521 43.6036Z" fill="#21242C" fill-opacity="0.76"/>
<path d="M46.9947 39.5084C47.4858 39.5084 47.8131 39.181 47.8131 38.69V33.7794C47.8131 33.2883 47.4858 32.9609 46.9947 32.9609C46.5036 32.9609 46.1763 33.2883 46.1763 33.7794V38.69C46.1763 39.181 46.5036 39.5084 46.9947 39.5084Z" fill="#21242C" fill-opacity="0.76"/>
<path d="M46.1763 43.6037C46.1763 44.0948 46.5036 44.4222 46.9947 44.4222C47.4858 44.4222 47.8131 44.0948 47.8131 43.6037V41.9669C47.8131 41.4758 47.4858 41.1484 46.9947 41.1484C46.5036 41.1484 46.1763 41.4758 46.1763 41.9669V43.6037Z" fill="#21242C" fill-opacity="0.76"/>
</svg>
