<svg width="52" height="52" viewBox="0 0 52 52" fill="none" xmlns="http://www.w3.org/2000/svg">
<g clip-path="url(#clip0_75_971)">
<path d="M17.989 16.3958C17.846 16.0907 17.6442 15.8168 17.3953 15.5897C17.1464 15.3625 16.8552 15.1866 16.5383 15.072C16.2215 14.9575 15.8851 14.9064 15.5485 14.9218C15.2119 14.9372 14.8816 15.0187 14.5765 15.1618C14.2714 15.3048 13.9975 15.5065 13.7703 15.7554C13.5432 16.0044 13.3673 16.2956 13.2527 16.6124C13.1381 16.9293 13.0871 17.2657 13.1025 17.6023C13.1179 17.9389 13.1994 18.2692 13.3425 18.5743L15.4172 22.9995M17.989 16.3958L16.9517 14.1832C16.6628 13.567 16.6305 12.8613 16.8619 12.2214C17.0934 11.5814 17.5695 11.0596 18.1857 10.7707C18.8019 10.4818 19.5076 10.4495 20.1475 10.681C20.7875 10.9124 21.3093 11.3886 21.5982 12.0047L22.6356 14.2174M17.989 16.3958L22.1972 25.0839M15.4172 22.9995C15.1283 22.3834 14.6065 21.9072 13.9665 21.6758C13.3265 21.4443 12.6208 21.4766 12.0047 21.7655C11.3885 22.0544 10.9123 22.5762 10.6809 23.2162C10.4495 23.8561 10.4817 24.5618 10.7706 25.178L16.4242 37.2369C17.6623 39.8776 19.8986 41.9184 22.6414 42.9102C25.3841 43.9021 28.4085 43.7637 31.0492 42.5257L34.0259 41.1301C36.0796 40.167 37.6666 38.4275 38.4379 36.2943L39.7949 32.5416C40.5665 30.4086 40.4591 28.0564 39.4965 26.0024L38.1012 23.0148C37.9802 22.753 37.9681 22.4538 38.0675 22.1831C38.1822 21.8661 38.2332 21.5297 38.2178 21.193C38.2024 20.8563 38.1209 20.5259 37.9778 20.2207C37.8347 19.9155 37.6329 19.6415 37.3839 19.4143C37.135 19.1871 36.8437 19.0112 36.5267 18.8966C36.2097 18.7819 35.8733 18.7309 35.5366 18.7463C35.1999 18.7617 34.8695 18.8432 34.5643 18.9863C34.2592 19.1294 33.9852 19.3312 33.758 19.5802C33.5308 19.8291 33.3548 20.1204 33.2402 20.4374C32.6805 21.982 32.7546 23.6853 33.4463 25.1755M15.4172 22.9995L18.4774 29.5268M22.6356 14.2174L27.2518 24.0636M22.6356 14.2174C22.3467 13.6012 22.3144 12.8955 22.5458 12.2555C22.7773 11.6156 23.2534 11.0938 23.8696 10.8049C24.4858 10.516 25.1915 10.4837 25.8314 10.7152C26.4714 10.9466 26.9932 11.4228 27.2821 12.0389L34.4917 27.4168M34.4917 27.4168C33.6202 27.8249 32.8378 28.4009 32.1892 29.1119C31.5407 29.8229 31.0388 30.6549 30.7124 31.5602M34.4917 27.4168L34.4947 27.4154" stroke="#35A770" stroke-width="1.5" stroke-linecap="round" stroke-linejoin="round"/>
</g>
<path d="M29.0527 2.23633C34.2828 2.83861 36.285 4.54095 38.5507 9.49951" stroke="#35A770" stroke-linecap="round"/>
<path d="M29.0527 5.58789C32.7445 5.95853 34.1578 7.00612 35.7572 10.0575" stroke="#35A770" stroke-linecap="round"/>
<path d="M8.74707 38.3262C4.16504 35.7337 2.9844 33.3857 2.82974 27.9362" stroke="#35A770" stroke-linecap="round"/>
<path d="M10.0537 35.2383C6.7981 33.4585 5.90468 31.943 5.62066 28.5095" stroke="#35A770" stroke-linecap="round"/>
<defs>
<clipPath id="clip0_75_971">
<rect width="39.0999" height="39.0999" fill="white" transform="translate(0 16.5977) rotate(-25.1186)"/>
</clipPath>
</defs>
</svg>
