<svg width="20" height="17" viewBox="0 0 20 17" fill="none" xmlns="http://www.w3.org/2000/svg">
<path d="M9.1836 16.6975L9.1776 16.6939L9.1548 16.6819C8.68127 16.4242 8.21622 16.1513 7.7604 15.8635C6.67364 15.1797 5.6381 14.4177 4.662 13.5835C2.454 11.6791 0 8.82189 0 5.39949C0.000105982 4.28284 0.346379 3.19369 0.99114 2.28199C1.6359 1.3703 2.54744 0.680912 3.60024 0.308746C4.65304 -0.0634194 5.79533 -0.100055 6.86982 0.203883C7.9443 0.507821 8.89814 1.13738 9.6 2.00589C10.3019 1.13738 11.2557 0.507821 12.3302 0.203883C13.4047 -0.100055 14.547 -0.0634194 15.5998 0.308746C16.6526 0.680912 17.5641 1.3703 18.2089 2.28199C18.8536 3.19369 19.1999 4.28284 19.2 5.39949C19.2 8.82189 16.7472 11.6791 14.538 13.5835C13.1512 14.7684 11.6456 15.8067 10.0452 16.6819L10.0224 16.6939L10.0164 16.6975H10.014C9.8865 16.765 9.74444 16.8004 9.60015 16.8007C9.45586 16.8009 9.3137 16.7659 9.186 16.6987L9.1836 16.6975Z" fill="#2CBB7F"/>
</svg>
