<svg width="24" height="24" viewBox="0 0 24 24" fill="none" xmlns="http://www.w3.org/2000/svg">
<path d="M4.25959 10.1462C3.98453 12.2518 3.82064 14.3704 3.76859 16.4932C6.64737 17.6957 9.40374 19.1725 11.9996 20.9032C14.5957 19.1725 17.3525 17.6957 20.2316 16.4932C20.1795 14.3704 20.0156 12.2518 19.7406 10.1462M19.7406 10.1462C20.6156 9.85219 21.5026 9.58019 22.3986 9.33219C19.1352 7.04443 15.6516 5.08807 11.9996 3.49219C8.34758 5.08841 4.86398 7.0451 1.60059 9.33319C2.49387 9.57978 3.3802 9.85089 4.25859 10.1462C6.92724 11.0433 9.51653 12.1612 11.9996 13.4882C14.4823 12.1612 17.0723 11.0434 19.7406 10.1462ZM6.74959 14.9992C6.9485 14.9992 7.13926 14.9202 7.27992 14.7795C7.42057 14.6389 7.49959 14.4481 7.49959 14.2492C7.49959 14.0503 7.42057 13.8595 7.27992 13.7189C7.13926 13.5782 6.9485 13.4992 6.74959 13.4992C6.55067 13.4992 6.35991 13.5782 6.21926 13.7189C6.0786 13.8595 5.99959 14.0503 5.99959 14.2492C5.99959 14.4481 6.0786 14.6389 6.21926 14.7795C6.35991 14.9202 6.55067 14.9992 6.74959 14.9992ZM6.74959 14.9992V11.3242C8.44632 10.2695 10.1989 9.30745 11.9996 8.44219M4.99259 19.9922C5.55056 19.4356 5.99302 18.7742 6.29455 18.046C6.59608 17.3179 6.75072 16.5373 6.74959 15.7492V14.2492" stroke="#2CBB7F" stroke-width="1.5" stroke-linecap="round" stroke-linejoin="round"/>
</svg>
