<svg width="20" height="20" viewBox="0 0 20 20" fill="none" xmlns="http://www.w3.org/2000/svg">
<path fill-rule="evenodd" clip-rule="evenodd" d="M9.75 0C4.365 0 0 4.365 0 9.75C0 15.135 4.365 19.5 9.75 19.5C15.135 19.5 19.5 15.135 19.5 9.75C19.5 4.365 15.135 0 9.75 0ZM5.47 9.22C5.32955 9.36063 5.25066 9.55125 5.25066 9.75C5.25066 9.94875 5.32955 10.1394 5.47 10.28L8.47 13.28C8.53866 13.3537 8.62146 13.4128 8.71346 13.4538C8.80546 13.4948 8.90478 13.5168 9.00548 13.5186C9.10618 13.5204 9.20621 13.5018 9.2996 13.4641C9.39299 13.4264 9.47782 13.3703 9.54904 13.299C9.62026 13.2278 9.6764 13.143 9.71412 13.0496C9.75184 12.9562 9.77037 12.8562 9.76859 12.7555C9.76682 12.6548 9.74477 12.5555 9.70378 12.4635C9.66279 12.3715 9.60369 12.2887 9.53 12.22L7.81 10.5H13.5C13.6989 10.5 13.8897 10.421 14.0303 10.2803C14.171 10.1397 14.25 9.94891 14.25 9.75C14.25 9.55109 14.171 9.36032 14.0303 9.21967C13.8897 9.07902 13.6989 9 13.5 9H7.81L9.53 7.28C9.66248 7.13782 9.7346 6.94978 9.73118 6.75548C9.72775 6.56118 9.64903 6.37579 9.51162 6.23838C9.37421 6.10097 9.18882 6.02225 8.99452 6.01882C8.80022 6.0154 8.61218 6.08752 8.47 6.22L5.47 9.22Z" fill="#1DBC7B"/>
</svg>
