<svg width="37" height="45" viewBox="0 0 37 45" fill="none" xmlns="http://www.w3.org/2000/svg">
<path d="M33.7364 0.335938H4.82547C3.58187 0.335938 2.38963 0.829875 1.5102 1.70893C0.631144 2.58833 0.137207 3.7806 0.137207 5.0242V40.1861C0.177671 41.2407 0.626965 42.2376 1.38946 42.967C2.15235 43.6961 3.1685 44.1001 4.22367 44.093H18.8903C19.3218 44.093 19.6717 43.7432 19.6717 43.3117C19.6717 42.8802 19.3218 42.5303 18.8903 42.5303H4.22367C3.58183 42.5414 2.96025 42.3035 2.48964 41.8665C2.01907 41.4294 1.73617 40.8273 1.69989 40.1862V39.9751C1.71105 39.8161 1.73966 39.6591 1.7857 39.5063C1.81291 39.4268 1.8443 39.3483 1.87954 39.2719C1.87954 39.2095 1.9343 39.147 1.95768 39.0923C2.07069 38.892 2.20709 38.7058 2.36406 38.5376C2.80778 38.089 3.41334 37.8386 4.04398 37.8421H33.7363C33.8835 37.8424 34.03 37.8267 34.1737 37.7953H34.3143L34.5173 37.7405L34.5177 38.6234C34.5177 38.8306 34.4353 39.0295 34.2888 39.176C34.1423 39.3225 33.9435 39.4048 33.7363 39.4048H4.04397C3.61247 39.4048 3.26259 39.7547 3.26259 40.1862C3.26259 40.6177 3.61247 40.9676 4.04397 40.9676H33.7363C34.0028 40.9655 34.2672 40.918 34.5177 40.827V41.7489C34.5177 41.9561 34.4353 42.155 34.2888 42.3015C34.1423 42.448 33.9435 42.5303 33.7363 42.5303H25.9225C25.491 42.5303 25.1411 42.8802 25.1411 43.3117C25.1411 43.7432 25.491 44.093 25.9225 44.093H33.7363C34.3579 44.093 34.9544 43.8461 35.3939 43.4066C35.8333 42.967 36.0804 42.3705 36.0804 41.749V2.68013C36.0804 2.05852 35.8334 1.46198 35.3939 1.02254C34.9543 0.583092 34.3578 0.336043 33.7363 0.336043L33.7364 0.335938ZM3.3404 36.3498L3.12169 36.4046V36.4042C2.96472 36.4405 2.81088 36.4876 2.66054 36.5452C2.5824 36.5452 2.50426 36.6076 2.42612 36.639V36.6386C2.28659 36.7039 2.1509 36.7771 2.01974 36.8577L1.80869 36.9906L1.69951 37.0607V5.02428C1.69951 4.19547 2.0288 3.40045 2.61483 2.8141C3.20121 2.22807 3.99622 1.89877 4.82501 1.89877V36.2793H4.04364C3.80748 36.2786 3.57167 36.3024 3.3404 36.3498ZM6.38777 36.2794V1.89877H33.736C33.9432 1.89877 34.142 1.9811 34.2885 2.12761C34.435 2.27411 34.5173 2.47295 34.5173 2.68015V35.498C34.5173 35.7052 34.435 35.904 34.2885 36.0505C34.142 36.197 33.9432 36.2794 33.736 36.2794H6.38777Z" fill="#21242C" fill-opacity="0.76"/>
<path d="M29.0478 8.15234H11.8575C11.426 8.15234 11.0762 8.50222 11.0762 8.93372V14.4034C11.0762 14.6106 11.1585 14.8094 11.305 14.9559C11.4515 15.1024 11.6503 15.1847 11.8575 15.1847H29.0478C29.255 15.1847 29.4539 15.1024 29.6004 14.9559C29.7469 14.8094 29.8292 14.6106 29.8292 14.4034V8.93372C29.8292 8.72652 29.7469 8.52768 29.6004 8.38118C29.4539 8.23467 29.255 8.15234 29.0478 8.15234ZM28.2665 13.622H12.6389V9.7151H28.2665V13.622Z" fill="#21242C" fill-opacity="0.76"/>
<path d="M27.4858 26.9023H13.421C12.9895 26.9023 12.6396 27.2522 12.6396 27.6837C12.6396 28.1152 12.9895 28.4651 13.421 28.4651H27.4858C27.9173 28.4651 28.2672 28.1152 28.2672 27.6837C28.2672 27.2522 27.9173 26.9023 27.4858 26.9023Z" fill="#21242C" fill-opacity="0.76"/>
<path d="M27.4858 30.8086H13.421C12.9895 30.8086 12.6396 31.1585 12.6396 31.59C12.6396 32.0215 12.9895 32.3713 13.421 32.3713H27.4858C27.9173 32.3713 28.2672 32.0215 28.2672 31.59C28.2672 31.1585 27.9173 30.8086 27.4858 30.8086Z" fill="#21242C" fill-opacity="0.76"/>
<path d="M22.7957 42.5312H22.0143C21.5828 42.5312 21.2329 42.8811 21.2329 43.3126C21.2329 43.7441 21.5828 44.094 22.0143 44.094H22.7957C23.2272 44.094 23.577 43.7441 23.577 43.3126C23.577 42.8811 23.2272 42.5312 22.7957 42.5312Z" fill="#21242C" fill-opacity="0.76"/>
</svg>
