<svg width="80" height="84" viewBox="0 0 80 84" fill="none" xmlns="http://www.w3.org/2000/svg">
<g clip-path="url(#clip0_162_3148)">
<path d="M8.80217 4.75105C8.80217 4.75105 5.18043 3.18245 3.92157 4.35895C3.54751 4.70855 3.02524 6.06174 3.02524 6.06174C2.84749 6.13854 2.64011 6.25634 2.34386 6.54814C2.31423 6.56354 2.40311 6.58395 2.46236 6.60445C2.49198 6.61475 2.52161 6.62495 2.55123 6.63515C2.58086 6.63005 2.58086 6.61985 2.61048 6.61475C2.66974 6.59425 2.69936 6.57375 2.69936 6.55325C2.64011 6.44065 2.72899 6.34335 3.02524 6.26655V6.64034C2.96599 6.74784 2.87711 6.85535 2.72899 6.95775C2.66973 6.99865 2.64011 7.03454 2.58086 7.07034C2.43273 7.17274 2.28461 7.27005 2.25498 7.38775C2.22536 7.48505 2.16611 7.58235 2.10685 7.67455C2.01798 7.80765 1.9291 7.93564 1.95873 8.06364C1.98835 8.37594 1.89948 8.68315 1.78098 8.99035C1.6921 9.25655 1.60322 9.51764 1.60322 9.78384C1.60322 10.0398 1.54397 10.2958 1.51435 10.5518C1.48472 10.731 1.4551 10.9102 1.42547 11.0894C1.42547 11.1047 1.39585 11.3505 1.36622 11.7089C1.27735 12.7431 1.09959 14.7245 1.09959 14.8627C1.12922 15.0931 1.51435 17.3407 1.54397 17.3765C1.60322 17.5557 1.66248 17.74 1.72173 17.9192C1.78098 18.1035 1.84023 18.2879 1.89948 18.4773V18.4875C1.9291 18.5694 1.95873 18.6667 1.84023 18.7179C1.48472 18.8562 1.66248 18.9585 1.95873 19.0712C1.63285 19.1121 1.63285 19.1992 1.60322 19.2811C1.60322 19.2862 1.60322 19.2913 1.60322 19.3016C1.60322 19.4142 1.5736 19.4859 1.5736 19.5371C1.5736 19.619 1.5736 19.6344 1.54397 19.6497C1.54397 19.6549 1.54397 19.6548 1.54397 19.66C1.54397 19.6651 1.51435 19.6753 1.51435 19.6907C1.48472 19.6856 1.48472 19.6753 1.4551 19.6702C1.39585 19.6548 1.36622 19.6344 1.36622 19.619C1.3366 19.5576 1.3366 19.5013 1.30697 19.4398C1.2181 19.1889 1.12922 18.9381 1.09959 18.6872C1.06997 18.549 1.06997 18.4056 1.09959 18.2674C1.09959 18.1291 1.09959 17.9858 1.09959 17.8475C1.09959 17.8373 0.773719 15.9635 0.744094 15.9532C0.240463 15.3491 0.447841 14.7245 0.655218 14.1254C0.744094 13.8285 0.862595 13.5315 0.862595 13.2499C0.89222 12.8762 0.862595 12.5025 0.832969 12.1287C0.803344 11.9444 0.803344 11.755 0.803344 11.5706C0.803344 11.5348 0.773719 11.4938 0.744094 11.4426C0.684843 11.3607 0.655218 11.2583 0.655218 11.1662C0.714468 10.8744 0.803344 10.7412 0.89222 10.6235C0.921845 10.5774 0.951471 10.5364 0.981096 10.4904C0.981096 10.4648 1.01072 10.4187 0.951471 10.4084C0.595967 10.3265 0.625592 10.2293 0.684843 10.1269C0.714468 10.091 0.714468 10.0552 0.714468 10.0193C0.714468 9.79415 0.714468 9.65074 0.684843 9.56374C0.684843 9.44084 0.684843 9.41525 0.655217 9.38965C0.655217 9.38455 0.625592 9.37945 0.625592 9.36915C0.595967 9.35385 0.566341 9.33845 0.536716 9.30775C0.536716 9.32305 0.507091 9.33844 0.477466 9.35384C0.44784 9.37944 0.418215 9.39985 0.418215 9.42545C0.210838 11.1047 0.210838 11.3556 0.240463 11.7908C0.240463 12.0058 0.270089 12.2618 0.270089 12.7584C0.270089 13.1578 0.210838 13.5418 0.151587 13.9411C-0.0261645 15.047 -0.203916 16.2962 0.595967 18.4722C0.89222 19.2657 1.01072 20.0644 1.09959 20.8631C1.12922 21.1038 1.18847 21.3444 1.2181 21.585C1.24772 21.6823 1.27735 21.7796 1.27735 21.8717C1.3366 22.1277 1.36622 22.3837 1.42547 22.6397V22.6602C1.48472 23.0083 1.42547 23.3616 1.39585 23.7098C1.3366 24.1091 1.30697 24.5033 1.39585 24.9027C1.5736 25.7372 1.75135 26.5768 1.4551 27.4216C1.30697 27.8619 1.24772 28.3022 1.18847 28.7477C1.15885 28.9525 1.12922 29.1624 1.09959 29.3672C1.09959 29.3774 1.09959 29.3825 1.09959 29.3876C1.09959 29.3928 1.09959 29.3979 1.09959 29.403C1.09959 29.4184 1.12922 29.4286 1.18847 29.4798C1.2181 29.5003 1.24772 29.5259 1.30697 29.5617C1.3366 29.5463 1.36622 29.531 1.39585 29.5156C1.4551 29.49 1.51435 29.4593 1.54397 29.4286C1.5736 29.3979 1.5736 29.3672 1.5736 29.3364C1.5736 29.3108 1.5736 29.2852 1.60323 29.2545C1.63285 29.2136 1.72173 29.1726 1.78098 29.1316C1.8106 29.1214 1.8106 29.1112 1.84023 29.106C1.89948 29.1521 1.98835 29.1931 2.01798 29.2392C2.0476 29.2801 2.07723 29.3211 2.10686 29.362C2.13648 29.4184 2.19573 29.4747 2.25498 29.5259C2.28461 29.5515 2.46236 29.5822 2.52161 29.5822V30.77L2.49198 30.8519C2.37348 31.3946 2.07723 32.7462 2.13648 32.8282C2.13648 32.8742 2.22536 33.0483 2.31423 33.2633C2.37348 33.4323 2.46236 33.632 2.52161 33.806V35.6338C2.52161 35.6338 2.52161 35.6338 2.49198 35.6287C2.46236 35.6236 2.40311 35.6133 2.40311 35.6082C2.37348 35.5775 2.37348 35.5519 2.34386 35.5212C2.22536 35.3676 2.10686 35.214 2.04761 35.0604C2.01798 34.9734 2.01798 34.8863 2.01798 34.7993C2.01798 34.7225 2.01798 34.6457 2.01798 34.5689C2.01798 34.5638 1.5736 33.4681 1.54397 33.463C0.862596 33.1097 1.15885 32.7411 1.42547 32.3879C1.54397 32.2138 1.6921 32.0448 1.6921 31.881C1.72173 31.6404 1.66248 31.4048 1.63285 31.1642C1.60323 31.0772 1.60323 30.985 1.5736 30.898C1.5736 30.8775 1.54397 30.857 1.51435 30.8263C1.4551 30.7751 1.36622 30.7137 1.39585 30.6574C1.48472 30.4833 1.60323 30.4065 1.72173 30.3399C1.75135 30.3143 1.8106 30.2938 1.84023 30.2682C1.86985 30.2529 1.86985 30.2273 1.78098 30.2222C1.30697 30.1761 1.36622 30.1146 1.42547 30.0583C1.4551 30.0379 1.4551 30.0174 1.4551 29.9969C1.42547 29.8587 1.42547 29.7767 1.42547 29.7255C1.42547 29.659 1.42547 29.6436 1.39585 29.6283C1.39585 29.6231 1.36622 29.618 1.36622 29.6129C1.3366 29.6078 1.30697 29.5924 1.24772 29.5771C1.24772 29.5822 1.2181 29.5873 1.18847 29.5976C1.15885 29.6129 1.09959 29.6283 1.09959 29.6487C0.803345 30.6266 0.83297 30.7751 0.862596 31.0311C0.892221 31.154 0.892221 31.3076 0.892221 31.5994C0.892221 31.8349 0.803345 32.0551 0.714469 32.2906C0.477467 32.9357 0.240464 33.6678 1.3366 34.9375C1.75135 35.4034 1.89948 35.8693 1.98835 36.3352C2.01798 36.4581 2.07723 36.5861 2.13648 36.709C2.16611 36.7807 2.22536 36.8523 2.25498 36.924C2.31423 37.0776 2.40311 37.2312 2.43273 37.3848V37.7995C2.43273 37.8558 2.40311 37.9121 2.40311 37.9685C2.34386 38.2091 2.28461 38.4497 2.40311 38.6955L2.46236 38.7876V40.2263C2.28461 40.4567 2.22536 40.6922 2.16611 40.9277C2.13648 41.0557 2.07723 41.1786 2.04761 41.3066C2.01798 41.3578 2.10686 41.3885 2.16611 41.4295C2.25498 41.4755 2.37348 41.5267 2.31423 41.6189V44.3375C2.55124 44.445 2.84749 44.6191 3.32149 45.0389C3.35112 45.0594 3.26224 45.0901 3.14374 45.1209C3.08449 45.1362 3.05487 45.1516 3.02524 45.1669C2.99561 45.1567 2.96599 45.1465 2.96599 45.1362C2.90674 45.1055 2.81786 45.0748 2.84749 45.0492C2.93636 44.8802 2.78824 44.7471 2.37348 44.6345V45.1772C2.46236 45.3308 2.61049 45.4895 2.78824 45.6328C2.84749 45.6892 2.93636 45.7455 3.02524 45.7967C3.23262 45.9452 3.43999 46.0885 3.49925 46.2626C3.52887 46.4008 3.61775 46.5391 3.70662 46.6824C3.82512 46.8718 3.94363 47.0613 3.94363 47.2507C3.88437 47.7013 4.0325 48.1467 4.18063 48.5921C4.29913 48.9761 4.44726 49.3601 4.44726 49.7441C4.44726 50.1178 4.50651 50.4864 4.59538 50.8602C4.65463 51.1213 4.68426 51.3824 4.71388 51.6384C4.71388 51.6589 4.74351 52.0173 4.80276 52.5344C4.95089 54.0345 5.18789 56.9169 5.15826 57.1115C5.12864 57.4443 4.53613 60.7107 4.53613 60.7568C4.47688 61.0179 4.38801 61.2842 4.29913 61.5453C4.21025 61.8166 4.12138 62.0828 4.06213 62.3542V62.3644C4.0325 62.4822 3.97325 62.6255 4.18063 62.7023C4.71388 62.902 4.41763 63.0556 4.0325 63.2143C4.50651 63.2758 4.50651 63.3986 4.53613 63.5215C4.53613 63.5318 4.53613 63.542 4.53613 63.5471C4.56576 63.7109 4.56576 63.8185 4.56576 63.8901C4.56576 64.0079 4.56576 64.0335 4.59538 64.054C4.59538 64.0591 4.59538 64.0642 4.62501 64.0693C4.62501 64.0796 4.65463 64.0949 4.68426 64.1154C4.71388 64.1052 4.74351 64.0949 4.74351 64.0847C4.80276 64.0591 4.86201 64.0386 4.86201 64.013C4.89164 63.926 4.92126 63.8389 4.95089 63.7519C5.06939 63.3884 5.18789 63.0198 5.24714 62.6563C5.27676 62.4566 5.27676 62.2518 5.27676 62.047C5.27676 61.8422 5.27676 61.6425 5.30639 61.4377C5.30639 61.4224 5.78039 58.7038 5.81002 58.6833C6.52103 57.8027 6.22477 56.9016 5.92852 56.0312C5.78039 55.596 5.63227 55.1711 5.63227 54.7615C5.60264 54.2188 5.66189 53.6761 5.69152 53.1385C5.72114 52.8672 5.75077 52.5958 5.75077 52.3245C5.75077 52.2733 5.78039 52.2118 5.83964 52.135C5.8989 52.0121 5.98777 51.8688 5.95815 51.7306C5.86927 51.3107 5.75077 51.1111 5.63227 50.9421C5.60264 50.8755 5.54339 50.8192 5.51377 50.7527C5.48414 50.7117 5.48414 50.6503 5.54339 50.6298C6.04702 50.512 5.98777 50.3687 5.92852 50.2253C5.8989 50.1741 5.86927 50.1178 5.8989 50.0666C5.92852 49.7389 5.92852 49.5342 5.92852 49.4062C5.92852 49.227 5.92852 49.1911 5.95815 49.1553C5.95815 49.145 5.98777 49.1399 5.98777 49.1297C6.0174 49.1092 6.04702 49.0836 6.10627 49.0375C6.1359 49.058 6.1359 49.0785 6.16552 49.099C6.19515 49.1348 6.2544 49.1655 6.2544 49.2014C6.2544 49.2628 6.28402 49.3294 6.28402 49.3908V61.5709C6.19515 61.8166 6.10627 62.0726 6.0174 62.3388C5.60264 63.4908 5.39527 64.6479 5.30639 65.8101C5.27677 66.1582 5.18789 66.5115 5.12864 66.8596C5.09901 66.9979 5.06939 67.1412 5.03976 67.2795C4.95089 67.6481 4.89164 68.0218 4.83239 68.3905V68.4212C4.74351 68.9281 4.80276 69.4349 4.86201 69.9469C4.92126 70.5254 4.98051 71.0989 4.86201 71.6825C4.59538 72.8908 4.35838 74.1145 4.77313 75.3381C4.98051 75.9781 5.06939 76.6181 5.15826 77.2581C5.18789 77.555 5.24714 77.8571 5.27677 78.154C5.27677 78.1694 5.27677 78.1745 5.27677 78.1847C5.27677 78.195 5.27677 78.2001 5.27677 78.2052C5.27677 78.2257 5.24714 78.2411 5.12864 78.3179C5.06939 78.3486 5.03976 78.3844 4.95089 78.4356C4.92126 78.4151 4.86201 78.3947 4.80276 78.3691C4.71388 78.3281 4.62501 78.2871 4.56576 78.2462C4.53613 78.2052 4.50651 78.1591 4.50651 78.1131C4.50651 78.0721 4.50651 78.0363 4.47688 77.9953C4.41763 77.9339 4.32876 77.8776 4.21025 77.8212C4.18063 77.8059 4.151 77.7956 4.151 77.7803C4.06213 77.8417 3.94363 77.9083 3.88438 77.9748C3.82512 78.0363 3.7955 78.0926 3.73625 78.154C3.677 78.2359 3.61775 78.3179 3.5585 78.3947C3.41037 78.4254 3.23262 78.4663 3.11412 78.4766H3.05487C2.72899 78.4203 2.49199 78.3742 2.34386 78.3383V78.4766H3.05487C3.05487 78.4766 3.08449 78.4766 3.11412 78.4766H6.1359H7.02466H11.7647V4.75105H8.80217ZM2.64011 16.5778C2.72899 16.9106 2.78824 17.1768 2.78824 17.4072C2.81786 18.0319 2.84749 18.4158 2.84749 18.6565C2.84749 19.0405 2.84749 19.0558 2.90674 19.0712V19.0763V19.0814C2.90674 19.0814 2.90674 19.0865 2.93636 19.0865C2.96599 19.1019 2.99561 19.1173 3.02524 19.1326V17.6376V17.6325C3.02524 17.6069 2.99561 17.5813 3.02524 17.566V16.9311C3.02524 16.9209 2.99561 16.9055 2.99561 16.8953C2.93636 16.8543 2.90674 16.8082 2.93636 16.7724C2.93636 16.7417 2.99561 16.7109 3.05486 16.6802V11.9649C3.02524 12.0468 2.99561 12.1236 2.93636 12.2055C2.87711 12.3028 2.84749 12.4001 2.81786 12.4973C2.78824 12.5895 2.81786 12.6868 2.81786 12.7789C2.84749 12.866 2.84749 12.9479 2.84749 13.0349C2.81786 13.2295 2.72899 13.4291 2.64011 13.639C2.46236 14.0538 2.28461 14.5145 2.40311 15.0982C2.43273 15.2364 2.43273 15.3798 2.46236 15.518C2.46236 15.6307 2.49198 15.7433 2.49198 15.8559C2.52161 16.1273 2.58086 16.3679 2.64011 16.5778ZM2.0476 19.6088C2.07723 19.5883 2.07723 19.5678 1.98835 19.363C1.95873 19.2965 1.9291 19.2094 1.89948 19.1019C1.89948 19.1685 1.89948 19.2248 1.89948 19.2709C1.89948 19.5576 1.89948 19.5832 1.9291 19.6088V19.6139C1.9291 19.619 1.95873 19.6293 1.95873 19.6395C1.95873 19.6293 1.98835 19.619 1.98835 19.6139C2.0476 19.619 2.0476 19.6139 2.0476 19.6088C2.0476 19.6139 2.0476 19.6139 2.0476 19.6088ZM1.39585 20.9604C1.42547 21.1089 1.42547 21.2215 1.42547 21.3086C1.42547 21.5492 1.42547 21.5697 1.4551 21.5901C1.4551 21.5953 1.4551 21.5953 1.4551 21.5953C1.4551 21.6004 1.4551 21.6106 1.48472 21.6209C1.48472 21.6106 1.51435 21.6055 1.51435 21.6004C1.60322 21.5543 1.63285 21.5287 1.5736 20.387C1.5736 20.3665 1.54397 20.3409 1.51435 20.3204C1.48472 20.3358 1.48472 20.3409 1.4551 20.3511C1.4551 20.3563 1.4551 20.3563 1.42547 20.3614C1.36622 20.387 1.36622 20.4126 1.39585 20.6788C1.39585 20.7454 1.39585 20.8375 1.39585 20.9604ZM2.78824 21.7335C2.78824 21.7693 2.78824 21.8001 2.81786 21.8308C2.87711 21.882 2.96599 21.9332 3.02524 21.9844V19.8033C2.93636 20.4382 2.87711 21.073 2.78824 21.7079C2.78824 21.7181 2.78824 21.7233 2.78824 21.7335ZM2.90674 22.3274C2.87711 22.3172 2.87711 22.3018 2.87711 22.2916C2.81786 22.3991 2.81786 22.4093 2.81786 22.481C2.81786 22.5219 2.81786 22.5885 2.78824 22.7114C2.75861 22.9725 2.72899 23.1619 2.69936 23.3053C2.66974 23.5459 2.64011 23.6586 2.64011 23.7712C2.64011 23.8736 2.66974 23.976 2.69936 24.1757C2.69936 24.2166 2.72899 24.2627 2.72899 24.3139C2.72899 24.3548 2.75861 24.4009 2.84749 24.4265C2.90674 24.4419 2.96599 24.4572 3.02524 24.4726V23.3872C2.90674 23.3411 2.90674 23.2797 3.02524 23.2029V22.6243C2.96599 22.6346 2.96599 22.609 2.99561 22.5578C2.99561 22.5168 2.99561 22.4554 2.99561 22.3786C2.96599 22.3632 2.93636 22.3428 2.90674 22.3274ZM1.66248 24.1808C1.66248 24.2576 1.6921 24.3344 1.72173 24.4368V24.488V24.5136C1.72173 24.534 1.78098 24.5494 1.84023 24.5648C1.86985 24.5699 1.86985 24.575 1.89948 24.5801C1.9291 24.5699 1.9291 24.5596 1.95873 24.5494C1.98835 24.534 2.01798 24.5187 2.0476 24.4982C2.07723 24.4828 2.0476 24.4675 2.0476 24.447C2.0476 24.4368 2.0476 24.4316 2.0476 24.4214C2.01798 24.2678 1.98835 24.1091 1.95873 23.9555C1.9291 23.8019 1.89948 23.6432 1.86985 23.4896H1.9291C1.9291 23.3923 1.9291 23.3104 1.9291 23.2438C1.9291 22.9623 1.9291 22.9059 1.89948 22.8547C1.89948 22.8394 1.89948 22.8291 1.86985 22.8087C1.86985 22.7831 1.84023 22.7472 1.8106 22.6909C1.78098 22.7626 1.78098 22.8394 1.75135 22.9111C1.75135 23.0032 1.72173 23.0902 1.72173 23.167C1.66248 23.807 1.63285 23.9965 1.66248 24.1808ZM2.84749 24.6467C2.75861 24.6569 2.72899 24.7235 2.72899 24.7593C2.75861 24.9231 2.90674 25.2918 3.02524 25.5682V24.6211C2.96599 24.6313 2.93636 24.6364 2.84749 24.6467ZM2.22536 25.343C2.19573 25.3379 2.13648 25.3276 2.07723 25.3174C2.0476 25.343 2.0476 25.3635 2.01798 25.3788C1.98835 25.4249 1.95873 25.4351 1.98835 25.4454C1.98835 25.4505 2.01798 25.4505 2.0476 25.4556C2.07723 25.4607 2.10686 25.4659 2.16611 25.4761C2.19573 25.4556 2.22536 25.4403 2.25498 25.43C2.31423 25.3891 2.34386 25.3788 2.31423 25.3635C2.31423 25.3583 2.28461 25.3532 2.22536 25.343ZM1.9291 25.8498C1.89948 25.8754 1.86985 25.8959 1.84023 25.9164C1.89948 26.0188 1.9291 26.0956 1.95873 26.1826C1.98835 26.1621 2.01798 26.1366 2.0476 26.1161C2.10686 26.0598 2.19573 26.0034 2.19573 25.942C2.19573 25.8959 2.16611 25.8447 2.10686 25.7986C2.07723 25.7782 2.07723 25.7628 2.0476 25.7423C2.01798 25.773 1.95873 25.814 1.9291 25.8498ZM1.95873 26.5257C1.9291 26.5461 1.9291 26.5666 1.9291 26.8277C1.9291 26.8687 1.9291 26.9148 1.9291 26.9711C1.9291 27.0479 1.9291 27.1093 1.9291 27.1656C1.9291 27.4421 1.9291 27.4728 1.98835 27.5035C1.98835 27.5087 2.01798 27.5087 2.01798 27.5138C2.0476 27.524 2.07723 27.5343 2.10686 27.5547C2.13648 27.5394 2.13648 27.5343 2.16611 27.524V27.5189C2.22536 27.4831 2.22536 27.4472 2.13648 26.838C2.13648 26.7561 2.10686 26.669 2.10686 26.5666C2.10686 26.5513 2.07723 26.541 2.07723 26.5257C2.07723 26.5154 2.0476 26.5103 2.0476 26.5001C2.01798 26.5103 2.01798 26.5205 2.01798 26.5257C1.98835 26.5257 1.95873 26.5257 1.95873 26.5257ZM1.89948 27.8312C1.86985 27.8568 1.8106 27.8824 1.78098 27.9029C1.78098 27.9182 1.8106 27.9285 1.8106 27.9438C1.84023 27.9746 1.86985 28.0053 1.86985 28.0309C1.89948 28.0002 1.9291 27.9746 1.9291 27.9541C1.98835 27.8927 1.98835 27.8773 1.98835 27.867C1.98835 27.8619 1.95873 27.8619 1.95873 27.8568C1.9291 27.8517 1.9291 27.8414 1.89948 27.8312ZM2.46236 36.1356V36.2072C2.43273 36.1765 2.43273 36.156 2.46236 36.1356ZM2.49199 67.8938C2.46236 67.9092 2.46236 67.9297 2.43274 67.945C2.40311 67.9706 2.37348 67.9911 2.34386 68.0167C2.31423 68.1294 2.31423 68.2164 2.31423 68.2727C2.31423 68.3495 2.31423 68.3853 2.25498 68.3751V69.2096C2.40311 69.3172 2.43274 69.4093 2.25498 69.4759V71.0528C2.34386 71.0323 2.40311 71.0118 2.49199 70.9862C2.61049 70.9453 2.64011 70.8787 2.64011 70.8173C2.64011 70.7456 2.66974 70.679 2.66974 70.6176C2.72899 70.3309 2.75861 70.1824 2.75861 70.0288C2.75861 69.865 2.72899 69.7011 2.69936 69.353C2.66974 69.1431 2.64011 68.8717 2.58086 68.4877C2.55124 68.3086 2.55124 68.2164 2.55124 68.155C2.61049 68.0679 2.61049 68.0474 2.49199 67.8938ZM3.08449 58.5502C2.99562 58.9444 2.90674 59.2925 2.84749 59.5997C2.72899 60.081 2.64011 60.4701 2.61049 60.8029C2.58086 61.7091 2.55124 62.2672 2.52161 62.6204C2.49199 63.1785 2.49199 63.2041 2.46236 63.2246C2.46236 63.2297 2.43273 63.2348 2.43273 63.2399C2.37348 63.2604 2.34386 63.2809 2.31423 63.3014V61.1254V61.1203C2.34386 61.0845 2.34386 61.0486 2.31423 61.023V60.1066C2.34386 60.0912 2.34386 60.0708 2.37348 60.0554C2.43274 59.994 2.52161 59.9325 2.49199 59.8762C2.46236 59.8301 2.40311 59.7892 2.34386 59.7431V52.8979C2.37348 53.0105 2.43273 53.1283 2.49199 53.246C2.55124 53.3894 2.64011 53.5276 2.66974 53.671C2.69936 53.8092 2.66974 53.9423 2.64011 54.0806C2.58086 54.2086 2.55124 54.3314 2.58086 54.4543C2.64011 54.741 2.75861 55.0277 2.87711 55.3349C3.11412 55.9391 3.41037 56.6097 3.20299 57.4545C3.14374 57.6593 3.14374 57.8641 3.14374 58.0689C3.11412 58.2225 3.11412 58.3863 3.08449 58.5502ZM3.677 64.0028C3.64737 63.9721 3.64737 63.9413 3.73625 63.6495C3.76587 63.5522 3.7955 63.4294 3.85475 63.2655C3.85475 63.3628 3.85475 63.4447 3.85475 63.5164C3.82512 63.9362 3.82512 63.9721 3.7955 64.0028C3.7955 64.0079 3.7955 64.0079 3.7955 64.013C3.7955 64.0233 3.76587 64.0335 3.76587 64.054C3.73625 64.0335 3.73625 64.0233 3.73625 64.013C3.70662 64.0079 3.677 64.0079 3.677 64.0028ZM4.56576 65.0831C4.62501 65.1189 4.62501 65.1547 4.62501 65.5387C4.62501 65.6462 4.62501 65.7845 4.62501 65.9586H4.59538C4.59538 66.1736 4.59538 66.3374 4.59538 66.4603C4.59538 66.8033 4.59538 66.8392 4.56576 66.8699V66.875V66.8801C4.56576 66.8904 4.53613 66.9006 4.53613 66.9211C4.50651 66.9057 4.50651 66.9006 4.47688 66.8904C4.35838 66.8187 4.29913 66.788 4.38801 65.1291C4.38801 65.0984 4.41763 65.0626 4.47688 65.0319C4.50651 65.0523 4.53613 65.0626 4.56576 65.0728C4.56576 65.0728 4.56576 65.0779 4.56576 65.0831ZM2.61049 67.0849C2.61049 67.1361 2.61049 67.1822 2.58086 67.2283C2.49199 67.3051 2.37348 67.3767 2.28461 67.4535V64.2895C2.40311 65.2059 2.52161 66.1275 2.61049 67.0491C2.61049 67.0593 2.61049 67.0696 2.61049 67.0849ZM4.18063 71.0067C4.21025 70.8531 4.23988 70.7405 4.2695 70.633C4.29913 70.3667 4.2695 70.0954 4.151 69.1738C4.151 69.0612 4.12138 68.9383 4.09175 68.8001C4.06213 68.6925 4.06213 68.585 4.00288 68.4826C3.97325 68.5645 3.94363 68.6157 3.94363 68.6516C3.94363 68.6772 3.914 68.6977 3.914 68.7181C3.88438 68.8001 3.88438 68.882 3.88438 69.2864C3.88438 69.3837 3.88438 69.5015 3.88438 69.6448H3.97325C3.914 69.8701 3.88438 70.0954 3.82512 70.3206C3.76587 70.5459 3.73625 70.7712 3.677 70.9965C3.677 71.0067 3.677 71.0221 3.677 71.0323C3.677 71.0579 3.64737 71.0835 3.677 71.104C3.70662 71.1296 3.73625 71.1552 3.7955 71.1757C3.82512 71.191 3.85475 71.2064 3.88438 71.2217C3.914 71.2166 3.94363 71.2064 3.97325 71.2013C4.06213 71.1757 4.151 71.1501 4.151 71.1245C4.151 71.0784 4.151 71.0425 4.18063 71.0067ZM2.66974 71.4777C2.69936 71.4214 2.64011 71.3241 2.52161 71.3088C2.43274 71.2985 2.37348 71.2883 2.28461 71.2729V72.6451C2.43274 72.2457 2.61049 71.7132 2.66974 71.4777ZM3.44 72.3225C3.38075 72.3327 3.32149 72.343 3.29187 72.3532C3.26224 72.3686 3.29187 72.3891 3.38075 72.4454C3.41037 72.4659 3.44 72.4864 3.49925 72.512C3.5585 72.4966 3.61775 72.4915 3.64737 72.4864C3.677 72.4813 3.70662 72.4761 3.73625 72.471C3.76587 72.4557 3.76587 72.4403 3.70662 72.3737C3.677 72.3481 3.64737 72.3225 3.61775 72.2815C3.5585 72.302 3.49925 72.3123 3.44 72.3225ZM3.97325 73.152C3.94363 73.1212 3.914 73.0905 3.85475 73.0547C3.7955 73.0035 3.73625 72.9472 3.677 72.8908C3.64737 72.9164 3.61775 72.9472 3.58812 72.9728C3.52887 73.0444 3.44 73.1161 3.46962 73.1827C3.46962 73.2646 3.58812 73.3516 3.677 73.4335C3.70662 73.4643 3.76587 73.5001 3.7955 73.5308C3.85475 73.4131 3.914 73.2953 3.97325 73.152ZM3.85475 74.4831C3.85475 74.1042 3.85475 74.0735 3.7955 74.0428C3.7955 74.0428 3.7955 74.0428 3.7955 74.0377C3.7955 74.0377 3.7955 74.0377 3.7955 74.0326V74.0274C3.76587 74.0172 3.76587 74.007 3.73625 73.9865C3.73625 73.9967 3.70662 74.0121 3.70662 74.0274C3.677 74.0479 3.64737 74.0684 3.64737 74.0889C3.61775 74.2374 3.61775 74.3705 3.58812 74.4882C3.44 75.3688 3.44 75.4252 3.52887 75.4712C3.52887 75.4764 3.52887 75.4764 3.5585 75.4815C3.58812 75.4917 3.58812 75.502 3.61775 75.5224C3.677 75.4917 3.70662 75.4764 3.76587 75.4661C3.7955 75.461 3.7955 75.4559 3.7955 75.4508C3.88438 75.4098 3.88438 75.3637 3.88438 74.9644C3.88438 74.8876 3.88438 74.7954 3.88438 74.6828C3.85475 74.6111 3.85475 74.5445 3.85475 74.4831ZM3.914 75.9371C3.88438 75.9525 3.85475 75.9679 3.82512 75.973C3.7955 75.9781 3.7955 75.9832 3.7955 75.9883C3.76587 76.0088 3.7955 76.0242 3.85475 76.1163C3.88438 76.147 3.914 76.1829 3.94363 76.229C3.94363 76.188 4.00288 76.147 4.0325 76.101C4.06213 76.0805 4.06213 76.0651 4.09175 76.0447C4.0325 76.0139 3.97325 75.973 3.914 75.9371ZM2.58086 76.2392C2.58086 75.8091 2.43274 75.3791 2.28461 74.9541V77.3963C2.43274 77.0123 2.55124 76.6232 2.58086 76.2392Z" fill="#2A2F39"/>
<path d="M70.6516 79.1668L76.428 79.2522L76.4474 77.9416C76.6262 77.8675 76.8353 77.7528 77.1358 77.4654C77.1657 77.4505 77.0771 77.4287 77.0181 77.4073C76.9887 77.3966 76.9592 77.386 76.9298 77.3753C76.9 77.38 76.8999 77.3902 76.8702 77.3949C76.8107 77.4145 76.7807 77.4345 76.7804 77.455C76.838 77.5685 76.7477 77.6645 76.4504 77.7369L76.4559 77.3631C76.5167 77.2565 76.6072 77.1503 76.7568 77.0501C76.8167 77.0101 76.8468 76.9747 76.9065 76.9397C77.0562 76.8395 77.2057 76.7444 77.2371 76.6271C77.2681 76.5303 77.3288 76.4339 77.3894 76.3426C77.4802 76.2108 77.571 76.0842 77.5433 75.9558C77.5182 75.643 77.6117 75.3372 77.7347 75.0318C77.8275 74.7669 77.9203 74.5072 77.9242 74.241C77.928 73.985 77.991 73.7299 78.0244 73.4744C78.0567 73.2956 78.0889 73.1169 78.1212 72.9381C78.1214 72.9228 78.1547 72.6775 78.1896 72.3196C78.2938 71.2868 78.5007 69.3083 78.5028 69.1701C78.4766 68.9393 78.1247 66.6862 78.0956 66.65C78.039 66.4699 77.9824 66.2848 77.9259 66.1047C77.8693 65.9195 77.8129 65.7343 77.7564 65.5441L77.7565 65.5338C77.7281 65.4514 77.7 65.3538 77.8192 65.3044C78.1767 65.1713 78.0005 65.0663 77.7059 64.9493C78.0323 64.9132 78.0336 64.8262 78.0645 64.7447C78.0646 64.7396 78.0647 64.7344 78.0648 64.7242C78.0665 64.6116 78.0971 64.5404 78.0979 64.4892C78.0991 64.4073 78.0993 64.3919 78.1292 64.3769C78.1292 64.3718 78.1292 64.3718 78.1293 64.3667C78.1294 64.3616 78.1592 64.3518 78.1595 64.3365C78.189 64.342 78.1888 64.3523 78.2183 64.3578C78.2774 64.374 78.3067 64.395 78.3065 64.4104C78.3352 64.4722 78.3343 64.5285 78.363 64.5904C78.4482 64.8425 78.5334 65.0947 78.5593 65.346C78.5868 65.4846 78.5847 65.628 78.5531 65.7657C78.551 65.9039 78.5489 66.0473 78.5469 66.1855C78.5467 66.1958 78.8449 68.0742 78.8743 68.0849C79.369 68.6964 79.1525 69.3179 78.9362 69.9138C78.843 70.2094 78.7201 70.5045 78.7159 70.7861C78.6808 71.1594 78.7049 71.5335 78.729 71.9077C78.7559 72.0924 78.7531 72.2818 78.7504 72.4661C78.7499 72.502 78.7789 72.5433 78.8077 72.595C78.8658 72.6778 78.8939 72.7805 78.8925 72.8727C78.8289 73.1636 78.7382 73.2955 78.6475 73.4119C78.6173 73.4575 78.5869 73.498 78.5567 73.5436C78.5563 73.5692 78.526 73.6149 78.5851 73.626C78.9393 73.7132 78.9083 73.81 78.8476 73.9115C78.8173 73.9469 78.8168 73.9827 78.8163 74.0185C78.813 74.2438 78.8108 74.3872 78.8392 74.4746C78.8374 74.5975 78.8371 74.6231 78.8663 74.6491C78.8662 74.6542 78.8957 74.6598 78.8956 74.6701C78.9249 74.6858 78.9544 74.7017 78.9836 74.7328C78.9838 74.7174 79.0136 74.7025 79.0434 74.6876C79.0735 74.6624 79.1034 74.6423 79.1038 74.6167C79.336 72.9407 79.3397 72.6899 79.3164 72.2543C79.3196 72.0394 79.2938 71.7829 79.3011 71.2863C79.307 70.887 79.372 70.504 79.4371 70.1056C79.6312 69.0024 79.8273 67.7559 79.0596 65.5684C78.7752 64.7705 78.6685 63.9703 78.5914 63.1703C78.5654 62.9292 78.5096 62.6878 78.4836 62.4468C78.4554 62.349 78.4273 62.2513 78.4287 62.1591C78.3731 61.9024 78.3473 61.646 78.2918 61.3891L78.2921 61.3686C78.2381 61.0196 78.3025 60.6673 78.3373 60.3196C78.4024 59.9212 78.4378 59.5275 78.3549 59.1268C78.1895 58.2898 78.0241 57.4475 78.3329 56.6073C78.4874 56.1692 78.5533 55.7298 78.619 55.2853C78.6517 55.0809 78.6844 54.8715 78.7171 54.6672C78.7172 54.657 78.7173 54.6519 78.7174 54.6467C78.7174 54.6416 78.7175 54.6365 78.7176 54.6314C78.7178 54.616 78.6884 54.6053 78.6298 54.5533C78.6005 54.5323 78.5713 54.5063 78.5126 54.4696C78.4827 54.4845 78.4529 54.4994 78.4231 54.5144C78.3634 54.539 78.3038 54.5689 78.2736 54.5992C78.2436 54.6295 78.2431 54.6602 78.2427 54.6909C78.2423 54.7164 78.2419 54.742 78.2119 54.7724C78.1816 54.8129 78.0922 54.8525 78.0323 54.8926C78.0025 54.9024 78.0024 54.9126 77.9727 54.9173C77.9141 54.8704 77.8258 54.8281 77.7969 54.7816C77.7679 54.7402 77.7389 54.6988 77.7098 54.6574C77.681 54.6006 77.6227 54.5435 77.5641 54.4914C77.5349 54.4654 77.3576 54.432 77.2984 54.4312L77.3159 53.2435L77.3468 53.162C77.4733 52.6212 77.7895 51.274 77.7314 51.1912C77.7321 51.1451 77.6458 50.9698 77.5602 50.7534C77.5034 50.5837 77.4174 50.3827 77.3608 50.2077L77.3878 48.3802C77.3878 48.3802 77.3878 48.3802 77.4173 48.3858C77.4468 48.3913 77.506 48.4024 77.5059 48.4076C77.5351 48.4387 77.5347 48.4643 77.5638 48.4954C77.68 48.6508 77.7963 48.8061 77.8533 48.9606C77.8816 49.048 77.8803 49.1351 77.879 49.2221C77.8779 49.2989 77.8768 49.3757 77.8756 49.4525C77.8755 49.4576 78.3037 50.5596 78.3332 50.5652C79.0093 50.9285 78.7077 51.2928 78.4358 51.642C78.3148 51.8143 78.1642 51.981 78.1618 52.1449C78.1286 52.385 78.1843 52.6214 78.2104 52.8625C78.2388 52.9499 78.2374 53.0421 78.2657 53.1295C78.2654 53.15 78.2947 53.171 78.324 53.2021C78.3824 53.2542 78.4704 53.3169 78.44 53.3727C78.3485 53.5455 78.2289 53.6205 78.1094 53.6854C78.0793 53.7105 78.0198 53.7301 77.9899 53.7552C77.9599 53.7702 77.9596 53.7958 78.0484 53.8022C78.5216 53.8553 78.4615 53.9158 78.4014 53.9712C78.3715 53.9913 78.3712 54.0118 78.3709 54.0323C78.3985 54.1709 78.3973 54.2528 78.3965 54.304C78.3955 54.3706 78.3953 54.386 78.4248 54.4017C78.4247 54.4068 78.4542 54.4124 78.4541 54.4175C78.4836 54.4231 78.513 54.4388 78.5721 54.4551C78.5722 54.45 78.6018 54.4453 78.6316 54.4355C78.6615 54.4206 78.7209 54.4061 78.7212 54.3856C79.0319 53.4122 79.0044 53.2633 78.9786 53.0069C78.9508 52.8836 78.9531 52.73 78.9574 52.4383C78.9609 52.2028 79.053 51.9839 79.1453 51.7498C79.3918 51.1082 79.6396 50.3797 78.5624 49.094C78.1545 48.622 78.0133 48.1539 77.9313 47.6867C77.9035 47.5635 77.8462 47.4346 77.7887 47.3108C77.7602 47.2387 77.702 47.1661 77.6734 47.0941C77.6165 46.9397 77.5299 46.7848 77.5026 46.6307L77.5087 46.2161C77.5095 46.1598 77.54 46.1038 77.5408 46.0475C77.6035 45.8078 77.6664 45.5681 77.5515 45.3206L77.4936 45.2276L77.5148 43.7891C77.696 43.5614 77.7587 43.3268 77.8215 43.0922C77.853 42.9646 77.9141 42.8426 77.9456 42.7151C77.9759 42.6643 77.8875 42.6323 77.8289 42.5904C77.7407 42.543 77.6229 42.4901 77.6836 42.3989L77.7238 39.6805C77.4884 39.5695 77.1947 39.3911 76.7269 38.9642C76.6976 38.9434 76.787 38.9139 76.9059 38.885C76.9654 38.8706 76.9952 38.8556 77.0251 38.8406C77.0545 38.8514 77.084 38.862 77.0838 38.8723C77.1427 38.9039 77.231 38.9359 77.201 38.961C77.1097 39.1287 77.2559 39.264 77.6689 39.3827L77.6769 38.8401C77.5903 38.6852 77.4445 38.5243 77.269 38.3783C77.2105 38.3211 77.1224 38.2635 77.0344 38.211C76.8292 38.0595 76.624 37.9131 76.5673 37.7382C76.5397 37.5995 76.4529 37.4599 76.3662 37.3153C76.2505 37.1241 76.1348 36.933 76.1376 36.7436C76.2034 36.2939 76.0619 35.8464 75.9204 35.3988C75.8076 35.0131 75.6651 34.627 75.6708 34.243C75.6763 33.8694 75.6226 33.4998 75.5392 33.1249C75.4838 32.8629 75.458 32.6014 75.4322 32.345C75.4325 32.3245 75.4082 31.9657 75.3565 31.4478C75.2306 29.9457 75.0362 27.06 75.0687 26.8659C75.1033 26.5336 75.744 23.2763 75.7447 23.2302C75.8077 22.97 75.9006 22.7051 75.9933 22.4453C76.0861 22.1753 76.1789 21.9104 76.2422 21.64L76.2424 21.6297C76.2737 21.5124 76.335 21.3699 76.1289 21.2901C75.5986 21.0826 75.8971 20.9334 76.2845 20.7804C75.8115 20.7119 75.8133 20.589 75.7855 20.4658C75.7857 20.4555 75.7858 20.4453 75.7859 20.4402C75.7586 20.2759 75.7602 20.1684 75.7613 20.0967C75.763 19.979 75.7634 19.9534 75.7341 19.9325C75.7342 19.9274 75.7343 19.9223 75.7047 19.9167C75.7049 19.9065 75.6755 19.8906 75.6461 19.8698C75.6164 19.8796 75.5866 19.8893 75.5865 19.8996C75.5268 19.9243 75.4673 19.944 75.4669 19.9696C75.436 20.0561 75.4051 20.1427 75.3742 20.2293C75.2503 20.591 75.1264 20.9578 75.0618 21.3204C75.0292 21.5197 75.0262 21.7244 75.0231 21.9292C75.0201 22.134 75.0172 22.3336 74.9845 22.5379C74.9843 22.5533 74.4702 25.2646 74.4403 25.2847C73.7164 26.1547 73.9992 27.06 74.2826 27.9347C74.4243 28.3721 74.5661 28.7991 74.56 29.2087C74.5817 29.7517 74.5144 30.2935 74.4769 30.8306C74.4433 31.1014 74.4095 31.3724 74.4055 31.6436C74.4048 31.6948 74.3743 31.7559 74.314 31.8318C74.2528 31.9537 74.1618 32.0958 74.1895 32.2344C74.2721 32.6556 74.3876 32.8569 74.5036 33.0276C74.5323 33.0946 74.5907 33.1518 74.6193 33.2188C74.6484 33.2602 74.6475 33.3216 74.5879 33.3412C74.0826 33.4515 74.1397 33.5957 74.1969 33.74C74.2257 33.7916 74.2545 33.8484 74.2241 33.8991C74.1897 34.2262 74.1866 34.431 74.1847 34.559C74.1821 34.7382 74.1816 34.7741 74.1514 34.8094C74.1513 34.8196 74.1215 34.8244 74.1214 34.8346C74.0915 34.8547 74.0615 34.8798 74.0015 34.925C73.9722 34.9041 73.9725 34.8836 73.9432 34.8627C73.9142 34.8264 73.8553 34.7949 73.8559 34.759C73.8568 34.6976 73.8282 34.6305 73.8291 34.5691L74.009 22.3904C74.1015 22.146 74.1941 21.8914 74.2869 21.6264C74.7187 20.4808 74.9431 19.3268 75.0491 18.1661C75.0839 17.8185 75.178 17.4665 75.2424 17.1192C75.2741 16.9815 75.3058 16.8386 75.3374 16.7008C75.4317 16.3335 75.4966 15.9607 75.5612 15.593L75.5617 15.5623C75.658 15.0567 75.6062 14.5491 75.5546 14.0363C75.5039 13.4569 75.4531 12.8827 75.5802 12.3009C75.8647 11.0967 76.1197 9.87659 75.7231 8.647C75.5252 8.00401 75.4458 7.36286 75.3663 6.72162C75.3411 6.42421 75.2864 6.12137 75.2611 5.82396C75.2613 5.80856 75.2614 5.80347 75.2615 5.79327C75.2617 5.78297 75.2618 5.77787 75.2618 5.77277C75.2621 5.75228 75.2921 5.73742 75.4117 5.66237C75.4713 5.63255 75.5015 5.5971 75.5911 5.54721C75.6204 5.56815 75.6794 5.58952 75.7382 5.61599C75.8265 5.6582 75.9148 5.70051 75.9734 5.74228C76.0025 5.78372 76.0314 5.83024 76.0307 5.87634C76.0301 5.91723 76.0296 5.95314 76.0586 5.99447C76.1169 6.05684 76.2049 6.11444 76.3226 6.17248C76.352 6.18832 76.3815 6.19896 76.3812 6.21436C76.471 6.15418 76.5905 6.08944 76.6507 6.02372C76.7109 5.9632 76.7413 5.90724 76.8015 5.84672C76.8619 5.76571 76.9224 5.6847 76.9828 5.60878C77.1313 5.58027 77.3097 5.5419 77.4283 5.53345L77.4875 5.53433C77.8125 5.59544 78.0488 5.64503 78.1964 5.68302L78.1984 5.54483L77.4875 5.53433C77.4875 5.53433 77.4579 5.53389 77.4283 5.53345L74.4068 5.48881L73.5182 5.47568L68.7787 5.40565L69.958 78.9417L70.6516 79.1668ZM76.9878 67.4323C76.9038 67.0983 76.8486 66.8312 76.852 66.6008C76.8315 65.9758 76.8076 65.5914 76.8111 65.3509C76.8168 64.9669 76.817 64.9516 76.7581 64.9353L76.7581 64.9302L76.7582 64.9251C76.7582 64.9251 76.7583 64.9199 76.7286 64.9195C76.6992 64.9038 76.6698 64.8879 76.6405 64.8722L76.6184 66.3669L76.6183 66.3721C76.6179 66.3977 76.6472 66.4238 76.6173 66.4386L76.6079 67.0735C76.6078 67.0837 76.6372 67.0995 76.637 67.1097C76.6956 67.1516 76.7246 67.1981 76.6944 67.2334C76.6939 67.2641 76.6343 67.294 76.5745 67.3239L76.5049 72.0387C76.5358 71.9572 76.5665 71.8809 76.6269 71.7998C76.6877 71.7034 76.7187 71.6066 76.7497 71.5097C76.7808 71.4181 76.7525 71.3204 76.7539 71.2283C76.7256 71.1407 76.7268 71.0588 76.7281 70.9719C76.7605 70.7777 76.8524 70.5793 76.9444 70.3708C77.1282 69.9588 77.3128 69.5006 77.2029 68.9153C77.1753 68.7766 77.1775 68.6333 77.1498 68.4946C77.1515 68.382 77.1235 68.269 77.1252 68.1563C77.0996 67.8846 77.0439 67.6432 76.9878 67.4323ZM77.625 64.4105C77.5951 64.4305 77.5948 64.451 77.6806 64.6571C77.7093 64.7241 77.7376 64.8116 77.7656 64.9195C77.7666 64.8529 77.7674 64.7966 77.7681 64.7505C77.7723 64.4639 77.7727 64.4383 77.7435 64.4122L77.7436 64.4071C77.7436 64.402 77.7142 64.3913 77.7143 64.3811C77.7142 64.3913 77.6843 64.4012 77.6843 64.4063C77.6251 64.4003 77.6251 64.4054 77.625 64.4105C77.6251 64.4054 77.6251 64.4054 77.625 64.4105ZM78.2967 63.0687C78.2692 62.9197 78.2709 62.8072 78.2721 62.7201C78.2757 62.4795 78.276 62.459 78.2467 62.4381C78.2468 62.433 78.2468 62.433 78.2468 62.433C78.2469 62.4279 78.247 62.4177 78.2176 62.4069C78.2174 62.4172 78.1877 62.4219 78.1877 62.427C78.0981 62.4718 78.068 62.4969 78.1104 63.6394C78.1101 63.6599 78.1394 63.6859 78.1688 63.7068C78.1986 63.6919 78.1987 63.6868 78.2284 63.6769C78.2285 63.6718 78.2285 63.6718 78.2582 63.6672C78.3178 63.6424 78.3182 63.6168 78.2925 63.3502C78.2935 63.2836 78.2949 63.1916 78.2967 63.0687ZM76.9159 62.2751C76.9164 62.2392 76.9169 62.2085 76.8876 62.1774C76.8292 62.1253 76.741 62.0728 76.6826 62.0207L76.6504 64.2016C76.7486 63.568 76.8172 62.9341 76.9155 62.3007C76.9156 62.2904 76.9157 62.2853 76.9159 62.2751ZM76.8062 61.6795C76.8356 61.6901 76.8354 61.7055 76.8352 61.7157C76.896 61.6091 76.8962 61.5989 76.8972 61.5272C76.8978 61.4862 76.8988 61.4197 76.9303 61.2973C76.9638 61.0367 76.9962 60.8477 77.0279 60.7048C77.0611 60.4646 77.0924 60.3524 77.0941 60.2398C77.0956 60.1374 77.0675 60.0346 77.0407 59.8345C77.0413 59.7936 77.0124 59.747 77.0132 59.6958C77.0138 59.6548 76.9849 59.6084 76.8964 59.5815C76.8374 59.5652 76.7783 59.5489 76.7194 59.5328L76.7033 60.6181C76.8211 60.6659 76.8202 60.7273 76.7006 60.8023L76.6921 61.3808C76.7514 61.3714 76.751 61.397 76.7207 61.4478C76.7201 61.4888 76.7192 61.5502 76.718 61.627C76.7474 61.6427 76.7767 61.6637 76.8062 61.6795ZM78.0776 59.8447C78.0787 59.7679 78.0503 59.6907 78.0222 59.5878L78.0229 59.5366L78.0233 59.511C78.0236 59.4905 77.9646 59.4744 77.9056 59.4581C77.876 59.4526 77.8761 59.4475 77.8465 59.4419C77.8168 59.4517 77.8166 59.4619 77.7869 59.4717C77.757 59.4866 77.7271 59.5016 77.6972 59.5216C77.6674 59.5365 77.6968 59.5523 77.6965 59.5728C77.6963 59.583 77.6963 59.5881 77.6961 59.5984C77.7234 59.7524 77.7507 59.9116 77.7781 60.0656C77.8054 60.2196 77.8327 60.3787 77.86 60.5327L77.8008 60.5319C77.7994 60.6292 77.7982 60.711 77.7972 60.7775C77.793 61.0591 77.7922 61.1154 77.821 61.167C77.8208 61.1824 77.8207 61.1926 77.85 61.2136C77.8496 61.2392 77.8787 61.2755 77.9075 61.3322C77.9382 61.261 77.9393 61.1842 77.97 61.1129C77.9713 61.0208 78.0023 60.9342 78.0034 60.8574C78.0721 60.2184 78.1045 60.0294 78.0776 59.8447ZM76.8996 59.3613C76.9887 59.3524 77.0192 59.2863 77.0198 59.2505C76.9926 59.0862 76.85 58.7154 76.7356 58.4372L76.7216 59.3843C76.7809 59.375 76.8106 59.3702 76.8996 59.3613ZM77.5319 58.6743C77.5616 58.6798 77.6206 58.691 77.6797 58.7021C77.7097 58.6769 77.71 58.6564 77.7398 58.6416C77.7701 58.5959 77.8 58.5861 77.7704 58.5754C77.7705 58.5703 77.7409 58.5699 77.7114 58.5643C77.6819 58.5588 77.6522 58.5532 77.5932 58.5421C77.5633 58.5621 77.5334 58.577 77.5036 58.5869C77.4438 58.6269 77.414 58.6367 77.4434 58.6525C77.4434 58.6576 77.4729 58.6632 77.5319 58.6743ZM77.8357 58.1718C77.8657 58.1467 77.8956 58.1267 77.9256 58.1066C77.8678 58.0034 77.8393 57.9261 77.811 57.8387C77.781 57.8587 77.751 57.8838 77.7211 57.9039C77.661 57.9593 77.5714 58.0143 77.5705 58.0758C77.5698 58.1219 77.5986 58.1735 77.6572 58.2204C77.6865 58.2413 77.6863 58.2567 77.7156 58.2777C77.7457 58.2473 77.8056 58.2073 77.8357 58.1718ZM77.8161 57.4957C77.846 57.4756 77.8463 57.4552 77.8501 57.1941C77.8507 57.1531 77.8514 57.107 77.8523 57.0507C77.8534 56.974 77.8543 56.9126 77.8551 56.8562C77.8592 56.5798 77.8597 56.5491 77.8008 56.5174C77.8009 56.5123 77.7713 56.5119 77.7714 56.5068C77.7419 56.4962 77.7125 56.4854 77.6831 56.4645C77.6533 56.4794 77.6532 56.4845 77.6235 56.4944L77.6234 56.4995C77.5636 56.5344 77.563 56.5703 77.6429 57.1808C77.6417 57.2627 77.67 57.3502 77.6685 57.4526C77.6683 57.4679 77.6978 57.4786 77.6976 57.4939C77.6974 57.5042 77.727 57.5097 77.7268 57.5199C77.7566 57.5102 77.7567 57.4999 77.7568 57.4948C77.7864 57.4952 77.8161 57.4957 77.8161 57.4957ZM77.8946 56.1912C77.9245 56.166 77.9842 56.1413 78.0141 56.1212C78.0143 56.1058 77.9849 56.0952 77.9851 56.0798C77.956 56.0487 77.9267 56.0175 77.9271 55.9919C77.8971 56.0222 77.8671 56.0474 77.8668 56.0678C77.8066 56.1284 77.8063 56.1438 77.8062 56.154C77.8061 56.1592 77.8358 56.1596 77.8357 56.1647C77.8653 56.1702 77.8651 56.1804 77.8946 56.1912ZM77.4544 47.8794L77.4555 47.8077C77.4847 47.8389 77.4844 47.8593 77.4544 47.8794ZM77.894 16.1241C77.9238 16.1092 77.9241 16.0887 77.9541 16.0738C77.984 16.0486 78.0139 16.0287 78.0439 16.0035C78.0753 15.8912 78.0766 15.8043 78.0774 15.748C78.0785 15.6712 78.0791 15.6353 78.1381 15.6464L78.1504 14.8119C78.0039 14.7023 77.9757 14.6097 78.1544 14.5458L78.1777 12.969C78.0885 12.9882 78.029 13.0078 77.9397 13.0321C77.8206 13.0713 77.79 13.1374 77.7891 13.1988C77.7881 13.2705 77.7575 13.3367 77.7566 13.3981C77.693 13.6838 77.6612 13.8319 77.659 13.9855C77.6566 14.1493 77.6837 14.3135 77.7082 14.6621C77.7348 14.8724 77.7604 15.1441 77.8139 15.5289C77.8409 15.7086 77.8396 15.8008 77.8387 15.8621C77.7781 15.9484 77.7778 15.9688 77.894 16.1241ZM77.1635 25.458C77.2582 25.0652 77.3523 24.7183 77.416 24.4121C77.5416 23.9326 77.6362 23.5449 77.6708 23.2126C77.7137 22.3069 77.7517 21.7493 77.7865 21.3966C77.8243 20.839 77.8247 20.8134 77.8546 20.7933C77.8547 20.7882 77.8845 20.7836 77.8845 20.7785C77.944 20.7588 77.9739 20.7388 78.0039 20.7187L77.9718 22.8944L77.9717 22.8996C77.9415 22.9349 77.941 22.9707 77.9703 22.9968L77.9567 23.9132C77.9268 23.928 77.9265 23.9485 77.8967 23.9635C77.8366 24.024 77.7468 24.0842 77.7756 24.1409C77.8045 24.1875 77.8632 24.2292 77.9217 24.2762L77.8205 31.1206C77.7926 31.0076 77.7352 30.889 77.6776 30.7704C77.6205 30.6261 77.5337 30.4866 77.5062 30.3428C77.4785 30.2042 77.5102 30.0715 77.5418 29.9337C77.6029 29.8066 77.6344 29.6842 77.6066 29.5609C77.5516 29.2734 77.4374 28.9849 77.3234 28.676C77.0954 28.0684 76.809 27.3934 77.0289 26.5519C77.0912 26.3479 77.0942 26.1432 77.0972 25.9384C77.1291 25.7852 77.1315 25.6215 77.1635 25.458ZM76.6516 19.9973C76.6808 20.0284 76.6803 20.0591 76.5872 20.3496C76.5561 20.4464 76.5247 20.5688 76.463 20.7319C76.4644 20.6346 76.4656 20.5527 76.4667 20.481C76.5026 20.0617 76.5031 20.0258 76.5332 19.9955C76.5332 19.9904 76.5332 19.9904 76.5333 19.9853C76.5335 19.975 76.5632 19.9653 76.5635 19.9448C76.5929 19.9657 76.5928 19.9759 76.5926 19.9862C76.6221 19.9917 76.6517 19.9922 76.6516 19.9973ZM75.7789 18.9039C75.7202 18.8673 75.7208 18.8314 75.7264 18.4475C75.728 18.3399 75.7301 18.2018 75.7326 18.0277L75.7622 18.0281C75.7654 17.8131 75.7678 17.6493 75.7697 17.5265C75.7747 17.1835 75.7753 17.1476 75.8053 17.1173L75.8054 17.1122L75.8055 17.1071C75.8056 17.0968 75.8355 17.0871 75.8358 17.0666C75.8651 17.0824 75.8651 17.0875 75.8945 17.0982C76.0119 17.1716 76.0708 17.2032 75.9574 18.8605C75.9569 18.8913 75.9268 18.9266 75.867 18.9565C75.8377 18.9355 75.8083 18.9249 75.7788 18.9143C75.7788 18.9143 75.7788 18.909 75.7789 18.9039ZM77.7636 16.9313C77.7643 16.8801 77.765 16.834 77.7953 16.7883C77.8853 16.7128 78.0049 16.6429 78.0949 16.5674L78.0481 19.7312C77.9432 18.813 77.8383 17.8899 77.763 16.9671C77.7632 16.9569 77.7633 16.9466 77.7636 16.9313ZM76.2516 12.9867C76.2196 13.1398 76.1884 13.252 76.1572 13.359C76.1236 13.6249 76.1492 13.8966 76.2541 14.8198C76.2524 14.9324 76.2802 15.0557 76.3078 15.1944C76.3359 15.3023 76.3343 15.4099 76.392 15.5131C76.4228 15.4316 76.4532 15.3808 76.4538 15.345C76.4541 15.3194 76.484 15.2994 76.4843 15.2789C76.5151 15.1974 76.5164 15.1155 76.5223 14.7111C76.5238 14.6139 76.5255 14.4961 76.5276 14.3528L76.4387 14.3515C76.5014 14.1271 76.5343 13.9023 76.5969 13.6779C76.6594 13.4536 76.6924 13.2287 76.755 13.0043C76.7551 12.9941 76.7553 12.9787 76.7555 12.9685C76.7559 12.9429 76.7859 12.9178 76.7566 12.8968C76.7273 12.8708 76.6981 12.8448 76.6391 12.8234C76.6098 12.8077 76.5804 12.7918 76.5509 12.776C76.5213 12.7807 76.4915 12.7905 76.4617 12.7952C76.3726 12.8195 76.2833 12.8437 76.2829 12.8693C76.2822 12.9154 76.2817 12.9512 76.2516 12.9867ZM77.7693 12.5381C77.7387 12.5939 77.7966 12.6921 77.9149 12.7091C78.0036 12.7207 78.0626 12.7318 78.1513 12.7485L78.1716 11.3765C78.0176 11.7736 77.8319 12.3034 77.7693 12.5381ZM77.0115 11.682C77.071 11.6725 77.1303 11.6632 77.1601 11.6535C77.19 11.6385 77.1606 11.6176 77.0726 11.56C77.0433 11.539 77.014 11.5182 76.9551 11.4917C76.8956 11.5061 76.8364 11.5104 76.8066 11.5151C76.7769 11.5198 76.7472 11.5244 76.7176 11.5291C76.6876 11.5441 76.6874 11.5594 76.7457 11.6268C76.7749 11.6529 76.8042 11.6789 76.8333 11.7202C76.8927 11.7007 76.9522 11.6913 77.0115 11.682ZM76.4906 10.8448C76.5198 10.8759 76.5489 10.907 76.6076 10.9438C76.6661 10.9959 76.7246 11.0531 76.783 11.1102C76.8129 11.0851 76.8431 11.0548 76.8731 11.0297C76.9333 10.9588 77.0233 10.8885 76.9947 10.8215C76.9959 10.7395 76.8787 10.6508 76.791 10.5676C76.7618 10.5365 76.7031 10.4997 76.6739 10.4685C76.6129 10.5855 76.552 10.7023 76.4906 10.8448ZM76.6287 9.51548C76.6231 9.89434 76.6226 9.92503 76.6815 9.9566C76.6815 9.9566 76.6815 9.9566 76.6814 9.9617C76.6814 9.9617 76.6814 9.9617 76.6813 9.9669L76.6813 9.972C76.7107 9.98264 76.7106 9.99294 76.74 10.0138C76.7401 10.0036 76.7699 9.98861 76.7702 9.97331C76.8001 9.95325 76.83 9.93319 76.8303 9.91269C76.8621 9.76475 76.8641 9.63166 76.8955 9.51431C77.0565 8.636 77.0574 8.5797 76.9692 8.53229C76.9692 8.52719 76.9692 8.52719 76.9397 8.52166C76.9103 8.51092 76.9104 8.50073 76.8811 8.47979C76.8214 8.50961 76.7916 8.52457 76.7321 8.5339C76.7024 8.53856 76.7024 8.54375 76.7023 8.54885C76.6128 8.58843 76.6121 8.63453 76.6062 9.03389C76.6051 9.11068 76.6037 9.20277 76.6021 9.31536C76.6306 9.38749 76.6296 9.45408 76.6287 9.51548ZM76.591 8.06076C76.6208 8.0458 76.6506 8.03094 76.6804 8.02628C76.7101 8.02152 76.7102 8.01641 76.7102 8.01131C76.7401 7.99125 76.7108 7.97552 76.6528 7.88245C76.6237 7.85132 76.5946 7.81498 76.5657 7.76855C76.5651 7.80945 76.5052 7.84956 76.4749 7.89522C76.445 7.91518 76.4448 7.93059 76.4148 7.95065C76.4736 7.98222 76.5322 8.02409 76.591 8.06076ZM77.9284 7.77839C77.9221 8.20844 78.0639 8.64068 78.2057 9.06773L78.2418 6.62579C78.088 7.00756 77.9638 7.39487 77.9284 7.77839Z" fill="#2A2F39"/>
<path d="M75.541 9.94593L74.2342 5.27926L74.4688 4.13093C74.4008 3.95085 74.2943 3.73989 74.0233 3.43463C74.0095 3.40454 73.9869 3.49273 73.9652 3.55131C73.9544 3.58059 73.9436 3.60989 73.9328 3.63917C73.9367 3.66894 73.9466 3.66926 73.9505 3.69903C73.9683 3.75889 73.987 3.78915 74.0067 3.78979C74.117 3.73411 74.2077 3.82598 74.2719 4.1245L73.9124 4.11277C73.8109 4.05017 73.7104 3.95796 73.6168 3.8067C73.5793 3.74619 73.5458 3.71546 73.5133 3.65512C73.4196 3.50386 73.3309 3.35275 73.2186 3.31945C73.126 3.28678 73.0344 3.22451 72.9477 3.1624C72.8225 3.0694 72.7023 2.97655 72.5782 3.00214C72.2769 3.02194 71.9844 2.92348 71.6928 2.79539C71.4396 2.69821 71.1914 2.60118 70.9353 2.59282C70.6891 2.58478 70.4449 2.51753 70.1996 2.47989C70.0282 2.44465 69.8568 2.40942 69.6854 2.37418C69.6706 2.3737 69.3507 2.51145 69.007 2.4706C68.0152 2.3493 66.109 2.2278 65.976 2.22346C65.7535 2.24584 63.67 2.26677 63.6346 2.29525C63.4603 2.34884 63.2811 2.40227 63.1068 2.45587C62.9276 2.5093 62.7484 2.56273 62.5643 2.616L62.5545 2.61568C62.4747 2.64272 62.3802 2.66928 62.3348 2.54923C62.2135 2.18958 62.1092 2.36402 61.9911 2.65658C61.9624 2.3296 61.8787 2.32686 61.8009 2.29468C61.7959 2.29452 61.791 2.29436 61.7812 2.29404C61.6729 2.2905 61.6048 2.25864 61.5556 2.25704C61.4768 2.25447 61.462 2.25398 61.4482 2.22389C61.4433 2.22373 61.4433 2.22373 61.4384 2.22357C61.4335 2.22341 61.4246 2.19348 61.4098 2.193C61.4157 2.16354 61.4255 2.16387 61.4315 2.13441C61.4482 2.07568 61.4688 2.04671 61.4836 2.0472C61.5436 2.01951 61.5978 2.02128 61.6578 1.9936C61.902 1.91265 62.1462 1.8317 62.3885 1.80996C62.5224 1.7847 62.6603 1.78919 62.7923 1.82314C62.9253 1.82748 63.0631 1.83198 63.1961 1.83632C63.2059 1.83664 65.0188 1.56976 65.0296 1.54047C65.6272 1.05608 66.2211 1.28295 66.7905 1.50902C67.0732 1.60717 67.355 1.73494 67.6258 1.74378C67.9843 1.78512 68.3447 1.76724 68.7052 1.74936C68.8834 1.72554 69.0655 1.73148 69.2429 1.73727C69.2773 1.73839 69.3177 1.71007 69.3679 1.68207C69.4486 1.62542 69.5481 1.59903 69.6366 1.60192C69.9155 1.6703 70.0406 1.76331 70.151 1.85583C70.1943 1.88689 70.2327 1.91779 70.2761 1.94884C70.3007 1.94964 70.344 1.9807 70.3558 1.9218C70.4462 1.56906 70.5388 1.60172 70.6353 1.66416C70.6688 1.69489 70.7033 1.69602 70.7378 1.69714C70.9544 1.70421 71.0923 1.70871 71.177 1.68184C71.2952 1.68569 71.3198 1.6865 71.3454 1.65769C71.3503 1.65785 71.3562 1.6284 71.3661 1.62873C71.3818 1.5996 71.3975 1.57047 71.4281 1.54183C71.4133 1.54134 71.3995 1.51125 71.3857 1.48116C71.362 1.45075 71.3433 1.42049 71.3187 1.41969C69.7102 1.15971 69.469 1.15183 69.0495 1.16778C68.8426 1.16103 68.5955 1.1826 68.1178 1.16701C67.7337 1.15448 67.3663 1.0832 66.9842 1.01145C65.9263 0.799074 64.7307 0.582202 62.6118 1.31335C61.8388 1.58453 61.0668 1.6779 60.2957 1.74165C60.0633 1.76371 59.8299 1.81538 59.5975 1.83743C59.503 1.86399 59.4085 1.89054 59.3198 1.88765C59.0717 1.93883 58.8245 1.96041 58.5764 2.01159L58.5566 2.01095C58.2199 2.05924 57.8821 1.98893 57.5481 1.94838C57.166 1.87663 56.7878 1.83465 56.4008 1.91094C55.5923 2.0624 54.779 2.2137 53.9761 1.89108C53.5575 1.72922 53.136 1.65618 52.7095 1.58297C52.5135 1.54693 52.3125 1.51074 52.1166 1.47469C52.1067 1.47437 52.1018 1.47421 52.0969 1.47405C52.092 1.47389 52.087 1.47373 52.0821 1.47357C52.0674 1.47309 52.0565 1.50238 52.0054 1.55999C51.9847 1.58895 51.9591 1.61776 51.9227 1.67586C51.9365 1.70594 51.9503 1.73604 51.9641 1.76612C51.9868 1.82615 52.0144 1.88633 52.043 1.91691C52.0715 1.94749 52.1011 1.94845 52.1306 1.94942C52.1552 1.95022 52.1799 1.95102 52.2085 1.98159C52.2469 2.01249 52.2834 2.1026 52.3208 2.1631C52.3298 2.19304 52.3396 2.19336 52.3436 2.22313C52.2973 2.2809 52.255 2.36844 52.2098 2.3966C52.1693 2.42493 52.129 2.45326 52.0887 2.48158C52.0335 2.50943 51.9774 2.56687 51.9262 2.62449C51.9007 2.65329 51.8653 2.82998 51.8634 2.8892L50.7209 2.85191L50.6432 2.81973C50.125 2.68426 48.8347 2.34573 48.7539 2.40238C48.7096 2.40094 48.5393 2.48429 48.3296 2.56638C48.1652 2.62029 47.9703 2.70285 47.8009 2.7566L46.0429 2.69922C46.0429 2.69922 46.0429 2.69922 46.0488 2.66978C46.0548 2.64033 46.0665 2.58143 46.0714 2.58159C46.1019 2.55295 46.1266 2.55375 46.1571 2.5251C46.3086 2.41149 46.4603 2.29787 46.6099 2.24348C46.6946 2.2166 46.7783 2.21933 46.862 2.22206C46.9359 2.22447 47.0097 2.22688 47.0836 2.22929C47.0885 2.22945 48.1568 1.8197 48.1627 1.79026C48.5247 1.12033 48.8696 1.428 49.2007 1.70558C49.3642 1.82948 49.5218 1.98283 49.6794 1.98797C49.9099 2.02513 50.1384 1.97331 50.3708 1.95126C50.4555 1.92438 50.5441 1.92727 50.6288 1.90039C50.6484 1.90103 50.6691 1.87207 50.6996 1.84342C50.7509 1.78581 50.8128 1.69891 50.8661 1.73029C51.0306 1.82458 51.1006 1.94543 51.1607 2.06596C51.1843 2.09637 51.2021 2.15624 51.2257 2.18664C51.2395 2.21674 51.2641 2.21754 51.272 2.12887C51.3318 1.65657 51.389 1.71772 51.4412 1.7787C51.4599 1.80895 51.4796 1.80959 51.4993 1.81024C51.6332 1.78497 51.712 1.78754 51.7612 1.78915C51.8253 1.79124 51.84 1.79172 51.8558 1.76259C51.8607 1.76275 51.8666 1.73331 51.8715 1.73347C51.8775 1.70402 51.8931 1.67489 51.9098 1.61615C51.905 1.616 51.901 1.58622 51.8921 1.5563C51.8783 1.5262 51.8655 1.4665 51.8457 1.46585C50.9148 1.13906 50.7712 1.16401 50.524 1.18558C50.4048 1.21134 50.257 1.20651 49.9764 1.19735C49.7498 1.18996 49.541 1.09422 49.3174 0.997999C48.7047 0.740872 48.0082 0.481011 46.7513 1.5367C46.2897 1.93662 45.8367 2.07003 45.3857 2.14424C45.2666 2.16998 45.1416 2.22519 45.0214 2.28055C44.9515 2.30791 44.8807 2.36488 44.8108 2.39224C44.6611 2.44664 44.5104 2.53064 44.3618 2.55543L43.9629 2.54242C43.9088 2.54065 43.8555 2.50926 43.8013 2.5075C43.5718 2.44072 43.3424 2.37395 43.1021 2.48467L43.0116 2.541L41.6278 2.49584C41.4121 2.31095 41.1875 2.24434 40.9628 2.17772C40.8407 2.14409 40.7244 2.08102 40.6023 2.04739C40.5541 2.01618 40.5217 2.10404 40.4803 2.16197C40.433 2.24936 40.38 2.36619 40.2933 2.30408L37.6785 2.21873C37.5673 2.45223 37.3903 2.74286 36.9711 3.20344C36.9504 3.2324 36.9237 3.1426 36.898 3.0232C36.8852 2.9635 36.8714 2.93342 36.8576 2.90332C36.8684 2.87404 36.8792 2.84474 36.889 2.84507C36.9205 2.78681 36.953 2.69895 36.9766 2.72936C37.1363 2.8235 37.2691 2.67963 37.3909 2.26863L36.869 2.2516C36.7183 2.3356 36.5609 2.47866 36.4172 2.65182C36.3612 2.70927 36.304 2.79633 36.2519 2.88355C36.1023 3.08616 35.9577 3.28893 35.7883 3.34268C35.6544 3.36795 35.5186 3.45244 35.3778 3.53676C35.1918 3.64925 35.0056 3.76175 34.8234 3.75581C34.3921 3.68245 33.9588 3.8165 33.5256 3.95057C33.1524 4.05695 32.7783 4.19295 32.4089 4.1809C32.0494 4.16916 31.693 4.21681 31.3306 4.2939C31.0775 4.34492 30.8255 4.36634 30.5783 4.38791C30.5586 4.38727 30.2129 4.40563 29.7137 4.44862C28.266 4.54957 25.4859 4.69596 25.2997 4.66024C24.9807 4.62019 21.8583 3.92545 21.814 3.92401C21.5648 3.85659 21.3117 3.7594 21.0634 3.66238C20.8053 3.56503 20.5522 3.46785 20.2931 3.40011L20.2833 3.39979C20.171 3.36648 20.035 3.30276 19.9544 3.50762C19.7449 4.03432 19.6068 3.7334 19.4668 3.3435C19.3922 3.81532 19.2741 3.81147 19.1549 3.83722C19.1451 3.8369 19.1352 3.83657 19.1303 3.83641C18.9718 3.86088 18.8683 3.85751 18.7994 3.85526C18.6862 3.85156 18.6616 3.85076 18.6409 3.87972C18.6359 3.87956 18.631 3.8794 18.6251 3.90885C18.6153 3.90853 18.5996 3.93765 18.5789 3.96662C18.5877 3.99655 18.5967 4.02648 18.6065 4.02681C18.6291 4.08683 18.6469 4.14669 18.6715 4.14749C18.7543 4.17983 18.837 4.21217 18.9198 4.24451C19.2656 4.37437 19.6162 4.50438 19.9639 4.57501C20.155 4.61088 20.352 4.61731 20.5489 4.62374C20.7459 4.63017 20.938 4.63644 21.1339 4.67248C21.1487 4.67296 23.748 5.23205 23.7668 5.26231C24.5905 6.00058 25.4668 5.73277 26.3136 5.464C26.7371 5.32961 27.1506 5.19491 27.5445 5.20777C28.0675 5.19519 28.5875 5.27145 29.1036 5.31794C29.3636 5.35606 29.6236 5.39419 29.8845 5.40271C29.9338 5.40432 29.992 5.43585 30.0639 5.49748C30.1801 5.56055 30.3151 5.65389 30.449 5.62862C30.8557 5.55297 31.0516 5.4408 31.218 5.32767C31.2829 5.30014 31.3391 5.24269 31.4041 5.21518C31.4444 5.18685 31.5035 5.18878 31.5213 5.24864C31.6181 5.7557 31.7579 5.70098 31.8977 5.64626C31.9479 5.61825 32.0031 5.59042 32.0514 5.62164C32.3656 5.66153 32.5625 5.66796 32.6856 5.67198C32.858 5.6776 32.8925 5.67873 32.9259 5.70947C32.9357 5.70979 32.9397 5.73955 32.9496 5.73987C32.9683 5.77013 32.9919 5.80054 33.0343 5.8612C33.0136 5.89017 32.994 5.88953 32.9733 5.91849C32.9379 5.94698 32.9064 6.00524 32.8719 6.00411C32.8128 6.00218 32.7479 6.0297 32.6888 6.02777L20.974 5.64541C20.7406 5.54887 20.4973 5.452 20.2441 5.35481C19.1497 4.90412 18.0435 4.66053 16.9287 4.53522C16.5947 4.49468 16.2579 4.39477 15.925 4.32462C15.793 4.29067 15.6561 4.25656 15.5241 4.22261C15.1724 4.1222 14.8149 4.05125 14.4623 3.98046L14.4327 3.97949C13.9482 3.87476 13.4587 3.91807 12.9644 3.96122C12.406 4.00227 11.8526 4.04349 11.295 3.90673C10.1416 3.60231 8.97251 3.32703 7.78201 3.70314C7.15979 3.89032 6.54132 3.95905 5.92286 4.02779C4.43641 4.13303 5.13409 3.9418 4.74003 4.3213C4.89375 3.55306 4.90169 3.59006 4.74003 4.3213C4.70652 5.34777 4.75256 3.94019 4.71906 4.96665L4.69007 5.85494L4.53544 10.5925L75.4043 10.7529L75.541 9.94593ZM64.3671 3.41588C64.044 3.49425 63.786 3.54511 63.5645 3.53788C62.9627 3.54789 62.5925 3.56544 62.361 3.55788C61.9917 3.54583 61.9769 3.54535 61.9602 3.60408L61.9553 3.60392L61.9504 3.60376C61.9504 3.60376 61.9454 3.6036 61.9445 3.63322C61.9287 3.66234 61.913 3.69147 61.8972 3.72059L63.3351 3.76752L63.3401 3.76768C63.3647 3.76849 63.3903 3.73969 63.404 3.76977L64.0146 3.7897C64.0246 3.79003 64.0403 3.7609 64.0501 3.76122C64.0914 3.70329 64.1367 3.67512 64.1703 3.70586C64.1998 3.70683 64.2274 3.76701 64.2551 3.82719L68.7902 3.97522C68.7124 3.94304 68.6395 3.91102 68.5627 3.84923C68.471 3.78695 68.3784 3.75429 68.2859 3.72163C68.1982 3.68912 68.1036 3.71568 68.015 3.71279C67.9303 3.73966 67.8515 3.73709 67.7678 3.73436C67.5817 3.69865 67.3926 3.60355 67.1936 3.50813C66.8005 3.31745 66.3631 3.12533 65.7979 3.22544C65.664 3.25072 65.5261 3.24622 65.3922 3.27148C65.2838 3.26794 65.1745 3.29402 65.0662 3.29049C64.8042 3.31158 64.5708 3.36325 64.3671 3.41588ZM61.4712 2.72854C61.4899 2.75879 61.5096 2.75944 61.7095 2.67703C61.7745 2.64951 61.8592 2.62264 61.9635 2.59639C61.8995 2.59431 61.8454 2.59254 61.8011 2.59109C61.5253 2.58209 61.5007 2.58129 61.4751 2.6101L61.4701 2.60994C61.4652 2.60978 61.4544 2.63906 61.4446 2.63874C61.4544 2.63906 61.4633 2.66899 61.4682 2.66916C61.4613 2.72821 61.4663 2.72837 61.4712 2.72854C61.4663 2.72837 61.4663 2.72837 61.4712 2.72854ZM60.1925 2.03469C60.0487 2.05964 59.9404 2.05611 59.8567 2.05338C59.6252 2.04582 59.6055 2.04518 59.5849 2.07414C59.5799 2.07398 59.5799 2.07398 59.5799 2.07398C59.575 2.07382 59.5652 2.0735 59.5544 2.10279C59.5642 2.10311 59.5682 2.13289 59.573 2.13305C59.6145 2.22332 59.6382 2.25374 60.7382 2.23036C60.7579 2.231 60.7835 2.20219 60.8042 2.17323C60.7903 2.14313 60.7854 2.14297 60.7765 2.11304C60.7716 2.11287 60.7716 2.11287 60.7677 2.08311C60.7449 2.02309 60.7203 2.02228 60.4633 2.04353C60.3993 2.04144 60.3107 2.03855 60.1925 2.03469ZM59.4034 3.40207C59.369 3.40095 59.3395 3.39998 59.309 3.42863C59.2578 3.48624 59.2057 3.57346 59.1544 3.63107L61.2522 3.69954C60.6445 3.59079 60.0358 3.51164 59.4281 3.40288C59.4182 3.40255 59.4134 3.40239 59.4034 3.40207ZM58.8285 3.50187C58.8392 3.47258 58.854 3.47306 58.8638 3.47339C58.7623 3.41079 58.7525 3.41047 58.6836 3.40822C58.6442 3.40694 58.5802 3.40484 58.463 3.37137C58.2128 3.33357 58.0316 3.29801 57.8947 3.26391C57.6642 3.22674 57.5568 3.1936 57.4485 3.19006C57.35 3.18685 57.2505 3.21324 57.0576 3.23659C57.0181 3.2353 56.9729 3.26346 56.9236 3.26185C56.8842 3.26056 56.8389 3.28873 56.8114 3.37675C56.7947 3.43549 56.778 3.49422 56.7613 3.55296L57.8052 3.58703C57.8534 3.47004 57.9125 3.47197 57.9825 3.59282L58.539 3.61098C58.531 3.55144 58.5557 3.55224 58.6039 3.58346C58.6434 3.58475 58.7024 3.58668 58.7763 3.58909C58.792 3.55996 58.8127 3.531 58.8285 3.50187ZM57.0864 2.20009C57.0125 2.19767 56.9377 2.22488 56.8383 2.25127L56.7891 2.24966L56.7645 2.24886C56.7447 2.24821 56.728 2.30695 56.7113 2.36569C56.7054 2.39514 56.7005 2.39498 56.6946 2.42442C56.7035 2.45436 56.7134 2.45468 56.7222 2.48461C56.736 2.5147 56.7499 2.54479 56.7686 2.57505C56.7823 2.60514 56.7981 2.57601 56.8178 2.57665C56.8276 2.57697 56.8326 2.57714 56.8424 2.57746C56.9911 2.55266 57.1447 2.52804 57.2935 2.50325C57.4421 2.47847 57.5958 2.45384 57.7444 2.42905L57.7425 2.48827C57.8361 2.49133 57.9148 2.4939 57.9789 2.49599C58.2497 2.50483 58.3039 2.50659 58.3541 2.47859C58.3688 2.47907 58.3787 2.47939 58.3993 2.45043C58.424 2.45123 58.4594 2.42274 58.5145 2.39491C58.4466 2.36304 58.3727 2.36063 58.3047 2.32878C58.2161 2.32588 58.1333 2.29354 58.0596 2.29113C57.4459 2.21182 57.2647 2.17627 57.0864 2.20009ZM56.5997 3.36984C56.5927 3.28069 56.5297 3.24899 56.4952 3.24787C56.3366 3.27234 55.9773 3.40881 55.7075 3.51856L56.6185 3.5483C56.6106 3.48876 56.6066 3.45899 56.5997 3.36984ZM55.9503 2.72618C55.9561 2.69674 55.968 2.63784 55.9797 2.57894C55.9561 2.54853 55.9364 2.54788 55.9226 2.51779C55.8792 2.48674 55.8703 2.4568 55.8596 2.4861C55.8546 2.48593 55.8536 2.51554 55.8477 2.54499C55.8419 2.57445 55.836 2.60389 55.8242 2.66279C55.8429 2.69304 55.8567 2.72313 55.8656 2.75307C55.9031 2.81357 55.9119 2.84349 55.9277 2.81437C55.9326 2.81453 55.9385 2.78508 55.9503 2.72618ZM55.4724 2.41418C55.4488 2.38376 55.43 2.35351 55.4113 2.32325C55.3109 2.37926 55.2361 2.40646 55.1514 2.43334C55.1701 2.46359 55.1937 2.494 55.2125 2.52426C55.2647 2.58524 55.316 2.67584 55.3751 2.67777C55.4194 2.67922 55.4697 2.65121 55.5158 2.59344C55.5365 2.56448 55.5513 2.56496 55.572 2.53599C55.5434 2.50541 55.506 2.44491 55.4724 2.41418ZM54.8215 2.42257C54.8027 2.39232 54.783 2.39168 54.5319 2.38348C54.4925 2.38219 54.4482 2.38075 54.394 2.37898C54.3202 2.37657 54.2611 2.37464 54.2069 2.37287C53.941 2.36419 53.9115 2.36323 53.88 2.42148C53.875 2.42132 53.8741 2.45093 53.8692 2.45077C53.8583 2.48006 53.8475 2.50935 53.8268 2.53831C53.8406 2.56841 53.8456 2.56857 53.8545 2.5985L53.8594 2.59866C53.892 2.659 53.9264 2.66013 54.5153 2.59043C54.5941 2.593 54.6787 2.56612 54.7773 2.56933C54.792 2.56981 54.8029 2.54053 54.8176 2.54101C54.8275 2.54134 54.8334 2.51188 54.8432 2.5122C54.8343 2.48227 54.8244 2.48195 54.8196 2.48179C54.8205 2.45218 54.8215 2.42257 54.8215 2.42257ZM53.5677 2.32236C53.5441 2.29196 53.5213 2.23193 53.5027 2.20168C53.4879 2.2012 53.4771 2.23049 53.4623 2.23001C53.4318 2.25865 53.4013 2.2873 53.3766 2.28649C53.4052 2.31706 53.4289 2.34748 53.4485 2.34812C53.5057 2.40927 53.5205 2.40975 53.5303 2.41007C53.5353 2.41023 53.5362 2.38062 53.5412 2.38078C53.547 2.35133 53.5569 2.35166 53.5677 2.32236ZM45.5623 2.62425L45.4933 2.622C45.5239 2.59336 45.5436 2.59401 45.5623 2.62425ZM15.0163 1.65691C15.0025 1.62681 14.9828 1.62617 14.969 1.59607C14.9453 1.56566 14.9266 1.5354 14.9029 1.505C14.7956 1.47185 14.7119 1.46912 14.6577 1.46735C14.5839 1.46494 14.5494 1.46381 14.5611 1.40491L13.7585 1.37872C13.6503 1.52339 13.5606 1.5501 13.5025 1.37036L11.9858 1.32086C12.0026 1.41033 12.0204 1.47019 12.0421 1.55983C12.0776 1.67955 12.1407 1.71125 12.1998 1.71318C12.2687 1.71543 12.3317 1.74713 12.3908 1.74906C12.6647 1.81728 12.8065 1.85154 12.9542 1.85636C13.1118 1.86151 13.2703 1.83704 13.6062 1.81836C13.809 1.79534 14.0709 1.77425 14.4422 1.72709C14.6155 1.70311 14.7042 1.706 14.7632 1.70793C14.8451 1.76988 14.8647 1.77052 15.0163 1.65691ZM23.9837 2.54241C23.6074 2.44121 23.2755 2.34145 22.982 2.27259C22.5229 2.13904 22.1517 2.038 21.8325 1.99794C20.9618 1.93988 20.4261 1.89276 20.0873 1.85205C19.5515 1.80493 19.5269 1.80413 19.5082 1.77387C19.5032 1.77371 19.4993 1.74394 19.4944 1.74377C19.4766 1.68391 19.4579 1.65367 19.4391 1.62341L21.5319 1.69172L21.5369 1.69188C21.5704 1.72262 21.6049 1.72374 21.6304 1.69493L22.5119 1.7237C22.5257 1.7538 22.5454 1.75444 22.5591 1.78452C22.6163 1.84568 22.6725 1.93643 22.7276 1.9086C22.7729 1.88043 22.8142 1.8225 22.8605 1.76472L29.4442 1.97961C29.3349 2.00569 29.2197 2.06121 29.1046 2.11673C28.9648 2.17145 28.8289 2.25594 28.6901 2.28105C28.5561 2.30631 28.429 2.27253 28.297 2.23858C28.1759 2.17534 28.0586 2.14188 27.9396 2.16763C27.6618 2.21784 27.3822 2.32728 27.0829 2.43608C26.4941 2.65399 25.8393 2.92903 25.0337 2.69524C24.8385 2.62959 24.6416 2.62316 24.4446 2.61674C24.2978 2.58231 24.1404 2.57717 23.9837 2.54241ZM18.7201 2.96344C18.7505 2.93478 18.7801 2.93575 19.0579 3.03374C19.1505 3.0664 19.2677 3.09987 19.4234 3.16424C19.3298 3.16118 19.251 3.15861 19.1821 3.15636C18.7792 3.11357 18.7447 3.11244 18.7162 3.08187C18.7113 3.08171 18.7113 3.08171 18.7063 3.08155C18.6965 3.08123 18.6877 3.05129 18.6679 3.05065C18.6886 3.02169 18.6984 3.02201 18.7083 3.02233C18.7142 2.99288 18.7151 2.96327 18.7201 2.96344ZM17.6521 3.81781C17.6156 3.8759 17.5812 3.87478 17.2118 3.86272C17.1085 3.85935 16.9755 3.85501 16.8081 3.84954L16.8091 3.81993C16.6022 3.81318 16.4447 3.80804 16.3265 3.80418C15.9965 3.79341 15.962 3.79228 15.9335 3.76172L15.9286 3.76156L15.9236 3.7614C15.9138 3.76107 15.905 3.73114 15.8852 3.7305C15.901 3.70136 15.9059 3.70153 15.9167 3.67224C15.9895 3.55605 16.021 3.4978 17.6136 3.6387C17.6431 3.63966 17.6766 3.6704 17.7042 3.73058C17.6836 3.75955 17.6727 3.78884 17.6619 3.81813C17.6619 3.81813 17.657 3.81797 17.6521 3.81781ZM15.7905 1.80074C15.7413 1.79913 15.6969 1.79768 15.6536 1.76662C15.5826 1.67539 15.5175 1.55469 15.4465 1.46346L18.4897 1.56279C17.6044 1.65245 16.7142 1.74196 15.825 1.80186C15.8151 1.80154 15.8052 1.80122 15.7905 1.80074ZM11.9672 3.24693C12.114 3.28135 12.2214 3.3145 12.3238 3.34748C12.5789 3.38546 12.8409 3.36436 13.7311 3.27485C13.8395 3.27839 13.9586 3.25264 14.0925 3.22737C14.1969 3.20114 14.3003 3.20451 14.4008 3.1485C14.3229 3.11632 14.2747 3.0851 14.2402 3.08398C14.2156 3.08317 14.1968 3.05293 14.1772 3.05228C14.0993 3.0201 14.0205 3.01753 13.6315 3.00483C13.538 3.00178 13.4247 2.99808 13.2868 2.99358L13.2839 3.08241C13.0692 3.01612 12.8535 2.97944 12.6387 2.91314C12.424 2.84685 12.2082 2.81018 11.9936 2.74389C11.9837 2.74357 11.9689 2.74308 11.9591 2.74276C11.9345 2.74196 11.9108 2.71154 11.8901 2.74051C11.8646 2.76931 11.8389 2.79812 11.8174 2.8567C11.8016 2.88582 11.7859 2.91495 11.7701 2.94408C11.7741 2.97385 11.783 3.00378 11.787 3.03355C11.8087 3.12319 11.8304 3.21281 11.855 3.21362C11.8993 3.21506 11.9338 3.21619 11.9672 3.24693ZM11.5635 1.72206C11.6167 1.75343 11.7122 1.69726 11.7309 1.57931C11.7436 1.4908 11.7554 1.4319 11.773 1.34356L10.4534 1.30049C10.8326 1.46106 11.3389 1.65544 11.5635 1.72206ZM10.7259 2.46538C10.718 2.40584 10.7101 2.3463 10.7012 2.31637C10.6874 2.28628 10.6667 2.31525 10.6097 2.4023C10.589 2.43127 10.5684 2.46024 10.5418 2.51865C10.5546 2.57836 10.5576 2.63774 10.5616 2.6675C10.5655 2.69728 10.5695 2.72704 10.5734 2.75682C10.5872 2.7869 10.602 2.78739 10.668 2.73026C10.6935 2.70146 10.7191 2.67264 10.7595 2.64433C10.7417 2.58447 10.7339 2.52492 10.7259 2.46538ZM9.91083 2.97232C9.94125 2.94366 9.97178 2.91502 10.0082 2.85693C10.0594 2.79932 10.1155 2.74187 10.1716 2.68442C10.148 2.654 10.1194 2.62343 10.0957 2.59301C10.0287 2.53155 9.96265 2.44046 9.89771 2.46799C9.81887 2.46542 9.73131 2.58112 9.64967 2.66739C9.61915 2.69603 9.5827 2.75412 9.55218 2.78277C9.6635 2.84568 9.77482 2.9086 9.91083 2.97232ZM8.6344 2.81209C8.99875 2.82398 9.0283 2.82495 9.05979 2.7667C9.05979 2.7667 9.05979 2.7667 9.06465 2.76685C9.06465 2.76685 9.06475 2.76686 9.06961 2.76702L9.07457 2.76718C9.08536 2.73788 9.09517 2.7382 9.11587 2.70924C9.10605 2.70892 9.09225 2.67883 9.07747 2.67835C9.0587 2.6481 9.04003 2.61784 9.0203 2.6172C8.87846 2.58293 8.75042 2.57875 8.63814 2.54544C7.79604 2.36975 7.7418 2.36798 7.69457 2.45536C7.68971 2.45521 7.68971 2.45521 7.68379 2.48466C7.673 2.51394 7.66318 2.51362 7.64248 2.54259C7.6701 2.60277 7.68391 2.63286 7.69179 2.6924C7.69578 2.72218 7.70064 2.72233 7.7056 2.7225C7.74208 2.8126 7.7864 2.81405 8.17049 2.82659C8.24438 2.829 8.33304 2.83189 8.44134 2.83543C8.51123 2.80807 8.57529 2.81016 8.6344 2.81209ZM7.23395 2.82566C7.22014 2.79557 7.20632 2.76548 7.20233 2.73571C7.19844 2.70594 7.19348 2.70578 7.18852 2.70562C7.16985 2.67536 7.15411 2.7045 7.06352 2.76082C7.033 2.78946 6.99762 2.81795 6.95232 2.84611C6.99169 2.84739 7.02913 2.9079 7.07249 2.93896C7.09126 2.96921 7.10604 2.96969 7.12471 2.99994C7.1562 2.94169 7.1975 2.88376 7.23395 2.82566ZM6.98686 1.48375C7.40051 1.49725 7.81899 1.3627 8.2326 1.228L5.88372 1.15134C6.2482 1.31143 6.61851 1.44209 6.98686 1.48375Z" fill="#2A2F39"/>
<path d="M4.45702 73.3902C4.45702 73.3902 3.47169 77.4429 4.20576 78.4796C4.93983 79.5163 5.42553 79.222 5.42553 79.222C5.49018 79.4032 5.59262 79.6159 5.85707 79.9255C5.87029 79.9558 5.89424 79.8681 5.91674 79.8098C5.92799 79.7808 5.93924 79.7517 5.95049 79.7225C5.94706 79.6927 5.93727 79.6922 5.93384 79.6624C5.91719 79.6022 5.89907 79.5717 5.87949 79.5707C5.7688 79.6246 5.6802 79.5312 5.6214 79.2317L5.97876 79.2493C6.07871 79.3136 6.1771 79.4075 6.26768 79.5602C6.30401 79.6213 6.33681 79.6527 6.36815 79.7135C6.45873 79.8662 6.5445 80.0188 6.6556 80.054C6.74713 80.0881 6.8373 80.1519 6.92247 80.2154C7.04543 80.3105 7.1634 80.4053 7.28731 80.3817C7.58741 80.3669 7.87677 80.4702 8.16467 80.603C8.41487 80.7044 8.66019 80.8054 8.91478 80.818C9.15958 80.8301 9.40146 80.9014 9.6448 80.943C9.81473 80.9811 9.98456 81.0192 10.1545 81.0572C10.1692 81.0579 10.4027 81.0991 10.7441 81.1456C11.7287 81.2832 13.6146 81.5543 13.7468 81.5609C13.9686 81.5421 16.1369 81.2636 16.1726 81.2357C16.3469 81.1849 16.5261 81.1345 16.7003 81.0837C16.8796 81.0333 17.0588 80.9828 17.2428 80.9326L17.2527 80.9331C17.3324 80.9074 17.4269 80.8823 17.47 81.0031C17.5847 81.3647 17.6913 81.192 17.8137 80.9014C17.8368 81.2288 17.92 81.233 17.9969 81.2664C18.0018 81.2666 18.0067 81.2669 18.0165 81.2674C18.1242 81.2727 18.1912 81.3057 18.2403 81.3081C18.3186 81.312 18.3332 81.3127 18.3465 81.343C18.3514 81.3433 18.3514 81.3433 18.3563 81.3435C18.3612 81.3437 18.3695 81.3738 18.3842 81.3745C18.3778 81.4038 18.368 81.4033 18.3617 81.4328C18.3441 81.4912 18.323 81.5198 18.3083 81.519C18.2481 81.5458 18.1942 81.5431 18.134 81.5698C17.8897 81.6468 17.6454 81.7236 17.4041 81.7414C17.2705 81.7645 17.1333 81.7577 17.0027 81.7216C16.8704 81.7151 16.7334 81.7083 16.6012 81.7018C16.5914 81.7013 14.7834 81.9383 14.7721 81.9674C14.1696 82.4419 13.5825 82.2052 13.0199 81.9699C12.7403 81.8671 12.4622 81.7347 12.1928 81.7214C11.8369 81.6742 11.4781 81.6861 11.1192 81.6981C10.9414 81.7189 10.7603 81.71 10.5841 81.7013C10.5498 81.6996 10.5092 81.7273 10.4588 81.7545C10.3775 81.8097 10.2781 81.8346 10.1899 81.8302C9.91379 81.7572 9.79092 81.6621 9.68264 81.5678C9.64005 81.536 9.60236 81.5045 9.55978 81.4728C9.53531 81.4716 9.49273 81.4397 9.48001 81.4985C9.38408 81.8497 9.29255 81.8155 9.19759 81.7515C9.1647 81.7202 9.13043 81.7185 9.09618 81.7168C8.88074 81.7062 8.74371 81.6994 8.65895 81.7249C8.54149 81.7191 8.51702 81.7179 8.49109 81.7463C8.48619 81.7461 8.47984 81.7754 8.47005 81.7749C8.45381 81.8038 8.43777 81.8326 8.40684 81.8608C8.42152 81.8615 8.43474 81.8918 8.44806 81.9221C8.47107 81.9529 8.48919 81.9835 8.51366 81.9847C10.1093 82.2711 10.3492 82.2829 10.7668 82.2739C10.9725 82.284 11.2188 82.2666 11.6937 82.29C12.0755 82.3089 12.4398 82.3861 12.8188 82.4642C13.8675 82.6939 15.0534 82.9305 17.1736 82.2343C17.9472 81.9759 18.7167 81.8951 19.4849 81.8442C19.7164 81.8259 19.9496 81.7781 20.181 81.7599C20.2756 81.7348 20.37 81.7098 20.4581 81.7142C20.7059 81.6672 20.9521 81.6496 21.1998 81.6025L21.2195 81.6035C21.5553 81.5607 21.8902 81.6366 22.2217 81.6826C22.6006 81.7607 22.9762 81.8089 23.3624 81.7389C24.1692 81.6009 24.9809 81.4629 25.7742 81.7987C26.1879 81.9674 26.6061 82.0474 27.0291 82.1276C27.2235 82.1668 27.4227 82.2063 27.6171 82.2457C27.6269 82.2461 27.6318 82.2464 27.6367 82.2466C27.6416 82.2469 27.6465 82.2471 27.6514 82.2474C27.6661 82.2481 27.6773 82.2189 27.7293 82.1622C27.7503 82.1336 27.7763 82.1051 27.8134 82.0477C27.8002 82.0174 27.787 81.987 27.7738 81.9567C27.7522 81.8964 27.7258 81.8357 27.6978 81.8047C27.6699 81.7737 27.6405 81.7722 27.6111 81.7708C27.5867 81.7696 27.5622 81.7684 27.5343 81.7373C27.4966 81.7058 27.4617 81.615 27.4255 81.554C27.4172 81.5239 27.4074 81.5234 27.404 81.4935C27.4509 81.4366 27.4946 81.3497 27.5401 81.3223C27.5807 81.2947 27.6213 81.267 27.6619 81.2393C27.7172 81.2124 27.7741 81.1559 27.8259 81.0992C27.8519 81.0708 27.89 80.8947 27.8929 80.8355L29.0288 80.8916L29.1057 80.9251C29.6188 81.069 30.8967 81.4287 30.9779 81.3734C31.0221 81.3756 31.1929 81.295 31.4029 81.2164C31.5674 81.1652 31.7628 81.0859 31.9321 81.035L33.68 81.1212C33.68 81.1212 33.68 81.1213 33.6736 81.1506C33.6672 81.1799 33.6545 81.2386 33.6496 81.2384C33.6188 81.2665 33.5943 81.2653 33.5635 81.2934C33.4108 81.4045 33.2581 81.5156 33.1083 81.5676C33.0236 81.5931 32.9403 81.5889 32.8571 81.5848C32.7837 81.5812 32.7102 81.5776 32.6368 81.574C32.6319 81.5737 31.5622 81.9658 31.5559 81.9952C31.1844 82.6591 30.8465 82.3457 30.5219 82.0628C30.3612 81.9362 30.2069 81.7803 30.0503 81.7726C29.8217 81.7315 29.5935 81.7796 29.3619 81.7978C29.2773 81.8233 29.1891 81.8189 29.1044 81.8445C29.0849 81.8435 29.0638 81.8721 29.033 81.9003C28.9811 81.9571 28.9179 82.0429 28.8655 82.0106C28.7034 81.9136 28.6359 81.7916 28.5781 81.6701C28.5551 81.6394 28.5384 81.5793 28.5154 81.5484C28.5022 81.5181 28.4776 81.5169 28.4683 81.6054C28.4009 82.0767 28.3451 82.0146 28.2942 81.9528C28.2761 81.9223 28.2565 81.9213 28.2369 81.9203C28.1032 81.9434 28.0249 81.9395 27.976 81.9371C27.9123 81.9339 27.8976 81.9332 27.8814 81.962C27.8765 81.9618 27.8702 81.9911 27.8653 81.9909C27.8589 82.0203 27.8428 82.0491 27.8252 82.1075C27.8301 82.1078 27.8335 82.1377 27.8419 82.1677C27.8551 82.198 27.8668 82.258 27.8864 82.259C28.807 82.601 28.9504 82.5784 29.1967 82.5609C29.3156 82.5372 29.4625 82.5444 29.7416 82.5582C29.9668 82.5693 30.1729 82.6684 30.3937 82.7683C30.999 83.0355 31.6875 83.3068 32.9556 82.2719C33.4216 81.8796 33.8745 81.7537 34.3244 81.6869C34.4434 81.6632 34.5687 81.61 34.6891 81.5566C34.7592 81.5305 34.8306 81.4746 34.9006 81.4484C35.0505 81.3965 35.2017 81.315 35.35 81.2926L35.7466 81.3122C35.8005 81.3148 35.8529 81.3472 35.9067 81.3498C36.1339 81.4203 36.3611 81.4909 36.6019 81.3842L36.693 81.3293L38.0688 81.3972C38.2804 81.5857 38.5027 81.6559 38.7249 81.7263C38.8459 81.7619 38.9604 81.8268 39.0814 81.8625C39.1289 81.8945 39.1626 81.8071 39.2047 81.7499C39.2532 81.6633 39.308 81.5474 39.3932 81.6109L41.993 81.7392C42.1075 81.5076 42.2886 81.22 42.7133 80.7664C42.7344 80.7378 42.7594 80.8279 42.783 80.9477C42.7947 81.0077 42.808 81.038 42.8212 81.0682C42.8099 81.0974 42.7987 81.1265 42.7889 81.126C42.7565 81.1837 42.7228 81.271 42.6998 81.2403C42.5426 81.1435 42.408 81.2851 42.2799 81.6941L42.7988 81.7197C42.95 81.6382 43.1092 81.4978 43.255 81.3269C43.3118 81.2705 43.37 81.1844 43.4234 81.098C43.5756 80.8979 43.7229 80.6976 43.8923 80.6466C44.0259 80.6235 44.1625 80.5412 44.304 80.4593C44.4909 80.3498 44.678 80.2404 44.8591 80.2493C45.287 80.3298 45.7203 80.203 46.1536 80.076C46.5266 79.9757 46.9011 79.8459 47.2683 79.8641C47.6257 79.8817 47.9811 79.84 48.3429 79.7688C48.5955 79.7219 48.8467 79.7047 49.0929 79.6872C49.1126 79.6882 49.4567 79.6756 49.9542 79.6407C51.396 79.5637 54.1641 79.463 54.3487 79.5018C54.6655 79.5471 57.7599 80.293 57.8039 80.2952C58.0507 80.3668 58.3009 80.4681 58.5462 80.5692C58.8013 80.6708 59.0515 80.7721 59.3082 80.8441L59.318 80.8445C59.4291 80.8798 59.5633 80.9457 59.6469 80.7421C59.8642 80.219 59.9964 80.5221 60.1292 80.9143C60.2113 80.4438 60.3289 80.4496 60.4478 80.4257C60.4576 80.4262 60.4674 80.4267 60.4723 80.427C60.6305 80.4051 60.7332 80.4102 60.8017 80.4136C60.9144 80.4192 60.9389 80.4204 60.9599 80.3918C60.9648 80.392 60.9697 80.3922 60.9761 80.3629C60.9858 80.3634 61.002 80.3345 61.023 80.3059C61.0147 80.2758 61.0064 80.2458 60.9966 80.2453C60.975 80.1849 60.9584 80.1248 60.9339 80.1235C60.8522 80.0898 60.7703 80.0561 60.6886 80.0224C60.3468 79.8869 60.0001 79.7512 59.6555 79.6748C59.466 79.6358 59.2701 79.6261 59.0743 79.6164C58.8785 79.6068 58.6875 79.5973 58.4931 79.5581C58.4784 79.5574 55.9021 78.9556 55.8839 78.9251C55.0769 78.1733 54.2006 78.4267 53.3536 78.6815C52.9302 78.8089 52.5165 78.9367 52.1248 78.9174C51.6043 78.9213 51.0883 78.8366 50.5757 78.7816C50.3177 78.7392 50.0596 78.6968 49.8001 78.684C49.7512 78.6816 49.6939 78.6491 49.6234 78.5862C49.5088 78.5213 49.3761 78.4258 49.2425 78.4488C48.8366 78.5178 48.6398 78.6267 48.4724 78.7371C48.4073 78.7635 48.3505 78.8201 48.2854 78.8465C48.2448 78.8741 48.1861 78.8712 48.1694 78.8111C48.0816 78.3026 47.9416 78.3549 47.8016 78.4074C47.7512 78.4345 47.6959 78.4615 47.6483 78.4295C47.3364 78.3844 47.1406 78.3748 47.0182 78.3687C46.8468 78.3603 46.8126 78.3586 46.7798 78.3272C46.77 78.3267 46.7665 78.2969 46.7568 78.2964C46.7386 78.2659 46.7156 78.2351 46.6745 78.1737C46.6955 78.1451 46.7151 78.1461 46.7362 78.1175C46.7719 78.0895 46.8042 78.0319 46.8384 78.0336C46.8971 78.0365 46.9623 78.01 47.0211 78.0129L58.6687 78.588C58.8992 78.6883 59.1396 78.7892 59.3898 78.8905C60.471 79.3591 61.5673 79.6209 62.6743 79.7645C63.0058 79.8105 63.3392 79.916 63.6692 79.9916C63.7999 80.0278 63.9356 80.0641 64.0663 80.1002C64.4145 80.2064 64.7689 80.2832 65.1185 80.3598L65.1479 80.3612C65.6282 80.474 66.1159 80.4387 66.6084 80.4037C67.1645 80.3718 67.7158 80.3397 68.2681 80.4856C69.4104 80.809 70.5689 81.1034 71.7595 80.7469C72.3817 80.5701 72.9981 80.5115 73.6145 80.4529C73.8999 80.4374 74.1917 80.3924 74.4771 80.3769C74.4918 80.3776 74.4967 80.3779 74.5065 80.3783C74.5163 80.3788 74.5212 80.3791 74.5261 80.3793C74.5456 80.3803 74.5589 80.4106 74.6265 80.5325C74.6529 80.5932 74.6857 80.6245 74.7303 80.7157C74.7093 80.7443 74.6867 80.8025 74.6593 80.8605C74.6158 80.9473 74.5722 81.0342 74.5302 81.0914C74.4895 81.119 74.444 81.1465 74.3999 81.1443C74.3608 81.1424 74.3265 81.1407 74.2859 81.1683C74.2242 81.2245 74.166 81.3107 74.1063 81.4264C74.0901 81.4552 74.0789 81.4844 74.0642 81.4837C74.1185 81.5753 74.1763 81.6969 74.2371 81.7591C74.2929 81.8213 74.3453 81.8535 74.4011 81.9155C74.4765 81.9786 74.552 82.0416 74.6225 82.1045C74.6446 82.2538 74.6749 82.4333 74.6789 82.5522L74.676 82.6113C74.606 82.9342 74.5503 83.1687 74.5087 83.3149L74.6409 83.3214L74.676 82.6113C74.676 82.6113 74.6774 82.5817 74.6789 82.5522L74.8279 79.5341L74.8717 78.6463L75.1055 73.9121L4.45702 73.3902ZM15.4629 80.1032C15.7855 80.0301 16.043 79.9835 16.2633 79.9943C16.8622 79.9943 17.2308 79.9828 17.4609 79.9942C17.8282 80.0123 17.8428 80.0131 17.8604 79.9546L17.8653 79.9548L17.8702 79.955C17.8702 79.955 17.8751 79.9553 17.8766 79.9257C17.8927 79.8969 17.9089 79.868 17.925 79.8391L16.4954 79.7685L16.4905 79.7683C16.466 79.7671 16.4401 79.7955 16.4268 79.7651L15.8198 79.7352C15.81 79.7347 15.7937 79.7636 15.784 79.7631C15.7419 79.8203 15.6964 79.8477 15.6636 79.8165C15.6342 79.815 15.6078 79.7544 15.5813 79.6938L11.0721 79.4711C11.149 79.5046 11.2209 79.5378 11.2963 79.6008C11.3865 79.6647 11.478 79.6988 11.5696 79.733C11.6563 79.7669 11.7507 79.7419 11.8389 79.7463C11.9235 79.7208 12.0019 79.7247 12.0852 79.7288C12.2697 79.7675 12.4562 79.8658 12.6526 79.9645C13.0404 80.1615 13.4723 80.3609 14.0363 80.2701C14.1699 80.2469 14.3071 80.2537 14.4407 80.2307C14.5484 80.236 14.6576 80.2117 14.7652 80.2171C15.0263 80.2003 15.2592 80.1524 15.4629 80.1032ZM18.3321 80.8381C18.314 80.8075 18.2945 80.8065 18.0942 80.8856C18.0291 80.912 17.9444 80.9376 17.8401 80.9621C17.9038 80.9652 17.9576 80.9679 18.0016 80.9701C18.2759 80.9836 18.3004 80.9848 18.3263 80.9564L18.3312 80.9567C18.3361 80.9569 18.3473 80.9277 18.3571 80.9282C18.3473 80.9277 18.339 80.8977 18.3341 80.8975C18.3419 80.8386 18.337 80.8383 18.3321 80.8381C18.337 80.8383 18.337 80.8383 18.3321 80.8381ZM19.5925 81.5528C19.736 81.5303 19.8437 81.5356 19.9269 81.5397C20.157 81.551 20.1766 81.552 20.1976 81.5234C20.2025 81.5237 20.2025 81.5237 20.2025 81.5237C20.2074 81.5239 20.2172 81.5244 20.2286 81.4952C20.2187 81.4947 20.2152 81.4649 20.2103 81.4647C20.1707 81.3737 20.1477 81.3429 19.053 81.3483C19.0334 81.3473 19.0075 81.3756 18.9863 81.4042C18.9997 81.4345 19.0045 81.4348 19.0129 81.4649C19.0178 81.4652 19.0178 81.4652 19.0212 81.495C19.0427 81.5553 19.0672 81.5565 19.3233 81.5395C19.3869 81.5427 19.4751 81.547 19.5925 81.5528ZM20.4005 80.1986C20.4348 80.2003 20.4641 80.2017 20.4949 80.1736C20.5469 80.1169 20.6002 80.0305 20.6521 79.9737L18.5664 79.8708C19.1691 79.9895 19.7732 80.0787 20.376 80.1974C20.3858 80.1979 20.3907 80.1981 20.4005 80.1986ZM20.9742 80.1083C20.963 80.1375 20.9483 80.1367 20.9385 80.1363C21.0385 80.2005 21.0483 80.2009 21.1168 80.2043C21.1559 80.2063 21.2196 80.2094 21.3357 80.2448C21.5839 80.2868 21.7635 80.3253 21.8992 80.3616C22.1278 80.4025 22.234 80.4375 22.3418 80.4428C22.4397 80.4477 22.5391 80.4228 22.7315 80.4027C22.7706 80.4046 22.8162 80.3772 22.8652 80.3797C22.9043 80.3816 22.9498 80.3542 22.9787 80.2666C22.9963 80.2081 23.0139 80.1497 23.0315 80.0912L21.9936 80.04C21.9437 80.1561 21.8849 80.1532 21.8174 80.0313L21.264 80.004C21.2709 80.0637 21.2464 80.0625 21.199 80.0305C21.1598 80.0285 21.1011 80.0256 21.0276 80.022C21.0114 80.0509 20.9904 80.0794 20.9742 80.1083ZM22.6852 81.4386C22.7587 81.4422 22.8336 81.4163 22.933 81.3914L22.9819 81.3939L23.0065 81.3951C23.026 81.396 23.0436 81.3376 23.0613 81.2791C23.0676 81.2498 23.0725 81.25 23.0789 81.2207C23.0705 81.1907 23.0607 81.1902 23.0524 81.16C23.0392 81.1298 23.026 81.0995 23.0079 81.0689C22.9945 81.0385 22.9784 81.0675 22.9588 81.0665C22.949 81.066 22.9441 81.0658 22.9343 81.0653C22.7861 81.0876 22.6328 81.1097 22.4844 81.132C22.3361 81.1544 22.1828 81.1765 22.0346 81.1988L22.0375 81.1397C21.9444 81.1351 21.8661 81.1312 21.8025 81.1281C21.5332 81.1148 21.4793 81.1121 21.4289 81.1393C21.4142 81.1385 21.4044 81.1381 21.3834 81.1667C21.3589 81.1654 21.3232 81.1933 21.2679 81.2203C21.3349 81.2533 21.4083 81.2569 21.4754 81.2898C21.5636 81.2942 21.6453 81.3279 21.7187 81.3315C22.3279 81.4209 22.5076 81.4594 22.6852 81.4386ZM23.1892 80.277C23.1946 80.3663 23.2568 80.399 23.2912 80.4007C23.4492 80.3789 23.8091 80.2482 24.0793 80.1429L23.1735 80.0982C23.1804 80.1579 23.1838 80.1877 23.1892 80.277ZM23.8244 80.9312C23.8181 80.9606 23.8054 81.0193 23.7927 81.0779C23.8157 81.1088 23.8352 81.1098 23.8485 81.1401C23.8911 81.1718 23.8994 81.2019 23.9106 81.1728C23.9155 81.173 23.917 81.1435 23.9233 81.1141C23.9297 81.0847 23.9361 81.0554 23.9488 80.9967C23.9306 80.9661 23.9174 80.9358 23.9091 80.9058C23.8729 80.8446 23.8645 80.8146 23.8484 80.8434C23.8435 80.8432 23.8371 80.8726 23.8244 80.9312ZM24.2945 81.2511C24.3175 81.2819 24.3357 81.3124 24.3538 81.3429C24.4546 81.2886 24.5295 81.2627 24.6142 81.2371C24.5961 81.2066 24.5731 81.1758 24.555 81.1453C24.5041 81.0834 24.4545 80.992 24.3958 80.9891C24.3517 80.9869 24.3013 81.0142 24.2544 81.0711C24.2332 81.0997 24.2185 81.099 24.1975 81.1277C24.2254 81.1587 24.2617 81.2197 24.2945 81.2511ZM24.9422 81.2533C24.9603 81.284 24.9799 81.2849 25.2296 81.2973C25.2689 81.2992 25.3129 81.3014 25.3667 81.304C25.4401 81.3077 25.499 81.3106 25.5528 81.3132C25.8172 81.3263 25.8465 81.3277 25.8788 81.27C25.8837 81.2702 25.8852 81.2406 25.8901 81.2409C25.9013 81.2118 25.9126 81.1826 25.9336 81.154C25.9204 81.1237 25.9155 81.1235 25.9072 81.0934L25.9023 81.0932C25.8709 81.0323 25.8367 81.0306 25.2497 81.0906C25.1713 81.0867 25.0867 81.1122 24.9887 81.1074C24.974 81.1066 24.9627 81.1357 24.9481 81.135C24.9383 81.1345 24.9319 81.1639 24.9221 81.1634C24.9305 81.1935 24.9402 81.194 24.9451 81.1942C24.9437 81.2238 24.9422 81.2533 24.9422 81.2533ZM26.1878 81.3742C26.2108 81.405 26.2324 81.4654 26.2505 81.496C26.2652 81.4967 26.2765 81.4676 26.2912 81.4683C26.322 81.4401 26.3528 81.412 26.3773 81.4132C26.3494 81.3822 26.3264 81.3514 26.3068 81.3504C26.251 81.2883 26.2362 81.2876 26.2264 81.2871C26.2215 81.2869 26.2201 81.3164 26.2152 81.3162C26.2088 81.3456 26.199 81.3451 26.1878 81.3742ZM34.1569 81.2041L34.2254 81.2075C34.1945 81.2356 34.175 81.2346 34.1569 81.2041ZM64.5282 82.6739C64.5414 82.7042 64.561 82.7051 64.5742 82.7354C64.5972 82.7663 64.6154 82.7968 64.6384 82.8276C64.7447 82.8625 64.8279 82.8666 64.8817 82.8693C64.9551 82.8729 64.9895 82.8746 64.9768 82.9333L65.7748 82.9727C65.8849 82.8299 65.9745 82.8046 66.0294 82.9853L67.5374 83.0597C67.5222 82.97 67.5055 82.9099 67.4854 82.8199C67.452 82.6996 67.3898 82.6669 67.3311 82.664C67.2626 82.6606 67.2003 82.6278 67.1416 82.6249C66.8704 82.5522 66.7298 82.5157 66.583 82.5084C66.4263 82.5007 66.2682 82.5225 65.9337 82.5356C65.7316 82.5553 65.4706 82.5721 65.1005 82.6131C64.9277 82.6342 64.8396 82.6299 64.7808 82.627C64.7005 82.5637 64.6809 82.5628 64.5282 82.6739ZM55.6222 81.641C55.9948 81.7484 56.3234 81.8535 56.6142 81.9272C57.0686 82.0683 57.4363 82.1755 57.7531 82.2208C58.6182 82.2931 59.1504 82.349 59.4868 82.3954C60.019 82.4513 60.0435 82.4525 60.0616 82.483C60.0665 82.4833 60.0699 82.5131 60.0748 82.5133C60.0915 82.5735 60.1096 82.604 60.1277 82.6345L58.0469 82.5318L58.042 82.5316C58.0092 82.5003 57.975 82.4986 57.949 82.527L57.0726 82.4837C57.0594 82.4534 57.0398 82.4525 57.0266 82.4222C56.9707 82.36 56.9164 82.2685 56.8611 82.2954C56.8156 82.3227 56.7735 82.38 56.7265 82.437L50.1805 82.1138C50.2897 82.0896 50.4052 82.0359 50.5208 81.9823C50.6607 81.9299 50.7974 81.8477 50.9359 81.8248C51.0696 81.8018 51.1953 81.8376 51.3261 81.8738C51.4455 81.939 51.5616 81.9744 51.6806 81.9506C51.9576 81.905 52.2377 81.8002 52.5373 81.6963C53.1267 81.4881 53.7828 81.2239 54.5803 81.4709C54.7733 81.5397 54.969 81.5494 55.1649 81.559C55.3104 81.5959 55.467 81.6037 55.6222 81.641ZM60.8657 81.3066C60.8349 81.3347 60.8055 81.3333 60.5307 81.2307C60.4392 81.1966 60.3232 81.1612 60.1694 81.0942C60.2624 81.0988 60.3408 81.1027 60.4093 81.1061C60.8094 81.1556 60.8436 81.1573 60.8715 81.1883C60.8764 81.1885 60.8764 81.1885 60.8813 81.1888C60.8911 81.1892 60.8994 81.2193 60.919 81.2202C60.898 81.2488 60.8882 81.2484 60.8784 81.2479C60.872 81.2773 60.8706 81.3069 60.8657 81.3066ZM61.9426 80.4699C61.9797 80.4125 62.014 80.4142 62.3812 80.4323C62.484 80.4374 62.6163 80.4439 62.7827 80.4521L62.7812 80.4817C62.9868 80.4918 63.1436 80.4996 63.261 80.5054C63.5891 80.5216 63.6234 80.5233 63.6513 80.5543L63.6562 80.5545L63.6611 80.5548C63.6709 80.5552 63.6792 80.5853 63.6988 80.5862C63.6826 80.6152 63.6777 80.6149 63.6665 80.644C63.5921 80.759 63.5597 80.8167 61.9778 80.6497C61.9485 80.6482 61.9157 80.6169 61.8892 80.5563C61.9103 80.5277 61.9215 80.4985 61.9328 80.4694C61.9328 80.4694 61.9377 80.4697 61.9426 80.4699ZM63.7605 82.5173C63.8094 82.5198 63.8535 82.5219 63.8961 82.5537C63.9651 82.6461 64.0279 82.7678 64.0969 82.8602L61.0712 82.7109C61.9534 82.6358 62.8405 82.5609 63.7261 82.5156C63.736 82.5161 63.7458 82.5166 63.7605 82.5173ZM67.5883 81.1342C67.4428 81.0974 67.3366 81.0625 67.2352 81.0279C66.9821 80.9856 66.7211 81.0025 65.834 81.0773C65.7263 81.072 65.6074 81.0958 65.4737 81.1188C65.3694 81.1433 65.2665 81.1382 65.1657 81.1926C65.2426 81.2261 65.2901 81.2581 65.3244 81.2598C65.3489 81.261 65.367 81.2916 65.3866 81.2925C65.4634 81.326 65.5418 81.3298 65.9286 81.3489C66.0215 81.3535 66.1342 81.3591 66.2712 81.3658L66.2756 81.2771C66.4881 81.3469 66.7021 81.3871 66.9146 81.457C67.1271 81.5268 67.3411 81.567 67.5536 81.6368C67.5634 81.6373 67.5781 81.638 67.5879 81.6385C67.6124 81.6397 67.6354 81.6705 67.6564 81.6419C67.6823 81.6135 67.7083 81.5851 67.7308 81.5269C67.7469 81.4981 67.7631 81.4691 67.7792 81.4403C67.7758 81.4105 67.7674 81.3804 67.764 81.3505C67.7439 81.2605 67.7238 81.1706 67.6994 81.1694C67.6553 81.1673 67.6211 81.1656 67.5883 81.1342ZM67.9641 82.6655C67.9117 82.6333 67.8158 82.6879 67.7953 82.8056C67.7811 82.8938 67.7684 82.9525 67.7494 83.0406L69.0615 83.1054C68.6869 82.9385 68.1864 82.7359 67.9641 82.6655ZM68.81 81.9361C68.8168 81.9957 68.8237 82.0555 68.8321 82.0855C68.8453 82.1158 68.8663 82.0872 68.9246 82.0011C68.9456 81.9725 68.9666 81.9439 68.9941 81.8858C68.9823 81.826 68.9803 81.7665 68.9769 81.7367C68.9734 81.7069 68.97 81.6771 68.9666 81.6472C68.9533 81.6169 68.9387 81.6162 68.8721 81.6723C68.8461 81.7006 68.8202 81.729 68.7796 81.7566C68.7962 81.8168 68.8031 81.8764 68.81 81.9361ZM69.6294 81.4426C69.5986 81.4709 69.5677 81.499 69.5306 81.5564C69.4787 81.6132 69.4219 81.6697 69.3651 81.7263C69.3881 81.757 69.4161 81.788 69.4391 81.8189C69.5047 81.8814 69.5689 81.9736 69.634 81.9472C69.7123 81.951 69.8014 81.8368 69.8841 81.7519C69.9149 81.7238 69.9521 81.6662 69.983 81.6381C69.8733 81.5733 69.7636 81.5086 69.6294 81.4426ZM70.8965 81.6238C70.5342 81.606 70.5049 81.6045 70.4726 81.6623C70.4726 81.6623 70.4726 81.6623 70.4677 81.662C70.4677 81.662 70.4677 81.662 70.4628 81.6618L70.4579 81.6616C70.4466 81.6906 70.4368 81.6902 70.4158 81.7188C70.4256 81.7192 70.4388 81.7496 70.4535 81.7503C70.4716 81.7809 70.4897 81.8114 70.5093 81.8124C70.6498 81.8489 70.7771 81.8552 70.8883 81.8905C71.7231 82.08 71.777 82.0826 71.8254 81.996C71.8303 81.9962 71.8303 81.9962 71.8367 81.9669C71.8479 81.9378 71.8577 81.9383 71.8787 81.9096C71.8523 81.849 71.8391 81.8188 71.8322 81.759C71.8288 81.7292 71.8239 81.729 71.819 81.7288C71.7842 81.638 71.7401 81.6359 71.3582 81.617C71.2848 81.6134 71.1967 81.609 71.0889 81.6037C71.0189 81.6299 70.9553 81.6267 70.8965 81.6238ZM72.2899 81.6334C72.3032 81.6636 72.3164 81.6939 72.3198 81.7238C72.3233 81.7537 72.3281 81.7539 72.333 81.7541C72.3512 81.7847 72.3673 81.7558 72.4584 81.701C72.4892 81.6728 72.5249 81.645 72.5705 81.6176C72.5313 81.6156 72.495 81.5545 72.4524 81.5227C72.4343 81.4921 72.4196 81.4914 72.4015 81.4609C72.3692 81.5186 72.3271 81.5758 72.2899 81.6334ZM72.5131 82.9791C72.1018 82.9588 71.6832 83.0864 71.2696 83.2144L73.6049 83.3297C73.245 83.1635 72.8788 83.0268 72.5131 82.9791Z" fill="#2A2F39"/>
</g>
<defs>
<clipPath id="clip0_162_3148">
<rect width="80" height="84" fill="white"/>
</clipPath>
</defs>
</svg>
