<svg width="80" height="84" viewBox="0 0 80 84" fill="none" xmlns="http://www.w3.org/2000/svg">
<g clip-path="url(#clip0_174_3317)">
<path d="M9.3343 4.79779C9.3343 4.79779 5.73589 3.1764 4.45996 4.33437C4.08083 4.67846 3.53883 6.02388 3.53883 6.02388C3.35997 6.09807 3.15089 6.21282 2.85041 6.50026C2.82056 6.51523 2.90913 6.53693 2.96807 6.55829C2.99754 6.56902 3.02702 6.57966 3.05648 6.59029C3.08619 6.58562 3.08633 6.57542 3.11603 6.57076C3.17558 6.55113 3.2055 6.53106 3.2058 6.51056C3.1482 6.39711 3.23849 6.30112 3.53583 6.22866L3.53037 6.60241C3.46955 6.70904 3.37911 6.81523 3.22951 6.91545C3.16966 6.95548 3.13951 6.99094 3.07975 7.02587C2.93014 7.12609 2.78061 7.22122 2.74926 7.33848C2.71822 7.43533 2.65756 7.53175 2.59695 7.62308C2.50615 7.75486 2.41541 7.88155 2.44316 8.00997C2.46821 8.32267 2.37486 8.62854 2.25188 8.93398C2.15912 9.19885 2.06643 9.45862 2.06254 9.72479C2.05879 9.98076 1.99581 10.2359 1.96245 10.4914C1.9302 10.6702 1.89796 10.8489 1.86572 11.0277C1.86549 11.043 1.83228 11.2883 1.79741 11.6462C1.69343 12.679 1.48672 14.6576 1.4847 14.7958C1.51096 15.0266 1.86318 17.2796 1.89227 17.3158C1.9489 17.4959 2.00546 17.681 2.06208 17.861C2.11863 18.0462 2.17518 18.2314 2.23165 18.4217L2.2315 18.4319C2.25992 18.5142 2.28812 18.6119 2.16889 18.6614C1.81139 18.7945 1.98764 18.8994 2.28221 19.0164C1.95577 19.0525 1.95449 19.1396 1.92367 19.2211C1.92359 19.2262 1.92352 19.2313 1.92337 19.2416C1.92172 19.3542 1.89106 19.4254 1.89031 19.4766C1.88911 19.5585 1.88889 19.5739 1.85904 19.5888C1.85896 19.594 1.85896 19.5939 1.85889 19.5991C1.85881 19.6042 1.82905 19.6139 1.82882 19.6293C1.79927 19.6238 1.79942 19.6135 1.76988 19.608C1.71086 19.5917 1.68153 19.5709 1.68175 19.5555C1.65303 19.4936 1.65386 19.4373 1.62513 19.3754C1.53994 19.1232 1.45474 18.8712 1.42878 18.6199C1.40118 18.4812 1.40328 18.3379 1.43492 18.2001C1.43694 18.0618 1.43903 17.9185 1.44105 17.7803C1.4412 17.7701 1.14276 15.8917 1.11329 15.881C0.618548 15.2696 0.835036 14.6481 1.05115 14.0521C1.14436 13.7565 1.26719 13.4613 1.27131 13.1797C1.30639 12.8065 1.28224 12.4324 1.25808 12.0582C1.23115 11.8735 1.23392 11.6841 1.23662 11.4997C1.23714 11.4639 1.20812 11.4225 1.17924 11.3708C1.1212 11.2881 1.09307 11.1853 1.09442 11.0932C1.15793 10.8023 1.24874 10.6704 1.33933 10.554C1.36963 10.5083 1.39985 10.4678 1.43014 10.4222C1.43052 10.3966 1.46082 10.351 1.40172 10.3398C1.04745 10.2527 1.0785 10.1559 1.13924 10.0544C1.16938 10.019 1.16991 9.98317 1.17043 9.94727C1.17373 9.7221 1.17582 9.57871 1.14747 9.49128C1.14927 9.3684 1.14964 9.3428 1.1204 9.31677C1.12047 9.31167 1.09092 9.30614 1.09107 9.29584C1.06168 9.28011 1.03228 9.26428 1.0031 9.23315C1.00288 9.24845 0.973034 9.26341 0.943187 9.27837C0.91319 9.30354 0.88327 9.3235 0.882895 9.3491C0.650986 11.0252 0.647318 11.2761 0.670576 11.7117C0.667432 11.9266 0.693312 12.183 0.686051 12.6796C0.680211 13.0789 0.615352 13.462 0.550268 13.8604C0.356366 14.9636 0.160368 16.2101 0.928349 18.3975C1.21297 19.1953 1.31978 19.9956 1.39696 20.7955C1.42307 21.0366 1.47879 21.2781 1.5049 21.5191C1.5331 21.6168 1.5613 21.7145 1.55996 21.8066C1.61546 22.0635 1.64133 22.3199 1.69683 22.5767L1.69653 22.5972C1.75068 22.9461 1.68627 23.2985 1.65157 23.6463C1.58648 24.0447 1.55109 24.4384 1.63412 24.839C1.79965 25.676 1.96511 26.5182 1.65654 27.3585C1.50198 27.7966 1.4363 28.236 1.37055 28.6806C1.33793 28.8849 1.30524 29.0944 1.27262 29.2987C1.27247 29.3089 1.27239 29.314 1.27232 29.3191C1.27224 29.3243 1.27217 29.3294 1.27209 29.3345C1.27187 29.3499 1.30135 29.3606 1.35984 29.4126C1.38917 29.4335 1.41841 29.4596 1.47713 29.4962C1.50698 29.4813 1.53682 29.4664 1.56668 29.4514C1.62629 29.4267 1.68599 29.3969 1.71605 29.3666C1.74613 29.3364 1.74658 29.3057 1.74703 29.2749C1.7474 29.2493 1.74778 29.2237 1.77785 29.1934C1.80807 29.1529 1.89754 29.1132 1.95738 29.0731C1.98714 29.0633 1.98729 29.0532 2.017 29.0484C2.07557 29.0953 2.16383 29.1376 2.19278 29.1842C2.2218 29.2255 2.25083 29.2669 2.27986 29.3083C2.30865 29.3651 2.36707 29.4222 2.42556 29.4743C2.45482 29.5003 2.6321 29.5336 2.69134 29.5345L2.67397 30.7222L2.64315 30.8036C2.51673 31.3445 2.20075 32.6917 2.25879 32.7745C2.25812 32.8205 2.34444 32.9959 2.43016 33.2122C2.48693 33.382 2.57288 33.583 2.62958 33.7578L2.60286 35.5855C2.60286 35.5855 2.60286 35.5855 2.5733 35.5799C2.54376 35.5744 2.48467 35.5632 2.48474 35.5581C2.45557 35.527 2.45594 35.5014 2.42677 35.4703C2.31053 35.3149 2.19429 35.1596 2.13729 35.0052C2.10894 34.9178 2.11021 34.8307 2.11148 34.7437C2.11261 34.6669 2.11373 34.5901 2.11485 34.5133C2.11493 34.5082 1.68661 33.4061 1.65706 33.4006C0.980923 33.0374 1.28254 32.6731 1.55429 32.3239C1.67533 32.1515 1.82591 31.9847 1.82831 31.8209C1.86145 31.5808 1.80565 31.3443 1.77954 31.1033C1.7512 31.0159 1.75255 30.9237 1.72419 30.8363C1.72449 30.8158 1.69517 30.7949 1.666 30.7637C1.6075 30.7117 1.51953 30.649 1.54998 30.5931C1.64139 30.4203 1.76101 30.3453 1.88047 30.2804C1.91046 30.2553 1.97 30.2356 2 30.2105C2.02984 30.1956 2.03022 30.17 1.94143 30.1636C1.46815 30.1106 1.52829 30.0499 1.58836 29.9945C1.61828 29.9746 1.61858 29.9541 1.61888 29.9336C1.59128 29.7949 1.59247 29.7129 1.59322 29.6618C1.5942 29.5953 1.59442 29.5799 1.56503 29.5641C1.5651 29.5589 1.53555 29.5534 1.53563 29.5483C1.50608 29.5428 1.47668 29.5269 1.41766 29.5108C1.41759 29.5159 1.3879 29.5205 1.35812 29.5304C1.32828 29.5453 1.2688 29.5598 1.2685 29.5802C0.957986 30.5537 0.985436 30.7026 1.01132 30.959C1.03914 31.0823 1.0369 31.2359 1.03263 31.5277C1.02918 31.7631 0.937099 31.982 0.844789 32.2162C0.59838 32.8577 0.350698 33.5863 1.42815 34.8719C1.83605 35.3438 1.97735 35.8118 2.0594 36.279C2.08723 36.4023 2.1446 36.5311 2.20205 36.6549C2.23062 36.727 2.28882 36.7995 2.31739 36.8716C2.37439 37.0261 2.46101 37.1809 2.48838 37.335L2.48232 37.7496C2.4815 37.8059 2.45106 37.8618 2.45023 37.9182C2.38747 38.1579 2.32471 38.3976 2.4396 38.6451L2.4975 38.738L2.47646 40.1766C2.29536 40.4044 2.23268 40.639 2.16999 40.8736C2.13849 41.0011 2.07745 41.1232 2.04596 41.2507C2.01559 41.3015 2.10401 41.3335 2.16265 41.3753C2.25084 41.4226 2.36858 41.4756 2.30799 41.5669L2.26824 44.2852C2.50365 44.3961 2.79732 44.5746 3.26513 45.0012C3.29446 45.0222 3.20514 45.0516 3.0862 45.0806C3.02673 45.0951 2.99689 45.11 2.96704 45.1249C2.93756 45.1143 2.9081 45.1036 2.90825 45.0933C2.84945 45.0618 2.76103 45.0298 2.79103 45.0046C2.88236 44.8369 2.73621 44.7017 2.32314 44.583L2.3152 45.1257C2.40183 45.2805 2.54762 45.4414 2.72325 45.5873C2.78167 45.6445 2.86971 45.7021 2.95783 45.7546C3.16302 45.9061 3.36827 46.0525 3.42498 46.2274C3.45258 46.366 3.53942 46.5056 3.62619 46.6502C3.74191 46.8413 3.85763 47.0325 3.85486 47.2219C3.78902 47.6716 3.93062 48.1191 4.07223 48.5666C4.1851 48.9523 4.3276 49.3384 4.32198 49.7224C4.31652 50.0961 4.37037 50.4655 4.45377 50.8405C4.50919 51.1025 4.535 51.364 4.56088 51.6204C4.56058 51.6409 4.58496 51.9997 4.63665 52.5176C4.76283 54.0197 4.95766 56.9053 4.92518 57.0994C4.8907 57.4317 4.25049 60.6891 4.24982 60.7352C4.18676 60.9954 4.094 61.2604 4.00132 61.5202C3.90848 61.7901 3.81572 62.055 3.75251 62.3255L3.75236 62.3357C3.72101 62.4531 3.65968 62.5955 3.86591 62.6753C4.39618 62.8828 4.09772 63.032 3.71031 63.1851C4.18337 63.2535 4.18157 63.3763 4.20939 63.4996C4.20924 63.5099 4.20909 63.5201 4.20902 63.5252C4.23625 63.6894 4.23468 63.797 4.23363 63.8686C4.23191 63.9864 4.23153 64.012 4.26085 64.0329C4.26078 64.038 4.2607 64.0431 4.29026 64.0487C4.2901 64.059 4.3195 64.0747 4.34882 64.0956C4.37859 64.0859 4.40837 64.076 4.40852 64.0658C4.46813 64.0411 4.52768 64.0214 4.52805 63.9958C4.55895 63.9093 4.58984 63.8226 4.62074 63.7361C4.74454 63.3743 4.86842 63.0075 4.93298 62.6449C4.96552 62.4457 4.96851 62.2409 4.9715 62.0361C4.9745 61.8313 4.97742 61.6317 5.01004 61.4273C5.01026 61.412 5.52396 58.7006 5.55389 58.6806C6.2777 57.8105 5.99465 56.9051 5.71116 56.0305C5.56941 55.5932 5.42751 55.1661 5.4335 54.7566C5.41181 54.2135 5.47899 53.6717 5.51648 53.1346C5.55006 52.8638 5.58366 52.5929 5.58762 52.3216C5.58837 52.2704 5.61889 52.2093 5.67926 52.1334C5.74031 52.0114 5.83126 51.8694 5.80367 51.7308C5.72093 51.3096 5.60537 51.1083 5.48935 50.9376C5.4607 50.8706 5.40228 50.8134 5.37363 50.7465C5.3446 50.7051 5.3455 50.6437 5.40505 50.624C5.91034 50.5136 5.8532 50.3695 5.79605 50.2252C5.76718 50.1736 5.73838 50.1169 5.76875 50.0661C5.80316 49.7389 5.80615 49.5342 5.80803 49.4062C5.81065 49.227 5.81117 49.1911 5.84132 49.1558C5.84147 49.1455 5.87116 49.1408 5.87131 49.1306C5.90124 49.1105 5.93123 49.0854 5.99115 49.0401C6.02047 49.0611 6.02018 49.0816 6.04949 49.1025C6.0786 49.1387 6.13739 49.1703 6.13687 49.2062C6.13597 49.2676 6.16461 49.3346 6.16371 49.396L5.98562 61.5748C5.89317 61.8192 5.80055 62.0738 5.7078 62.3387C5.27624 63.4845 5.05197 64.6385 4.94611 65.7992C4.9114 66.1469 4.81737 66.4988 4.75303 66.846C4.72138 66.9839 4.68967 67.1267 4.65802 67.2646C4.56377 67.6318 4.49906 68.0046 4.43443 68.3724L4.43398 68.4031C4.3377 68.9087 4.38953 69.4163 4.44129 69.9291C4.49207 70.5084 4.54293 71.0827 4.41591 71.6645C4.13164 72.8688 3.87678 74.0888 4.27359 75.3184C4.47159 75.9613 4.5511 76.6026 4.63061 77.2438C4.65589 77.5411 4.71072 77.844 4.736 78.1414C4.73578 78.1567 4.7357 78.1618 4.73555 78.1721C4.7354 78.1823 4.73533 78.1874 4.73525 78.1926C4.73496 78.213 4.7051 78.228 4.58549 78.303C4.5258 78.3329 4.49565 78.3683 4.40604 78.4182C4.37671 78.3973 4.31777 78.3759 4.2589 78.3494C4.17063 78.3072 4.08237 78.2649 4.02372 78.2231C3.99469 78.1817 3.96575 78.1352 3.96642 78.0892C3.96702 78.0482 3.96755 78.0124 3.93852 77.971C3.88017 77.9087 3.79214 77.8511 3.67446 77.793C3.64507 77.7772 3.61559 77.7666 3.61582 77.7512C3.52606 77.8113 3.4066 77.8761 3.34638 77.9418C3.28623 78.0024 3.25579 78.0583 3.19565 78.1188C3.13521 78.1999 3.07476 78.2809 3.0144 78.3568C2.86583 78.3854 2.6875 78.4238 2.56887 78.4323L2.50962 78.4314C2.1846 78.3703 1.9483 78.3208 1.80071 78.2828L1.79869 78.421L2.50962 78.4314C2.50962 78.4314 2.53924 78.4318 2.56887 78.4323L5.59032 78.4764L6.47899 78.4894L11.2185 78.5587L11.0283 5.07154L9.3343 4.79779ZM2.99998 16.5332C3.08398 16.8673 3.13933 17.1343 3.13596 17.3647C3.15644 17.9898 3.18046 18.3741 3.17694 18.6147C3.17132 18.9987 3.1711 19.014 3.23012 19.0302L3.23004 19.0353L3.22997 19.0404C3.22997 19.0404 3.2299 19.0455 3.25951 19.046C3.28891 19.0618 3.31831 19.0776 3.34771 19.0934L3.36957 17.5985L3.36964 17.5934C3.37002 17.5678 3.34076 17.5418 3.37061 17.5269L3.3799 16.8921C3.38005 16.8819 3.35065 16.8661 3.35079 16.8559C3.29215 16.814 3.26321 16.7675 3.29335 16.7321C3.2938 16.7014 3.35349 16.6715 3.41318 16.6417L3.48213 11.9269C3.45132 12.0083 3.42057 12.0847 3.36012 12.1657C3.29946 12.2621 3.26842 12.359 3.23737 12.4558C3.20641 12.5475 3.2346 12.6452 3.23325 12.7373C3.26161 12.8249 3.26041 12.9067 3.25914 12.9937C3.22666 13.1879 3.13489 13.3862 3.04295 13.5947C2.85915 14.0069 2.67468 14.4649 2.78464 15.0503C2.81223 15.1889 2.81013 15.3323 2.83774 15.4709C2.83609 15.5836 2.86406 15.6966 2.86242 15.8092C2.88808 16.081 2.9438 16.3225 2.99998 16.5332ZM2.36321 19.5552C2.39314 19.5352 2.39344 19.5147 2.30756 19.3086C2.27892 19.2417 2.25056 19.1541 2.22252 19.0462C2.22154 19.1128 2.22072 19.1691 2.22005 19.2152C2.21585 19.5019 2.21548 19.5275 2.24472 19.5535L2.24465 19.5586C2.24457 19.5637 2.27405 19.5744 2.2739 19.5846C2.27405 19.5744 2.30382 19.5646 2.30389 19.5595C2.36306 19.5654 2.36314 19.5603 2.36321 19.5552C2.36314 19.5603 2.36314 19.5603 2.36321 19.5552ZM1.69177 20.8972C1.71921 21.0461 1.71757 21.1587 1.71629 21.2458C1.71277 21.4863 1.71248 21.5068 1.7418 21.5277C1.74173 21.5329 1.74173 21.5329 1.74173 21.5329C1.74165 21.538 1.7415 21.5482 1.77097 21.5589C1.77112 21.5486 1.80082 21.5439 1.8009 21.5388C1.89043 21.494 1.92043 21.4689 1.87788 20.3264C1.87818 20.3059 1.84893 20.2799 1.81961 20.259C1.78976 20.2739 1.78969 20.279 1.75992 20.2888C1.75984 20.294 1.75984 20.294 1.73014 20.2987C1.67052 20.3234 1.67015 20.349 1.69588 20.6156C1.69491 20.6822 1.69356 20.7743 1.69177 20.8972ZM3.0727 21.6905C3.07218 21.7263 3.07173 21.7571 3.1009 21.7883C3.15939 21.8403 3.24752 21.8928 3.30601 21.9449L3.3379 19.764C3.23975 20.3975 3.17122 21.0314 3.07308 21.6649C3.07293 21.6751 3.07285 21.6803 3.0727 21.6905ZM3.18251 22.2861C3.15303 22.2755 3.15326 22.2601 3.1534 22.2499C3.09259 22.3565 3.09244 22.3667 3.09139 22.4384C3.09079 22.4793 3.08982 22.5459 3.05841 22.6683C3.02496 22.929 2.99257 23.1179 2.96085 23.2609C2.92772 23.501 2.89644 23.6133 2.8948 23.7258C2.8933 23.8282 2.92143 23.9311 2.94812 24.1312C2.94753 24.1721 2.97648 24.2186 2.97573 24.2698C2.97513 24.3107 3.00408 24.3572 3.09257 24.3841C3.15159 24.4004 3.21061 24.4165 3.26963 24.4328L3.2855 23.3475C3.16769 23.2997 3.16858 23.2383 3.28819 23.1632L3.29665 22.5847C3.23726 22.5941 3.23763 22.5685 3.268 22.5178C3.2686 22.4768 3.2695 22.4154 3.27062 22.3386C3.24123 22.3228 3.2119 22.3019 3.18251 22.2861ZM1.91128 24.1211C1.91016 24.1979 1.93865 24.2751 1.96678 24.3779L1.96603 24.4291L1.96566 24.4547C1.96536 24.4751 2.02438 24.4914 2.0834 24.5077C2.11294 24.5132 2.11286 24.5183 2.14242 24.5238C2.17218 24.5141 2.17233 24.5038 2.20211 24.494C2.23195 24.479 2.2618 24.4642 2.29172 24.4441C2.32157 24.4291 2.29217 24.4134 2.29247 24.3929C2.29262 24.3827 2.29269 24.3775 2.29284 24.3673C2.26547 24.2133 2.23816 24.0542 2.21079 23.9002C2.18341 23.7461 2.15612 23.587 2.12874 23.433L2.18798 23.4339C2.1894 23.3366 2.1906 23.2547 2.19157 23.1881C2.19569 22.9066 2.19651 22.8502 2.16765 22.7986C2.16787 22.7833 2.16802 22.773 2.13869 22.7522C2.13907 22.7266 2.10997 22.6903 2.08117 22.6335C2.0505 22.7048 2.04938 22.7816 2.01871 22.8528C2.01736 22.9449 1.98647 23.0315 1.98535 23.1083C1.91675 23.7474 1.88435 23.9364 1.91128 24.1211ZM3.08935 24.6043C3.00033 24.6132 2.96974 24.6793 2.96922 24.7151C2.99644 24.8794 3.13916 25.2502 3.25361 25.5283L3.26746 24.5813C3.20806 24.5906 3.17836 24.5953 3.08935 24.6043ZM2.45711 25.2914C2.42755 25.2859 2.36846 25.2747 2.30937 25.2637C2.27937 25.2888 2.27907 25.3093 2.24923 25.3242C2.21893 25.3698 2.18916 25.3796 2.21863 25.3903C2.21855 25.3954 2.24818 25.3959 2.27772 25.4014C2.30727 25.4069 2.33682 25.4126 2.39592 25.4236C2.42583 25.4036 2.45568 25.3887 2.48545 25.3788C2.54529 25.3388 2.57507 25.3289 2.54567 25.3132C2.54574 25.308 2.5162 25.3025 2.45711 25.2914ZM2.15347 25.7938C2.12348 25.819 2.09355 25.8391 2.06363 25.8591C2.12138 25.9624 2.14987 26.0396 2.17823 26.127C2.20815 26.107 2.23815 26.0819 2.26806 26.0618C2.32814 26.0064 2.41782 25.9513 2.41872 25.8899C2.4194 25.8438 2.39053 25.7922 2.33196 25.7452C2.30263 25.7244 2.30286 25.709 2.27353 25.6881C2.24346 25.7183 2.18362 25.7585 2.15347 25.7938ZM2.17321 26.4701C2.14329 26.4901 2.14299 26.5106 2.13917 26.7716C2.13857 26.8126 2.1379 26.8587 2.13707 26.915C2.13595 26.9918 2.13505 27.0532 2.13423 27.1095C2.13019 27.386 2.12974 27.4167 2.18853 27.4482C2.18846 27.4534 2.21808 27.4539 2.21801 27.459C2.24748 27.4696 2.27695 27.4803 2.30628 27.5011C2.33612 27.4863 2.3362 27.4812 2.36597 27.4713L2.36605 27.4662C2.42582 27.4313 2.42634 27.3954 2.34638 26.785C2.34757 26.7031 2.31923 26.6155 2.32073 26.5132C2.32095 26.4979 2.29148 26.4871 2.2917 26.4718C2.29185 26.4615 2.2623 26.456 2.26245 26.4458C2.23268 26.4556 2.23253 26.4658 2.23246 26.471C2.20283 26.4705 2.17321 26.4701 2.17321 26.4701ZM2.09488 27.7746C2.06488 27.7998 2.00526 27.8245 1.97534 27.8445C1.97512 27.8598 2.00459 27.8706 2.00436 27.8859C2.03354 27.9171 2.06271 27.9482 2.06233 27.9738C2.09241 27.9436 2.1224 27.9184 2.1227 27.8979C2.18284 27.8374 2.18307 27.822 2.18322 27.8117C2.18329 27.8066 2.15368 27.8062 2.15375 27.8011C2.1242 27.7955 2.12435 27.7852 2.09488 27.7746ZM2.53628 36.0863L2.53523 36.1579C2.50605 36.1268 2.50635 36.1063 2.53628 36.0863ZM2.10154 67.8416C2.07169 67.8565 2.07139 67.877 2.04155 67.8919C2.01155 67.9171 1.98162 67.9371 1.95163 67.9623C1.92036 68.0745 1.91908 68.1615 1.91826 68.2178C1.91714 68.2946 1.91661 68.3304 1.85752 68.3194L1.84532 69.1538C1.99186 69.2635 2.02014 69.356 1.84142 69.42L1.81837 70.9968C1.90754 70.9776 1.96708 70.9579 2.05633 70.9336C2.17541 70.8945 2.206 70.8283 2.2069 70.7669C2.20795 70.6952 2.23855 70.6291 2.23945 70.5677C2.30288 70.2819 2.33467 70.1338 2.33692 69.9802C2.33931 69.8165 2.31209 69.6521 2.28755 69.3036C2.26101 69.0933 2.23535 68.8215 2.18172 68.4367C2.15472 68.2572 2.15607 68.165 2.15697 68.1036C2.21748 68.0174 2.21778 67.9969 2.10154 67.8416ZM2.8306 58.5076C2.73597 58.9005 2.64201 59.2473 2.57828 59.5536C2.45275 60.0331 2.35819 60.4208 2.32371 60.7532C2.28083 61.6588 2.24306 62.2164 2.20827 62.5692C2.17049 63.1268 2.17011 63.1524 2.14019 63.1724C2.14011 63.1775 2.11041 63.1822 2.11034 63.1873C2.05079 63.2069 2.02088 63.227 1.99095 63.2471L2.02277 61.0713L2.02284 61.0662C2.05299 61.0308 2.05352 60.9949 2.02426 60.9689L2.03766 60.0526C2.06752 60.0376 2.06781 60.0172 2.09766 60.0023C2.15781 59.9417 2.24757 59.8816 2.21877 59.8248C2.18982 59.7783 2.13117 59.7365 2.07261 59.6896L2.17269 52.8451C2.20066 52.9581 2.25819 53.0768 2.31572 53.1953C2.37287 53.3396 2.45971 53.4791 2.48724 53.6229C2.51483 53.7615 2.48327 53.8942 2.45162 54.032C2.3905 54.1591 2.35909 54.2815 2.38691 54.4048C2.44196 54.6923 2.55626 54.9807 2.67025 55.2896C2.8984 55.8972 3.18482 56.5721 2.96511 57.4138C2.90287 57.6177 2.89987 57.8225 2.89688 58.0272C2.86502 58.1804 2.86262 58.3442 2.8306 58.5076ZM3.34332 63.9683C3.31414 63.9372 3.31459 63.9064 3.40773 63.6159C3.43877 63.5191 3.47019 63.3967 3.53183 63.2337C3.53041 63.331 3.52921 63.4129 3.52816 63.4846C3.4924 63.9039 3.49187 63.9398 3.46181 63.97C3.46173 63.9751 3.46173 63.9751 3.46166 63.9802C3.46151 63.9905 3.43173 64.0003 3.43143 64.0208C3.40211 63.9999 3.40226 63.9897 3.40241 63.9794C3.37286 63.9738 3.34324 63.9734 3.34332 63.9683ZM4.21619 65.0615C4.27491 65.0982 4.27438 65.1339 4.26877 65.5179C4.2672 65.6254 4.26518 65.7637 4.26263 65.9378L4.233 65.9373C4.22986 66.1523 4.22746 66.3161 4.22567 66.439C4.22065 66.7819 4.22013 66.8178 4.19006 66.8481L4.18999 66.8532L4.18991 66.8583C4.18976 66.8686 4.15999 66.8784 4.15969 66.8989C4.13029 66.883 4.13037 66.8779 4.10089 66.8673C3.98345 66.7939 3.92466 66.7623 4.03778 65.1049C4.03823 65.0742 4.06837 65.0388 4.12807 65.009C4.15739 65.0298 4.18686 65.0406 4.21634 65.0512C4.21634 65.0512 4.21626 65.0563 4.21619 65.0615ZM2.23186 67.0345C2.23111 67.0857 2.23043 67.1318 2.20013 67.1774C2.11015 67.2529 1.99061 67.3228 1.90062 67.3983L1.94689 64.2346C2.05197 65.1527 2.15699 66.0759 2.23238 66.9987C2.23223 67.0089 2.23208 67.0192 2.23186 67.0345ZM3.74449 70.9788C3.77635 70.8257 3.80762 70.7135 3.83881 70.6065C3.87233 70.3406 3.84667 70.0689 3.74166 69.1457C3.74331 69.0331 3.71549 68.9098 3.68788 68.7712C3.65984 68.6631 3.66141 68.5557 3.60366 68.4524C3.57284 68.5339 3.54247 68.5846 3.54195 68.6205C3.54157 68.6461 3.51165 68.6662 3.51135 68.6866C3.48053 68.7681 3.47933 68.85 3.47342 69.2544C3.472 69.3517 3.47028 69.4695 3.46818 69.6127L3.55704 69.614C3.4945 69.8384 3.46159 70.0633 3.39905 70.2876C3.33651 70.512 3.3036 70.7369 3.24106 70.9613C3.24091 70.9715 3.24068 70.9869 3.24054 70.9971C3.24016 71.0227 3.21016 71.0478 3.23949 71.0688C3.26873 71.0948 3.29798 71.1208 3.35693 71.1422C3.38632 71.1579 3.41572 71.1737 3.44512 71.1895C3.47482 71.1848 3.50459 71.175 3.53428 71.1704C3.62353 71.1461 3.71276 71.1218 3.71314 71.0962C3.71381 71.0501 3.71434 71.0142 3.74449 70.9788ZM2.22687 71.4277C2.25731 71.3718 2.19949 71.2737 2.08123 71.2566C1.99252 71.245 1.93341 71.234 1.84478 71.2173L1.82471 72.5893C1.97867 72.1921 2.16418 71.6623 2.22687 71.4277ZM2.9847 72.2837C2.9253 72.293 2.8659 72.3024 2.83613 72.3122C2.80628 72.3272 2.83561 72.3481 2.92366 72.4056C2.95297 72.4266 2.9823 72.4475 3.04117 72.4739C3.10064 72.4594 3.15996 72.4552 3.18965 72.4505C3.21935 72.4458 3.24904 72.4411 3.27874 72.4364C3.30858 72.4215 3.30881 72.4062 3.25054 72.3387C3.2213 72.3127 3.19204 72.2867 3.16303 72.2453C3.10348 72.2649 3.04409 72.2743 2.9847 72.2837ZM3.50576 73.1208C3.47659 73.0896 3.44742 73.0585 3.3887 73.0218C3.3302 72.9697 3.27178 72.9125 3.21336 72.8554C3.18336 72.8805 3.15329 72.9108 3.12329 72.936C3.063 73.0068 2.97309 73.0771 3.00174 73.1441C3.00054 73.226 3.11775 73.3148 3.20543 73.398C3.23459 73.4292 3.29331 73.4658 3.32249 73.497C3.38346 73.3801 3.44442 73.2632 3.50576 73.1208ZM3.36781 74.45C3.37335 74.0712 3.3738 74.0405 3.315 74.0089C3.315 74.0089 3.315 74.0089 3.31508 74.0038C3.31508 74.0038 3.31508 74.0038 3.31515 73.9987L3.31523 73.9936C3.28575 73.9829 3.2859 73.9727 3.25658 73.9517C3.25643 73.962 3.22658 73.9769 3.22636 73.9923C3.19644 74.0123 3.16652 74.0324 3.16622 74.0528C3.13443 74.2009 3.13248 74.334 3.10113 74.4513C2.94015 75.3296 2.93933 75.3859 3.02752 75.4333C3.02744 75.4384 3.02744 75.4384 3.05699 75.444C3.08646 75.4547 3.08631 75.4649 3.11564 75.4858C3.17533 75.456 3.20517 75.441 3.26457 75.4317C3.29427 75.427 3.29434 75.4218 3.29442 75.4167C3.38389 75.3771 3.38456 75.331 3.3904 74.9317C3.39152 74.8549 3.39287 74.7628 3.39452 74.6501C3.36594 74.578 3.36691 74.5115 3.36781 74.45ZM3.40579 75.9048C3.37595 75.9197 3.3461 75.9346 3.3164 75.9393C3.28671 75.944 3.28663 75.9491 3.28656 75.9543C3.25663 75.9743 3.28603 75.9901 3.34393 76.0831C3.37311 76.1142 3.4022 76.1505 3.43115 76.197C3.43175 76.1561 3.49159 76.116 3.52188 76.0703C3.55181 76.0503 3.55204 76.0349 3.58195 76.0149C3.52316 75.9833 3.46451 75.9415 3.40579 75.9048ZM2.06838 76.1873C2.07467 75.7573 1.93285 75.3251 1.79095 74.8981L1.75524 77.34C1.90897 76.9582 2.03315 76.5709 2.06838 76.1873Z" fill="#2A2F39"/>
<path d="M69.9622 79.1668L74.5 79.1668L75.7579 77.9416C75.9367 77.8675 76.1458 77.7528 76.4463 77.4654C76.4762 77.4505 76.3877 77.4287 76.3287 77.4073C76.2992 77.3966 76.2698 77.386 76.2403 77.3753C76.2106 77.38 76.2104 77.3902 76.1807 77.3949C76.1212 77.4145 76.0912 77.4345 76.0909 77.455C76.1486 77.5685 76.0582 77.6645 75.7609 77.7369L75.7665 77.3631C75.8272 77.2565 75.9177 77.1503 76.0673 77.0501C76.1272 77.0101 76.1573 76.9747 76.2171 76.9397C76.3668 76.8395 76.5163 76.7444 76.5476 76.6271C76.5787 76.5303 76.6394 76.4339 76.6999 76.3426C76.7908 76.2108 76.8816 76.0842 76.8539 75.9558C76.8288 75.643 76.9222 75.3372 77.0452 75.0318C77.1381 74.7669 77.2308 74.5072 77.2347 74.241C77.2385 73.985 77.3015 73.7299 77.335 73.4744C77.3672 73.2956 77.3995 73.1169 77.4317 72.9381C77.4319 72.9228 77.4653 72.6775 77.5002 72.3196C77.6043 71.2868 77.8113 69.3083 77.8133 69.1701C77.7871 68.9393 77.4353 66.6862 77.4061 66.65C77.3496 66.4699 77.293 66.2848 77.2364 66.1047C77.1799 65.9195 77.1234 65.7343 77.0669 65.5441L77.0671 65.5338C77.0387 65.4514 77.0105 65.3538 77.1298 65.3044C77.4873 65.1713 77.311 65.0663 77.0165 64.9493C77.3429 64.9132 77.3441 64.8262 77.3751 64.7447C77.3751 64.7396 77.3752 64.7344 77.3754 64.7242C77.377 64.6116 77.4077 64.5404 77.4084 64.4892C77.4096 64.4073 77.4099 64.3919 77.4397 64.3769C77.4398 64.3718 77.4398 64.3718 77.4399 64.3667C77.4399 64.3616 77.4698 64.3518 77.47 64.3365C77.4995 64.342 77.4994 64.3523 77.5289 64.3578C77.588 64.374 77.6172 64.395 77.617 64.4104C77.6457 64.4722 77.6449 64.5285 77.6736 64.5904C77.7588 64.8425 77.8439 65.0947 77.8698 65.346C77.8974 65.4846 77.8953 65.628 77.8636 65.7657C77.8616 65.9039 77.8595 66.0473 77.8574 66.1855C77.8573 66.1958 78.1555 68.0742 78.1849 68.0849C78.6795 68.6964 78.463 69.3179 78.2468 69.9138C78.1535 70.2094 78.0306 70.5045 78.0265 70.7861C77.9914 71.1594 78.0154 71.5335 78.0395 71.9077C78.0665 72.0924 78.0637 72.2818 78.061 72.4661C78.0604 72.502 78.0894 72.5433 78.1183 72.595C78.1763 72.6778 78.2044 72.7805 78.2031 72.8727C78.1395 73.1636 78.0487 73.2955 77.9581 73.4119C77.9278 73.4575 77.8975 73.498 77.8672 73.5436C77.8668 73.5692 77.8366 73.6149 77.8956 73.626C78.2499 73.7132 78.2188 73.81 78.1581 73.9115C78.1279 73.9469 78.1274 73.9827 78.1268 74.0185C78.1235 74.2438 78.1214 74.3872 78.1498 74.4746C78.148 74.5975 78.1476 74.6231 78.1768 74.6491C78.1767 74.6542 78.2063 74.6598 78.2061 74.6701C78.2355 74.6858 78.265 74.7017 78.2941 74.7328C78.2943 74.7174 78.3241 74.7025 78.354 74.6876C78.384 74.6624 78.4139 74.6423 78.4143 74.6167C78.6465 72.9407 78.6502 72.6899 78.6269 72.2543C78.6301 72.0394 78.6043 71.7829 78.6116 71.2863C78.6175 70.887 78.6825 70.504 78.7476 70.1056C78.9417 69.0024 79.1379 67.7559 78.3702 65.5684C78.0858 64.7705 77.9791 63.9703 77.902 63.1703C77.8759 62.9292 77.8202 62.6878 77.7942 62.4468C77.766 62.349 77.7378 62.2513 77.7392 62.1591C77.6837 61.9024 77.6579 61.646 77.6024 61.3891L77.6027 61.3686C77.5486 61.0196 77.613 60.6673 77.6479 60.3196C77.713 59.9212 77.7484 59.5275 77.6655 59.1268C77.5 58.2898 77.3347 57.4475 77.6434 56.6073C77.798 56.1692 77.8638 55.7298 77.9296 55.2853C77.9623 55.0809 77.995 54.8715 78.0276 54.6672C78.0278 54.657 78.0278 54.6519 78.0279 54.6467C78.028 54.6416 78.0281 54.6365 78.0281 54.6314C78.0284 54.616 77.9989 54.6053 77.9404 54.5533C77.9111 54.5323 77.8819 54.5063 77.8231 54.4696C77.7933 54.4845 77.7635 54.4994 77.7336 54.5144C77.674 54.539 77.6143 54.5689 77.5842 54.5992C77.5541 54.6295 77.5537 54.6602 77.5532 54.6909C77.5528 54.7164 77.5525 54.742 77.5224 54.7724C77.4921 54.8129 77.4027 54.8525 77.3428 54.8926C77.3131 54.9024 77.3129 54.9126 77.2832 54.9173C77.2246 54.8704 77.1363 54.8281 77.1074 54.7816C77.0784 54.7402 77.0494 54.6988 77.0203 54.6574C76.9916 54.6006 76.9332 54.5435 76.8747 54.4914C76.8455 54.4654 76.6681 54.4321 76.6089 54.4312L76.6265 53.2435L76.6573 53.162C76.7838 52.6212 77.1 51.274 77.042 51.1912C77.0426 51.1451 76.9563 50.9698 76.8707 50.7534C76.8139 50.5837 76.728 50.3827 76.6713 50.2077L76.6984 48.3802C76.6984 48.3802 76.6984 48.3802 76.7279 48.3858C76.7574 48.3913 76.8165 48.4024 76.8165 48.4076C76.8456 48.4387 76.8452 48.4643 76.8744 48.4955C76.9906 48.6508 77.1068 48.8061 77.1638 48.9606C77.1921 49.048 77.1909 49.1351 77.1896 49.2221C77.1884 49.2989 77.1873 49.3757 77.1862 49.4525C77.1861 49.4576 77.6143 50.5596 77.6438 50.5652C78.3199 50.9285 78.0183 51.2928 77.7464 51.642C77.6253 51.8143 77.4747 51.981 77.4723 52.1449C77.4392 52.385 77.4949 52.6214 77.5209 52.8625C77.5493 52.9499 77.548 53.0421 77.5763 53.1295C77.576 53.15 77.6053 53.171 77.6345 53.2021C77.693 53.2542 77.7809 53.3169 77.7505 53.3727C77.659 53.5455 77.5394 53.6205 77.4199 53.6854C77.3899 53.7105 77.3304 53.7301 77.3004 53.7552C77.2705 53.7702 77.2701 53.7958 77.3589 53.8022C77.8322 53.8553 77.7721 53.9158 77.712 53.9712C77.6821 53.9913 77.6818 54.0118 77.6815 54.0323C77.709 54.1709 77.7078 54.2528 77.707 54.304C77.7061 54.3706 77.7058 54.386 77.7353 54.4017C77.7352 54.4068 77.7647 54.4124 77.7647 54.4175C77.7942 54.4231 77.8236 54.4388 77.8826 54.4551C77.8827 54.45 77.9124 54.4453 77.9421 54.4355C77.9721 54.4206 78.0315 54.4061 78.0318 54.3856C78.3425 53.4122 78.315 53.2634 78.2892 53.0069C78.2614 52.8836 78.2637 52.73 78.268 52.4383C78.2715 52.2028 78.3636 51.9839 78.4559 51.7498C78.7024 51.1082 78.9502 50.3797 77.8729 49.094C77.4651 48.622 77.3239 48.1539 77.2419 47.6867C77.2141 47.5635 77.1568 47.4346 77.0993 47.3108C77.0708 47.2387 77.0125 47.1661 76.984 47.0941C76.9271 46.9397 76.8404 46.7848 76.8131 46.6307L76.8192 46.2161C76.8201 46.1598 76.8505 46.1038 76.8513 46.0475C76.9141 45.8078 76.9769 45.5681 76.8621 45.3206L76.8041 45.2276L76.8254 43.7891C77.0066 43.5614 77.0693 43.3268 77.132 43.0922C77.1635 42.9646 77.2246 42.8426 77.2561 42.7151C77.2865 42.6643 77.198 42.6323 77.1394 42.5904C77.0512 42.543 76.9335 42.4901 76.9941 42.3989L77.0343 39.6805C76.7989 39.5695 76.5052 39.3911 76.0375 38.9642C76.0082 38.9434 76.0975 38.9139 76.2165 38.885C76.2759 38.8706 76.3057 38.8556 76.3356 38.8406C76.3651 38.8514 76.3945 38.862 76.3944 38.8723C76.4532 38.9039 76.5416 38.9359 76.5116 38.961C76.4202 39.1287 76.5664 39.264 76.9794 39.3827L76.9874 38.8401C76.9008 38.6852 76.7551 38.5243 76.5795 38.3783C76.521 38.3211 76.433 38.2635 76.345 38.211C76.1398 38.0595 75.9345 37.9131 75.8779 37.7382C75.8502 37.5995 75.7635 37.4599 75.6767 37.3153C75.561 37.1241 75.4453 36.933 75.4481 36.7436C75.514 36.2939 75.3725 35.8464 75.231 35.3988C75.1182 35.0131 74.9756 34.627 74.9813 34.243C74.9868 33.8694 74.9331 33.4998 74.8497 33.1249C74.7944 32.8629 74.7686 32.6014 74.7427 32.345C74.743 32.3245 74.7187 31.9657 74.6671 31.4478C74.5412 29.9457 74.3468 27.06 74.3792 26.8659C74.4139 26.5336 75.0546 23.2763 75.0552 23.2302C75.1183 22.97 75.2111 22.7051 75.3039 22.4453C75.3967 22.1753 75.4895 21.9104 75.5528 21.64L75.5529 21.6297C75.5843 21.5124 75.6456 21.3699 75.4394 21.2901C74.9091 21.0826 75.2077 20.9334 75.5951 20.7804C75.122 20.7119 75.1239 20.589 75.0961 20.4658C75.0962 20.4555 75.0964 20.4453 75.0965 20.4402C75.0692 20.2759 75.0708 20.1684 75.0718 20.0967C75.0736 19.979 75.0739 19.9534 75.0447 19.9325C75.0447 19.9274 75.0448 19.9223 75.0153 19.9167C75.0154 19.9065 74.9861 19.8906 74.9567 19.8698C74.9269 19.8796 74.8972 19.8893 74.897 19.8996C74.8374 19.9243 74.7779 19.944 74.7775 19.9696C74.7466 20.0561 74.7156 20.1427 74.6847 20.2293C74.5609 20.591 74.4369 20.9578 74.3724 21.3204C74.3397 21.5197 74.3367 21.7244 74.3337 21.9292C74.3306 22.134 74.3277 22.3336 74.2951 22.5379C74.2949 22.5533 73.7807 25.2646 73.7508 25.2847C73.0269 26.1547 73.3098 27.06 73.5932 27.9347C73.7348 28.3721 73.8766 28.7991 73.8706 29.2087C73.8923 29.7517 73.8249 30.2935 73.7874 30.8306C73.7538 31.1014 73.7201 31.3724 73.7161 31.6436C73.7153 31.6948 73.6848 31.7559 73.6245 31.8318C73.5634 31.9537 73.4724 32.0958 73.5 32.2344C73.5826 32.6556 73.6982 32.8569 73.8142 33.0276C73.8429 33.0946 73.9012 33.1518 73.9298 33.2188C73.9589 33.2602 73.958 33.3216 73.8984 33.3412C73.3931 33.4515 73.4502 33.5957 73.5074 33.74C73.5362 33.7916 73.565 33.8484 73.5346 33.8991C73.5002 34.2262 73.4972 34.431 73.4953 34.559C73.4926 34.7382 73.4921 34.7741 73.462 34.8094C73.4618 34.8196 73.4321 34.8244 73.4319 34.8346C73.402 34.8547 73.372 34.8798 73.3121 34.925C73.2828 34.9041 73.2831 34.8836 73.2538 34.8627C73.2247 34.8264 73.1659 34.7949 73.1664 34.759C73.1673 34.6976 73.1387 34.6305 73.1396 34.5691L73.3196 22.3904C73.4121 22.146 73.5046 21.8914 73.5975 21.6264C74.0292 20.4808 74.2536 19.3268 74.3597 18.1661C74.3944 17.8185 74.4885 17.4665 74.553 17.1192C74.5846 16.9815 74.6163 16.8386 74.648 16.7008C74.7423 16.3335 74.8071 15.9607 74.8717 15.593L74.8722 15.5623C74.9686 15.0567 74.9168 14.5491 74.8651 14.0363C74.8144 13.4569 74.7637 12.8827 74.8908 12.3009C75.1752 11.0967 75.4303 9.87659 75.0337 8.647C74.8358 8.00401 74.7563 7.36286 74.6769 6.72162C74.6517 6.42421 74.5969 6.12137 74.5716 5.82396C74.5719 5.80856 74.5719 5.80347 74.5721 5.79327C74.5722 5.78297 74.5723 5.77787 74.5724 5.77277C74.5727 5.75228 74.6026 5.73742 74.7222 5.66237C74.7819 5.63255 74.812 5.5971 74.9017 5.54721C74.931 5.56815 74.9899 5.58952 75.0488 5.61599C75.137 5.6582 75.2253 5.70051 75.2839 5.74228C75.313 5.78372 75.3419 5.83024 75.3412 5.87634C75.3406 5.91723 75.3401 5.95314 75.3691 5.99447C75.4275 6.05684 75.5155 6.11444 75.6331 6.17248C75.6626 6.18832 75.692 6.19896 75.6918 6.21436C75.7816 6.15418 75.9011 6.08944 75.9612 6.02372C76.0214 5.9632 76.0519 5.90724 76.1121 5.84672C76.1725 5.76571 76.233 5.6847 76.2933 5.60878C76.4418 5.58027 76.6202 5.5419 76.7389 5.53345L76.7981 5.53433C77.1231 5.59544 77.3594 5.64503 77.5069 5.68302L77.509 5.54483L76.7981 5.53433C76.7981 5.53433 76.7685 5.53389 76.7389 5.53345L73.7174 5.48881L72.8287 5.47568L68.0892 5.40565L69.2686 78.9417L69.9622 79.1668ZM76.2983 67.4323C76.2144 67.0983 76.1591 66.8312 76.1625 66.6008C76.142 65.9758 76.1181 65.5914 76.1217 65.3509C76.1273 64.9669 76.1276 64.9516 76.0686 64.9353L76.0687 64.9302L76.0687 64.9251C76.0687 64.9251 76.0688 64.9199 76.0391 64.9195C76.0098 64.9038 75.9804 64.8879 75.951 64.8722L75.9289 66.3669L75.9289 66.3721C75.9285 66.3977 75.9577 66.4238 75.9279 66.4386L75.9185 67.0735C75.9183 67.0837 75.9477 67.0995 75.9476 67.1097C76.0062 67.1516 76.0352 67.1981 76.0049 67.2334C76.0045 67.2641 75.9448 67.294 75.8851 67.3239L75.8154 72.0387C75.8463 71.9572 75.8771 71.8809 75.9375 71.7998C75.9982 71.7034 76.0292 71.6066 76.0603 71.5097C76.0913 71.4181 76.0631 71.3204 76.0644 71.2283C76.0361 71.1407 76.0373 71.0588 76.0386 70.9719C76.0711 70.7777 76.1629 70.5793 76.2549 70.3708C76.4387 69.9588 76.6233 69.5006 76.5134 68.9153C76.4859 68.7766 76.488 68.6333 76.4604 68.4946C76.462 68.382 76.4341 68.269 76.4358 68.1563C76.4102 67.8846 76.3544 67.6432 76.2983 67.4323ZM76.9355 64.4105C76.9056 64.4305 76.9053 64.451 76.9911 64.6571C77.0198 64.7241 77.0481 64.8116 77.0761 64.9195C77.0771 64.8529 77.078 64.7966 77.0786 64.7505C77.0829 64.4639 77.0833 64.4383 77.054 64.4122L77.0541 64.4071C77.0542 64.402 77.0247 64.3913 77.0249 64.3811C77.0247 64.3913 76.9949 64.4012 76.9948 64.4063C76.9357 64.4003 76.9356 64.4054 76.9355 64.4105C76.9356 64.4054 76.9356 64.4054 76.9355 64.4105ZM77.6072 63.0687C77.5797 62.9197 77.5814 62.8072 77.5827 62.7201C77.5862 62.4795 77.5865 62.459 77.5573 62.4381C77.5573 62.433 77.5573 62.433 77.5573 62.433C77.5574 62.4279 77.5576 62.4177 77.5281 62.4069C77.528 62.4172 77.4983 62.4219 77.4982 62.427C77.4086 62.4718 77.3786 62.4969 77.421 63.6394C77.4207 63.6599 77.4499 63.6859 77.4793 63.7068C77.5091 63.6919 77.5092 63.6868 77.5389 63.6769C77.539 63.6718 77.539 63.6718 77.5687 63.6672C77.6284 63.6424 77.6288 63.6168 77.6031 63.3502C77.6041 63.2836 77.6054 63.1916 77.6072 63.0687ZM76.2264 62.2751C76.2269 62.2392 76.2274 62.2085 76.1982 62.1774C76.1397 62.1253 76.0516 62.0728 75.9932 62.0207L75.9609 64.2016C76.0591 63.568 76.1278 62.9341 76.226 62.3007C76.2262 62.2904 76.2263 62.2853 76.2264 62.2751ZM76.1167 61.6795C76.1462 61.6901 76.1459 61.7055 76.1458 61.7157C76.2066 61.6091 76.2067 61.5989 76.2078 61.5272C76.2084 61.4862 76.2094 61.4197 76.2409 61.2973C76.2743 61.0367 76.3067 60.8477 76.3384 60.7048C76.3717 60.4646 76.4029 60.3524 76.4046 60.2398C76.4061 60.1374 76.378 60.0346 76.3513 59.8345C76.3519 59.7936 76.323 59.747 76.3237 59.6958C76.3243 59.6548 76.2954 59.6084 76.2069 59.5815C76.1479 59.5652 76.0889 59.549 76.0299 59.5328L76.0139 60.6181C76.1317 60.6659 76.1308 60.7273 76.0112 60.8023L76.0026 61.3808C76.062 61.3715 76.0616 61.397 76.0312 61.4478C76.0306 61.4888 76.0297 61.5502 76.0286 61.627C76.0579 61.6427 76.0872 61.6637 76.1167 61.6795ZM77.3882 59.8447C77.3893 59.7679 77.3608 59.6907 77.3327 59.5878L77.3335 59.5366L77.3339 59.511C77.3342 59.4905 77.2751 59.4744 77.2161 59.4581C77.1865 59.4526 77.1866 59.4475 77.1571 59.4419C77.1273 59.4517 77.1272 59.4619 77.0974 59.4717C77.0675 59.4866 77.0377 59.5016 77.0078 59.5216C76.978 59.5365 77.0073 59.5523 77.007 59.5728C77.0069 59.583 77.0068 59.5881 77.0066 59.5984C77.034 59.7524 77.0612 59.9116 77.0887 60.0656C77.116 60.2196 77.1432 60.3787 77.1706 60.5327L77.1114 60.5319C77.1099 60.6292 77.1087 60.711 77.1077 60.7775C77.1036 61.0591 77.1027 61.1154 77.1316 61.167C77.1314 61.1824 77.1312 61.1926 77.1605 61.2136C77.1601 61.2392 77.1893 61.2755 77.2181 61.3322C77.2487 61.261 77.2498 61.1842 77.2805 61.1129C77.2819 61.0208 77.3128 60.9342 77.314 60.8574C77.3826 60.2184 77.415 60.0294 77.3882 59.8447ZM76.2102 59.3613C76.2992 59.3524 76.3298 59.2863 76.3303 59.2505C76.3031 59.0862 76.1605 58.7154 76.0461 58.4372L76.0321 59.3843C76.0914 59.375 76.1211 59.3702 76.2102 59.3613ZM76.8425 58.6743C76.8721 58.6798 76.9311 58.691 76.9903 58.7021C77.0203 58.6769 77.0206 58.6564 77.0504 58.6416C77.0807 58.5959 77.1105 58.5861 77.081 58.5754C77.081 58.5703 77.0514 58.5699 77.0219 58.5643C76.9924 58.5588 76.9628 58.5532 76.9037 58.5421C76.8738 58.5621 76.8439 58.577 76.8142 58.5869C76.7544 58.6269 76.7245 58.6367 76.754 58.6525C76.7539 58.6576 76.7834 58.6632 76.8425 58.6743ZM77.1462 58.1718C77.1762 58.1467 77.2061 58.1267 77.2361 58.1066C77.1783 58.0034 77.1499 57.9261 77.1216 57.8387C77.0916 57.8587 77.0616 57.8838 77.0317 57.9039C76.9716 57.9593 76.8819 58.0143 76.881 58.0758C76.8803 58.1219 76.9092 58.1735 76.9677 58.2204C76.9971 58.2413 76.9969 58.2567 77.0262 58.2777C77.0562 58.2473 77.1161 58.2073 77.1462 58.1718ZM77.1266 57.4957C77.1565 57.4756 77.1568 57.4552 77.1607 57.1941C77.1613 57.1531 77.162 57.107 77.1628 57.0507C77.1639 56.974 77.1648 56.9126 77.1657 56.8562C77.1698 56.5798 77.1702 56.5491 77.1114 56.5174C77.1114 56.5123 77.0819 56.5119 77.0819 56.5068C77.0525 56.4962 77.023 56.4854 76.9936 56.4645C76.9638 56.4794 76.9637 56.4845 76.934 56.4944L76.9339 56.4995C76.8741 56.5344 76.8736 56.5703 76.9535 57.1808C76.9523 57.2627 76.9806 57.3502 76.979 57.4526C76.9788 57.4679 77.0084 57.4786 77.0081 57.4939C77.008 57.5042 77.0375 57.5097 77.0374 57.5199C77.0671 57.5102 77.0673 57.4999 77.0673 57.4948C77.0969 57.4952 77.1266 57.4957 77.1266 57.4957ZM77.2051 56.1912C77.2351 56.166 77.2948 56.1413 77.3247 56.1212C77.3249 56.1058 77.2954 56.0952 77.2957 56.0798C77.2665 56.0487 77.2373 56.0175 77.2377 55.9919C77.2076 56.0222 77.1776 56.0474 77.1773 56.0678C77.1171 56.1284 77.1169 56.1438 77.1167 56.154C77.1167 56.1592 77.1464 56.1596 77.1463 56.1647C77.1758 56.1702 77.1757 56.1804 77.2051 56.1912ZM76.765 47.8794L76.766 47.8077C76.7953 47.8389 76.795 47.8593 76.765 47.8794ZM77.2046 16.1241C77.2344 16.1092 77.2347 16.0887 77.2646 16.0738C77.2946 16.0486 77.3245 16.0287 77.3544 16.0035C77.3858 15.8912 77.3871 15.8043 77.3879 15.748C77.3891 15.6712 77.3896 15.6353 77.4486 15.6464L77.461 14.8119C77.3145 14.7023 77.2862 14.6097 77.4649 14.5458L77.4882 12.969C77.399 12.9882 77.3395 13.0078 77.2502 13.0321C77.1312 13.0713 77.1006 13.1374 77.0997 13.1988C77.0986 13.2705 77.068 13.3367 77.0671 13.3981C77.0036 13.6838 76.9718 13.8319 76.9695 13.9855C76.9671 14.1493 76.9943 14.3135 77.0187 14.6621C77.0453 14.8724 77.0709 15.1441 77.1244 15.5289C77.1515 15.7086 77.1501 15.8008 77.1492 15.8621C77.0886 15.9484 77.0883 15.9688 77.2046 16.1241ZM76.4741 25.458C76.5688 25.0652 76.6628 24.7183 76.7266 24.4121C76.8521 23.9326 76.9468 23.5449 76.9813 23.2126C77.0243 22.3069 77.0622 21.7493 77.097 21.3966C77.1349 20.839 77.1353 20.8134 77.1652 20.7933C77.1652 20.7882 77.195 20.7836 77.1951 20.7785C77.2546 20.7588 77.2845 20.7388 77.3145 20.7187L77.2823 22.8944L77.2823 22.8996C77.252 22.9349 77.2515 22.9707 77.2808 22.9968L77.2673 23.9132C77.2374 23.928 77.2371 23.9485 77.2072 23.9635C77.1471 24.024 77.0573 24.0842 77.0861 24.1409C77.115 24.1875 77.1737 24.2292 77.2322 24.2762L77.1311 31.1206C77.1032 31.0076 77.0457 30.889 76.9882 30.7704C76.9311 30.6261 76.8442 30.4866 76.8167 30.3428C76.7891 30.2042 76.8208 30.0715 76.8524 29.9337C76.9135 29.8066 76.945 29.6842 76.9171 29.5609C76.8621 29.2734 76.7479 28.9849 76.634 28.676C76.4059 28.0684 76.1195 27.3934 76.3394 26.5519C76.4017 26.3479 76.4047 26.1432 76.4078 25.9384C76.4396 25.7852 76.4421 25.6215 76.4741 25.458ZM75.9622 19.9973C75.9913 20.0284 75.9909 20.0591 75.8978 20.3496C75.8667 20.4464 75.8352 20.5688 75.7735 20.7319C75.775 20.6346 75.7762 20.5527 75.7772 20.481C75.8131 20.0617 75.8137 20.0258 75.8437 19.9955C75.8438 19.9904 75.8438 19.9904 75.8439 19.9853C75.844 19.975 75.8738 19.9653 75.8741 19.9448C75.9035 19.9657 75.9033 19.9759 75.9032 19.9862C75.9327 19.9917 75.9623 19.9922 75.9622 19.9973ZM75.0894 18.9039C75.0308 18.8673 75.0313 18.8314 75.037 18.4475C75.0386 18.3399 75.0406 18.2018 75.0432 18.0277L75.0728 18.0281C75.076 17.8131 75.0784 17.6493 75.0802 17.5265C75.0853 17.1835 75.0858 17.1476 75.1158 17.1173L75.1159 17.1122L75.116 17.1071C75.1162 17.0968 75.146 17.0871 75.1463 17.0666C75.1757 17.0824 75.1756 17.0875 75.205 17.0982C75.3225 17.1716 75.3813 17.2032 75.2679 18.8605C75.2675 18.8913 75.2373 18.9266 75.1776 18.9565C75.1483 18.9355 75.1188 18.9249 75.0893 18.9143C75.0893 18.9143 75.0894 18.909 75.0894 18.9039ZM77.0741 16.9313C77.0749 16.8801 77.0755 16.834 77.1058 16.7883C77.1959 16.7128 77.3154 16.6429 77.4054 16.5674L77.3587 19.7312C77.2537 18.813 77.1489 17.8899 77.0736 16.9671C77.0737 16.9569 77.0739 16.9466 77.0741 16.9313ZM75.5621 12.9867C75.5302 13.1398 75.4989 13.252 75.4677 13.359C75.4342 13.6249 75.4598 13.8966 75.5646 14.8198C75.563 14.9324 75.5908 15.0557 75.6183 15.1944C75.6464 15.3023 75.6448 15.4099 75.7025 15.5131C75.7333 15.4316 75.7638 15.3808 75.7643 15.345C75.7647 15.3194 75.7946 15.2994 75.7949 15.2789C75.8257 15.1974 75.8269 15.1155 75.8329 14.7111C75.8343 14.6139 75.8361 14.4961 75.8382 14.3528L75.7493 14.3515C75.8119 14.1271 75.8448 13.9023 75.9074 13.6779C75.97 13.4536 76.003 13.2287 76.0655 13.0043C76.0657 12.9941 76.0659 12.9787 76.066 12.9685C76.0664 12.9429 76.0964 12.9178 76.0671 12.8968C76.0379 12.8708 76.0087 12.8448 75.9497 12.8234C75.9203 12.8077 75.8909 12.7918 75.8615 12.776C75.8318 12.7807 75.8021 12.7905 75.7723 12.7952C75.6831 12.8195 75.5938 12.8437 75.5935 12.8693C75.5928 12.9154 75.5922 12.9512 75.5621 12.9867ZM77.0798 12.5381C77.0493 12.5939 77.1071 12.6921 77.2254 12.7091C77.3141 12.7207 77.3732 12.7318 77.4619 12.7485L77.4821 11.3765C77.3281 11.7736 77.1425 12.3034 77.0798 12.5381ZM76.3221 11.682C76.3815 11.6725 76.4409 11.6632 76.4706 11.6535C76.5005 11.6385 76.4712 11.6176 76.3832 11.56C76.3538 11.539 76.3245 11.5182 76.2657 11.4917C76.2062 11.5061 76.1469 11.5104 76.1171 11.5151C76.0875 11.5198 76.0578 11.5244 76.0281 11.5291C75.9982 11.5441 75.998 11.5594 76.0563 11.6268C76.0855 11.6529 76.1147 11.6789 76.1438 11.7202C76.2033 11.7007 76.2627 11.6913 76.3221 11.682ZM75.8011 10.8448C75.8303 10.8759 75.8595 10.907 75.9181 10.9438C75.9767 10.9959 76.0351 11.0531 76.0935 11.1102C76.1235 11.0851 76.1536 11.0548 76.1836 11.0297C76.2439 10.9588 76.3338 10.8885 76.3052 10.8215C76.3064 10.7395 76.1892 10.6508 76.1015 10.5676C76.0724 10.5365 76.0136 10.4997 75.9845 10.4685C75.9234 10.5855 75.8625 10.7023 75.8011 10.8448ZM75.9393 9.51548C75.9337 9.89434 75.9332 9.92503 75.992 9.9566C75.992 9.9566 75.992 9.9566 75.992 9.9617C75.992 9.9617 75.992 9.9617 75.9919 9.9669L75.9918 9.972C76.0213 9.98264 76.0211 9.99294 76.0505 10.0138C76.0507 10.0036 76.0805 9.98861 76.0807 9.97331C76.1106 9.95325 76.1405 9.93319 76.1408 9.91269C76.1727 9.76475 76.1747 9.63166 76.206 9.51431C76.3671 8.636 76.3679 8.5797 76.2797 8.53229C76.2798 8.52719 76.2798 8.52719 76.2503 8.52166C76.2208 8.51092 76.221 8.50073 76.1917 8.47979C76.1319 8.50961 76.1021 8.52457 76.0427 8.5339C76.013 8.53856 76.0129 8.54375 76.0128 8.54885C75.9233 8.58843 75.9227 8.63453 75.9168 9.03389C75.9156 9.11068 75.9143 9.20277 75.9126 9.31536C75.9411 9.38749 75.9402 9.45408 75.9393 9.51548ZM75.9015 8.06076C75.9314 8.0458 75.9612 8.03094 75.991 8.02628C76.0206 8.02152 76.0207 8.01641 76.0208 8.01131C76.0507 7.99125 76.0213 7.97552 75.9634 7.88245C75.9342 7.85132 75.9052 7.81498 75.8762 7.76855C75.8756 7.80945 75.8157 7.84956 75.7855 7.89522C75.7556 7.91518 75.7553 7.93059 75.7253 7.95065C75.7842 7.98222 75.8428 8.02409 75.9015 8.06076ZM77.239 7.77839C77.2326 8.20844 77.3744 8.64068 77.5162 9.06773L77.5523 6.62579C77.3986 7.00756 77.2743 7.39487 77.239 7.77839Z" fill="#2A2F39"/>
<path d="M75.541 9.94593L74.2342 5.27926L74.4688 4.13093C74.4008 3.95085 74.2943 3.73989 74.0233 3.43463C74.0095 3.40454 73.9869 3.49273 73.9652 3.55131C73.9544 3.58059 73.9436 3.60989 73.9328 3.63917C73.9367 3.66894 73.9466 3.66926 73.9505 3.69903C73.9683 3.75889 73.987 3.78915 74.0067 3.78979C74.117 3.73411 74.2077 3.82598 74.2719 4.1245L73.9124 4.11277C73.8109 4.05017 73.7104 3.95796 73.6168 3.8067C73.5793 3.74619 73.5458 3.71546 73.5133 3.65512C73.4196 3.50386 73.3309 3.35275 73.2186 3.31945C73.126 3.28678 73.0344 3.22451 72.9477 3.1624C72.8225 3.0694 72.7023 2.97655 72.5782 3.00214C72.2769 3.02194 71.9844 2.92348 71.6928 2.79539C71.4396 2.69821 71.1914 2.60118 70.9353 2.59282C70.6891 2.58478 70.4449 2.51753 70.1996 2.47989C70.0282 2.44465 69.8568 2.40942 69.6854 2.37418C69.6706 2.3737 69.3507 2.51145 69.007 2.4706C68.0152 2.3493 66.109 2.2278 65.976 2.22346C65.7535 2.24584 63.67 2.26677 63.6346 2.29525C63.4603 2.34884 63.2811 2.40227 63.1068 2.45587C62.9276 2.5093 62.7484 2.56273 62.5643 2.616L62.5545 2.61568C62.4747 2.64272 62.3802 2.66928 62.3348 2.54923C62.2135 2.18958 62.1092 2.36402 61.9911 2.65658C61.9624 2.3296 61.8787 2.32686 61.8009 2.29468C61.7959 2.29452 61.791 2.29436 61.7812 2.29404C61.6729 2.2905 61.6048 2.25864 61.5556 2.25704C61.4768 2.25447 61.462 2.25398 61.4482 2.22389C61.4433 2.22373 61.4433 2.22373 61.4384 2.22357C61.4335 2.22341 61.4246 2.19348 61.4098 2.193C61.4157 2.16354 61.4255 2.16387 61.4315 2.13441C61.4482 2.07568 61.4688 2.04671 61.4836 2.0472C61.5436 2.01951 61.5978 2.02128 61.6578 1.9936C61.902 1.91265 62.1462 1.8317 62.3885 1.80996C62.5224 1.7847 62.6603 1.78919 62.7923 1.82314C62.9253 1.82748 63.0631 1.83198 63.1961 1.83632C63.2059 1.83664 65.0188 1.56976 65.0296 1.54047C65.6272 1.05608 66.2211 1.28295 66.7905 1.50902C67.0732 1.60717 67.355 1.73494 67.6258 1.74378C67.9843 1.78512 68.3447 1.76724 68.7052 1.74936C68.8834 1.72554 69.0655 1.73148 69.2429 1.73727C69.2773 1.73839 69.3177 1.71007 69.3679 1.68207C69.4486 1.62542 69.5481 1.59903 69.6366 1.60192C69.9155 1.6703 70.0406 1.76331 70.151 1.85583C70.1943 1.88689 70.2327 1.91779 70.2761 1.94884C70.3007 1.94964 70.344 1.9807 70.3558 1.9218C70.4462 1.56906 70.5388 1.60172 70.6353 1.66416C70.6688 1.69489 70.7033 1.69602 70.7378 1.69714C70.9544 1.70421 71.0923 1.70871 71.177 1.68184C71.2952 1.68569 71.3198 1.6865 71.3454 1.65769C71.3503 1.65785 71.3562 1.6284 71.3661 1.62873C71.3818 1.5996 71.3975 1.57047 71.4281 1.54183C71.4133 1.54134 71.3995 1.51125 71.3857 1.48116C71.362 1.45075 71.3433 1.42049 71.3187 1.41969C69.7102 1.15971 69.469 1.15183 69.0495 1.16778C68.8426 1.16103 68.5955 1.1826 68.1178 1.16701C67.7337 1.15448 67.3663 1.0832 66.9842 1.01145C65.9263 0.799074 64.7307 0.582202 62.6118 1.31335C61.8388 1.58453 61.0668 1.6779 60.2957 1.74165C60.0633 1.76371 59.8299 1.81538 59.5975 1.83743C59.503 1.86399 59.4085 1.89054 59.3198 1.88765C59.0717 1.93883 58.8245 1.96041 58.5764 2.01159L58.5566 2.01095C58.2199 2.05924 57.8821 1.98893 57.5481 1.94838C57.166 1.87663 56.7878 1.83465 56.4008 1.91094C55.5923 2.0624 54.779 2.2137 53.9761 1.89108C53.5575 1.72922 53.136 1.65618 52.7095 1.58297C52.5135 1.54693 52.3125 1.51074 52.1166 1.47469C52.1067 1.47437 52.1018 1.47421 52.0969 1.47405C52.092 1.47389 52.087 1.47373 52.0821 1.47357C52.0674 1.47309 52.0565 1.50238 52.0054 1.55999C51.9847 1.58895 51.9591 1.61776 51.9227 1.67586C51.9365 1.70594 51.9503 1.73604 51.9641 1.76612C51.9868 1.82615 52.0144 1.88633 52.043 1.91691C52.0715 1.94749 52.1011 1.94845 52.1306 1.94942C52.1552 1.95022 52.1799 1.95102 52.2085 1.98159C52.2469 2.01249 52.2834 2.1026 52.3208 2.1631C52.3298 2.19304 52.3396 2.19336 52.3436 2.22313C52.2973 2.2809 52.255 2.36844 52.2098 2.3966C52.1693 2.42493 52.129 2.45326 52.0887 2.48158C52.0335 2.50943 51.9774 2.56687 51.9262 2.62449C51.9007 2.65329 51.8653 2.82998 51.8634 2.8892L50.7209 2.85191L50.6432 2.81973C50.125 2.68426 48.8347 2.34573 48.7539 2.40238C48.7096 2.40094 48.5393 2.48429 48.3296 2.56638C48.1652 2.62029 47.9703 2.70285 47.8009 2.7566L46.0429 2.69922C46.0429 2.69922 46.0429 2.69922 46.0488 2.66978C46.0548 2.64033 46.0665 2.58143 46.0714 2.58159C46.1019 2.55295 46.1266 2.55375 46.1571 2.5251C46.3086 2.41149 46.4603 2.29787 46.6099 2.24348C46.6946 2.2166 46.7783 2.21933 46.862 2.22206C46.9359 2.22447 47.0097 2.22688 47.0836 2.22929C47.0885 2.22945 48.1568 1.8197 48.1627 1.79026C48.5247 1.12033 48.8696 1.428 49.2007 1.70558C49.3642 1.82948 49.5218 1.98283 49.6794 1.98797C49.9099 2.02513 50.1384 1.97331 50.3708 1.95126C50.4555 1.92438 50.5441 1.92727 50.6288 1.90039C50.6484 1.90103 50.6691 1.87207 50.6996 1.84342C50.7509 1.78581 50.8128 1.69891 50.8661 1.73029C51.0306 1.82458 51.1006 1.94543 51.1607 2.06596C51.1843 2.09637 51.2021 2.15624 51.2257 2.18664C51.2395 2.21674 51.2641 2.21754 51.272 2.12887C51.3318 1.65657 51.389 1.71772 51.4412 1.7787C51.4599 1.80895 51.4796 1.80959 51.4993 1.81024C51.6332 1.78497 51.712 1.78754 51.7612 1.78915C51.8253 1.79124 51.84 1.79172 51.8558 1.76259C51.8607 1.76275 51.8666 1.73331 51.8715 1.73347C51.8775 1.70402 51.8931 1.67489 51.9098 1.61615C51.905 1.616 51.901 1.58622 51.8921 1.5563C51.8783 1.5262 51.8655 1.4665 51.8457 1.46585C50.9148 1.13906 50.7712 1.16401 50.524 1.18558C50.4048 1.21134 50.257 1.20651 49.9764 1.19735C49.7498 1.18996 49.541 1.09422 49.3174 0.997999C48.7047 0.740872 48.0082 0.481011 46.7513 1.5367C46.2897 1.93662 45.8367 2.07003 45.3857 2.14424C45.2666 2.16998 45.1416 2.22519 45.0214 2.28055C44.9515 2.30791 44.8807 2.36488 44.8108 2.39224C44.6611 2.44664 44.5104 2.53064 44.3618 2.55543L43.9629 2.54242C43.9088 2.54065 43.8555 2.50926 43.8013 2.5075C43.5718 2.44072 43.3424 2.37395 43.1021 2.48467L43.0116 2.541L41.6278 2.49584C41.4121 2.31095 41.1875 2.24434 40.9628 2.17772C40.8407 2.14409 40.7244 2.08102 40.6023 2.04739C40.5541 2.01618 40.5217 2.10404 40.4803 2.16197C40.433 2.24936 40.38 2.36619 40.2933 2.30408L37.6785 2.21873C37.5673 2.45223 37.3903 2.74286 36.9711 3.20344C36.9504 3.2324 36.9237 3.1426 36.898 3.0232C36.8852 2.9635 36.8714 2.93342 36.8576 2.90332C36.8684 2.87404 36.8792 2.84474 36.889 2.84507C36.9205 2.78681 36.953 2.69895 36.9766 2.72936C37.1363 2.8235 37.2691 2.67963 37.3909 2.26863L36.869 2.2516C36.7183 2.3356 36.5609 2.47866 36.4172 2.65182C36.3612 2.70927 36.304 2.79633 36.2519 2.88355C36.1023 3.08616 35.9577 3.28893 35.7883 3.34268C35.6544 3.36795 35.5186 3.45244 35.3778 3.53676C35.1918 3.64925 35.0056 3.76175 34.8234 3.75581C34.3921 3.68245 33.9588 3.8165 33.5256 3.95057C33.1524 4.05695 32.7783 4.19295 32.4089 4.1809C32.0494 4.16916 31.693 4.21681 31.3306 4.2939C31.0775 4.34492 30.8255 4.36634 30.5783 4.38791C30.5586 4.38727 30.2129 4.40563 29.7137 4.44862C28.266 4.54957 25.4859 4.69596 25.2997 4.66024C24.9807 4.62019 21.8583 3.92545 21.814 3.92401C21.5648 3.85659 21.3117 3.7594 21.0634 3.66238C20.8053 3.56503 20.5522 3.46785 20.2931 3.40011L20.2833 3.39979C20.171 3.36648 20.035 3.30276 19.9544 3.50762C19.7449 4.03432 19.6068 3.7334 19.4668 3.3435C19.3922 3.81532 19.2741 3.81147 19.1549 3.83722C19.1451 3.8369 19.1352 3.83657 19.1303 3.83641C18.9718 3.86088 18.8683 3.85751 18.7994 3.85526C18.6862 3.85156 18.6616 3.85076 18.6409 3.87972C18.6359 3.87956 18.631 3.8794 18.6251 3.90885C18.6153 3.90853 18.5996 3.93765 18.5789 3.96662C18.5877 3.99655 18.5967 4.02648 18.6065 4.02681C18.6291 4.08683 18.6469 4.14669 18.6715 4.14749C18.7543 4.17983 18.837 4.21217 18.9198 4.24451C19.2656 4.37437 19.6162 4.50438 19.9639 4.57501C20.155 4.61088 20.352 4.61731 20.5489 4.62374C20.7459 4.63017 20.938 4.63644 21.1339 4.67248C21.1487 4.67296 23.748 5.23205 23.7668 5.26231C24.5905 6.00058 25.4668 5.73277 26.3136 5.464C26.7371 5.32961 27.1506 5.19491 27.5445 5.20777C28.0675 5.19519 28.5875 5.27145 29.1036 5.31794C29.3636 5.35606 29.6236 5.39419 29.8845 5.40271C29.9338 5.40432 29.992 5.43585 30.0639 5.49748C30.1801 5.56055 30.3151 5.65389 30.449 5.62862C30.8557 5.55297 31.0516 5.4408 31.218 5.32767C31.2829 5.30014 31.3391 5.24269 31.4041 5.21518C31.4444 5.18685 31.5035 5.18878 31.5213 5.24864C31.6181 5.7557 31.7579 5.70098 31.8977 5.64626C31.9479 5.61825 32.0031 5.59042 32.0514 5.62164C32.3656 5.66153 32.5625 5.66796 32.6856 5.67198C32.858 5.6776 32.8925 5.67873 32.9259 5.70947C32.9357 5.70979 32.9397 5.73955 32.9496 5.73987C32.9683 5.77013 32.9919 5.80054 33.0343 5.8612C33.0136 5.89017 32.994 5.88953 32.9733 5.91849C32.9379 5.94698 32.9064 6.00524 32.8719 6.00411C32.8128 6.00218 32.7479 6.0297 32.6888 6.02777L20.974 5.64541C20.7406 5.54887 20.4973 5.452 20.2441 5.35481C19.1497 4.90412 18.0435 4.66053 16.9287 4.53522C16.5947 4.49468 16.2579 4.39477 15.925 4.32462C15.793 4.29067 15.6561 4.25656 15.5241 4.22261C15.1724 4.1222 14.8149 4.05125 14.4623 3.98046L14.4327 3.97949C13.9482 3.87476 13.4587 3.91807 12.9644 3.96122C12.406 4.00227 11.8526 4.04349 11.295 3.90673C10.1416 3.60231 8.97251 3.32703 7.78201 3.70314C7.15979 3.89032 6.54132 3.95905 5.92286 4.02779C4.43641 4.13303 5.13409 3.9418 4.74003 4.3213C4.89375 3.55306 4.90169 3.59006 4.74003 4.3213C4.70652 5.34777 4.75256 3.94019 4.71906 4.96665L4.69007 5.85494L4.53544 10.5925L75.4043 10.7529L75.541 9.94593ZM64.3671 3.41588C64.044 3.49425 63.786 3.54511 63.5645 3.53788C62.9627 3.54789 62.5925 3.56544 62.361 3.55788C61.9917 3.54583 61.9769 3.54535 61.9602 3.60408L61.9553 3.60392L61.9504 3.60376C61.9504 3.60376 61.9454 3.6036 61.9445 3.63322C61.9287 3.66234 61.913 3.69147 61.8972 3.72059L63.3351 3.76752L63.3401 3.76768C63.3647 3.76849 63.3903 3.73969 63.404 3.76977L64.0146 3.7897C64.0246 3.79003 64.0403 3.7609 64.0501 3.76122C64.0914 3.70329 64.1367 3.67512 64.1703 3.70586C64.1998 3.70683 64.2274 3.76701 64.2551 3.82719L68.7902 3.97522C68.7124 3.94304 68.6395 3.91102 68.5627 3.84923C68.471 3.78695 68.3784 3.75429 68.2859 3.72163C68.1982 3.68912 68.1036 3.71568 68.015 3.71279C67.9303 3.73966 67.8515 3.73709 67.7678 3.73436C67.5817 3.69865 67.3926 3.60355 67.1936 3.50813C66.8005 3.31745 66.3631 3.12533 65.7979 3.22544C65.664 3.25072 65.5261 3.24622 65.3922 3.27148C65.2838 3.26794 65.1745 3.29402 65.0662 3.29049C64.8042 3.31158 64.5708 3.36325 64.3671 3.41588ZM61.4712 2.72854C61.4899 2.75879 61.5096 2.75944 61.7095 2.67703C61.7745 2.64951 61.8592 2.62264 61.9635 2.59639C61.8995 2.59431 61.8454 2.59254 61.8011 2.59109C61.5253 2.58209 61.5007 2.58129 61.4751 2.6101L61.4701 2.60994C61.4652 2.60978 61.4544 2.63906 61.4446 2.63874C61.4544 2.63906 61.4633 2.66899 61.4682 2.66916C61.4613 2.72821 61.4663 2.72837 61.4712 2.72854C61.4663 2.72837 61.4663 2.72837 61.4712 2.72854ZM60.1925 2.03469C60.0487 2.05964 59.9404 2.05611 59.8567 2.05338C59.6252 2.04582 59.6055 2.04518 59.5849 2.07414C59.5799 2.07398 59.5799 2.07398 59.5799 2.07398C59.575 2.07382 59.5652 2.0735 59.5544 2.10279C59.5642 2.10311 59.5682 2.13289 59.573 2.13305C59.6145 2.22332 59.6382 2.25374 60.7382 2.23036C60.7579 2.231 60.7835 2.20219 60.8042 2.17323C60.7903 2.14313 60.7854 2.14297 60.7765 2.11304C60.7716 2.11287 60.7716 2.11287 60.7677 2.08311C60.7449 2.02309 60.7203 2.02228 60.4633 2.04353C60.3993 2.04144 60.3107 2.03855 60.1925 2.03469ZM59.4034 3.40207C59.369 3.40095 59.3395 3.39998 59.309 3.42863C59.2578 3.48624 59.2057 3.57346 59.1544 3.63107L61.2522 3.69954C60.6445 3.59079 60.0358 3.51164 59.4281 3.40288C59.4182 3.40255 59.4134 3.40239 59.4034 3.40207ZM58.8285 3.50187C58.8392 3.47258 58.854 3.47306 58.8638 3.47339C58.7623 3.41079 58.7525 3.41047 58.6836 3.40822C58.6442 3.40694 58.5802 3.40484 58.463 3.37137C58.2128 3.33357 58.0316 3.29801 57.8947 3.26391C57.6642 3.22674 57.5568 3.1936 57.4485 3.19006C57.35 3.18685 57.2505 3.21324 57.0576 3.23659C57.0181 3.2353 56.9729 3.26346 56.9236 3.26185C56.8842 3.26056 56.8389 3.28873 56.8114 3.37675C56.7947 3.43549 56.778 3.49422 56.7613 3.55296L57.8052 3.58703C57.8534 3.47004 57.9125 3.47197 57.9825 3.59282L58.539 3.61098C58.531 3.55144 58.5557 3.55224 58.6039 3.58346C58.6434 3.58475 58.7024 3.58668 58.7763 3.58909C58.792 3.55996 58.8127 3.531 58.8285 3.50187ZM57.0864 2.20009C57.0125 2.19767 56.9377 2.22488 56.8383 2.25127L56.7891 2.24966L56.7645 2.24886C56.7447 2.24821 56.728 2.30695 56.7113 2.36569C56.7054 2.39514 56.7005 2.39498 56.6946 2.42442C56.7035 2.45436 56.7134 2.45468 56.7222 2.48461C56.736 2.5147 56.7499 2.54479 56.7686 2.57505C56.7823 2.60514 56.7981 2.57601 56.8178 2.57665C56.8276 2.57697 56.8326 2.57714 56.8424 2.57746C56.9911 2.55266 57.1447 2.52804 57.2935 2.50325C57.4421 2.47847 57.5958 2.45384 57.7444 2.42905L57.7425 2.48827C57.8361 2.49133 57.9148 2.4939 57.9789 2.49599C58.2497 2.50483 58.3039 2.50659 58.3541 2.47859C58.3688 2.47907 58.3787 2.47939 58.3993 2.45043C58.424 2.45123 58.4594 2.42274 58.5145 2.39491C58.4466 2.36304 58.3727 2.36063 58.3047 2.32878C58.2161 2.32588 58.1333 2.29354 58.0596 2.29113C57.4459 2.21182 57.2647 2.17627 57.0864 2.20009ZM56.5997 3.36984C56.5927 3.28069 56.5297 3.24899 56.4952 3.24787C56.3366 3.27234 55.9773 3.40881 55.7075 3.51856L56.6185 3.5483C56.6106 3.48876 56.6066 3.45899 56.5997 3.36984ZM55.9503 2.72618C55.9561 2.69674 55.968 2.63784 55.9797 2.57894C55.9561 2.54853 55.9364 2.54788 55.9226 2.51779C55.8792 2.48674 55.8703 2.4568 55.8596 2.4861C55.8546 2.48593 55.8536 2.51554 55.8477 2.54499C55.8419 2.57445 55.836 2.60389 55.8242 2.66279C55.8429 2.69304 55.8567 2.72313 55.8656 2.75307C55.9031 2.81357 55.9119 2.84349 55.9277 2.81437C55.9326 2.81453 55.9385 2.78508 55.9503 2.72618ZM55.4724 2.41418C55.4488 2.38376 55.43 2.35351 55.4113 2.32325C55.3109 2.37926 55.2361 2.40646 55.1514 2.43334C55.1701 2.46359 55.1937 2.494 55.2125 2.52426C55.2647 2.58524 55.316 2.67584 55.3751 2.67777C55.4194 2.67922 55.4697 2.65121 55.5158 2.59344C55.5365 2.56448 55.5513 2.56496 55.572 2.53599C55.5434 2.50541 55.506 2.44491 55.4724 2.41418ZM54.8215 2.42257C54.8027 2.39232 54.783 2.39168 54.5319 2.38348C54.4925 2.38219 54.4482 2.38075 54.394 2.37898C54.3202 2.37657 54.2611 2.37464 54.2069 2.37287C53.941 2.36419 53.9115 2.36323 53.88 2.42148C53.875 2.42132 53.8741 2.45093 53.8692 2.45077C53.8583 2.48006 53.8475 2.50935 53.8268 2.53831C53.8406 2.56841 53.8456 2.56857 53.8545 2.5985L53.8594 2.59866C53.892 2.659 53.9264 2.66013 54.5153 2.59043C54.5941 2.593 54.6787 2.56612 54.7773 2.56933C54.792 2.56981 54.8029 2.54053 54.8176 2.54101C54.8275 2.54134 54.8334 2.51188 54.8432 2.5122C54.8343 2.48227 54.8244 2.48195 54.8196 2.48179C54.8205 2.45218 54.8215 2.42257 54.8215 2.42257ZM53.5677 2.32236C53.5441 2.29196 53.5213 2.23193 53.5027 2.20168C53.4879 2.2012 53.4771 2.23049 53.4623 2.23001C53.4318 2.25865 53.4013 2.2873 53.3766 2.28649C53.4052 2.31706 53.4289 2.34748 53.4485 2.34812C53.5057 2.40927 53.5205 2.40975 53.5303 2.41007C53.5353 2.41023 53.5362 2.38062 53.5412 2.38078C53.547 2.35133 53.5569 2.35166 53.5677 2.32236ZM45.5623 2.62425L45.4933 2.622C45.5239 2.59336 45.5436 2.59401 45.5623 2.62425ZM15.0163 1.65691C15.0025 1.62681 14.9828 1.62617 14.969 1.59607C14.9453 1.56566 14.9266 1.5354 14.9029 1.505C14.7956 1.47185 14.7119 1.46912 14.6577 1.46735C14.5839 1.46494 14.5494 1.46381 14.5611 1.40491L13.7585 1.37872C13.6503 1.52339 13.5606 1.5501 13.5025 1.37036L11.9858 1.32086C12.0026 1.41033 12.0204 1.47019 12.0421 1.55983C12.0776 1.67955 12.1407 1.71125 12.1998 1.71318C12.2687 1.71543 12.3317 1.74713 12.3908 1.74906C12.6647 1.81728 12.8065 1.85154 12.9542 1.85636C13.1118 1.86151 13.2703 1.83704 13.6062 1.81836C13.809 1.79534 14.0709 1.77425 14.4422 1.72709C14.6155 1.70311 14.7042 1.706 14.7632 1.70793C14.8451 1.76988 14.8647 1.77052 15.0163 1.65691ZM23.9837 2.54241C23.6074 2.44121 23.2755 2.34145 22.982 2.27259C22.5229 2.13904 22.1517 2.038 21.8325 1.99794C20.9618 1.93988 20.4261 1.89276 20.0873 1.85205C19.5515 1.80493 19.5269 1.80413 19.5082 1.77387C19.5032 1.77371 19.4993 1.74394 19.4944 1.74377C19.4766 1.68391 19.4579 1.65367 19.4391 1.62341L21.5319 1.69172L21.5369 1.69188C21.5704 1.72262 21.6049 1.72374 21.6304 1.69493L22.5119 1.7237C22.5257 1.7538 22.5454 1.75444 22.5591 1.78452C22.6163 1.84568 22.6725 1.93643 22.7276 1.9086C22.7729 1.88043 22.8142 1.8225 22.8605 1.76472L29.4442 1.97961C29.3349 2.00569 29.2197 2.06121 29.1046 2.11673C28.9648 2.17145 28.8289 2.25594 28.6901 2.28105C28.5561 2.30631 28.429 2.27253 28.297 2.23858C28.1759 2.17534 28.0586 2.14188 27.9396 2.16763C27.6618 2.21784 27.3822 2.32728 27.0829 2.43608C26.4941 2.65399 25.8393 2.92903 25.0337 2.69524C24.8385 2.62959 24.6416 2.62316 24.4446 2.61674C24.2978 2.58231 24.1404 2.57717 23.9837 2.54241ZM18.7201 2.96344C18.7505 2.93478 18.7801 2.93575 19.0579 3.03374C19.1505 3.0664 19.2677 3.09987 19.4234 3.16424C19.3298 3.16118 19.251 3.15861 19.1821 3.15636C18.7792 3.11357 18.7447 3.11244 18.7162 3.08187C18.7113 3.08171 18.7113 3.08171 18.7063 3.08155C18.6965 3.08123 18.6877 3.05129 18.6679 3.05065C18.6886 3.02169 18.6984 3.02201 18.7083 3.02233C18.7142 2.99288 18.7151 2.96327 18.7201 2.96344ZM17.6521 3.81781C17.6156 3.8759 17.5812 3.87478 17.2118 3.86272C17.1085 3.85935 16.9755 3.85501 16.8081 3.84954L16.8091 3.81993C16.6022 3.81318 16.4447 3.80804 16.3265 3.80418C15.9965 3.79341 15.962 3.79228 15.9335 3.76172L15.9286 3.76156L15.9236 3.7614C15.9138 3.76107 15.905 3.73114 15.8852 3.7305C15.901 3.70136 15.9059 3.70153 15.9167 3.67224C15.9895 3.55605 16.021 3.4978 17.6136 3.6387C17.6431 3.63966 17.6766 3.6704 17.7042 3.73058C17.6836 3.75955 17.6727 3.78884 17.6619 3.81813C17.6619 3.81813 17.657 3.81797 17.6521 3.81781ZM15.7905 1.80074C15.7413 1.79913 15.6969 1.79768 15.6536 1.76662C15.5826 1.67539 15.5175 1.55469 15.4465 1.46346L18.4897 1.56279C17.6044 1.65245 16.7142 1.74196 15.825 1.80186C15.8151 1.80154 15.8052 1.80122 15.7905 1.80074ZM11.9672 3.24693C12.114 3.28135 12.2214 3.3145 12.3238 3.34748C12.5789 3.38546 12.8409 3.36436 13.7311 3.27485C13.8395 3.27839 13.9586 3.25264 14.0925 3.22737C14.1969 3.20114 14.3003 3.20451 14.4008 3.1485C14.3229 3.11632 14.2747 3.0851 14.2402 3.08398C14.2156 3.08317 14.1968 3.05293 14.1772 3.05228C14.0993 3.0201 14.0205 3.01753 13.6315 3.00483C13.538 3.00178 13.4247 2.99808 13.2868 2.99358L13.2839 3.08241C13.0692 3.01612 12.8535 2.97944 12.6387 2.91314C12.424 2.84685 12.2082 2.81018 11.9936 2.74389C11.9837 2.74357 11.9689 2.74308 11.9591 2.74276C11.9345 2.74196 11.9108 2.71154 11.8901 2.74051C11.8646 2.76931 11.8389 2.79812 11.8174 2.8567C11.8016 2.88582 11.7859 2.91495 11.7701 2.94408C11.7741 2.97385 11.783 3.00378 11.787 3.03355C11.8087 3.12319 11.8304 3.21281 11.855 3.21362C11.8993 3.21506 11.9338 3.21619 11.9672 3.24693ZM11.5635 1.72206C11.6167 1.75343 11.7122 1.69726 11.7309 1.57931C11.7436 1.4908 11.7554 1.4319 11.773 1.34356L10.4534 1.30049C10.8326 1.46106 11.3389 1.65544 11.5635 1.72206ZM10.7259 2.46538C10.718 2.40584 10.7101 2.3463 10.7012 2.31637C10.6874 2.28628 10.6667 2.31525 10.6097 2.4023C10.589 2.43127 10.5684 2.46024 10.5418 2.51865C10.5546 2.57836 10.5576 2.63774 10.5616 2.6675C10.5655 2.69728 10.5695 2.72704 10.5734 2.75682C10.5872 2.7869 10.602 2.78739 10.668 2.73026C10.6935 2.70146 10.7191 2.67264 10.7595 2.64433C10.7417 2.58447 10.7339 2.52492 10.7259 2.46538ZM9.91083 2.97232C9.94125 2.94366 9.97178 2.91502 10.0082 2.85693C10.0594 2.79932 10.1155 2.74187 10.1716 2.68442C10.148 2.654 10.1194 2.62343 10.0957 2.59301C10.0287 2.53155 9.96265 2.44046 9.89771 2.46799C9.81887 2.46542 9.73131 2.58112 9.64967 2.66739C9.61915 2.69603 9.5827 2.75412 9.55218 2.78277C9.6635 2.84568 9.77482 2.9086 9.91083 2.97232ZM8.6344 2.81209C8.99875 2.82398 9.0283 2.82495 9.05979 2.7667C9.05979 2.7667 9.05979 2.7667 9.06465 2.76685C9.06465 2.76685 9.06475 2.76686 9.06961 2.76702L9.07457 2.76718C9.08536 2.73788 9.09517 2.7382 9.11587 2.70924C9.10605 2.70892 9.09225 2.67883 9.07747 2.67835C9.0587 2.6481 9.04003 2.61784 9.0203 2.6172C8.87846 2.58293 8.75042 2.57875 8.63814 2.54544C7.79604 2.36975 7.7418 2.36798 7.69457 2.45536C7.68971 2.45521 7.68971 2.45521 7.68379 2.48466C7.673 2.51394 7.66318 2.51362 7.64248 2.54259C7.6701 2.60277 7.68391 2.63286 7.69179 2.6924C7.69578 2.72218 7.70064 2.72233 7.7056 2.7225C7.74208 2.8126 7.7864 2.81405 8.17049 2.82659C8.24438 2.829 8.33304 2.83189 8.44134 2.83543C8.51123 2.80807 8.57529 2.81016 8.6344 2.81209ZM7.23395 2.82566C7.22014 2.79557 7.20632 2.76548 7.20233 2.73571C7.19844 2.70594 7.19348 2.70578 7.18852 2.70562C7.16985 2.67536 7.15411 2.7045 7.06352 2.76082C7.033 2.78946 6.99762 2.81795 6.95232 2.84611C6.99169 2.84739 7.02913 2.9079 7.07249 2.93896C7.09126 2.96921 7.10604 2.96969 7.12471 2.99994C7.1562 2.94169 7.1975 2.88376 7.23395 2.82566ZM6.98686 1.48375C7.40051 1.49725 7.81899 1.3627 8.2326 1.228L5.88372 1.15134C6.2482 1.31143 6.61851 1.44209 6.98686 1.48375Z" fill="#2A2F39"/>
<path d="M4.45702 73.3902C4.45702 73.3902 3.47169 77.4429 4.20576 78.4796C4.93983 79.5163 5.42553 79.222 5.42553 79.222C5.49018 79.4032 5.59262 79.6159 5.85707 79.9255C5.87029 79.9558 5.89424 79.8681 5.91674 79.8098C5.92799 79.7808 5.93924 79.7517 5.95049 79.7225C5.94706 79.6927 5.93727 79.6922 5.93384 79.6624C5.91719 79.6022 5.89907 79.5717 5.87949 79.5707C5.7688 79.6246 5.6802 79.5312 5.6214 79.2317L5.97876 79.2493C6.07871 79.3136 6.1771 79.4075 6.26768 79.5602C6.30401 79.6213 6.33681 79.6527 6.36815 79.7135C6.45873 79.8662 6.5445 80.0188 6.6556 80.054C6.74713 80.0881 6.8373 80.1519 6.92247 80.2154C7.04543 80.3105 7.1634 80.4053 7.28731 80.3817C7.58741 80.3669 7.87677 80.4702 8.16467 80.603C8.41487 80.7044 8.66019 80.8054 8.91478 80.818C9.15958 80.8301 9.40146 80.9014 9.6448 80.943C9.81473 80.9811 9.98456 81.0192 10.1545 81.0572C10.1692 81.0579 10.4027 81.0991 10.7441 81.1456C11.7287 81.2832 13.6146 81.5543 13.7468 81.5609C13.9686 81.5421 16.1369 81.2636 16.1726 81.2357C16.3469 81.1849 16.5261 81.1345 16.7003 81.0837C16.8796 81.0333 17.0588 80.9828 17.2428 80.9326L17.2527 80.9331C17.3324 80.9074 17.4269 80.8823 17.47 81.0031C17.5847 81.3647 17.6913 81.192 17.8137 80.9014C17.8368 81.2288 17.92 81.233 17.9969 81.2664C18.0018 81.2666 18.0067 81.2669 18.0165 81.2674C18.1242 81.2727 18.1912 81.3057 18.2403 81.3081C18.3186 81.312 18.3332 81.3127 18.3465 81.343C18.3514 81.3433 18.3514 81.3433 18.3563 81.3435C18.3612 81.3437 18.3695 81.3738 18.3842 81.3745C18.3778 81.4038 18.368 81.4033 18.3617 81.4328C18.3441 81.4912 18.323 81.5198 18.3083 81.519C18.2481 81.5458 18.1942 81.5431 18.134 81.5698C17.8897 81.6468 17.6454 81.7236 17.4041 81.7414C17.2705 81.7645 17.1333 81.7577 17.0027 81.7216C16.8704 81.7151 16.7334 81.7083 16.6012 81.7018C16.5914 81.7013 14.7834 81.9383 14.7721 81.9674C14.1696 82.4419 13.5825 82.2052 13.0199 81.9699C12.7403 81.8671 12.4622 81.7347 12.1928 81.7214C11.8369 81.6742 11.4781 81.6861 11.1192 81.6981C10.9414 81.7189 10.7603 81.71 10.5841 81.7013C10.5498 81.6996 10.5092 81.7273 10.4588 81.7545C10.3775 81.8097 10.2781 81.8346 10.1899 81.8302C9.91379 81.7572 9.79092 81.6621 9.68264 81.5678C9.64005 81.536 9.60236 81.5045 9.55978 81.4728C9.53531 81.4716 9.49273 81.4397 9.48001 81.4985C9.38408 81.8497 9.29255 81.8155 9.19759 81.7515C9.1647 81.7202 9.13043 81.7185 9.09618 81.7168C8.88074 81.7062 8.74371 81.6994 8.65895 81.7249C8.54149 81.7191 8.51702 81.7179 8.49109 81.7463C8.48619 81.7461 8.47984 81.7754 8.47005 81.7749C8.45381 81.8038 8.43777 81.8326 8.40684 81.8608C8.42152 81.8615 8.43474 81.8918 8.44806 81.9221C8.47107 81.9529 8.48919 81.9835 8.51366 81.9847C10.1093 82.2711 10.3492 82.2829 10.7668 82.2739C10.9725 82.284 11.2188 82.2666 11.6937 82.29C12.0755 82.3089 12.4398 82.3861 12.8188 82.4642C13.8675 82.6939 15.0534 82.9305 17.1736 82.2343C17.9472 81.9759 18.7167 81.8951 19.4849 81.8442C19.7164 81.8259 19.9496 81.7781 20.181 81.7599C20.2756 81.7348 20.37 81.7098 20.4581 81.7142C20.7059 81.6672 20.9521 81.6496 21.1998 81.6025L21.2195 81.6035C21.5553 81.5607 21.8902 81.6366 22.2217 81.6826C22.6006 81.7607 22.9762 81.8089 23.3624 81.7389C24.1692 81.6009 24.9809 81.4629 25.7742 81.7987C26.1879 81.9674 26.6061 82.0474 27.0291 82.1276C27.2235 82.1668 27.4227 82.2063 27.6171 82.2457C27.6269 82.2461 27.6318 82.2464 27.6367 82.2466C27.6416 82.2469 27.6465 82.2471 27.6514 82.2474C27.6661 82.2481 27.6773 82.2189 27.7293 82.1622C27.7503 82.1336 27.7763 82.1051 27.8134 82.0477C27.8002 82.0174 27.787 81.987 27.7738 81.9567C27.7522 81.8964 27.7258 81.8357 27.6978 81.8047C27.6699 81.7737 27.6405 81.7722 27.6111 81.7708C27.5867 81.7696 27.5622 81.7684 27.5343 81.7373C27.4966 81.7058 27.4617 81.615 27.4255 81.554C27.4172 81.5239 27.4074 81.5234 27.404 81.4935C27.4509 81.4366 27.4946 81.3497 27.5401 81.3223C27.5807 81.2947 27.6213 81.267 27.6619 81.2393C27.7172 81.2124 27.7741 81.1559 27.8259 81.0992C27.8519 81.0708 27.89 80.8947 27.8929 80.8355L29.0288 80.8916L29.1057 80.9251C29.6188 81.069 30.8967 81.4287 30.9779 81.3734C31.0221 81.3756 31.1929 81.295 31.4029 81.2164C31.5674 81.1652 31.7628 81.0859 31.9321 81.035L33.68 81.1212C33.68 81.1212 33.68 81.1213 33.6736 81.1506C33.6672 81.1799 33.6545 81.2386 33.6496 81.2384C33.6188 81.2665 33.5943 81.2653 33.5635 81.2934C33.4108 81.4045 33.2581 81.5156 33.1083 81.5676C33.0236 81.5931 32.9403 81.5889 32.8571 81.5848C32.7837 81.5812 32.7102 81.5776 32.6368 81.574C32.6319 81.5737 31.5622 81.9658 31.5559 81.9952C31.1844 82.6591 30.8465 82.3457 30.5219 82.0628C30.3612 81.9362 30.2069 81.7803 30.0503 81.7726C29.8217 81.7315 29.5935 81.7796 29.3619 81.7978C29.2773 81.8233 29.1891 81.8189 29.1044 81.8445C29.0849 81.8435 29.0638 81.8721 29.033 81.9003C28.9811 81.9571 28.9179 82.0429 28.8655 82.0106C28.7034 81.9136 28.6359 81.7916 28.5781 81.6701C28.5551 81.6394 28.5384 81.5793 28.5154 81.5484C28.5022 81.5181 28.4776 81.5169 28.4683 81.6054C28.4009 82.0767 28.3451 82.0146 28.2942 81.9528C28.2761 81.9223 28.2565 81.9213 28.2369 81.9203C28.1032 81.9434 28.0249 81.9395 27.976 81.9371C27.9123 81.9339 27.8976 81.9332 27.8814 81.962C27.8765 81.9618 27.8702 81.9911 27.8653 81.9909C27.8589 82.0203 27.8428 82.0491 27.8252 82.1075C27.8301 82.1078 27.8335 82.1377 27.8419 82.1677C27.8551 82.198 27.8668 82.258 27.8864 82.259C28.807 82.601 28.9504 82.5784 29.1967 82.5609C29.3156 82.5372 29.4625 82.5444 29.7416 82.5582C29.9668 82.5693 30.1729 82.6684 30.3937 82.7683C30.999 83.0355 31.6875 83.3068 32.9556 82.2719C33.4216 81.8796 33.8745 81.7537 34.3244 81.6869C34.4434 81.6632 34.5687 81.61 34.6891 81.5566C34.7592 81.5305 34.8306 81.4746 34.9006 81.4484C35.0505 81.3965 35.2017 81.315 35.35 81.2926L35.7466 81.3122C35.8005 81.3148 35.8529 81.3472 35.9067 81.3498C36.1339 81.4203 36.3611 81.4909 36.6019 81.3842L36.693 81.3293L38.0688 81.3972C38.2804 81.5857 38.5027 81.6559 38.7249 81.7263C38.8459 81.7619 38.9604 81.8268 39.0814 81.8625C39.1289 81.8945 39.1626 81.8071 39.2047 81.7499C39.2532 81.6633 39.308 81.5474 39.3932 81.6109L41.993 81.7392C42.1075 81.5076 42.2886 81.22 42.7133 80.7664C42.7344 80.7378 42.7594 80.8279 42.783 80.9477C42.7947 81.0077 42.808 81.038 42.8212 81.0682C42.8099 81.0974 42.7987 81.1265 42.7889 81.126C42.7565 81.1837 42.7228 81.271 42.6998 81.2403C42.5426 81.1435 42.408 81.2851 42.2799 81.6941L42.7988 81.7197C42.95 81.6382 43.1092 81.4978 43.255 81.3269C43.3118 81.2705 43.37 81.1844 43.4234 81.098C43.5756 80.8979 43.7229 80.6976 43.8923 80.6466C44.0259 80.6235 44.1625 80.5412 44.304 80.4593C44.4909 80.3498 44.678 80.2404 44.8591 80.2493C45.287 80.3298 45.7203 80.203 46.1536 80.076C46.5266 79.9757 46.9011 79.8459 47.2683 79.8641C47.6257 79.8817 47.9811 79.84 48.3429 79.7688C48.5955 79.7219 48.8467 79.7047 49.0929 79.6872C49.1126 79.6882 49.4567 79.6756 49.9542 79.6407C51.396 79.5637 54.1641 79.463 54.3487 79.5018C54.6655 79.5471 57.7599 80.293 57.8039 80.2952C58.0507 80.3668 58.3009 80.4681 58.5462 80.5692C58.8013 80.6708 59.0515 80.7721 59.3082 80.8441L59.318 80.8445C59.4291 80.8798 59.5633 80.9457 59.6469 80.7421C59.8642 80.219 59.9964 80.5221 60.1292 80.9143C60.2113 80.4438 60.3289 80.4496 60.4478 80.4257C60.4576 80.4262 60.4674 80.4267 60.4723 80.427C60.6305 80.4051 60.7332 80.4102 60.8017 80.4136C60.9144 80.4192 60.9389 80.4204 60.9599 80.3918C60.9648 80.392 60.9697 80.3922 60.9761 80.3629C60.9858 80.3634 61.002 80.3345 61.023 80.3059C61.0147 80.2758 61.0064 80.2458 60.9966 80.2453C60.975 80.1849 60.9584 80.1248 60.9339 80.1235C60.8522 80.0898 60.7703 80.0561 60.6886 80.0224C60.3468 79.8869 60.0001 79.7512 59.6555 79.6748C59.466 79.6358 59.2701 79.6261 59.0743 79.6164C58.8785 79.6068 58.6875 79.5973 58.4931 79.5581C58.4784 79.5574 55.9021 78.9556 55.8839 78.9251C55.0769 78.1733 54.2006 78.4267 53.3536 78.6815C52.9302 78.8089 52.5165 78.9367 52.1248 78.9174C51.6043 78.9213 51.0883 78.8366 50.5757 78.7816C50.3177 78.7392 50.0596 78.6968 49.8001 78.684C49.7512 78.6816 49.6939 78.6491 49.6234 78.5862C49.5088 78.5213 49.3761 78.4258 49.2425 78.4488C48.8366 78.5178 48.6398 78.6267 48.4724 78.7371C48.4073 78.7635 48.3505 78.8201 48.2854 78.8465C48.2448 78.8741 48.1861 78.8712 48.1694 78.8111C48.0816 78.3026 47.9416 78.3549 47.8016 78.4074C47.7512 78.4345 47.6959 78.4615 47.6483 78.4295C47.3364 78.3844 47.1406 78.3748 47.0182 78.3687C46.8468 78.3603 46.8126 78.3586 46.7798 78.3272C46.77 78.3267 46.7665 78.2969 46.7568 78.2964C46.7386 78.2659 46.7156 78.2351 46.6745 78.1737C46.6955 78.1451 46.7151 78.1461 46.7362 78.1175C46.7719 78.0895 46.8042 78.0319 46.8384 78.0336C46.8971 78.0365 46.9623 78.01 47.0211 78.0129L58.6687 78.588C58.8992 78.6883 59.1396 78.7892 59.3898 78.8905C60.471 79.3591 61.5673 79.6209 62.6743 79.7645C63.0058 79.8105 63.3392 79.916 63.6692 79.9916C63.7999 80.0278 63.9356 80.0641 64.0663 80.1002C64.4145 80.2064 64.7689 80.2832 65.1185 80.3598L65.1479 80.3612C65.6282 80.474 66.1159 80.4387 66.6084 80.4037C67.1645 80.3718 67.7158 80.3397 68.2681 80.4856C69.4104 80.809 70.5689 81.1034 71.7595 80.7469C72.3817 80.5701 72.9981 80.5115 73.6145 80.4529C73.8999 80.4374 74.1917 80.3924 74.4771 80.3769C74.4918 80.3776 74.4967 80.3779 74.5065 80.3783C74.5163 80.3788 74.5212 80.3791 74.5261 80.3793C74.5456 80.3803 74.5589 80.4106 74.6265 80.5325C74.6529 80.5932 74.6857 80.6245 74.7303 80.7157C74.7093 80.7443 74.6867 80.8025 74.6593 80.8605C74.6158 80.9473 74.5722 81.0342 74.5302 81.0914C74.4895 81.119 74.444 81.1465 74.3999 81.1443C74.3608 81.1424 74.3265 81.1407 74.2859 81.1683C74.2242 81.2245 74.166 81.3107 74.1063 81.4264C74.0901 81.4552 74.0789 81.4844 74.0642 81.4837C74.1185 81.5753 74.1763 81.6969 74.2371 81.7591C74.2929 81.8213 74.3453 81.8535 74.4011 81.9155C74.4765 81.9786 74.552 82.0416 74.6225 82.1045C74.6446 82.2538 74.6749 82.4333 74.6789 82.5522L74.676 82.6113C74.606 82.9342 74.5503 83.1687 74.5087 83.3149L74.6409 83.3214L74.676 82.6113C74.676 82.6113 74.6774 82.5817 74.6789 82.5522L74.8279 79.5341L74.8717 78.6463L75.1055 73.9121L4.45702 73.3902ZM15.4629 80.1032C15.7855 80.0301 16.043 79.9835 16.2633 79.9943C16.8622 79.9943 17.2308 79.9828 17.4609 79.9942C17.8282 80.0123 17.8428 80.0131 17.8604 79.9546L17.8653 79.9548L17.8702 79.955C17.8702 79.955 17.8751 79.9553 17.8766 79.9257C17.8927 79.8969 17.9089 79.868 17.925 79.8391L16.4954 79.7685L16.4905 79.7683C16.466 79.7671 16.4401 79.7955 16.4268 79.7651L15.8198 79.7352C15.81 79.7347 15.7937 79.7636 15.784 79.7631C15.7419 79.8203 15.6964 79.8477 15.6636 79.8165C15.6342 79.815 15.6078 79.7544 15.5813 79.6938L11.0721 79.4711C11.149 79.5046 11.2209 79.5378 11.2963 79.6008C11.3865 79.6647 11.478 79.6988 11.5696 79.733C11.6563 79.7669 11.7507 79.7419 11.8389 79.7463C11.9235 79.7208 12.0019 79.7247 12.0852 79.7288C12.2697 79.7675 12.4562 79.8658 12.6526 79.9645C13.0404 80.1615 13.4723 80.3609 14.0363 80.2701C14.1699 80.2469 14.3071 80.2537 14.4407 80.2307C14.5484 80.236 14.6576 80.2117 14.7652 80.2171C15.0263 80.2003 15.2592 80.1524 15.4629 80.1032ZM18.3321 80.8381C18.314 80.8075 18.2945 80.8065 18.0942 80.8856C18.0291 80.912 17.9444 80.9376 17.8401 80.9621C17.9038 80.9652 17.9576 80.9679 18.0016 80.9701C18.2759 80.9836 18.3004 80.9848 18.3263 80.9564L18.3312 80.9567C18.3361 80.9569 18.3473 80.9277 18.3571 80.9282C18.3473 80.9277 18.339 80.8977 18.3341 80.8975C18.3419 80.8386 18.337 80.8383 18.3321 80.8381C18.337 80.8383 18.337 80.8383 18.3321 80.8381ZM19.5925 81.5528C19.736 81.5303 19.8437 81.5356 19.9269 81.5397C20.157 81.551 20.1766 81.552 20.1976 81.5234C20.2025 81.5237 20.2025 81.5237 20.2025 81.5237C20.2074 81.5239 20.2172 81.5244 20.2286 81.4952C20.2187 81.4947 20.2152 81.4649 20.2103 81.4647C20.1707 81.3737 20.1477 81.3429 19.053 81.3483C19.0334 81.3473 19.0075 81.3756 18.9863 81.4042C18.9997 81.4345 19.0045 81.4348 19.0129 81.4649C19.0178 81.4652 19.0178 81.4652 19.0212 81.495C19.0427 81.5553 19.0672 81.5565 19.3233 81.5395C19.3869 81.5427 19.4751 81.547 19.5925 81.5528ZM20.4005 80.1986C20.4348 80.2003 20.4641 80.2017 20.4949 80.1736C20.5469 80.1169 20.6002 80.0305 20.6521 79.9737L18.5664 79.8708C19.1691 79.9895 19.7732 80.0787 20.376 80.1974C20.3858 80.1979 20.3907 80.1981 20.4005 80.1986ZM20.9742 80.1083C20.963 80.1375 20.9483 80.1367 20.9385 80.1363C21.0385 80.2005 21.0483 80.2009 21.1168 80.2043C21.1559 80.2063 21.2196 80.2094 21.3357 80.2448C21.5839 80.2868 21.7635 80.3253 21.8992 80.3616C22.1278 80.4025 22.234 80.4375 22.3418 80.4428C22.4397 80.4477 22.5391 80.4228 22.7315 80.4027C22.7706 80.4046 22.8162 80.3772 22.8652 80.3797C22.9043 80.3816 22.9498 80.3542 22.9787 80.2666C22.9963 80.2081 23.0139 80.1497 23.0315 80.0912L21.9936 80.04C21.9437 80.1561 21.8849 80.1532 21.8174 80.0313L21.264 80.004C21.2709 80.0637 21.2464 80.0625 21.199 80.0305C21.1598 80.0285 21.1011 80.0256 21.0276 80.022C21.0114 80.0509 20.9904 80.0794 20.9742 80.1083ZM22.6852 81.4386C22.7587 81.4422 22.8336 81.4163 22.933 81.3914L22.9819 81.3939L23.0065 81.3951C23.026 81.396 23.0436 81.3376 23.0613 81.2791C23.0676 81.2498 23.0725 81.25 23.0789 81.2207C23.0705 81.1907 23.0607 81.1902 23.0524 81.16C23.0392 81.1298 23.026 81.0995 23.0079 81.0689C22.9945 81.0385 22.9784 81.0675 22.9588 81.0665C22.949 81.066 22.9441 81.0658 22.9343 81.0653C22.7861 81.0876 22.6328 81.1097 22.4844 81.132C22.3361 81.1544 22.1828 81.1765 22.0346 81.1988L22.0375 81.1397C21.9444 81.1351 21.8661 81.1312 21.8025 81.1281C21.5332 81.1148 21.4793 81.1121 21.4289 81.1393C21.4142 81.1385 21.4044 81.1381 21.3834 81.1667C21.3589 81.1654 21.3232 81.1933 21.2679 81.2203C21.3349 81.2533 21.4083 81.2569 21.4754 81.2898C21.5636 81.2942 21.6453 81.3279 21.7187 81.3315C22.3279 81.4209 22.5076 81.4594 22.6852 81.4386ZM23.1892 80.277C23.1946 80.3663 23.2568 80.399 23.2912 80.4007C23.4492 80.3789 23.8091 80.2482 24.0793 80.1429L23.1735 80.0982C23.1804 80.1579 23.1838 80.1877 23.1892 80.277ZM23.8244 80.9312C23.8181 80.9606 23.8054 81.0193 23.7927 81.0779C23.8157 81.1088 23.8352 81.1098 23.8485 81.1401C23.8911 81.1718 23.8994 81.2019 23.9106 81.1728C23.9155 81.173 23.917 81.1435 23.9233 81.1141C23.9297 81.0847 23.9361 81.0554 23.9488 80.9967C23.9306 80.9661 23.9174 80.9358 23.9091 80.9058C23.8729 80.8446 23.8645 80.8146 23.8484 80.8434C23.8435 80.8432 23.8371 80.8726 23.8244 80.9312ZM24.2945 81.2511C24.3175 81.2819 24.3357 81.3124 24.3538 81.3429C24.4546 81.2886 24.5295 81.2627 24.6142 81.2371C24.5961 81.2066 24.5731 81.1758 24.555 81.1453C24.5041 81.0834 24.4545 80.992 24.3958 80.9891C24.3517 80.9869 24.3013 81.0142 24.2544 81.0711C24.2332 81.0997 24.2185 81.099 24.1975 81.1277C24.2254 81.1587 24.2617 81.2197 24.2945 81.2511ZM24.9422 81.2533C24.9603 81.284 24.9799 81.2849 25.2296 81.2973C25.2689 81.2992 25.3129 81.3014 25.3667 81.304C25.4401 81.3077 25.499 81.3106 25.5528 81.3132C25.8172 81.3263 25.8465 81.3277 25.8788 81.27C25.8837 81.2702 25.8852 81.2406 25.8901 81.2409C25.9013 81.2118 25.9126 81.1826 25.9336 81.154C25.9204 81.1237 25.9155 81.1235 25.9072 81.0934L25.9023 81.0932C25.8709 81.0323 25.8367 81.0306 25.2497 81.0906C25.1713 81.0867 25.0867 81.1122 24.9887 81.1074C24.974 81.1066 24.9627 81.1357 24.9481 81.135C24.9383 81.1345 24.9319 81.1639 24.9221 81.1634C24.9305 81.1935 24.9402 81.194 24.9451 81.1942C24.9437 81.2238 24.9422 81.2533 24.9422 81.2533ZM26.1878 81.3742C26.2108 81.405 26.2324 81.4654 26.2505 81.496C26.2652 81.4967 26.2765 81.4676 26.2912 81.4683C26.322 81.4401 26.3528 81.412 26.3773 81.4132C26.3494 81.3822 26.3264 81.3514 26.3068 81.3504C26.251 81.2883 26.2362 81.2876 26.2264 81.2871C26.2215 81.2869 26.2201 81.3164 26.2152 81.3162C26.2088 81.3456 26.199 81.3451 26.1878 81.3742ZM34.1569 81.2041L34.2254 81.2075C34.1945 81.2356 34.175 81.2346 34.1569 81.2041ZM64.5282 82.6739C64.5414 82.7042 64.561 82.7051 64.5742 82.7354C64.5972 82.7663 64.6154 82.7968 64.6384 82.8276C64.7447 82.8625 64.8279 82.8666 64.8817 82.8693C64.9551 82.8729 64.9895 82.8746 64.9768 82.9333L65.7748 82.9727C65.8849 82.8299 65.9745 82.8046 66.0294 82.9853L67.5374 83.0597C67.5222 82.97 67.5055 82.9099 67.4854 82.8199C67.452 82.6996 67.3898 82.6669 67.3311 82.664C67.2626 82.6606 67.2003 82.6278 67.1416 82.6249C66.8704 82.5522 66.7298 82.5157 66.583 82.5084C66.4263 82.5007 66.2682 82.5225 65.9337 82.5356C65.7316 82.5553 65.4706 82.5721 65.1005 82.6131C64.9277 82.6342 64.8396 82.6299 64.7808 82.627C64.7005 82.5637 64.6809 82.5628 64.5282 82.6739ZM55.6222 81.641C55.9948 81.7484 56.3234 81.8535 56.6142 81.9272C57.0686 82.0683 57.4363 82.1755 57.7531 82.2208C58.6182 82.2931 59.1504 82.349 59.4868 82.3954C60.019 82.4513 60.0435 82.4525 60.0616 82.483C60.0665 82.4833 60.0699 82.5131 60.0748 82.5133C60.0915 82.5735 60.1096 82.604 60.1277 82.6345L58.0469 82.5318L58.042 82.5316C58.0092 82.5003 57.975 82.4986 57.949 82.527L57.0726 82.4837C57.0594 82.4534 57.0398 82.4525 57.0266 82.4222C56.9707 82.36 56.9164 82.2685 56.8611 82.2954C56.8156 82.3227 56.7735 82.38 56.7265 82.437L50.1805 82.1138C50.2897 82.0896 50.4052 82.0359 50.5208 81.9823C50.6607 81.9299 50.7974 81.8477 50.9359 81.8248C51.0696 81.8018 51.1953 81.8376 51.3261 81.8738C51.4455 81.939 51.5616 81.9744 51.6806 81.9506C51.9576 81.905 52.2377 81.8002 52.5373 81.6963C53.1267 81.4881 53.7828 81.2239 54.5803 81.4709C54.7733 81.5397 54.969 81.5494 55.1649 81.559C55.3104 81.5959 55.467 81.6037 55.6222 81.641ZM60.8657 81.3066C60.8349 81.3347 60.8055 81.3333 60.5307 81.2307C60.4392 81.1966 60.3232 81.1612 60.1694 81.0942C60.2624 81.0988 60.3408 81.1027 60.4093 81.1061C60.8094 81.1556 60.8436 81.1573 60.8715 81.1883C60.8764 81.1885 60.8764 81.1885 60.8813 81.1888C60.8911 81.1892 60.8994 81.2193 60.919 81.2202C60.898 81.2488 60.8882 81.2484 60.8784 81.2479C60.872 81.2773 60.8706 81.3069 60.8657 81.3066ZM61.9426 80.4699C61.9797 80.4125 62.014 80.4142 62.3812 80.4323C62.484 80.4374 62.6163 80.4439 62.7827 80.4521L62.7812 80.4817C62.9868 80.4918 63.1436 80.4996 63.261 80.5054C63.5891 80.5216 63.6234 80.5233 63.6513 80.5543L63.6562 80.5545L63.6611 80.5548C63.6709 80.5552 63.6792 80.5853 63.6988 80.5862C63.6826 80.6152 63.6777 80.6149 63.6665 80.644C63.5921 80.759 63.5597 80.8167 61.9778 80.6497C61.9485 80.6482 61.9157 80.6169 61.8892 80.5563C61.9103 80.5277 61.9215 80.4985 61.9328 80.4694C61.9328 80.4694 61.9377 80.4697 61.9426 80.4699ZM63.7605 82.5173C63.8094 82.5198 63.8535 82.5219 63.8961 82.5537C63.9651 82.6461 64.0279 82.7678 64.0969 82.8602L61.0712 82.7109C61.9534 82.6358 62.8405 82.5609 63.7261 82.5156C63.736 82.5161 63.7458 82.5166 63.7605 82.5173ZM67.5883 81.1342C67.4428 81.0974 67.3366 81.0625 67.2352 81.0279C66.9821 80.9856 66.7211 81.0025 65.834 81.0773C65.7263 81.072 65.6074 81.0958 65.4737 81.1188C65.3694 81.1433 65.2665 81.1382 65.1657 81.1926C65.2426 81.2261 65.2901 81.2581 65.3244 81.2598C65.3489 81.261 65.367 81.2916 65.3866 81.2925C65.4634 81.326 65.5418 81.3298 65.9286 81.3489C66.0215 81.3535 66.1342 81.3591 66.2712 81.3658L66.2756 81.2771C66.4881 81.3469 66.7021 81.3871 66.9146 81.457C67.1271 81.5268 67.3411 81.567 67.5536 81.6368C67.5634 81.6373 67.5781 81.638 67.5879 81.6385C67.6124 81.6397 67.6354 81.6705 67.6564 81.6419C67.6823 81.6135 67.7083 81.5851 67.7308 81.5269C67.7469 81.4981 67.7631 81.4691 67.7792 81.4403C67.7758 81.4105 67.7674 81.3804 67.764 81.3505C67.7439 81.2605 67.7238 81.1706 67.6994 81.1694C67.6553 81.1673 67.6211 81.1656 67.5883 81.1342ZM67.9641 82.6655C67.9117 82.6333 67.8158 82.6879 67.7953 82.8056C67.7811 82.8938 67.7684 82.9525 67.7494 83.0406L69.0615 83.1054C68.6869 82.9385 68.1864 82.7359 67.9641 82.6655ZM68.81 81.9361C68.8168 81.9957 68.8237 82.0555 68.8321 82.0855C68.8453 82.1158 68.8663 82.0872 68.9246 82.0011C68.9456 81.9725 68.9666 81.9439 68.9941 81.8858C68.9823 81.826 68.9803 81.7665 68.9769 81.7367C68.9734 81.7069 68.97 81.6771 68.9666 81.6472C68.9533 81.6169 68.9387 81.6162 68.8721 81.6723C68.8461 81.7006 68.8202 81.729 68.7796 81.7566C68.7962 81.8168 68.8031 81.8764 68.81 81.9361ZM69.6294 81.4426C69.5986 81.4709 69.5677 81.499 69.5306 81.5564C69.4787 81.6132 69.4219 81.6697 69.3651 81.7263C69.3881 81.757 69.4161 81.788 69.4391 81.8189C69.5047 81.8814 69.5689 81.9736 69.634 81.9472C69.7123 81.951 69.8014 81.8368 69.8841 81.7519C69.9149 81.7238 69.9521 81.6662 69.983 81.6381C69.8733 81.5733 69.7636 81.5086 69.6294 81.4426ZM70.8965 81.6238C70.5342 81.606 70.5049 81.6045 70.4726 81.6623C70.4726 81.6623 70.4726 81.6623 70.4677 81.662C70.4677 81.662 70.4677 81.662 70.4628 81.6618L70.4579 81.6616C70.4466 81.6906 70.4368 81.6902 70.4158 81.7188C70.4256 81.7192 70.4388 81.7496 70.4535 81.7503C70.4716 81.7809 70.4897 81.8114 70.5093 81.8124C70.6498 81.8489 70.7771 81.8552 70.8883 81.8905C71.7231 82.08 71.777 82.0826 71.8254 81.996C71.8303 81.9962 71.8303 81.9962 71.8367 81.9669C71.8479 81.9378 71.8577 81.9383 71.8787 81.9096C71.8523 81.849 71.8391 81.8188 71.8322 81.759C71.8288 81.7292 71.8239 81.729 71.819 81.7288C71.7842 81.638 71.7401 81.6359 71.3582 81.617C71.2848 81.6134 71.1967 81.609 71.0889 81.6037C71.0189 81.6299 70.9553 81.6267 70.8965 81.6238ZM72.2899 81.6334C72.3032 81.6636 72.3164 81.6939 72.3198 81.7238C72.3233 81.7537 72.3281 81.7539 72.333 81.7541C72.3512 81.7847 72.3673 81.7558 72.4584 81.701C72.4892 81.6728 72.5249 81.645 72.5705 81.6176C72.5313 81.6156 72.495 81.5545 72.4524 81.5227C72.4343 81.4921 72.4196 81.4914 72.4015 81.4609C72.3692 81.5186 72.3271 81.5758 72.2899 81.6334ZM72.5131 82.9791C72.1018 82.9588 71.6832 83.0864 71.2696 83.2144L73.6049 83.3297C73.245 83.1635 72.8788 83.0268 72.5131 82.9791Z" fill="#2A2F39"/>
</g>
<defs>
<clipPath id="clip0_174_3317">
<rect width="80" height="84" fill="white"/>
</clipPath>
</defs>
</svg>
