<svg width="80" height="84" viewBox="0 0 80 84" fill="none" xmlns="http://www.w3.org/2000/svg">
<g clip-path="url(#clip0_162_3148)">
<path d="M8.80217 77.6474C8.80217 77.6474 5.18043 79.216 3.92157 78.0395C3.54751 77.6899 3.02524 76.3367 3.02524 76.3367C2.84749 76.2599 2.64011 76.1421 2.34386 75.8503C2.31423 75.8349 2.40311 75.8145 2.46236 75.794C2.49198 75.7837 2.52161 75.7735 2.55123 75.7633C2.58086 75.7684 2.58086 75.7786 2.61048 75.7837C2.66974 75.8042 2.69936 75.8247 2.69936 75.8452C2.64011 75.9578 2.72899 76.0551 3.02524 76.1319V75.7581C2.96599 75.6506 2.87711 75.5431 2.72899 75.4407C2.66973 75.3998 2.64011 75.3639 2.58086 75.3281C2.43273 75.2257 2.28461 75.1284 2.25498 75.0107C2.22536 74.9134 2.16611 74.8161 2.10685 74.7239C2.01798 74.5908 1.9291 74.4628 1.95873 74.3348C1.98835 74.0225 1.89948 73.7153 1.78098 73.4081C1.6921 73.1419 1.60322 72.8808 1.60322 72.6146C1.60322 72.3586 1.54397 72.1026 1.51435 71.8466C1.48472 71.6674 1.4551 71.4882 1.42547 71.309C1.42547 71.2937 1.39585 71.0479 1.36622 70.6895C1.27735 69.6553 1.09959 67.6739 1.09959 67.5357C1.12922 67.3053 1.51435 65.0577 1.54397 65.0219C1.60322 64.8427 1.66248 64.6584 1.72173 64.4792C1.78098 64.2949 1.84023 64.1105 1.89948 63.9211V63.9109C1.9291 63.829 1.95873 63.7317 1.84023 63.6805C1.48472 63.5422 1.66248 63.4399 1.95873 63.3272C1.63285 63.2863 1.63285 63.1992 1.60322 63.1173C1.60322 63.1122 1.60322 63.1071 1.60322 63.0968C1.60322 62.9842 1.5736 62.9125 1.5736 62.8613C1.5736 62.7794 1.5736 62.764 1.54397 62.7487C1.54397 62.7435 1.54397 62.7436 1.54397 62.7384C1.54397 62.7333 1.51435 62.7231 1.51435 62.7077C1.48472 62.7128 1.48472 62.7231 1.4551 62.7282C1.39585 62.7436 1.36622 62.764 1.36622 62.7794C1.3366 62.8408 1.3366 62.8971 1.30697 62.9586C1.2181 63.2095 1.12922 63.4603 1.09959 63.7112C1.06997 63.8494 1.06997 63.9928 1.09959 64.131C1.09959 64.2693 1.09959 64.4126 1.09959 64.5509C1.09959 64.5611 0.773719 66.4349 0.744094 66.4452C0.240463 67.0493 0.447841 67.6739 0.655218 68.273C0.744094 68.5699 0.862595 68.8669 0.862595 69.1485C0.89222 69.5222 0.862595 69.8959 0.832969 70.2697C0.803344 70.454 0.803344 70.6434 0.803344 70.8278C0.803344 70.8636 0.773719 70.9046 0.744094 70.9558C0.684843 71.0377 0.655218 71.1401 0.655218 71.2322C0.714468 71.524 0.803344 71.6572 0.89222 71.7749C0.921845 71.821 0.951471 71.862 0.981096 71.908C0.981096 71.9336 1.01072 71.9797 0.951471 71.99C0.595967 72.0719 0.625592 72.1691 0.684843 72.2715C0.714468 72.3074 0.714468 72.3432 0.714468 72.3791C0.714468 72.6043 0.714468 72.7477 0.684843 72.8347C0.684843 72.9576 0.684843 72.9832 0.655217 73.0088C0.655217 73.0139 0.625592 73.019 0.625592 73.0293C0.595967 73.0446 0.566341 73.06 0.536716 73.0907C0.536716 73.0754 0.507091 73.06 0.477466 73.0446C0.44784 73.019 0.418215 72.9986 0.418215 72.973C0.210838 71.2937 0.210838 71.0428 0.240463 70.6076C0.240463 70.3926 0.270089 70.1366 0.270089 69.64C0.270089 69.2406 0.210838 68.8566 0.151587 68.4573C-0.0261645 67.3514 -0.203916 66.1022 0.595967 63.9262C0.89222 63.1327 1.01072 62.334 1.09959 61.5353C1.12922 61.2946 1.18847 61.054 1.2181 60.8134C1.24772 60.7161 1.27735 60.6188 1.27735 60.5267C1.3366 60.2707 1.36622 60.0147 1.42547 59.7587V59.7382C1.48472 59.3901 1.42547 59.0368 1.39585 58.6886C1.3366 58.2893 1.30697 57.8951 1.39585 57.4957C1.5736 56.6612 1.75135 55.8216 1.4551 54.9768C1.30697 54.5365 1.24772 54.0962 1.18847 53.6507C1.15885 53.4459 1.12922 53.236 1.09959 53.0312C1.09959 53.021 1.09959 53.0159 1.09959 53.0108C1.09959 53.0056 1.09959 53.0005 1.09959 52.9954C1.09959 52.98 1.12922 52.9698 1.18847 52.9186C1.2181 52.8981 1.24772 52.8725 1.30697 52.8367C1.3366 52.8521 1.36622 52.8674 1.39585 52.8828C1.4551 52.9084 1.51435 52.9391 1.54397 52.9698C1.5736 53.0005 1.5736 53.0312 1.5736 53.062C1.5736 53.0876 1.5736 53.1132 1.60323 53.1439C1.63285 53.1848 1.72173 53.2258 1.78098 53.2668C1.8106 53.277 1.8106 53.2872 1.84023 53.2924C1.89948 53.2463 1.98835 53.2053 2.01798 53.1592C2.0476 53.1183 2.07723 53.0773 2.10686 53.0364C2.13648 52.98 2.19573 52.9237 2.25498 52.8725C2.28461 52.8469 2.46236 52.8162 2.52161 52.8162V51.6284L2.49198 51.5465C2.37348 51.0038 2.07723 49.6522 2.13648 49.5702C2.13648 49.5242 2.22536 49.3501 2.31423 49.1351C2.37348 48.9661 2.46236 48.7664 2.52161 48.5924V46.7646C2.52161 46.7646 2.52161 46.7646 2.49198 46.7697C2.46236 46.7748 2.40311 46.7851 2.40311 46.7902C2.37348 46.8209 2.37348 46.8465 2.34386 46.8772C2.22536 47.0308 2.10686 47.1844 2.04761 47.338C2.01798 47.425 2.01798 47.5121 2.01798 47.5991C2.01798 47.6759 2.01798 47.7527 2.01798 47.8295C2.01798 47.8346 1.5736 48.9303 1.54397 48.9354C0.862596 49.2887 1.15885 49.6573 1.42547 50.0105C1.54397 50.1846 1.6921 50.3536 1.6921 50.5174C1.72173 50.758 1.66248 50.9936 1.63285 51.2342C1.60323 51.3212 1.60323 51.4134 1.5736 51.5004C1.5736 51.5209 1.54397 51.5414 1.51435 51.5721C1.4551 51.6233 1.36622 51.6847 1.39585 51.741C1.48472 51.9151 1.60323 51.9919 1.72173 52.0585C1.75135 52.0841 1.8106 52.1046 1.84023 52.1302C1.86985 52.1455 1.86985 52.1711 1.78098 52.1762C1.30697 52.2223 1.36622 52.2838 1.42547 52.3401C1.4551 52.3605 1.4551 52.381 1.4551 52.4015C1.42547 52.5397 1.42547 52.6217 1.42547 52.6729C1.42547 52.7394 1.42547 52.7548 1.39585 52.7701C1.39585 52.7753 1.36622 52.7804 1.36622 52.7855C1.3366 52.7906 1.30697 52.806 1.24772 52.8213C1.24772 52.8162 1.2181 52.8111 1.18847 52.8008C1.15885 52.7855 1.09959 52.7701 1.09959 52.7497C0.803345 51.7718 0.83297 51.6233 0.862596 51.3673C0.892221 51.2444 0.892221 51.0908 0.892221 50.799C0.892221 50.5635 0.803345 50.3433 0.714469 50.1078C0.477467 49.4627 0.240464 48.7306 1.3366 47.4609C1.75135 46.995 1.89948 46.5291 1.98835 46.0632C2.01798 45.9403 2.07723 45.8123 2.13648 45.6894C2.16611 45.6177 2.22536 45.5461 2.25498 45.4744C2.31423 45.3208 2.40311 45.1672 2.43273 45.0136V44.5989C2.43273 44.5426 2.40311 44.4863 2.40311 44.4299C2.34386 44.1893 2.28461 43.9487 2.40311 43.7029L2.46236 43.6108V42.1721C2.28461 41.9417 2.22536 41.7062 2.16611 41.4707C2.13648 41.3427 2.07723 41.2198 2.04761 41.0918C2.01798 41.0406 2.10686 41.0099 2.16611 40.9689C2.25498 40.9229 2.37348 40.8717 2.31423 40.7795V38.0609C2.55124 37.9534 2.84749 37.7793 3.32149 37.3595C3.35112 37.339 3.26224 37.3083 3.14374 37.2775C3.08449 37.2622 3.05487 37.2468 3.02524 37.2315C2.99561 37.2417 2.96599 37.2519 2.96599 37.2622C2.90674 37.2929 2.81786 37.3236 2.84749 37.3492C2.93636 37.5182 2.78824 37.6513 2.37348 37.7639V37.2212C2.46236 37.0676 2.61049 36.9089 2.78824 36.7656C2.84749 36.7092 2.93636 36.6529 3.02524 36.6017C3.23262 36.4532 3.43999 36.3099 3.49925 36.1358C3.52887 35.9976 3.61775 35.8593 3.70662 35.716C3.82512 35.5266 3.94363 35.3371 3.94363 35.1477C3.88437 34.6971 4.0325 34.2517 4.18063 33.8063C4.29913 33.4223 4.44726 33.0383 4.44726 32.6543C4.44726 32.2806 4.50651 31.912 4.59538 31.5382C4.65463 31.2771 4.68426 31.016 4.71388 30.76C4.71388 30.7395 4.74351 30.3811 4.80276 29.864C4.95089 28.3639 5.18789 25.4815 5.15826 25.2869C5.12864 24.9541 4.53613 21.6877 4.53613 21.6416C4.47688 21.3805 4.38801 21.1142 4.29913 20.8531C4.21025 20.5818 4.12138 20.3156 4.06213 20.0442V20.034C4.0325 19.9162 3.97325 19.7729 4.18063 19.6961C4.71388 19.4964 4.41763 19.3428 4.0325 19.1841C4.50651 19.1226 4.50651 18.9998 4.53613 18.8769C4.53613 18.8666 4.53613 18.8564 4.53613 18.8513C4.56576 18.6875 4.56576 18.5799 4.56576 18.5083C4.56576 18.3905 4.56576 18.3649 4.59538 18.3444C4.59538 18.3393 4.59538 18.3342 4.62501 18.3291C4.62501 18.3188 4.65463 18.3035 4.68426 18.283C4.71388 18.2932 4.74351 18.3035 4.74351 18.3137C4.80276 18.3393 4.86201 18.3598 4.86201 18.3854C4.89164 18.4724 4.92126 18.5595 4.95089 18.6465C5.06939 19.01 5.18789 19.3786 5.24714 19.7421C5.27676 19.9418 5.27676 20.1466 5.27676 20.3514C5.27676 20.5562 5.27676 20.7559 5.30639 20.9607C5.30639 20.976 5.78039 23.6946 5.81002 23.7151C6.52103 24.5957 6.22477 25.4968 5.92852 26.3672C5.78039 26.8024 5.63227 27.2273 5.63227 27.6369C5.60264 28.1796 5.66189 28.7223 5.69152 29.2599C5.72114 29.5312 5.75077 29.8026 5.75077 30.0739C5.75077 30.1251 5.78039 30.1866 5.83964 30.2634C5.8989 30.3863 5.98777 30.5296 5.95815 30.6678C5.86927 31.0877 5.75077 31.2873 5.63227 31.4563C5.60264 31.5229 5.54339 31.5792 5.51377 31.6457C5.48414 31.6867 5.48414 31.7481 5.54339 31.7686C6.04702 31.8864 5.98777 32.0297 5.92852 32.1731C5.8989 32.2243 5.86927 32.2806 5.8989 32.3318C5.92852 32.6595 5.92852 32.8642 5.92852 32.9922C5.92852 33.1714 5.92852 33.2073 5.95815 33.2431C5.95815 33.2534 5.98777 33.2585 5.98777 33.2687C6.0174 33.2892 6.04702 33.3148 6.10627 33.3609C6.1359 33.3404 6.1359 33.3199 6.16552 33.2994C6.19515 33.2636 6.2544 33.2329 6.2544 33.197C6.2544 33.1356 6.28402 33.069 6.28402 33.0076V20.8275C6.19515 20.5818 6.10627 20.3258 6.0174 20.0596C5.60264 18.9076 5.39527 17.7505 5.30639 16.5883C5.27677 16.2402 5.18789 15.8869 5.12864 15.5388C5.09901 15.4005 5.06939 15.2572 5.03976 15.1189C4.95089 14.7503 4.89164 14.3766 4.83239 14.0079V13.9772C4.74351 13.4703 4.80276 12.9635 4.86201 12.4515C4.92126 11.873 4.98051 11.2995 4.86201 10.7159C4.59538 9.5076 4.35838 8.28396 4.77313 7.06032C4.98051 6.42034 5.06939 5.78036 5.15826 5.14038C5.18789 4.84343 5.24714 4.54137 5.27677 4.24442C5.27677 4.22906 5.27677 4.22393 5.27677 4.2137C5.27677 4.20346 5.27677 4.19835 5.27677 4.19323C5.27677 4.17275 5.24714 4.15738 5.12864 4.08058C5.06939 4.04986 5.03976 4.01403 4.95089 3.96283C4.92126 3.98331 4.86201 4.00378 4.80276 4.02938C4.71388 4.07034 4.62501 4.1113 4.56576 4.15226C4.53613 4.19322 4.50651 4.23929 4.50651 4.28537C4.50651 4.32633 4.50651 4.36218 4.47688 4.40314C4.41763 4.46458 4.32876 4.52088 4.21025 4.5772C4.18063 4.59256 4.151 4.6028 4.151 4.61816C4.06213 4.55672 3.94363 4.49018 3.88438 4.42362C3.82512 4.36218 3.7955 4.30586 3.73625 4.24442C3.677 4.16251 3.61775 4.08058 3.5585 4.00378C3.41037 3.97306 3.23262 3.93211 3.11412 3.92188H3.05487C2.72899 3.97819 2.49199 4.02427 2.34386 4.06011V3.92188H3.05487C3.05487 3.92188 3.08449 3.92188 3.11412 3.92188H6.1359H7.02466H11.7647V77.6474H8.80217ZM2.64011 65.8206C2.72899 65.4878 2.78824 65.2216 2.78824 64.9912C2.81786 64.3665 2.84749 63.9826 2.84749 63.7419C2.84749 63.3579 2.84749 63.3426 2.90674 63.3272V63.3221V63.317C2.90674 63.317 2.90674 63.3119 2.93636 63.3119C2.96599 63.2965 2.99561 63.2811 3.02524 63.2658V64.7608V64.7659C3.02524 64.7915 2.99561 64.8171 3.02524 64.8324V65.4673C3.02524 65.4775 2.99561 65.4929 2.99561 65.5031C2.93636 65.5441 2.90674 65.5902 2.93636 65.626C2.93636 65.6567 2.99561 65.6875 3.05486 65.7182V70.4335C3.02524 70.3516 2.99561 70.2748 2.93636 70.1929C2.87711 70.0956 2.84749 69.9983 2.81786 69.9011C2.78824 69.8089 2.81786 69.7116 2.81786 69.6195C2.84749 69.5324 2.84749 69.4505 2.84749 69.3635C2.81786 69.1689 2.72899 68.9693 2.64011 68.7594C2.46236 68.3446 2.28461 67.8839 2.40311 67.3002C2.43273 67.162 2.43273 67.0186 2.46236 66.8804C2.46236 66.7677 2.49198 66.6551 2.49198 66.5425C2.52161 66.2711 2.58086 66.0305 2.64011 65.8206ZM2.0476 62.7896C2.07723 62.8101 2.07723 62.8306 1.98835 63.0354C1.95873 63.1019 1.9291 63.189 1.89948 63.2965C1.89948 63.2299 1.89948 63.1736 1.89948 63.1275C1.89948 62.8408 1.89948 62.8152 1.9291 62.7896V62.7845C1.9291 62.7794 1.95873 62.7691 1.95873 62.7589C1.95873 62.7691 1.98835 62.7794 1.98835 62.7845C2.0476 62.7794 2.0476 62.7845 2.0476 62.7896C2.0476 62.7845 2.0476 62.7845 2.0476 62.7896ZM1.39585 61.438C1.42547 61.2895 1.42547 61.1769 1.42547 61.0898C1.42547 60.8492 1.42547 60.8287 1.4551 60.8083C1.4551 60.8031 1.4551 60.8031 1.4551 60.8031C1.4551 60.798 1.4551 60.7878 1.48472 60.7775C1.48472 60.7878 1.51435 60.7929 1.51435 60.798C1.60322 60.8441 1.63285 60.8697 1.5736 62.0114C1.5736 62.0319 1.54397 62.0575 1.51435 62.078C1.48472 62.0626 1.48472 62.0575 1.4551 62.0473C1.4551 62.0421 1.4551 62.0421 1.42547 62.037C1.36622 62.0114 1.36622 61.9858 1.39585 61.7196C1.39585 61.653 1.39585 61.5609 1.39585 61.438ZM2.78824 60.6649C2.78824 60.6291 2.78824 60.5983 2.81786 60.5676C2.87711 60.5164 2.96599 60.4652 3.02524 60.414V62.5951C2.93636 61.9602 2.87711 61.3254 2.78824 60.6905C2.78824 60.6803 2.78824 60.6751 2.78824 60.6649ZM2.90674 60.071C2.87711 60.0812 2.87711 60.0966 2.87711 60.1068C2.81786 59.9993 2.81786 59.9891 2.81786 59.9174C2.81786 59.8765 2.81786 59.8099 2.78824 59.687C2.75861 59.4259 2.72899 59.2365 2.69936 59.0931C2.66974 58.8525 2.64011 58.7398 2.64011 58.6272C2.64011 58.5248 2.66974 58.4224 2.69936 58.2227C2.69936 58.1818 2.72899 58.1357 2.72899 58.0845C2.72899 58.0436 2.75861 57.9975 2.84749 57.9719C2.90674 57.9565 2.96599 57.9412 3.02524 57.9258V59.0112C2.90674 59.0573 2.90674 59.1187 3.02524 59.1955V59.7741C2.96599 59.7638 2.96599 59.7894 2.99561 59.8406C2.99561 59.8816 2.99561 59.943 2.99561 60.0198C2.96599 60.0352 2.93636 60.0556 2.90674 60.071ZM1.66248 58.2176C1.66248 58.1408 1.6921 58.064 1.72173 57.9616V57.9104V57.8848C1.72173 57.8644 1.78098 57.849 1.84023 57.8336C1.86985 57.8285 1.86985 57.8234 1.89948 57.8183C1.9291 57.8285 1.9291 57.8388 1.95873 57.849C1.98835 57.8644 2.01798 57.8797 2.0476 57.9002C2.07723 57.9156 2.0476 57.9309 2.0476 57.9514C2.0476 57.9616 2.0476 57.9668 2.0476 57.977C2.01798 58.1306 1.98835 58.2893 1.95873 58.4429C1.9291 58.5965 1.89948 58.7552 1.86985 58.9088H1.9291C1.9291 59.0061 1.9291 59.088 1.9291 59.1546C1.9291 59.4361 1.9291 59.4925 1.89948 59.5437C1.89948 59.559 1.89948 59.5693 1.86985 59.5897C1.86985 59.6153 1.84023 59.6512 1.8106 59.7075C1.78098 59.6358 1.78098 59.559 1.75135 59.4873C1.75135 59.3952 1.72173 59.3082 1.72173 59.2314C1.66248 58.5914 1.63285 58.4019 1.66248 58.2176ZM2.84749 57.7517C2.75861 57.7415 2.72899 57.6749 2.72899 57.6391C2.75861 57.4753 2.90674 57.1066 3.02524 56.8302V57.7773C2.96599 57.7671 2.93636 57.762 2.84749 57.7517ZM2.22536 57.0554C2.19573 57.0605 2.13648 57.0708 2.07723 57.081C2.0476 57.0554 2.0476 57.0349 2.01798 57.0196C1.98835 56.9735 1.95873 56.9633 1.98835 56.953C1.98835 56.9479 2.01798 56.9479 2.0476 56.9428C2.07723 56.9377 2.10686 56.9325 2.16611 56.9223C2.19573 56.9428 2.22536 56.9581 2.25498 56.9684C2.31423 57.0093 2.34386 57.0196 2.31423 57.0349C2.31423 57.0401 2.28461 57.0452 2.22536 57.0554ZM1.9291 56.5486C1.89948 56.523 1.86985 56.5025 1.84023 56.482C1.89948 56.3796 1.9291 56.3028 1.95873 56.2158C1.98835 56.2363 2.01798 56.2618 2.0476 56.2823C2.10686 56.3386 2.19573 56.395 2.19573 56.4564C2.19573 56.5025 2.16611 56.5537 2.10686 56.5998C2.07723 56.6202 2.07723 56.6356 2.0476 56.6561C2.01798 56.6254 1.95873 56.5844 1.9291 56.5486ZM1.95873 55.8727C1.9291 55.8523 1.9291 55.8318 1.9291 55.5707C1.9291 55.5297 1.9291 55.4836 1.9291 55.4273C1.9291 55.3505 1.9291 55.2891 1.9291 55.2328C1.9291 54.9563 1.9291 54.9256 1.98835 54.8949C1.98835 54.8897 2.01798 54.8897 2.01798 54.8846C2.0476 54.8744 2.07723 54.8641 2.10686 54.8437C2.13648 54.859 2.13648 54.8641 2.16611 54.8744V54.8795C2.22536 54.9153 2.22536 54.9512 2.13648 55.5604C2.13648 55.6423 2.10686 55.7294 2.10686 55.8318C2.10686 55.8471 2.07723 55.8574 2.07723 55.8727C2.07723 55.883 2.0476 55.8881 2.0476 55.8983C2.01798 55.8881 2.01798 55.8779 2.01798 55.8727C1.98835 55.8727 1.95873 55.8727 1.95873 55.8727ZM1.89948 54.5672C1.86985 54.5416 1.8106 54.516 1.78098 54.4955C1.78098 54.4802 1.8106 54.4699 1.8106 54.4546C1.84023 54.4238 1.86985 54.3931 1.86985 54.3675C1.89948 54.3982 1.9291 54.4238 1.9291 54.4443C1.98835 54.5057 1.98835 54.5211 1.98835 54.5314C1.98835 54.5365 1.95873 54.5365 1.95873 54.5416C1.9291 54.5467 1.9291 54.557 1.89948 54.5672ZM2.46236 46.2628V46.1912C2.43273 46.2219 2.43273 46.2424 2.46236 46.2628ZM2.49199 14.5046C2.46236 14.4892 2.46236 14.4687 2.43274 14.4534C2.40311 14.4278 2.37348 14.4073 2.34386 14.3817C2.31423 14.269 2.31423 14.182 2.31423 14.1257C2.31423 14.0489 2.31423 14.0131 2.25498 14.0233V13.1888C2.40311 13.0812 2.43274 12.9891 2.25498 12.9225V11.3456C2.34386 11.3661 2.40311 11.3866 2.49199 11.4122C2.61049 11.4531 2.64011 11.5197 2.64011 11.5811C2.64011 11.6528 2.66974 11.7194 2.66974 11.7808C2.72899 12.0675 2.75861 12.216 2.75861 12.3696C2.75861 12.5334 2.72899 12.6973 2.69936 13.0454C2.66974 13.2553 2.64011 13.5267 2.58086 13.9107C2.55124 14.0898 2.55124 14.182 2.55124 14.2434C2.61049 14.3305 2.61049 14.351 2.49199 14.5046ZM3.08449 23.8482C2.99562 23.454 2.90674 23.1059 2.84749 22.7987C2.72899 22.3174 2.64011 21.9283 2.61049 21.5955C2.58086 20.6893 2.55124 20.1312 2.52161 19.778C2.49199 19.2199 2.49199 19.1943 2.46236 19.1738C2.46236 19.1687 2.43273 19.1636 2.43273 19.1585C2.37348 19.138 2.34386 19.1175 2.31423 19.097V21.273V21.2781C2.34386 21.3139 2.34386 21.3498 2.31423 21.3754V22.2918C2.34386 22.3072 2.34386 22.3276 2.37348 22.343C2.43274 22.4044 2.52161 22.4659 2.49199 22.5222C2.46236 22.5683 2.40311 22.6092 2.34386 22.6553V29.5005C2.37348 29.3879 2.43273 29.2701 2.49199 29.1524C2.55124 29.009 2.64011 28.8708 2.66974 28.7274C2.69936 28.5892 2.66974 28.4561 2.64011 28.3178C2.58086 28.1898 2.55124 28.067 2.58086 27.9441C2.64011 27.6574 2.75861 27.3707 2.87711 27.0635C3.11412 26.4593 3.41037 25.7887 3.20299 24.9439C3.14374 24.7391 3.14374 24.5343 3.14374 24.3295C3.11412 24.1759 3.11412 24.0121 3.08449 23.8482ZM3.677 18.3956C3.64737 18.4263 3.64737 18.4571 3.73625 18.7489C3.76587 18.8462 3.7955 18.969 3.85475 19.1329C3.85475 19.0356 3.85475 18.9537 3.85475 18.882C3.82512 18.4622 3.82512 18.4263 3.7955 18.3956C3.7955 18.3905 3.7955 18.3905 3.7955 18.3854C3.7955 18.3751 3.76587 18.3649 3.76587 18.3444C3.73625 18.3649 3.73625 18.3751 3.73625 18.3854C3.70662 18.3905 3.677 18.3905 3.677 18.3956ZM4.56576 17.3153C4.62501 17.2795 4.62501 17.2437 4.62501 16.8597C4.62501 16.7522 4.62501 16.6139 4.62501 16.4398H4.59538C4.59538 16.2248 4.59538 16.061 4.59538 15.9381C4.59538 15.5951 4.59538 15.5592 4.56576 15.5285V15.5234V15.5183C4.56576 15.508 4.53613 15.4978 4.53613 15.4773C4.50651 15.4927 4.50651 15.4978 4.47688 15.508C4.35838 15.5797 4.29913 15.6104 4.38801 17.2693C4.38801 17.3 4.41763 17.3358 4.47688 17.3665C4.50651 17.3461 4.53613 17.3358 4.56576 17.3256C4.56576 17.3256 4.56576 17.3205 4.56576 17.3153ZM2.61049 15.3135C2.61049 15.2623 2.61049 15.2162 2.58086 15.1701C2.49199 15.0933 2.37348 15.0217 2.28461 14.9449V18.1089C2.40311 17.1925 2.52161 16.2709 2.61049 15.3493C2.61049 15.3391 2.61049 15.3288 2.61049 15.3135ZM4.18063 11.3917C4.21025 11.5453 4.23988 11.6579 4.2695 11.7654C4.29913 12.0317 4.2695 12.303 4.151 13.2246C4.151 13.3372 4.12138 13.4601 4.09175 13.5983C4.06213 13.7059 4.06213 13.8134 4.00288 13.9158C3.97325 13.8339 3.94363 13.7827 3.94363 13.7468C3.94363 13.7212 3.914 13.7007 3.914 13.6803C3.88438 13.5983 3.88438 13.5164 3.88438 13.112C3.88438 13.0147 3.88438 12.8969 3.88438 12.7536H3.97325C3.914 12.5283 3.88438 12.303 3.82512 12.0778C3.76587 11.8525 3.73625 11.6272 3.677 11.4019C3.677 11.3917 3.677 11.3763 3.677 11.3661C3.677 11.3405 3.64737 11.3149 3.677 11.2944C3.70662 11.2688 3.73625 11.2432 3.7955 11.2227C3.82512 11.2074 3.85475 11.192 3.88438 11.1767C3.914 11.1818 3.94363 11.192 3.97325 11.1971C4.06213 11.2227 4.151 11.2483 4.151 11.2739C4.151 11.32 4.151 11.3559 4.18063 11.3917ZM2.66974 10.9207C2.69936 10.977 2.64011 11.0743 2.52161 11.0896C2.43274 11.0999 2.37348 11.1101 2.28461 11.1255V9.75336C2.43274 10.1527 2.61049 10.6852 2.66974 10.9207ZM3.44 10.0759C3.38075 10.0657 3.32149 10.0554 3.29187 10.0452C3.26224 10.0298 3.29187 10.0093 3.38075 9.95302C3.41037 9.93254 3.44 9.91207 3.49925 9.88647C3.5585 9.90183 3.61775 9.90695 3.64737 9.91207C3.677 9.91719 3.70662 9.92231 3.73625 9.92743C3.76587 9.94279 3.76587 9.95815 3.70662 10.0247C3.677 10.0503 3.64737 10.0759 3.61775 10.1169C3.5585 10.0964 3.49925 10.0861 3.44 10.0759ZM3.97325 9.24648C3.94363 9.2772 3.914 9.30793 3.85475 9.34377C3.7955 9.39497 3.73625 9.45129 3.677 9.5076C3.64737 9.48201 3.61775 9.45128 3.58812 9.42568C3.52887 9.354 3.44 9.28232 3.46962 9.21576C3.46962 9.13386 3.58812 9.04682 3.677 8.9649C3.70662 8.93418 3.76587 8.89835 3.7955 8.86763C3.85475 8.98538 3.914 9.10313 3.97325 9.24648ZM3.85475 7.91533C3.85475 8.2942 3.85475 8.32493 3.7955 8.35564C3.7955 8.35564 3.7955 8.35563 3.7955 8.36075C3.7955 8.36075 3.7955 8.36076 3.7955 8.36588V8.371C3.76587 8.38124 3.76587 8.39147 3.73625 8.41195C3.73625 8.40171 3.70662 8.38636 3.70662 8.371C3.677 8.35052 3.64737 8.33004 3.64737 8.30957C3.61775 8.16109 3.61775 8.02798 3.58812 7.91022C3.44 7.02961 3.44 6.97328 3.52887 6.9272C3.52887 6.92208 3.52887 6.92208 3.5585 6.91696C3.58812 6.90672 3.58812 6.89648 3.61775 6.876C3.677 6.90672 3.70662 6.92209 3.76587 6.93233C3.7955 6.93745 3.7955 6.94257 3.7955 6.94769C3.88438 6.98865 3.88438 7.03473 3.88438 7.43408C3.88438 7.51087 3.88438 7.60303 3.88438 7.71567C3.85475 7.78734 3.85475 7.85389 3.85475 7.91533ZM3.914 6.4613C3.88438 6.44594 3.85475 6.43058 3.82512 6.42546C3.7955 6.42034 3.7955 6.41522 3.7955 6.4101C3.76587 6.38962 3.7955 6.37427 3.85475 6.28211C3.88438 6.2514 3.914 6.21555 3.94363 6.16947C3.94363 6.21043 4.00288 6.2514 4.0325 6.29747C4.06213 6.31795 4.06213 6.3333 4.09175 6.35378C4.0325 6.3845 3.97325 6.42546 3.914 6.4613ZM2.58086 6.15923C2.58086 6.58929 2.43274 7.01937 2.28461 7.44432V5.00216C2.43274 5.38615 2.55124 5.77524 2.58086 6.15923Z" fill="#22262E"/>
<path d="M71.1969 5.49023H76.9739V6.8009C77.1516 6.8777 77.359 6.99545 77.6552 7.28728C77.6849 7.30264 77.596 7.32312 77.5367 7.3436C77.5071 7.35384 77.4775 7.36408 77.4479 7.37432C77.4182 7.3692 77.4182 7.35897 77.3886 7.35385C77.3294 7.33337 77.2997 7.31288 77.2997 7.2924C77.359 7.17977 77.2701 7.08249 76.9739 7.00569V7.37945C77.0331 7.48696 77.122 7.59447 77.2701 7.69687C77.3294 7.73783 77.359 7.77367 77.4182 7.80951C77.5664 7.91191 77.7145 8.00918 77.7441 8.12693C77.7737 8.22421 77.833 8.32149 77.8922 8.41364C77.9811 8.54676 78.07 8.67476 78.0404 8.80276C78.0107 9.11506 78.0996 9.42225 78.2181 9.72944C78.307 9.99567 78.3959 10.2568 78.3959 10.523C78.3959 10.779 78.4551 11.035 78.4848 11.291C78.5144 11.4702 78.544 11.6494 78.5736 11.8286C78.5736 11.844 78.6033 12.0897 78.6329 12.4481C78.7218 13.4823 78.8995 15.4637 78.8995 15.6019C78.8699 15.8323 78.4848 18.0799 78.4551 18.1157C78.3959 18.2949 78.3366 18.4792 78.2774 18.6584C78.2181 18.8428 78.1589 19.0271 78.0996 19.2165V19.2268C78.07 19.3087 78.0404 19.4059 78.1589 19.4571C78.5144 19.5954 78.3366 19.6978 78.0404 19.8104C78.3662 19.8514 78.3662 19.9384 78.3959 20.0203C78.3959 20.0254 78.3959 20.0306 78.3959 20.0408C78.3959 20.1534 78.4255 20.2251 78.4255 20.2763C78.4255 20.3582 78.4255 20.3736 78.4551 20.389C78.4551 20.3941 78.4551 20.3941 78.4551 20.3992C78.4551 20.4043 78.4848 20.4146 78.4848 20.4299C78.5144 20.4248 78.5144 20.4145 78.544 20.4094C78.6033 20.3941 78.6329 20.3736 78.6329 20.3582C78.6625 20.2968 78.6625 20.2405 78.6921 20.179C78.781 19.9282 78.8699 19.6773 78.8995 19.4264C78.9291 19.2882 78.9291 19.1448 78.8995 19.0066C78.8995 18.8684 78.8995 18.725 78.8995 18.5868C78.8995 18.5765 79.2254 16.7027 79.255 16.6924C79.7586 16.0883 79.5513 15.4637 79.3439 14.8647C79.255 14.5677 79.1365 14.2708 79.1365 13.9892C79.1069 13.6154 79.1365 13.2417 79.1661 12.8679C79.1958 12.6836 79.1958 12.4942 79.1958 12.3099C79.1958 12.274 79.2254 12.2331 79.255 12.1819C79.3143 12.0999 79.3439 11.9976 79.3439 11.9054C79.2846 11.6136 79.1958 11.4804 79.1069 11.3627C79.0773 11.3166 79.0476 11.2757 79.018 11.2296C79.018 11.204 78.9884 11.1579 79.0476 11.1477C79.4031 11.0657 79.3735 10.9685 79.3143 10.8661C79.2846 10.8302 79.2846 10.7944 79.2846 10.7586C79.2846 10.5333 79.2846 10.3899 79.3143 10.3029C79.3143 10.18 79.3143 10.1544 79.3439 10.1288C79.3439 10.1237 79.3735 10.1186 79.3735 10.1083C79.4031 10.093 79.4328 10.0776 79.4624 10.0469C79.4624 10.0623 79.492 10.0776 79.5216 10.093C79.5513 10.1186 79.5809 10.1391 79.5809 10.1647C79.7883 11.844 79.7883 12.0948 79.7586 12.53C79.7586 12.745 79.729 13.001 79.729 13.4977C79.729 13.897 79.7883 14.281 79.8475 14.6803C80.0253 15.7862 80.203 17.0355 79.4031 19.2114C79.1069 20.005 78.9884 20.8036 78.8995 21.6023C78.8699 21.843 78.8106 22.0836 78.781 22.3242C78.7514 22.4215 78.7218 22.5188 78.7218 22.611C78.6625 22.8669 78.6329 23.1229 78.5736 23.3789V23.3994C78.5144 23.7476 78.5736 24.1008 78.6033 24.449C78.6625 24.8483 78.6921 25.2425 78.6033 25.6419C78.4255 26.4764 78.2477 27.3161 78.544 28.1608C78.6921 28.6011 78.7514 29.0415 78.8106 29.4869C78.8403 29.6917 78.8699 29.9016 78.8995 30.1064C78.8995 30.1166 78.8995 30.1217 78.8995 30.1269C78.8995 30.132 78.8995 30.1371 78.8995 30.1422C78.8995 30.1576 78.8699 30.1678 78.8106 30.219C78.781 30.2395 78.7514 30.2651 78.6921 30.3009C78.6625 30.2856 78.6329 30.2702 78.6033 30.2548C78.544 30.2293 78.4848 30.1985 78.4551 30.1678C78.4255 30.1371 78.4255 30.1064 78.4255 30.0757C78.4255 30.0501 78.4255 30.0245 78.3959 29.9937C78.3662 29.9528 78.2774 29.9118 78.2181 29.8709C78.1885 29.8606 78.1885 29.8504 78.1589 29.8453C78.0996 29.8913 78.0107 29.9323 77.9811 29.9784C77.9515 30.0193 77.9219 30.0603 77.8922 30.1013C77.8626 30.1576 77.8034 30.2139 77.7441 30.2651C77.7145 30.2907 77.5367 30.3214 77.4775 30.3214V31.5092L77.5071 31.5911C77.6256 32.1338 77.9219 33.4855 77.8626 33.5674C77.8626 33.6135 77.7737 33.7875 77.6849 34.0026C77.6256 34.1715 77.5367 34.3712 77.4775 34.5453V36.373C77.4775 36.373 77.4775 36.373 77.5071 36.3679C77.5367 36.3628 77.596 36.3526 77.596 36.3474C77.6256 36.3167 77.6256 36.2911 77.6552 36.2604C77.7737 36.1068 77.8922 35.9532 77.9515 35.7996C77.9811 35.7126 77.9811 35.6255 77.9811 35.5385C77.9811 35.4617 77.9811 35.3849 77.9811 35.3081C77.9811 35.303 78.4255 34.2074 78.4551 34.2022C79.1365 33.849 78.8403 33.4803 78.5736 33.1271C78.4551 32.953 78.307 32.7841 78.307 32.6202C78.2774 32.3796 78.3366 32.1441 78.3662 31.9034C78.3959 31.8164 78.3959 31.7242 78.4255 31.6372C78.4255 31.6167 78.4551 31.5962 78.4848 31.5655C78.544 31.5143 78.6329 31.4529 78.6033 31.3966C78.5144 31.2225 78.3959 31.1457 78.2774 31.0791C78.2477 31.0535 78.1885 31.0331 78.1589 31.0075C78.1292 30.9921 78.1292 30.9665 78.2181 30.9614C78.6921 30.9153 78.6329 30.8539 78.5736 30.7976C78.544 30.7771 78.544 30.7566 78.544 30.7361C78.5736 30.5979 78.5736 30.516 78.5736 30.4648C78.5736 30.3982 78.5736 30.3828 78.6033 30.3675C78.6033 30.3624 78.6329 30.3572 78.6329 30.3521C78.6625 30.347 78.6921 30.3317 78.7514 30.3163C78.7514 30.3214 78.781 30.3265 78.8106 30.3368C78.8403 30.3521 78.8995 30.3675 78.8995 30.388C79.1958 31.3659 79.1661 31.5143 79.1365 31.7703C79.1069 31.8932 79.1069 32.0468 79.1069 32.3386C79.1069 32.5741 79.1958 32.7943 79.2846 33.0298C79.5216 33.6749 79.7586 34.407 78.6625 35.6767C78.2477 36.1426 78.0996 36.6086 78.0107 37.0745C77.9811 37.1973 77.9219 37.3253 77.8626 37.4482C77.833 37.5199 77.7737 37.5916 77.7441 37.6632C77.6849 37.8168 77.596 37.9704 77.5664 38.124V38.5387C77.5664 38.595 77.596 38.6514 77.596 38.7077C77.6552 38.9483 77.7145 39.1889 77.596 39.4347L77.5367 39.5269V40.9655C77.7145 41.1959 77.7737 41.4314 77.833 41.6669C77.8626 41.7949 77.9219 41.9178 77.9515 42.0458C77.9811 42.097 77.8922 42.1277 77.833 42.1687C77.7441 42.2148 77.6256 42.266 77.6849 42.3581V45.0767C77.4479 45.1843 77.1516 45.3583 76.6776 45.7782C76.648 45.7986 76.7369 45.8294 76.8554 45.8601C76.9146 45.8754 76.9442 45.8908 76.9739 45.9062C77.0035 45.8959 77.0331 45.8857 77.0331 45.8754C77.0924 45.8447 77.1812 45.814 77.1516 45.7884C77.0627 45.6194 77.2109 45.4863 77.6256 45.3737V45.9164C77.5367 46.07 77.3886 46.2287 77.2109 46.3721C77.1516 46.4284 77.0627 46.4847 76.9739 46.5359C76.7665 46.6844 76.5591 46.8277 76.4999 47.0018C76.4702 47.14 76.3814 47.2783 76.2925 47.4216C76.174 47.6111 76.0555 47.8005 76.0555 47.9899C76.1147 48.4405 75.9666 48.8859 75.8185 49.3313C75.7 49.7153 75.5518 50.0993 75.5518 50.4833C75.5518 50.857 75.4926 51.2257 75.4037 51.5994C75.3445 51.8605 75.3148 52.1216 75.2852 52.3776C75.2852 52.3981 75.2556 52.7565 75.1963 53.2736C75.0482 54.7737 74.8112 57.6562 74.8408 57.8507C74.8705 58.1835 75.463 61.4499 75.463 61.496C75.5222 61.7571 75.6111 62.0234 75.7 62.2845C75.7888 62.5558 75.8777 62.8221 75.937 63.0934V63.1037C75.9666 63.2214 76.0258 63.3648 75.8185 63.4416C75.2852 63.6412 75.5815 63.7948 75.9666 63.9535C75.4926 64.015 75.4926 64.1379 75.463 64.2607C75.463 64.271 75.463 64.2812 75.463 64.2863C75.4333 64.4502 75.4333 64.5577 75.4333 64.6294C75.4333 64.7471 75.4333 64.7727 75.4037 64.7932C75.4037 64.7983 75.4037 64.8034 75.3741 64.8086C75.3741 64.8188 75.3445 64.8342 75.3148 64.8546C75.2852 64.8444 75.2556 64.8342 75.2556 64.8239C75.1963 64.7983 75.1371 64.7778 75.1371 64.7522C75.1075 64.6652 75.0778 64.5782 75.0482 64.4911C74.9297 64.1276 74.8112 63.759 74.752 63.3955C74.7223 63.1958 74.7223 62.991 74.7223 62.7862C74.7223 62.5814 74.7223 62.3818 74.6927 62.177C74.6927 62.1616 74.2187 59.443 74.1891 59.4225C73.4781 58.5419 73.7743 57.6408 74.0706 56.7704C74.2187 56.3352 74.3668 55.9103 74.3668 55.5007C74.3965 54.958 74.3372 54.4153 74.3076 53.8777C74.278 53.6064 74.2483 53.335 74.2483 53.0637C74.2483 53.0125 74.2187 52.951 74.1595 52.8742C74.1002 52.7514 74.0113 52.608 74.041 52.4698C74.1298 52.0499 74.2483 51.8503 74.3668 51.6813C74.3965 51.6148 74.4557 51.5584 74.4853 51.4919C74.515 51.4509 74.515 51.3895 74.4557 51.369C73.9521 51.2513 74.0113 51.1079 74.0706 50.9645C74.1002 50.9133 74.1298 50.857 74.1002 50.8058C74.0706 50.4782 74.0706 50.2734 74.0706 50.1454C74.0706 49.9662 74.0706 49.9303 74.041 49.8945C74.041 49.8843 74.0113 49.8791 74.0113 49.8689C73.9817 49.8484 73.9521 49.8228 73.8928 49.7767C73.8632 49.7972 73.8632 49.8177 73.8336 49.8382C73.804 49.874 73.7447 49.9047 73.7447 49.9406C73.7447 50.002 73.7151 50.0686 73.7151 50.13V62.3101C73.804 62.5558 73.8928 62.8118 73.9817 63.0781C74.3965 64.23 74.6038 65.3871 74.6927 66.5493C74.7223 66.8974 74.8112 67.2507 74.8705 67.5989C74.9001 67.7371 74.9297 67.8804 74.9593 68.0187C75.0482 68.3873 75.1075 68.7611 75.1667 69.1297V69.1604C75.2556 69.6673 75.1963 70.1741 75.1371 70.6861C75.0778 71.2647 75.0186 71.8381 75.1371 72.4217C75.4037 73.63 75.6407 74.8537 75.226 76.0773C75.0186 76.7173 74.9297 77.3572 74.8408 77.9972C74.8112 78.2942 74.752 78.5962 74.7223 78.8932C74.7223 78.9086 74.7223 78.9137 74.7223 78.9239C74.7223 78.9342 74.7223 78.9393 74.7223 78.9444C74.7223 78.9649 74.752 78.9802 74.8705 79.057C74.9297 79.0877 74.9593 79.1236 75.0482 79.1748C75.0778 79.1543 75.1371 79.1338 75.1963 79.1082C75.2852 79.0673 75.3741 79.0263 75.4333 78.9854C75.463 78.9444 75.4926 78.8983 75.4926 78.8522C75.4926 78.8113 75.4926 78.7754 75.5222 78.7345C75.5815 78.673 75.6703 78.6167 75.7888 78.5604C75.8185 78.545 75.8481 78.5348 75.8481 78.5194C75.937 78.5809 76.0555 78.6474 76.1147 78.714C76.174 78.7754 76.2036 78.8318 76.2629 78.8932C76.3221 78.9751 76.3814 79.057 76.4406 79.1338C76.5887 79.1645 76.7665 79.2055 76.885 79.2157H76.9442C77.2701 79.1594 77.5071 79.1133 77.6552 79.0775V79.2157H76.9442C76.9442 79.2157 76.9146 79.2157 76.885 79.2157H73.8632H72.9744H68.2344V5.49023H71.1969ZM77.359 17.3171C77.2701 17.6498 77.2109 17.9161 77.2109 18.1465C77.1812 18.7711 77.1516 19.1551 77.1516 19.3957C77.1516 19.7797 77.1516 19.795 77.0924 19.8104V19.8155V19.8206C77.0924 19.8206 77.0924 19.8258 77.0627 19.8258C77.0331 19.8411 77.0035 19.8565 76.9739 19.8718V18.3769V18.3717C76.9739 18.3461 77.0035 18.3205 76.9739 18.3052V17.6703C76.9739 17.6601 77.0035 17.6447 77.0035 17.6345C77.0627 17.5935 77.0924 17.5474 77.0627 17.5116C77.0627 17.4809 77.0035 17.4502 76.9442 17.4194V12.7041C76.9739 12.786 77.0035 12.8628 77.0627 12.9447C77.122 13.042 77.1516 13.1393 77.1812 13.2366C77.2109 13.3287 77.1812 13.426 77.1812 13.5181C77.1516 13.6052 77.1516 13.6871 77.1516 13.7741C77.1812 13.9687 77.2701 14.1684 77.359 14.3783C77.5367 14.793 77.7145 15.2538 77.596 15.8374C77.5664 15.9757 77.5664 16.119 77.5367 16.2573C77.5367 16.3699 77.5071 16.4825 77.5071 16.5952C77.4775 16.8665 77.4182 17.1071 77.359 17.3171ZM77.9515 20.348C77.9219 20.3275 77.9219 20.307 78.0107 20.1022C78.0404 20.0357 78.07 19.9486 78.0996 19.8411C78.0996 19.9077 78.0996 19.964 78.0996 20.0101C78.0996 20.2968 78.0996 20.3224 78.07 20.348V20.3531C78.07 20.3582 78.0404 20.3685 78.0404 20.3787C78.0404 20.3685 78.0107 20.3582 78.0107 20.3531C77.9515 20.3582 77.9515 20.3531 77.9515 20.348C77.9515 20.3531 77.9515 20.3531 77.9515 20.348ZM78.6033 21.6996C78.5736 21.8481 78.5736 21.9607 78.5736 22.0478C78.5736 22.2884 78.5736 22.3089 78.544 22.3294C78.544 22.3345 78.544 22.3345 78.544 22.3345C78.544 22.3396 78.544 22.3498 78.5144 22.3601C78.5144 22.3498 78.4848 22.3447 78.4848 22.3396C78.3959 22.2935 78.3662 22.2679 78.4255 21.1262C78.4255 21.1057 78.4551 21.0801 78.4848 21.0596C78.5144 21.075 78.5144 21.0801 78.544 21.0904C78.544 21.0955 78.544 21.0955 78.5736 21.1006C78.6329 21.1262 78.6329 21.1518 78.6033 21.418C78.6033 21.4846 78.6033 21.5767 78.6033 21.6996ZM77.2109 22.4727C77.2109 22.5086 77.2109 22.5393 77.1812 22.57C77.122 22.6212 77.0331 22.6724 76.9739 22.7236V20.5425C77.0627 21.1774 77.122 21.8123 77.2109 22.4471C77.2109 22.4574 77.2109 22.4625 77.2109 22.4727ZM77.0924 23.0666C77.122 23.0564 77.122 23.041 77.122 23.0308C77.1812 23.1383 77.1812 23.1485 77.1812 23.2202C77.1812 23.2612 77.1812 23.3277 77.2109 23.4506C77.2405 23.7117 77.2701 23.9011 77.2997 24.0445C77.3294 24.2851 77.359 24.3978 77.359 24.5104C77.359 24.6128 77.3294 24.7152 77.2997 24.9149C77.2997 24.9558 77.2701 25.0019 77.2701 25.0531C77.2701 25.0941 77.2405 25.1401 77.1516 25.1657C77.0924 25.1811 77.0331 25.1965 76.9739 25.2118V24.1264C77.0924 24.0803 77.0924 24.0189 76.9739 23.9421V23.3636C77.0331 23.3738 77.0331 23.3482 77.0035 23.297C77.0035 23.256 77.0035 23.1946 77.0035 23.1178C77.0331 23.1025 77.0627 23.082 77.0924 23.0666ZM78.3366 24.92C78.3366 24.9968 78.307 25.0736 78.2774 25.176V25.2272V25.2528C78.2774 25.2733 78.2181 25.2886 78.1589 25.304C78.1292 25.3091 78.1292 25.3142 78.0996 25.3193C78.07 25.3091 78.07 25.2989 78.0404 25.2886C78.0107 25.2733 77.9811 25.2579 77.9515 25.2374C77.9219 25.2221 77.9515 25.2067 77.9515 25.1862C77.9515 25.176 77.9515 25.1709 77.9515 25.1606C77.9811 25.007 78.0107 24.8483 78.0404 24.6947C78.07 24.5411 78.0996 24.3824 78.1292 24.2288H78.07C78.07 24.1315 78.07 24.0496 78.07 23.9831C78.07 23.7015 78.07 23.6452 78.0996 23.594C78.0996 23.5786 78.0996 23.5684 78.1292 23.5479C78.1292 23.5223 78.1589 23.4864 78.1885 23.4301C78.2181 23.5018 78.2181 23.5786 78.2477 23.6503C78.2477 23.7424 78.2774 23.8295 78.2774 23.9063C78.3366 24.5462 78.3662 24.7357 78.3366 24.92ZM77.1516 25.3859C77.2405 25.3961 77.2701 25.4627 77.2701 25.4985C77.2405 25.6624 77.0924 26.031 76.9739 26.3075V25.3603C77.0331 25.3705 77.0627 25.3757 77.1516 25.3859ZM77.7737 26.0822C77.8034 26.0771 77.8626 26.0668 77.9219 26.0566C77.9515 26.0822 77.9515 26.1027 77.9811 26.118C78.0107 26.1641 78.0404 26.1743 78.0107 26.1846C78.0107 26.1897 77.9811 26.1897 77.9515 26.1948C77.9219 26.1999 77.8922 26.2051 77.833 26.2153C77.8034 26.1948 77.7737 26.1795 77.7441 26.1692C77.6849 26.1283 77.6552 26.118 77.6849 26.1027C77.6849 26.0976 77.7145 26.0924 77.7737 26.0822ZM78.07 26.5891C78.0996 26.6147 78.1292 26.6351 78.1589 26.6556C78.0996 26.758 78.07 26.8348 78.0404 26.9218C78.0107 26.9014 77.9811 26.8758 77.9515 26.8553C77.8922 26.799 77.8034 26.7427 77.8034 26.6812C77.8034 26.6351 77.833 26.5839 77.8922 26.5379C77.9219 26.5174 77.9219 26.502 77.9515 26.4815C77.9811 26.5123 78.0404 26.5532 78.07 26.5891ZM78.0404 27.2649C78.07 27.2854 78.07 27.3058 78.07 27.5669C78.07 27.6079 78.07 27.654 78.07 27.7103C78.07 27.7871 78.07 27.8485 78.07 27.9049C78.07 28.1813 78.07 28.212 78.0107 28.2428C78.0107 28.2479 77.9811 28.2479 77.9811 28.253C77.9515 28.2632 77.9219 28.2735 77.8922 28.294C77.8626 28.2786 77.8626 28.2735 77.833 28.2632V28.2581C77.7737 28.2223 77.7737 28.1864 77.8626 27.5772C77.8626 27.4953 77.8922 27.4082 77.8922 27.3058C77.8922 27.2905 77.9219 27.2802 77.9219 27.2649C77.9219 27.2546 77.9515 27.2495 77.9515 27.2393C77.9811 27.2495 77.9811 27.2598 77.9811 27.2649C78.0107 27.2649 78.0404 27.2649 78.0404 27.2649ZM78.0996 28.5704C78.1292 28.596 78.1885 28.6216 78.2181 28.6421C78.2181 28.6575 78.1885 28.6677 78.1885 28.6831C78.1589 28.7138 78.1292 28.7445 78.1292 28.7701C78.0996 28.7394 78.07 28.7138 78.07 28.6933C78.0107 28.6319 78.0107 28.6165 78.0107 28.6063C78.0107 28.6011 78.0404 28.6011 78.0404 28.596C78.07 28.5909 78.07 28.5807 78.0996 28.5704ZM77.5367 36.8748V36.9465C77.5664 36.9157 77.5664 36.8953 77.5367 36.8748ZM77.5071 68.6331C77.5367 68.6484 77.5367 68.6689 77.5664 68.6843C77.596 68.7099 77.6256 68.7303 77.6552 68.7559C77.6849 68.8686 77.6849 68.9556 77.6849 69.0119C77.6849 69.0887 77.6849 69.1246 77.7441 69.1143V69.9489C77.596 70.0564 77.5664 70.1485 77.7441 70.2151V71.792C77.6552 71.7715 77.596 71.751 77.5071 71.7254C77.3886 71.6845 77.359 71.6179 77.359 71.5565C77.359 71.4848 77.3294 71.4182 77.3294 71.3568C77.2701 71.0701 77.2405 70.9216 77.2405 70.768C77.2405 70.6042 77.2701 70.4404 77.2997 70.0922C77.3294 69.8823 77.359 69.611 77.4182 69.227C77.4479 69.0478 77.4479 68.9556 77.4479 68.8942C77.3886 68.8071 77.3886 68.7867 77.5071 68.6331ZM76.9146 59.2894C77.0035 59.6836 77.0924 60.0318 77.1516 60.3389C77.2701 60.8202 77.359 61.2093 77.3886 61.5421C77.4182 62.4483 77.4479 63.0064 77.4775 63.3596C77.5071 63.9177 77.5071 63.9433 77.5367 63.9638C77.5367 63.9689 77.5664 63.974 77.5664 63.9791C77.6256 63.9996 77.6552 64.0201 77.6849 64.0406V61.8647V61.8595C77.6552 61.8237 77.6552 61.7879 77.6849 61.7623V60.8458C77.6552 60.8305 77.6552 60.81 77.6256 60.7946C77.5664 60.7332 77.4775 60.6717 77.5071 60.6154C77.5367 60.5693 77.596 60.5284 77.6552 60.4823V53.6371C77.6256 53.7497 77.5664 53.8675 77.5071 53.9852C77.4479 54.1286 77.359 54.2668 77.3294 54.4102C77.2997 54.5484 77.3294 54.6815 77.359 54.8198C77.4182 54.9478 77.4479 55.0706 77.4182 55.1935C77.359 55.4802 77.2405 55.7669 77.122 56.0741C76.885 56.6783 76.5887 57.349 76.7961 58.1937C76.8554 58.3985 76.8554 58.6033 76.8554 58.8081C76.885 58.9617 76.885 59.1255 76.9146 59.2894ZM76.3221 64.742C76.3517 64.7113 76.3517 64.6806 76.2629 64.3887C76.2332 64.2915 76.2036 64.1686 76.1443 64.0047C76.1443 64.102 76.1443 64.1839 76.1443 64.2556C76.174 64.6754 76.174 64.7113 76.2036 64.742C76.2036 64.7471 76.2036 64.7471 76.2036 64.7522C76.2036 64.7625 76.2332 64.7727 76.2332 64.7932C76.2629 64.7727 76.2629 64.7625 76.2629 64.7522C76.2925 64.7471 76.3221 64.7471 76.3221 64.742ZM75.4333 65.8223C75.3741 65.8581 75.3741 65.894 75.3741 66.2779C75.3741 66.3855 75.3741 66.5237 75.3741 66.6978H75.4037C75.4037 66.9128 75.4037 67.0766 75.4037 67.1995C75.4037 67.5425 75.4037 67.5784 75.4333 67.6091V67.6142V67.6193C75.4333 67.6296 75.463 67.6398 75.463 67.6603C75.4926 67.6449 75.4926 67.6398 75.5222 67.6296C75.6407 67.5579 75.7 67.5272 75.6111 65.8684C75.6111 65.8376 75.5815 65.8018 75.5222 65.7711C75.4926 65.7916 75.463 65.8018 75.4333 65.812C75.4333 65.812 75.4333 65.8172 75.4333 65.8223ZM77.3886 67.8241C77.3886 67.8753 77.3886 67.9214 77.4182 67.9675C77.5071 68.0443 77.6256 68.116 77.7145 68.1928V65.0287C77.596 65.9452 77.4775 66.8667 77.3886 67.7883C77.3886 67.7985 77.3886 67.8088 77.3886 67.8241ZM75.8185 71.7459C75.7888 71.5923 75.7592 71.4797 75.7296 71.3722C75.7 71.1059 75.7296 70.8346 75.8481 69.913C75.8481 69.8004 75.8777 69.6775 75.9073 69.5393C75.937 69.4318 75.937 69.3242 75.9962 69.2218C76.0258 69.3038 76.0555 69.355 76.0555 69.3908C76.0555 69.4164 76.0851 69.4369 76.0851 69.4574C76.1147 69.5393 76.1147 69.6212 76.1147 70.0257C76.1147 70.1229 76.1147 70.2407 76.1147 70.384H76.0258C76.0851 70.6093 76.1147 70.8346 76.174 71.0599C76.2332 71.2851 76.2629 71.5104 76.3221 71.7357C76.3221 71.7459 76.3221 71.7613 76.3221 71.7715C76.3221 71.7971 76.3517 71.8227 76.3221 71.8432C76.2925 71.8688 76.2629 71.8944 76.2036 71.9149C76.174 71.9302 76.1444 71.9456 76.1147 71.961C76.0851 71.9558 76.0555 71.9456 76.0258 71.9405C75.937 71.9149 75.8481 71.8893 75.8481 71.8637C75.8481 71.8176 75.8481 71.7818 75.8185 71.7459ZM77.3294 72.2169C77.2997 72.1606 77.359 72.0633 77.4775 72.048C77.5664 72.0377 77.6256 72.0275 77.7145 72.0121V73.3843C77.5664 72.9849 77.3886 72.4525 77.3294 72.2169ZM76.5591 73.0617C76.6184 73.072 76.6776 73.0822 76.7072 73.0924C76.7369 73.1078 76.7072 73.1283 76.6184 73.1846C76.5887 73.2051 76.5591 73.2255 76.4999 73.2511C76.4406 73.2358 76.3814 73.2307 76.3517 73.2255C76.3221 73.2204 76.2925 73.2153 76.2629 73.2102C76.2332 73.1948 76.2332 73.1795 76.2925 73.1129C76.3221 73.0873 76.3517 73.0617 76.3814 73.0208C76.4406 73.0412 76.4999 73.0515 76.5591 73.0617ZM76.0258 73.8911C76.0555 73.8604 76.0851 73.8297 76.1443 73.7938C76.2036 73.7426 76.2629 73.6863 76.3221 73.63C76.3517 73.6556 76.3814 73.6863 76.411 73.7119C76.4702 73.7836 76.5591 73.8553 76.5295 73.9218C76.5295 74.0038 76.411 74.0908 76.3221 74.1727C76.2925 74.2034 76.2332 74.2393 76.2036 74.27C76.1443 74.1522 76.0851 74.0345 76.0258 73.8911ZM76.1443 75.2223C76.1443 74.8434 76.1443 74.8127 76.2036 74.782C76.2036 74.782 76.2036 74.782 76.2036 74.7769C76.2036 74.7769 76.2036 74.7769 76.2036 74.7717V74.7666C76.2332 74.7564 76.2332 74.7461 76.2629 74.7257C76.2629 74.7359 76.2925 74.7513 76.2925 74.7666C76.3221 74.7871 76.3517 74.8076 76.3517 74.8281C76.3814 74.9765 76.3814 75.1096 76.411 75.2274C76.5591 76.108 76.5591 76.1643 76.4702 76.2104C76.4702 76.2155 76.4702 76.2155 76.4406 76.2206C76.411 76.2309 76.411 76.2411 76.3814 76.2616C76.3221 76.2309 76.2925 76.2155 76.2332 76.2053C76.2036 76.2002 76.2036 76.195 76.2036 76.1899C76.1147 76.149 76.1147 76.1029 76.1147 75.7035C76.1147 75.6267 76.1147 75.5346 76.1147 75.422C76.1443 75.3503 76.1443 75.2837 76.1443 75.2223ZM76.0851 76.6763C76.1147 76.6917 76.1443 76.707 76.174 76.7121C76.2036 76.7173 76.2036 76.7224 76.2036 76.7275C76.2332 76.748 76.2036 76.7633 76.1443 76.8555C76.1147 76.8862 76.0851 76.9221 76.0555 76.9681C76.0555 76.9272 75.9962 76.8862 75.9666 76.8401C75.937 76.8197 75.937 76.8043 75.9073 76.7838C75.9666 76.7531 76.0258 76.7121 76.0851 76.6763ZM77.4182 76.9784C77.4182 76.5483 77.5664 76.1182 77.7145 75.6933V78.1355C77.5664 77.7515 77.4479 77.3624 77.4182 76.9784Z" fill="#22262E"/>
<path d="M4.70703 8.80217L6.20638 4.18062L6.00376 3.02524C6.07974 2.84748 6.19624 2.64011 6.48497 2.34385C6.50016 2.31423 6.52043 2.40311 6.54069 2.46236C6.55082 2.49198 6.56095 2.52161 6.57108 2.55123C6.56601 2.58086 6.55589 2.58086 6.55082 2.61048C6.53056 2.66973 6.51029 2.69936 6.49003 2.69936C6.3786 2.64011 6.28236 2.72898 6.20638 3.02524H6.57615C6.68252 2.96599 6.78889 2.87711 6.8902 2.72898C6.93072 2.66973 6.96618 2.64011 7.00164 2.58086C7.10295 2.43273 7.19918 2.2846 7.31568 2.25498C7.41193 2.22535 7.50817 2.1661 7.59935 2.10685C7.73105 2.01798 7.85768 1.9291 7.98432 1.95873C8.2933 1.98835 8.59722 1.89948 8.90114 1.78097C9.16454 1.6921 9.42288 1.60322 9.68628 1.60322C9.93954 1.60322 10.1928 1.54397 10.4461 1.51435C10.6234 1.48472 10.8007 1.4551 10.978 1.42547C10.9932 1.42547 11.3173 1.57359 11.6719 1.54397C12.6951 1.45509 14.6579 1.39584 14.7947 1.39584C15.0226 1.42547 17.1628 1.51435 17.1982 1.54397C17.3755 1.60322 17.5579 1.66247 17.7352 1.72172C17.9175 1.78097 18.0999 1.84022 18.2873 1.89947H18.2974C18.3785 1.9291 18.4747 1.95872 18.5254 1.84022C18.6621 1.48472 18.7634 1.66247 18.8749 1.95872C18.9154 1.63285 19.0015 1.63285 19.0825 1.60322C19.0876 1.60322 19.0927 1.60322 19.1028 1.60322C19.2142 1.60322 19.2852 1.5736 19.3358 1.5736C19.4169 1.5736 19.4321 1.5736 19.4473 1.54397C19.4523 1.54397 19.4523 1.54397 19.4574 1.54397C19.4624 1.54397 19.4726 1.51435 19.4878 1.51435C19.4827 1.48472 19.4726 1.48472 19.4675 1.45509C19.4523 1.39584 19.4321 1.36622 19.4169 1.36622C19.3561 1.33659 19.3004 1.33659 19.2396 1.30697C18.9914 1.21809 18.7432 1.12922 18.495 1.09959C18.3582 1.06997 18.2164 1.06997 18.0796 1.09959C17.9428 1.09959 17.801 1.09959 17.6642 1.09959C17.6541 1.09959 15.8002 0.773719 15.7901 0.744093C15.1923 0.240463 14.5744 0.447841 13.9817 0.655218C13.6879 0.744093 13.3941 0.862595 13.1155 0.862595C12.7458 0.89222 12.376 0.862595 12.0062 0.832969C11.8239 0.803344 11.6365 0.803344 11.4541 0.803344C11.4187 0.803344 11.3781 0.773719 11.3275 0.744094C11.2464 0.684843 11.1451 0.655218 11.054 0.655218C10.7652 0.714468 10.6335 0.803344 10.517 0.89222C10.4714 0.921845 10.4309 0.95147 10.3853 0.981095C10.36 0.981095 10.3144 1.01072 10.3043 0.95147C10.2232 0.595966 10.127 0.625593 10.0257 0.684843C9.9902 0.714468 9.95474 0.714468 9.91929 0.714468C9.69641 0.714468 9.55458 0.714469 9.46846 0.684843C9.3469 0.684843 9.32156 0.684843 9.29624 0.655218C9.29117 0.655218 9.28611 0.625593 9.27598 0.625593C9.26078 0.595967 9.24559 0.566342 9.2152 0.536717C9.2304 0.536717 9.24559 0.507092 9.26078 0.477466C9.28611 0.447841 9.30638 0.418216 9.3317 0.418216C10.9932 0.210839 11.2414 0.210839 11.6719 0.240464C11.8847 0.240464 12.1379 0.270089 12.6293 0.270089C13.0244 0.270089 13.4043 0.210838 13.7994 0.151588C14.8935 -0.0261646 16.1294 -0.203916 18.2822 0.595967C19.0674 0.892219 19.8575 1.01072 20.6477 1.09959C20.8858 1.12922 21.1239 1.18847 21.362 1.21809C21.4582 1.24772 21.5544 1.27734 21.6456 1.27734C21.8989 1.33659 22.1522 1.36622 22.4054 1.42547H22.4257C22.7701 1.48472 23.1196 1.42547 23.4641 1.39584C23.8592 1.33659 24.2492 1.30697 24.6443 1.39584C25.47 1.5736 26.3007 1.75135 27.1365 1.45509C27.5721 1.30697 28.0077 1.24772 28.4484 1.18847C28.651 1.15884 28.8587 1.12922 29.0613 1.09959C29.0714 1.09959 29.0765 1.09959 29.0815 1.09959C29.0866 1.09959 29.0917 1.09959 29.0967 1.09959C29.1119 1.09959 29.1221 1.12922 29.1727 1.18847C29.193 1.21809 29.2183 1.24772 29.2538 1.30697C29.2386 1.33659 29.2234 1.36622 29.2082 1.39584C29.1828 1.45509 29.1525 1.51434 29.1221 1.54397C29.0917 1.5736 29.0613 1.5736 29.0309 1.5736C29.0056 1.5736 28.9802 1.5736 28.9498 1.60322C28.9093 1.63285 28.8688 1.72172 28.8283 1.78097C28.8181 1.8106 28.808 1.8106 28.8029 1.84022C28.8485 1.89947 28.8891 1.98835 28.9346 2.01797C28.9752 2.0476 29.0157 2.07723 29.0562 2.10685C29.1119 2.13648 29.1677 2.19573 29.2183 2.25498C29.2436 2.2846 29.274 2.46235 29.274 2.5216H30.4492L30.5302 2.49198C31.0672 2.37348 32.4044 2.07722 32.4855 2.13648C32.5311 2.13648 32.7033 2.22535 32.916 2.31423C33.0832 2.37348 33.2807 2.46235 33.4529 2.5216H35.2613C35.2613 2.5216 35.2613 2.5216 35.2562 2.49198C35.2511 2.46235 35.241 2.4031 35.236 2.4031C35.2056 2.37348 35.1802 2.37348 35.1498 2.34385C34.9979 2.22535 34.8459 2.10685 34.694 2.0476C34.6078 2.01797 34.5217 2.01797 34.4356 2.01797C34.3596 2.01797 34.2837 2.01797 34.2077 2.01797C34.2026 2.01797 33.1186 1.57359 33.1136 1.54397C32.7641 0.862593 32.3993 1.15884 32.0498 1.42547C31.8776 1.54397 31.7105 1.6921 31.5484 1.6921C31.3103 1.72172 31.0773 1.66247 30.8392 1.63285C30.7531 1.60322 30.6619 1.60322 30.5758 1.57359C30.5556 1.57359 30.5353 1.54397 30.5049 1.51434C30.4542 1.45509 30.3935 1.36622 30.3377 1.39584C30.1655 1.48472 30.0895 1.60322 30.0237 1.72172C29.9984 1.75135 29.9781 1.8106 29.9528 1.84022C29.9376 1.86985 29.9123 1.86985 29.9072 1.78097C29.8616 1.30697 29.8008 1.36622 29.7451 1.42547C29.7248 1.45509 29.7046 1.45509 29.6843 1.45509C29.5476 1.42547 29.4665 1.42547 29.4159 1.42547C29.35 1.42547 29.3348 1.42547 29.3196 1.39584C29.3145 1.39584 29.3095 1.36622 29.3044 1.36622C29.2993 1.33659 29.2842 1.30697 29.269 1.24772C29.274 1.24772 29.2791 1.21809 29.2892 1.18847C29.3044 1.15884 29.3196 1.09959 29.3399 1.09959C30.3074 0.803342 30.4542 0.832968 30.7075 0.862593C30.8291 0.892218 30.9811 0.892218 31.2698 0.892218C31.5028 0.892218 31.7206 0.803342 31.9536 0.714467C32.5918 0.477464 33.3162 0.240461 34.5724 1.33659C35.0333 1.75135 35.4943 1.89947 35.9552 1.98835C36.0768 2.01797 36.2034 2.07722 36.325 2.13647C36.3959 2.1661 36.4668 2.22535 36.5377 2.25498C36.6897 2.31423 36.8417 2.4031 36.9936 2.43273H37.4039C37.4596 2.43273 37.5154 2.4031 37.5711 2.4031C37.8092 2.34385 38.0472 2.2846 38.2904 2.4031L38.3815 2.46235H39.8049C40.0328 2.2846 40.2658 2.22535 40.4989 2.1661C40.6255 2.13647 40.7471 2.07722 40.8737 2.0476C40.9243 2.01797 40.9547 2.10685 40.9953 2.1661C41.0409 2.25498 41.0915 2.37348 41.1827 2.31423H43.8724C43.9788 2.55123 44.151 2.84748 44.5663 3.32149C44.5866 3.35111 44.617 3.26223 44.6474 3.14373C44.6626 3.08448 44.6778 3.05486 44.693 3.02523C44.6828 2.99561 44.6727 2.96598 44.6626 2.96598C44.6322 2.90673 44.6018 2.81786 44.5765 2.84748C44.4093 2.93636 44.2776 2.78823 44.1662 2.37348H44.7031C44.8551 2.46235 45.0121 2.61048 45.1539 2.78823C45.2096 2.84748 45.2654 2.93636 45.316 3.02523C45.4629 3.23261 45.6047 3.43999 45.777 3.49924C45.9137 3.52886 46.0505 3.61774 46.1923 3.70661C46.3797 3.82511 46.5672 3.94362 46.7546 3.94362C47.2003 3.88437 47.641 4.03249 48.0817 4.18062C48.4616 4.29912 48.8415 4.44725 49.2214 4.44725C49.5912 4.44725 49.9559 4.5065 50.3257 4.59537C50.584 4.65462 50.8423 4.68425 51.0956 4.71387C51.1158 4.71387 51.4704 4.7435 51.982 4.80275C53.4662 4.95088 56.318 5.18788 56.5105 5.15825C56.8397 5.12863 60.0714 4.53612 60.117 4.53612C60.3753 4.47687 60.6387 4.38799 60.8971 4.29912C61.1655 4.21024 61.4289 4.12137 61.6974 4.06212H61.7075C61.824 4.03249 61.9659 3.97324 62.0418 4.18062C62.2394 4.71387 62.3914 4.41762 62.5484 4.03249C62.6092 4.5065 62.7307 4.5065 62.8523 4.53612C62.8624 4.53612 62.8726 4.53612 62.8776 4.53612C63.0397 4.56575 63.1461 4.56575 63.217 4.56575C63.3335 4.56575 63.3588 4.56575 63.3791 4.59537C63.3842 4.59537 63.3892 4.59537 63.3943 4.625C63.4044 4.625 63.4196 4.65462 63.4399 4.68425C63.4298 4.71387 63.4196 4.7435 63.4095 4.7435C63.3842 4.80275 63.3639 4.862 63.3386 4.862C63.2525 4.89162 63.1664 4.92125 63.0802 4.95087C62.7206 5.06938 62.3559 5.18788 61.9963 5.24713C61.7987 5.27675 61.5961 5.27675 61.3935 5.27675C61.1909 5.27675 60.9933 5.27675 60.7907 5.30638C60.7755 5.30638 58.0858 5.78038 58.0655 5.81001C57.1943 6.52101 56.3028 6.22476 55.4417 5.92851C55.0111 5.78038 54.5907 5.63226 54.1855 5.63226C53.6485 5.60263 53.1116 5.66188 52.5797 5.69151C52.3113 5.72113 52.0428 5.75076 51.7744 5.75076C51.7237 5.75076 51.6629 5.78038 51.5869 5.83963C51.4654 5.89888 51.3235 5.98776 51.1868 5.95814C50.7714 5.86926 50.5739 5.75076 50.4067 5.63226C50.3409 5.60263 50.2851 5.54338 50.2193 5.51376C50.1788 5.48413 50.118 5.48413 50.0977 5.54338C49.9812 6.04701 49.8394 5.98776 49.6976 5.92851C49.6469 5.89888 49.5912 5.86926 49.5405 5.89889C49.2163 5.92851 49.0137 5.92851 48.8871 5.92851C48.7098 5.92851 48.6743 5.92851 48.6389 5.95814C48.6288 5.95814 48.6237 5.98776 48.6136 5.98776C48.5933 6.01739 48.568 6.04701 48.5224 6.10626C48.5427 6.13589 48.5629 6.13589 48.5832 6.16551C48.6186 6.19514 48.649 6.25439 48.6845 6.25439C48.7453 6.25439 48.8111 6.28401 48.8719 6.28401H60.9224C61.1655 6.19514 61.4188 6.10626 61.6822 6.01738C62.8219 5.60263 63.9667 5.39525 65.1165 5.30638C65.461 5.27675 65.8105 5.18788 66.1549 5.12863C66.2917 5.099 66.4335 5.06938 66.5703 5.03975C66.935 4.95087 67.3048 4.89162 67.6695 4.83237H67.6999C68.2013 4.7435 68.7028 4.80275 69.2093 4.862C69.7817 4.92125 70.349 4.9805 70.9265 4.862C72.1219 4.59537 73.3325 4.35837 74.5432 4.77312C75.1763 4.9805 75.8095 5.06937 76.4427 5.15825C77.9666 5.31192 77.2561 5.09803 77.6483 5.49019C77.5161 4.71734 77.5067 4.75406 77.6483 5.49019C77.6483 6.5172 77.6482 5.10887 77.6482 6.13588V7.02464V11.7647H4.70703V8.80217ZM16.408 2.64011C16.7373 2.72898 17.0007 2.78823 17.2286 2.78823C17.8466 2.81786 18.2265 2.84748 18.4646 2.84748C18.8445 2.84748 18.8597 2.84748 18.8749 2.90673H18.8799H18.885C18.885 2.90673 18.8901 2.90673 18.8901 2.93636C18.9053 2.96598 18.9205 2.99561 18.9357 3.02523H17.4566H17.4515C17.4262 3.02523 17.4008 2.99561 17.3857 3.02523H16.7576C16.7474 3.02523 16.7322 2.99561 16.7221 2.99561C16.6816 2.93636 16.636 2.90673 16.6005 2.93636C16.5701 2.93636 16.5397 2.99561 16.5093 3.05486H11.8442C11.9252 3.02524 12.0012 2.99561 12.0822 2.93636C12.1785 2.87711 12.2747 2.84748 12.3709 2.81786C12.4621 2.78823 12.5584 2.81786 12.6495 2.81786C12.7357 2.84748 12.8167 2.84748 12.9028 2.84748C13.0953 2.81786 13.2928 2.72898 13.5005 2.64011C13.9108 2.46235 14.3667 2.2846 14.9441 2.4031C15.0809 2.43273 15.2227 2.43273 15.3595 2.46235C15.471 2.46235 15.5824 2.49198 15.6938 2.49198C15.9623 2.52161 16.2004 2.58086 16.408 2.64011ZM19.4067 2.0476C19.3865 2.07723 19.3662 2.07723 19.1636 1.98835C19.0977 1.95872 19.0116 1.9291 18.9053 1.89947C18.9711 1.89947 19.0268 1.89947 19.0724 1.89947C19.3561 1.89947 19.3814 1.89947 19.4067 1.9291H19.4118C19.4169 1.9291 19.427 1.95872 19.4371 1.95872C19.427 1.95872 19.4169 1.98835 19.4118 1.98835C19.4169 2.0476 19.4118 2.0476 19.4067 2.0476C19.4118 2.0476 19.4118 2.0476 19.4067 2.0476ZM20.744 1.39584C20.8909 1.42547 21.0023 1.42547 21.0884 1.42547C21.3265 1.42547 21.3468 1.42547 21.367 1.45509C21.3721 1.45509 21.3721 1.45509 21.3721 1.45509C21.3772 1.45509 21.3873 1.45509 21.3974 1.48472C21.3873 1.48472 21.3822 1.51435 21.3772 1.51435C21.3316 1.60322 21.3062 1.63285 20.1767 1.5736C20.1564 1.5736 20.1311 1.54397 20.1108 1.51435C20.126 1.48472 20.1311 1.48472 20.1412 1.45509C20.1463 1.45509 20.1463 1.45509 20.1513 1.42547C20.1767 1.36622 20.202 1.36622 20.4654 1.39584C20.5312 1.39584 20.6224 1.39584 20.744 1.39584ZM21.5089 2.78823C21.5443 2.78823 21.5747 2.78823 21.6051 2.81786C21.6557 2.87711 21.7064 2.96598 21.7571 3.02523H19.5992C20.2273 2.93636 20.8554 2.87711 21.4835 2.78823C21.4937 2.78823 21.4987 2.78823 21.5089 2.78823ZM22.0964 2.90673C22.0863 2.87711 22.0711 2.87711 22.061 2.87711C22.1674 2.81786 22.1775 2.81786 22.2484 2.81786C22.2889 2.81786 22.3548 2.81786 22.4763 2.78823C22.7347 2.75861 22.9221 2.72898 23.0639 2.69936C23.302 2.66973 23.4134 2.64011 23.5249 2.64011C23.6262 2.64011 23.7275 2.66973 23.925 2.69936C23.9656 2.69936 24.0111 2.72898 24.0618 2.72898C24.1023 2.72898 24.1479 2.75861 24.1732 2.84748C24.1884 2.90673 24.2036 2.96598 24.2188 3.02523H23.145C23.0994 2.90673 23.0386 2.90673 22.9626 3.02523H22.3902C22.4004 2.96598 22.375 2.96598 22.3244 2.99561C22.2838 2.99561 22.2231 2.99561 22.1471 2.99561C22.1319 2.96598 22.1116 2.93636 22.0964 2.90673ZM23.9301 1.66247C24.0061 1.66247 24.0821 1.6921 24.1834 1.72172H24.234H24.2593C24.2796 1.72172 24.2948 1.78097 24.31 1.84022C24.3151 1.86985 24.3201 1.86985 24.3252 1.89947C24.3151 1.9291 24.3049 1.9291 24.2948 1.95872C24.2796 1.98835 24.2644 2.01797 24.2441 2.0476C24.229 2.07723 24.2138 2.0476 24.1935 2.0476C24.1834 2.0476 24.1783 2.0476 24.1682 2.0476C24.0162 2.01797 23.8592 1.98835 23.7072 1.95872C23.5553 1.9291 23.3982 1.89947 23.2463 1.86985V1.9291C23.15 1.9291 23.069 1.9291 23.0031 1.9291C22.7245 1.9291 22.6688 1.9291 22.6182 1.89947C22.603 1.89947 22.5928 1.89947 22.5726 1.86985C22.5472 1.86985 22.5118 1.84022 22.4561 1.8106C22.527 1.78097 22.603 1.78097 22.6739 1.75135C22.7651 1.75135 22.8512 1.72172 22.9271 1.72172C23.5603 1.66247 23.7477 1.63285 23.9301 1.66247ZM24.391 2.84748C24.4012 2.75861 24.467 2.72898 24.5025 2.72898C24.6646 2.75861 25.0293 2.90673 25.3028 3.02523H24.3657C24.3758 2.96598 24.3809 2.93636 24.391 2.84748ZM25.0799 2.22535C25.0749 2.19573 25.0647 2.13648 25.0546 2.07723C25.0799 2.0476 25.1002 2.0476 25.1154 2.01797C25.161 1.98835 25.1711 1.95872 25.1812 1.98835C25.1863 1.98835 25.1863 2.01797 25.1914 2.0476C25.1964 2.07723 25.2015 2.10685 25.2116 2.1661C25.1914 2.19573 25.1762 2.22535 25.166 2.25498C25.1255 2.31423 25.1154 2.34385 25.1002 2.31423C25.0951 2.31423 25.0901 2.2846 25.0799 2.22535ZM25.5814 1.9291C25.6067 1.89947 25.627 1.86985 25.6473 1.84022C25.7486 1.89947 25.8245 1.9291 25.9106 1.95872C25.8904 1.98835 25.8651 2.01797 25.8448 2.0476C25.7891 2.10685 25.7334 2.19573 25.6726 2.19573C25.627 2.19573 25.5763 2.1661 25.5308 2.10685C25.5105 2.07723 25.4953 2.07723 25.475 2.0476C25.5054 2.01797 25.5459 1.95872 25.5814 1.9291ZM26.25 1.95872C26.2703 1.9291 26.2906 1.9291 26.5489 1.9291C26.5894 1.9291 26.635 1.9291 26.6907 1.9291C26.7667 1.9291 26.8275 1.9291 26.8832 1.9291C27.1567 1.9291 27.1871 1.9291 27.2175 1.98835C27.2226 1.98835 27.2226 2.01797 27.2276 2.01797C27.2378 2.0476 27.2479 2.07723 27.2682 2.10685C27.253 2.13648 27.2479 2.13648 27.2378 2.1661H27.2327C27.1972 2.22535 27.1618 2.22535 26.559 2.13648C26.478 2.13648 26.3919 2.10685 26.2905 2.10685C26.2754 2.10685 26.2652 2.07723 26.25 2.07723C26.2399 2.07723 26.2348 2.0476 26.2247 2.0476C26.2348 2.01797 26.245 2.01797 26.25 2.01797C26.25 1.98835 26.25 1.95872 26.25 1.95872ZM27.5417 1.89947C27.567 1.86985 27.5924 1.8106 27.6126 1.78097C27.6278 1.78097 27.6379 1.8106 27.6531 1.8106C27.6835 1.84022 27.7139 1.86985 27.7393 1.86985C27.7089 1.89947 27.6835 1.9291 27.6633 1.9291C27.6025 1.98835 27.5873 1.98835 27.5772 1.98835C27.5721 1.98835 27.5721 1.95872 27.567 1.95872C27.562 1.9291 27.5518 1.9291 27.5417 1.89947ZM35.7577 2.46235H35.8286C35.7982 2.43273 35.7779 2.43273 35.7577 2.46235ZM67.1781 2.49198C67.1933 2.46235 67.2136 2.46235 67.2288 2.43272C67.2541 2.4031 67.2744 2.37347 67.2997 2.34385C67.4111 2.31422 67.4972 2.31422 67.553 2.31422C67.6289 2.31422 67.6644 2.31422 67.6543 2.25497H68.4799C68.5863 2.4031 68.6775 2.43272 68.7433 2.25497H70.3034C70.2832 2.34385 70.2629 2.4031 70.2376 2.49198C70.1971 2.61048 70.1312 2.6401 70.0704 2.6401C69.9995 2.6401 69.9337 2.66973 69.8729 2.66973C69.5892 2.72898 69.4423 2.7586 69.2904 2.7586C69.1283 2.7586 68.9662 2.72898 68.6217 2.69935C68.4141 2.66973 68.1456 2.6401 67.7657 2.58085C67.5884 2.55123 67.4972 2.55123 67.4365 2.55123C67.3503 2.61048 67.3301 2.61048 67.1781 2.49198ZM57.9338 3.08448C58.3239 2.99561 58.6683 2.90673 58.9722 2.84748C59.4484 2.72898 59.8333 2.6401 60.1626 2.61048C61.0592 2.58085 61.6113 2.55123 61.9608 2.5216C62.5129 2.49198 62.5382 2.49198 62.5585 2.46235C62.5636 2.46235 62.5686 2.43272 62.5737 2.43272C62.594 2.37347 62.6142 2.34385 62.6345 2.31422H60.4817H60.4766C60.4412 2.34385 60.4057 2.34385 60.3804 2.31422H59.4737C59.4585 2.34385 59.4382 2.34385 59.4231 2.37347C59.3623 2.43273 59.3015 2.5216 59.2458 2.49198C59.2002 2.46235 59.1597 2.4031 59.1141 2.34385H52.3417C52.4531 2.37348 52.5696 2.43273 52.6861 2.49198C52.8279 2.55123 52.9647 2.6401 53.1065 2.66973C53.2433 2.69935 53.375 2.66973 53.5118 2.6401C53.6384 2.58085 53.76 2.55123 53.8815 2.58085C54.1652 2.6401 54.4489 2.7586 54.7528 2.87711C55.3505 3.11411 56.0141 3.41036 56.8498 3.20298C57.0525 3.14373 57.2551 3.14373 57.4577 3.14373C57.6097 3.11411 57.7717 3.11411 57.9338 3.08448ZM63.3284 3.67699C63.2981 3.64736 63.2677 3.64736 62.9789 3.73624C62.8827 3.76586 62.7611 3.79549 62.599 3.85474C62.6953 3.85474 62.7763 3.85474 62.8472 3.85474C63.2626 3.82511 63.2981 3.82511 63.3284 3.79549C63.3335 3.79549 63.3335 3.79549 63.3386 3.79549C63.3487 3.79549 63.3588 3.76586 63.3791 3.76586C63.3588 3.73624 63.3487 3.73624 63.3386 3.73624C63.3335 3.70661 63.3335 3.67699 63.3284 3.67699ZM64.3972 4.56575C64.4327 4.625 64.4681 4.625 64.8481 4.625C64.9544 4.625 65.0912 4.625 65.2634 4.625V4.59537C65.4762 4.59537 65.6382 4.59537 65.7598 4.59537C66.0992 4.59537 66.1347 4.59537 66.165 4.56575H66.1701H66.1752C66.1853 4.56575 66.1954 4.53612 66.2157 4.53612C66.2005 4.50649 66.1954 4.50649 66.1853 4.47687C66.1144 4.35837 66.084 4.29912 64.4428 4.38799C64.4124 4.38799 64.377 4.41762 64.3466 4.47687C64.3668 4.50649 64.377 4.53612 64.3871 4.56575C64.3871 4.56575 64.3922 4.56575 64.3972 4.56575ZM66.3778 2.61048C66.4284 2.61048 66.474 2.61048 66.5196 2.58085C66.5956 2.49198 66.6665 2.37347 66.7425 2.2846H63.6121C64.5188 2.4031 65.4306 2.5216 66.3423 2.61048C66.3525 2.61048 66.3626 2.61048 66.3778 2.61048ZM70.2579 4.18062C70.1059 4.21024 69.9945 4.23987 69.8881 4.26949C69.6247 4.29912 69.3562 4.26949 68.4445 4.15099C68.333 4.15099 68.2115 4.12137 68.0747 4.09174C67.9683 4.06212 67.8619 4.06212 67.7606 4.00286C67.8417 3.97324 67.8923 3.94361 67.9278 3.94361C67.9531 3.94361 67.9734 3.91399 67.9936 3.91399C68.0747 3.88436 68.1557 3.88436 68.5559 3.88436C68.6521 3.88436 68.7686 3.88436 68.9105 3.88436V3.97324C69.1333 3.91399 69.3562 3.88436 69.5791 3.82511C69.802 3.76586 70.0249 3.73624 70.2477 3.67699C70.2579 3.67699 70.2731 3.67699 70.2832 3.67699C70.3085 3.67699 70.3338 3.64736 70.3541 3.67699C70.3794 3.70661 70.4048 3.73624 70.425 3.79549C70.4402 3.82511 70.4554 3.85474 70.4706 3.88436C70.4655 3.91399 70.4554 3.94361 70.4503 3.97324C70.425 4.06212 70.3997 4.15099 70.3744 4.15099C70.3288 4.15099 70.2933 4.15099 70.2579 4.18062ZM70.7239 2.66973C70.6682 2.69935 70.5719 2.6401 70.5567 2.5216C70.5466 2.43272 70.5365 2.37347 70.5213 2.2846H71.8788C71.4837 2.43272 70.9569 2.61048 70.7239 2.66973ZM71.5597 3.43998C71.5698 3.38073 71.5799 3.32148 71.59 3.29186C71.6052 3.26223 71.6255 3.29186 71.6812 3.38073C71.7015 3.41036 71.7217 3.43998 71.7471 3.49923C71.7319 3.55849 71.7268 3.61774 71.7217 3.64736C71.7167 3.67699 71.7116 3.70661 71.7066 3.73624C71.6914 3.76586 71.6762 3.76586 71.6103 3.70661C71.585 3.67699 71.5597 3.64736 71.5191 3.61774C71.5394 3.55849 71.5495 3.49923 71.5597 3.43998ZM72.3802 3.97324C72.3499 3.94361 72.3195 3.91399 72.284 3.85474C72.2333 3.79549 72.1776 3.73624 72.1219 3.67699C72.1472 3.64736 72.1776 3.61774 72.203 3.58811C72.2739 3.52886 72.3448 3.43998 72.4106 3.46961C72.4917 3.46961 72.5778 3.58811 72.6588 3.67699C72.6892 3.70661 72.7247 3.76586 72.7551 3.79549C72.6386 3.85474 72.5221 3.91399 72.3802 3.97324ZM73.6972 3.85474C73.3224 3.85474 73.292 3.85474 73.2616 3.79549C73.2616 3.79549 73.2616 3.79549 73.2566 3.79549C73.2566 3.79549 73.2565 3.79549 73.2515 3.79549H73.2464C73.2363 3.76586 73.2262 3.76586 73.2059 3.73624C73.216 3.73624 73.2312 3.70661 73.2464 3.70661C73.2667 3.67699 73.2869 3.64736 73.3072 3.64736C73.4541 3.61774 73.5858 3.61774 73.7023 3.58811C74.5735 3.43998 74.6293 3.43998 74.6749 3.52886C74.6799 3.52886 74.6799 3.52886 74.685 3.55849C74.6951 3.58811 74.7052 3.58811 74.7255 3.61774C74.6951 3.67699 74.6799 3.70661 74.6698 3.76586C74.6647 3.79549 74.6597 3.79549 74.6546 3.79549C74.6141 3.88436 74.5685 3.88436 74.1734 3.88436C74.0974 3.88436 74.0062 3.88436 73.8948 3.88436C73.8239 3.85474 73.758 3.85474 73.6972 3.85474ZM75.1358 3.91399C75.151 3.88436 75.1662 3.85474 75.1713 3.82511C75.1763 3.79549 75.1814 3.79549 75.1865 3.79549C75.2067 3.76586 75.2219 3.79549 75.3131 3.85474C75.3435 3.88436 75.3789 3.91399 75.4245 3.94361C75.384 3.94361 75.3435 4.00286 75.2979 4.03249C75.2776 4.06211 75.2624 4.06211 75.2422 4.09174C75.2118 4.03249 75.1713 3.97324 75.1358 3.91399ZM75.4347 2.58085C75.0092 2.58085 74.5837 2.43272 74.1632 2.2846H76.5794C76.1995 2.43272 75.8146 2.55123 75.4347 2.58085Z" fill="#22262E"/>
<path d="M74.5101 75.1187C74.5101 75.1187 75.2944 79.215 74.5101 80.2143C73.7258 81.2135 73.2552 80.8956 73.2552 80.8956C73.1817 81.0734 73.0689 81.2808 72.7895 81.577C72.7748 81.6066 72.7552 81.5178 72.7356 81.4585C72.7258 81.4289 72.716 81.3993 72.7062 81.3696C72.7111 81.34 72.7209 81.34 72.7258 81.3104C72.7454 81.2511 72.765 81.2215 72.7846 81.2215C72.8925 81.2808 72.9856 81.1919 73.0591 80.8956H72.7013C72.5983 80.9549 72.4954 81.0438 72.3974 81.1919C72.3581 81.2511 72.3238 81.2808 72.2895 81.34C72.1915 81.4881 72.0983 81.6363 71.9856 81.6659C71.8925 81.6955 71.7993 81.7548 71.7111 81.814C71.5836 81.9029 71.4611 81.9918 71.3385 81.9621C71.0395 81.9325 70.7454 82.0214 70.4513 82.1399C70.1964 82.2288 69.9464 82.3176 69.6915 82.3176C69.4464 82.3176 69.2013 82.3769 68.9562 82.4065C68.7846 82.4361 68.6131 82.4658 68.4415 82.4954C68.4268 82.4954 68.1915 82.525 67.8483 82.5546C66.8581 82.6435 64.9611 82.8214 64.8287 82.8214C64.6081 82.7917 62.4562 82.4065 62.4219 82.3769C62.2503 82.3176 62.0738 82.2585 61.9023 82.1992C61.7258 82.14 61.5493 82.0806 61.368 82.0214H61.3581C61.2797 81.9918 61.1866 81.9621 61.1376 82.0806C61.0052 82.4361 60.9072 82.2584 60.7993 81.9621C60.7601 82.288 60.6768 82.288 60.5983 82.3176C60.5934 82.3176 60.5885 82.3176 60.5787 82.3176C60.4709 82.3176 60.4023 82.3473 60.3532 82.3473C60.2748 82.3473 60.2601 82.3473 60.2454 82.3769C60.2405 82.3769 60.2405 82.3769 60.2356 82.3769C60.2307 82.3769 60.2209 82.4065 60.2062 82.4065C60.2111 82.4361 60.2209 82.4361 60.2258 82.4658C60.2405 82.525 60.2601 82.5546 60.2748 82.5546C60.3336 82.5843 60.3876 82.5843 60.4464 82.6139C60.6866 82.7028 60.9268 82.7917 61.167 82.8214C61.2993 82.851 61.4366 82.851 61.5689 82.8214C61.7013 82.8214 61.8385 82.8214 61.9709 82.8214C61.9807 82.8214 63.7748 83.1472 63.7846 83.1768C64.363 83.6804 64.9611 83.473 65.5346 83.2657C65.8189 83.1768 66.1032 83.0583 66.3729 83.0583C66.7307 83.0287 67.0885 83.0583 67.4464 83.0879C67.6229 83.1175 67.8042 83.1175 67.9807 83.1175C68.015 83.1175 68.0542 83.1472 68.1032 83.1768C68.1817 83.236 68.2797 83.2657 68.368 83.2657C68.6474 83.2064 68.7748 83.1175 68.8876 83.0286C68.9317 82.999 68.9709 82.9694 69.015 82.9398C69.0395 82.9398 69.0836 82.9101 69.0934 82.9694C69.1719 83.3249 69.265 83.2953 69.363 83.236C69.3974 83.2064 69.4317 83.2064 69.466 83.2064C69.6817 83.2064 69.8189 83.2064 69.9023 83.236C70.0199 83.236 70.0444 83.236 70.0689 83.2657C70.0738 83.2657 70.0787 83.2953 70.0885 83.2953C70.1033 83.3249 70.1179 83.3545 70.1474 83.3842C70.1327 83.3842 70.118 83.4138 70.1032 83.4434C70.0787 83.473 70.0591 83.5027 70.0346 83.5027C68.4268 83.71 68.1866 83.71 67.7699 83.6804C67.564 83.6804 67.3189 83.6508 66.8434 83.6508C66.4611 83.6508 66.0934 83.71 65.7111 83.7693C64.6523 83.947 63.4562 84.1248 61.3729 83.3249C60.613 83.0287 59.8484 82.9102 59.0836 82.8214C58.8533 82.7917 58.6228 82.7324 58.3925 82.7028C58.2993 82.6731 58.2062 82.6435 58.118 82.6435C57.8729 82.5843 57.6278 82.5546 57.3827 82.4954H57.363C57.0297 82.4361 56.6915 82.4954 56.3581 82.525C55.9758 82.5843 55.5983 82.6139 55.216 82.525C54.417 82.3473 53.6131 82.1695 52.8042 82.4658C52.3827 82.6139 51.9611 82.6731 51.5346 82.7324C51.3385 82.762 51.1376 82.7917 50.9415 82.8214C50.9317 82.8214 50.9268 82.8214 50.9219 82.8214C50.917 82.8214 50.9121 82.8214 50.9072 82.8214C50.8925 82.8214 50.8827 82.7916 50.8336 82.7324C50.814 82.7028 50.7895 82.6731 50.7552 82.6139C50.7699 82.5843 50.7846 82.5546 50.7993 82.525C50.8238 82.4658 50.8532 82.4065 50.8827 82.3769C50.9121 82.3473 50.9415 82.3473 50.9709 82.3473C50.9954 82.3473 51.0199 82.3473 51.0493 82.3176C51.0885 82.288 51.1278 82.1991 51.167 82.1399C51.1768 82.1103 51.1866 82.1103 51.1915 82.0806C51.1474 82.0214 51.1081 81.9325 51.064 81.9029C51.0248 81.8733 50.9856 81.8436 50.9464 81.814C50.8925 81.7844 50.8385 81.7251 50.7895 81.6659C50.765 81.6363 50.7356 81.4585 50.7356 81.3993H49.5983L49.5199 81.4289C49.0003 81.5474 47.7062 81.8436 47.6278 81.7844C47.5836 81.7844 47.417 81.6955 47.2111 81.6066C47.0493 81.5474 46.8581 81.4585 46.6915 81.3993H44.9415C44.9415 81.3993 44.9415 81.3993 44.9464 81.4289C44.9513 81.4585 44.9611 81.5178 44.966 81.5178C44.9954 81.5474 45.0199 81.5474 45.0493 81.577C45.1964 81.6955 45.3434 81.814 45.4905 81.8733C45.5738 81.9029 45.6572 81.9029 45.7405 81.9029C45.814 81.9029 45.8876 81.9029 45.9611 81.9029C45.966 81.9029 47.015 82.3473 47.0199 82.3769C47.3582 83.0583 47.7111 82.762 48.0493 82.4954C48.216 82.3769 48.3778 82.2288 48.5346 82.2288C48.765 82.1991 48.9905 82.2584 49.2209 82.288C49.3042 82.3176 49.3925 82.3176 49.4758 82.3473C49.4954 82.3473 49.515 82.3769 49.5444 82.4065C49.5934 82.4658 49.6523 82.5546 49.7062 82.525C49.8729 82.4361 49.9464 82.3177 50.0101 82.1992C50.0346 82.1696 50.0542 82.1103 50.0787 82.0806C50.0934 82.051 50.118 82.051 50.1229 82.1399C50.167 82.6139 50.2258 82.5546 50.2797 82.4954C50.2993 82.4658 50.3189 82.4658 50.3385 82.4658C50.4709 82.4954 50.5493 82.4954 50.5983 82.4954C50.6621 82.4954 50.6768 82.4954 50.6915 82.525C50.6964 82.525 50.7013 82.5546 50.7062 82.5546C50.7111 82.5843 50.7258 82.6139 50.7405 82.6731C50.7356 82.6731 50.7307 82.7028 50.7209 82.7324C50.7062 82.762 50.6915 82.8214 50.6719 82.8214C49.7356 83.1176 49.5934 83.0879 49.3483 83.0583C49.2307 83.0287 49.0836 83.0287 48.8042 83.0287C48.5787 83.0287 48.368 83.1175 48.1425 83.2064C47.5248 83.4434 46.8238 83.6804 45.6082 82.5843C45.1621 82.1695 44.716 82.0214 44.2699 81.9325C44.1523 81.9029 44.0297 81.8436 43.9121 81.7844C43.8434 81.7548 43.7748 81.6955 43.7062 81.6659C43.5591 81.6066 43.4121 81.5178 43.265 81.4881H42.868C42.814 81.4881 42.7601 81.5178 42.7062 81.5178C42.4758 81.577 42.2454 81.6363 42.0101 81.5178L41.9219 81.4585H40.5444C40.3238 81.6363 40.0983 81.6955 39.8729 81.7548C39.7503 81.7844 39.6327 81.8436 39.5101 81.8733C39.4611 81.9029 39.4317 81.814 39.3925 81.7548C39.3483 81.6659 39.2993 81.5474 39.2111 81.6066H36.6081C36.5052 81.3696 36.3385 81.0734 35.9366 80.5994C35.917 80.5698 35.8876 80.6586 35.8581 80.7771C35.8434 80.8364 35.8287 80.866 35.814 80.8956C35.8238 80.9253 35.8336 80.9549 35.8434 80.9549C35.8729 81.0141 35.9023 81.103 35.9268 81.0734C36.0885 80.9845 36.216 81.1326 36.3238 81.5474H35.8042C35.6572 81.4585 35.5052 81.3104 35.368 81.1326C35.314 81.0734 35.2601 80.9845 35.2111 80.8956C35.0689 80.6883 34.9317 80.4809 34.765 80.4216C34.6327 80.392 34.5003 80.3031 34.363 80.2143C34.1817 80.0957 34.0003 79.9772 33.8189 79.9772C33.3876 80.0365 32.9611 79.8884 32.5346 79.7402C32.167 79.6217 31.7993 79.4736 31.4317 79.4736C31.0738 79.4736 30.7209 79.4144 30.3631 79.3255C30.1131 79.2662 29.8631 79.2366 29.618 79.207C29.5983 79.207 29.2552 79.1774 28.7601 79.1181C27.3238 78.97 24.564 78.733 24.3778 78.7626C24.0591 78.7922 20.9317 79.3847 20.8876 79.3847C20.6376 79.444 20.3827 79.5329 20.1327 79.6217C19.8729 79.7106 19.618 79.7995 19.3581 79.8587H19.3483C19.2356 79.8884 19.0983 79.9476 19.0248 79.7402C18.8336 79.207 18.6866 79.5032 18.5346 79.8884C18.4758 79.4144 18.3581 79.4144 18.2405 79.3847C18.2307 79.3847 18.2209 79.3847 18.216 79.3847C18.0591 79.3551 17.9562 79.3551 17.8876 79.3551C17.7748 79.3551 17.7503 79.3551 17.7307 79.3255C17.7258 79.3255 17.7209 79.3255 17.716 79.2959C17.7062 79.2959 17.6915 79.2662 17.6719 79.2366C17.6817 79.207 17.6915 79.1774 17.7013 79.1774C17.7258 79.1181 17.7454 79.0589 17.7699 79.0589C17.8532 79.0292 17.9366 78.9996 18.0199 78.97C18.368 78.8515 18.7209 78.733 19.0689 78.6737C19.2601 78.6441 19.4562 78.6441 19.6523 78.6441C19.8483 78.6441 20.0395 78.6441 20.2356 78.6145C20.2503 78.6145 22.8532 78.1405 22.8729 78.1109C23.716 77.3998 24.5787 77.6961 25.4121 77.9924C25.8287 78.1405 26.2356 78.2886 26.6278 78.2886C27.1474 78.3182 27.667 78.259 28.1817 78.2294C28.4415 78.1997 28.7013 78.1701 28.9611 78.1701C29.0101 78.1701 29.0689 78.1405 29.1425 78.0812C29.2601 78.022 29.3974 77.9331 29.5297 77.9627C29.9317 78.0516 30.1229 78.1701 30.2846 78.2886C30.3483 78.3182 30.4023 78.3775 30.466 78.4071C30.5052 78.4367 30.564 78.4367 30.5836 78.3775C30.6964 77.8739 30.8336 77.9331 30.9709 77.9924C31.0199 78.022 31.0738 78.0516 31.1229 78.022C31.4366 77.9924 31.6327 77.9924 31.7552 77.9924C31.9268 77.9924 31.9611 77.9924 31.9954 77.9627C32.0052 77.9627 32.0101 77.9331 32.0199 77.9331C32.0395 77.9035 32.064 77.8739 32.1081 77.8146C32.0885 77.785 32.0689 77.785 32.0493 77.7554C32.015 77.7257 31.9856 77.6665 31.9513 77.6665C31.8925 77.6665 31.8287 77.6369 31.7699 77.6369H20.1081C19.8729 77.7257 19.6278 77.8146 19.3729 77.9035C18.2699 78.3182 17.1621 78.5256 16.0493 78.6145C15.716 78.6441 15.3778 78.733 15.0444 78.7922C14.9121 78.8219 14.7748 78.8515 14.6425 78.8811C14.2895 78.97 13.9317 79.0292 13.5787 79.0885H13.5493C13.064 79.1774 12.5787 79.1181 12.0885 79.0589C11.5346 78.9996 10.9856 78.9404 10.4268 79.0589C9.26991 79.3255 8.09836 79.5625 6.92679 79.1477C6.31404 78.9404 5.7013 78.8515 5.08855 78.7626C4.80424 78.733 4.51502 78.6737 4.23071 78.6441C4.216 78.6441 4.2111 78.6441 4.2013 78.6441C4.19149 78.6441 4.18659 78.6441 4.18169 78.6441C4.16208 78.6441 4.14737 78.6737 4.07385 78.7922C4.04443 78.8515 4.01012 78.8811 3.9611 78.97C3.98071 78.9996 4.00031 79.0589 4.02482 79.1181C4.06403 79.207 4.10325 79.2959 4.14246 79.3551C4.18168 79.3847 4.2258 79.4144 4.26991 79.4144C4.30913 79.4144 4.34344 79.4144 4.38266 79.444C4.44148 79.5032 4.49541 79.5921 4.54934 79.7106C4.56404 79.7402 4.57385 79.7699 4.58855 79.7699C4.52973 79.8587 4.46599 79.9773 4.40227 80.0365C4.34344 80.0958 4.28953 80.1254 4.23071 80.1846C4.15228 80.2439 4.07384 80.3031 4.00031 80.3624C3.97089 80.5105 3.93168 80.6883 3.92188 80.8068V80.866C3.9758 81.1919 4.01992 81.4289 4.05424 81.577H3.92188V80.866C3.92188 80.866 3.92188 80.8364 3.92188 80.8068V77.785V76.8962V72.1562H74.5101V75.1187ZM63.1866 81.2808C62.868 81.1919 62.6131 81.1326 62.3925 81.1326C61.7944 81.103 61.4268 81.0734 61.1964 81.0734C60.8287 81.0734 60.814 81.0734 60.7993 81.0141H60.7944H60.7895C60.7895 81.0141 60.7846 81.0141 60.7846 80.9845C60.7699 80.9549 60.7552 80.9253 60.7405 80.8956H62.1719H62.1768C62.2013 80.8956 62.2258 80.9253 62.2405 80.8956H62.8483C62.8581 80.8956 62.8729 80.9253 62.8827 80.9253C62.9219 80.9845 62.966 81.0141 63.0003 80.9845C63.0297 80.9845 63.0591 80.9253 63.0885 80.866H67.6032C67.5248 80.8956 67.4513 80.9253 67.3729 80.9845C67.2797 81.0438 67.1866 81.0734 67.0934 81.103C67.0052 81.1326 66.9121 81.103 66.8238 81.103C66.7405 81.0734 66.6621 81.0734 66.5787 81.0734C66.3925 81.103 66.2013 81.1919 66.0003 81.2808C65.6033 81.4585 65.1621 81.6363 64.6032 81.5178C64.4709 81.4881 64.3336 81.4881 64.2013 81.4585C64.0934 81.4585 63.9856 81.4289 63.8778 81.4289C63.6179 81.3993 63.3876 81.34 63.1866 81.2808ZM60.2846 81.8733C60.3042 81.8436 60.3238 81.8436 60.5199 81.9325C60.5836 81.9621 60.667 81.9918 60.7699 82.0214C60.7062 82.0214 60.6523 82.0214 60.6082 82.0214C60.3336 82.0214 60.3091 82.0214 60.2846 81.9918H60.2797C60.2748 81.9918 60.265 81.9621 60.2552 81.9621C60.265 81.9621 60.2748 81.9325 60.2797 81.9325C60.2748 81.8733 60.2797 81.8733 60.2846 81.8733C60.2797 81.8733 60.2797 81.8733 60.2846 81.8733ZM58.9905 82.525C58.8483 82.4954 58.7405 82.4954 58.6572 82.4954C58.4268 82.4954 58.4072 82.4954 58.3876 82.4658C58.3827 82.4658 58.3827 82.4658 58.3827 82.4658C58.3778 82.4658 58.368 82.4658 58.3581 82.4361C58.368 82.4361 58.3729 82.4065 58.3778 82.4065C58.4219 82.3176 58.4464 82.288 59.5395 82.3473C59.5591 82.3473 59.5836 82.3769 59.6033 82.4065C59.5885 82.4361 59.5836 82.4361 59.5738 82.4658C59.5689 82.4658 59.5689 82.4658 59.564 82.4954C59.5395 82.5546 59.515 82.5546 59.2601 82.525C59.1964 82.525 59.1081 82.525 58.9905 82.525ZM58.2503 81.1326C58.216 81.1326 58.1866 81.1326 58.1572 81.103C58.1081 81.0438 58.0591 80.9549 58.0101 80.8956H60.0983C59.4905 80.9845 58.8827 81.0438 58.2748 81.1326C58.265 81.1326 58.2601 81.1326 58.2503 81.1326ZM57.6817 81.0141C57.6915 81.0438 57.7062 81.0438 57.716 81.0438C57.613 81.103 57.6032 81.103 57.5346 81.103C57.4954 81.103 57.4317 81.103 57.314 81.1326C57.064 81.1623 56.8827 81.1919 56.7454 81.2215C56.515 81.2511 56.4072 81.2808 56.2993 81.2808C56.2013 81.2808 56.1032 81.2511 55.9121 81.2215C55.8729 81.2215 55.8287 81.1919 55.7797 81.1919C55.7405 81.1919 55.6964 81.1623 55.6719 81.0734C55.6572 81.0141 55.6425 80.9549 55.6278 80.8956H56.667C56.7111 81.0141 56.7699 81.0141 56.8434 80.8956H57.3974C57.3876 80.9549 57.4121 80.9549 57.4611 80.9253C57.5003 80.9253 57.5591 80.9253 57.6327 80.9253C57.6474 80.9549 57.667 80.9845 57.6817 81.0141ZM55.9072 82.2584C55.8336 82.2584 55.7601 82.2289 55.6621 82.1992H55.6131H55.5885C55.5689 82.1992 55.5542 82.1399 55.5395 82.0806C55.5346 82.051 55.5297 82.051 55.5248 82.0214C55.5346 81.9918 55.5444 81.9918 55.5542 81.9621C55.5689 81.9325 55.5836 81.9029 55.6032 81.8733C55.618 81.8436 55.6327 81.8733 55.6523 81.8733C55.6621 81.8733 55.667 81.8733 55.6768 81.8733C55.8238 81.9029 55.9758 81.9325 56.1229 81.9621C56.2699 81.9918 56.4219 82.0214 56.5689 82.051V81.9918C56.6621 81.9918 56.7405 81.9918 56.8042 81.9918C57.0738 81.9918 57.1278 81.9918 57.1768 82.0214C57.1915 82.0214 57.2013 82.0214 57.2209 82.051C57.2454 82.051 57.2797 82.0806 57.3336 82.1103C57.265 82.1399 57.1915 82.1399 57.1229 82.1695C57.0346 82.1695 56.9513 82.1992 56.8778 82.1992C56.265 82.2585 56.0836 82.288 55.9072 82.2584ZM55.4611 81.0734C55.4513 81.1623 55.3876 81.1919 55.3532 81.1919C55.1964 81.1623 54.8434 81.0141 54.5787 80.8956H55.4856C55.4758 80.9549 55.4709 80.9845 55.4611 81.0734ZM54.7944 81.6955C54.7993 81.7251 54.8091 81.7844 54.8189 81.8436C54.7944 81.8733 54.7748 81.8733 54.7601 81.9029C54.716 81.9325 54.7062 81.9621 54.6964 81.9325C54.6915 81.9325 54.6915 81.9029 54.6866 81.8733C54.6817 81.8436 54.6768 81.814 54.667 81.7548C54.6866 81.7251 54.7013 81.6955 54.7111 81.6659C54.7503 81.6066 54.7601 81.577 54.7748 81.6066C54.7797 81.6066 54.7846 81.6363 54.7944 81.6955ZM54.3091 81.9918C54.2846 82.0214 54.265 82.051 54.2454 82.0806C54.1474 82.0214 54.0738 81.9918 53.9905 81.9621C54.0101 81.9325 54.0346 81.9029 54.0542 81.8733C54.1081 81.814 54.1621 81.7251 54.2209 81.7251C54.265 81.7251 54.314 81.7548 54.3581 81.814C54.3778 81.8436 54.3925 81.8436 54.4121 81.8733C54.3827 81.9029 54.3434 81.9621 54.3091 81.9918ZM53.6621 81.9621C53.6425 81.9918 53.6229 81.9918 53.3729 81.9918C53.3336 81.9918 53.2895 81.9918 53.2356 81.9918C53.1621 81.9918 53.1032 81.9918 53.0493 81.9918C52.7846 81.9918 52.7552 81.9918 52.7258 81.9325C52.7209 81.9325 52.7209 81.9029 52.716 81.9029C52.7062 81.8733 52.6964 81.8436 52.6768 81.814C52.6915 81.7844 52.6964 81.7844 52.7062 81.7548H52.7111C52.7454 81.6955 52.7797 81.6955 53.363 81.7844C53.4415 81.7844 53.5248 81.814 53.6229 81.814C53.6376 81.814 53.6474 81.8436 53.6621 81.8436C53.6719 81.8436 53.6768 81.8733 53.6866 81.8733C53.6768 81.9029 53.667 81.9029 53.6621 81.9029C53.6621 81.9325 53.6621 81.9621 53.6621 81.9621ZM52.4121 82.0214C52.3876 82.051 52.363 82.1103 52.3434 82.1399C52.3287 82.1399 52.3189 82.1103 52.3042 82.1103C52.2748 82.0806 52.2454 82.051 52.2209 82.051C52.2503 82.0214 52.2748 81.9918 52.2944 81.9918C52.3532 81.9325 52.368 81.9325 52.3778 81.9325C52.3827 81.9325 52.3827 81.9621 52.3876 81.9621C52.3925 81.9918 52.4023 81.9918 52.4121 82.0214ZM44.4611 81.4585H44.3925C44.4219 81.4881 44.4415 81.4881 44.4611 81.4585ZM14.0542 81.4289C14.0395 81.4585 14.0199 81.4585 14.0052 81.4881C13.9807 81.5178 13.9611 81.5474 13.9366 81.577C13.8287 81.6066 13.7454 81.6066 13.6915 81.6066C13.618 81.6066 13.5836 81.6066 13.5934 81.6659H12.7944C12.6915 81.5178 12.6032 81.4881 12.5395 81.6659H11.0297C11.0493 81.577 11.0689 81.5178 11.0934 81.4289C11.1327 81.3104 11.1964 81.2808 11.2552 81.2808C11.3238 81.2808 11.3876 81.2511 11.4464 81.2511C11.7209 81.1919 11.8631 81.1623 12.0101 81.1623C12.167 81.1623 12.3238 81.1919 12.6572 81.2215C12.8581 81.2511 13.118 81.2808 13.4856 81.34C13.6572 81.3696 13.7454 81.3696 13.8042 81.3696C13.8876 81.3104 13.9072 81.3104 14.0542 81.4289ZM23.0003 80.8364C22.6229 80.9253 22.2895 81.0141 21.9954 81.0734C21.5346 81.1919 21.1621 81.2808 20.8434 81.3104C19.9758 81.34 19.4415 81.3696 19.1032 81.3993C18.5689 81.4289 18.5444 81.4289 18.5248 81.4585C18.5199 81.4585 18.515 81.4881 18.5101 81.4881C18.4905 81.5474 18.4709 81.577 18.4513 81.6066H20.5346H20.5395C20.5738 81.577 20.6081 81.577 20.6327 81.6066H21.5101C21.5248 81.577 21.5444 81.577 21.5591 81.5474C21.618 81.4881 21.6768 81.3993 21.7307 81.4289C21.7748 81.4585 21.814 81.5178 21.8581 81.577H28.4121C28.3042 81.5474 28.1915 81.4881 28.0787 81.4289C27.9415 81.3696 27.8091 81.2808 27.6719 81.2511C27.5395 81.2215 27.4121 81.2511 27.2797 81.2808C27.1572 81.34 27.0395 81.3696 26.9219 81.34C26.6474 81.2808 26.3729 81.1623 26.0787 81.0438C25.5003 80.8068 24.8581 80.5105 24.0493 80.7179C23.8532 80.7771 23.6572 80.7771 23.4611 80.7771C23.314 80.8068 23.1572 80.8068 23.0003 80.8364ZM17.7797 80.2439C17.8091 80.2735 17.8385 80.2735 18.118 80.1846C18.2111 80.155 18.3287 80.1254 18.4856 80.0661C18.3925 80.0661 18.314 80.0661 18.2454 80.0661C17.8434 80.0958 17.8091 80.0959 17.7797 80.1255C17.7748 80.1255 17.7748 80.1255 17.7699 80.1255C17.7601 80.1255 17.7503 80.155 17.7307 80.155C17.7503 80.1846 17.7601 80.1846 17.7699 80.1846C17.7748 80.2143 17.7748 80.2439 17.7797 80.2439ZM16.7454 79.3551C16.7111 79.2959 16.6768 79.2959 16.3091 79.2959C16.2062 79.2959 16.0738 79.2959 15.9072 79.2959V79.3255C15.7013 79.3255 15.5444 79.3255 15.4268 79.3255C15.0983 79.3255 15.064 79.3255 15.0346 79.3551H15.0297H15.0248C15.015 79.3551 15.0052 79.3847 14.9856 79.3847C15.0003 79.4144 15.0052 79.4144 15.015 79.444C15.0836 79.5625 15.1131 79.6217 16.7013 79.5329C16.7307 79.5329 16.765 79.5032 16.7944 79.444C16.7748 79.4144 16.765 79.3847 16.7552 79.3551C16.7552 79.3551 16.7503 79.3551 16.7454 79.3551ZM14.8287 81.3104C14.7797 81.3104 14.7356 81.3104 14.6915 81.34C14.618 81.4289 14.5493 81.5474 14.4758 81.6363H17.5052C16.6278 81.5178 15.7454 81.3993 14.8631 81.3104C14.8532 81.3104 14.8434 81.3104 14.8287 81.3104ZM11.0738 79.7402C11.2209 79.7106 11.3287 79.681 11.4317 79.6514C11.6866 79.6217 11.9464 79.6514 12.8287 79.7699C12.9366 79.7699 13.0542 79.7995 13.1866 79.8291C13.2895 79.8587 13.3925 79.8587 13.4905 79.918C13.4121 79.9476 13.3631 79.9773 13.3287 79.9773C13.3042 79.9773 13.2846 80.0069 13.265 80.0069C13.1866 80.0365 13.1081 80.0365 12.7209 80.0365C12.6278 80.0365 12.515 80.0365 12.3778 80.0365V79.9476C12.1621 80.0069 11.9464 80.0365 11.7307 80.0958C11.515 80.155 11.2993 80.1846 11.0836 80.2439C11.0738 80.2439 11.0591 80.2439 11.0493 80.2439C11.0248 80.2439 11.0003 80.2735 10.9807 80.2439C10.9562 80.2143 10.9317 80.1847 10.9121 80.1255C10.8974 80.0959 10.8827 80.0661 10.868 80.0365C10.8729 80.0069 10.8827 79.9773 10.8876 79.9476C10.9121 79.8587 10.9366 79.7699 10.9611 79.7699C11.0052 79.7699 11.0395 79.7699 11.0738 79.7402ZM10.6229 81.2511C10.6768 81.2215 10.7699 81.2808 10.7846 81.3993C10.7944 81.4881 10.8042 81.5474 10.8189 81.6363H9.50521C9.88756 81.4881 10.3974 81.3104 10.6229 81.2511ZM9.81403 80.4809C9.80423 80.5401 9.79443 80.5994 9.78463 80.629C9.76992 80.6586 9.75031 80.629 9.69638 80.5401C9.67678 80.5105 9.65717 80.4809 9.63266 80.4216C9.64736 80.3624 9.65228 80.3031 9.65718 80.2735C9.66208 80.2439 9.66697 80.2143 9.67188 80.1846C9.68658 80.155 9.70129 80.155 9.76501 80.2143C9.78952 80.2439 9.81403 80.2735 9.85325 80.3031C9.83364 80.3624 9.82383 80.4216 9.81403 80.4809ZM9.01991 79.9476C9.04933 79.9773 9.07875 80.0069 9.11306 80.0661C9.16208 80.1254 9.21599 80.1846 9.26991 80.2439C9.2454 80.2735 9.21599 80.3031 9.19148 80.3328C9.12286 80.392 9.05424 80.4809 8.99051 80.4513C8.91208 80.4513 8.82874 80.3328 8.75031 80.2439C8.72089 80.2143 8.68659 80.1551 8.65718 80.1255C8.76992 80.0662 8.88266 80.0069 9.01991 79.9476ZM7.7454 80.0661C8.10815 80.0661 8.13757 80.0662 8.16698 80.1255C8.16698 80.1255 8.16697 80.1255 8.17188 80.1255C8.17188 80.1255 8.17187 80.1255 8.17678 80.1255H8.18168C8.19148 80.1551 8.20129 80.155 8.22089 80.1846C8.21109 80.1846 8.19638 80.2143 8.18168 80.2143C8.16207 80.2439 8.14247 80.2735 8.12286 80.2735C7.98071 80.3031 7.85325 80.3031 7.7405 80.3328C6.89737 80.4809 6.84345 80.4809 6.79934 80.392C6.79443 80.392 6.79442 80.392 6.78952 80.3624C6.77972 80.3328 6.76991 80.3328 6.75031 80.3031C6.77972 80.2439 6.79443 80.2143 6.80424 80.155C6.80914 80.1254 6.81404 80.1255 6.81894 80.1255C6.85816 80.0366 6.90227 80.0365 7.28462 80.0365C7.35815 80.0365 7.44639 80.0365 7.55424 80.0365C7.62286 80.0661 7.68658 80.0661 7.7454 80.0661ZM6.35326 80.0069C6.33855 80.0365 6.32385 80.0661 6.31894 80.0958C6.31404 80.1254 6.30914 80.1255 6.30424 80.1255C6.28463 80.1551 6.26992 80.1254 6.18169 80.0661C6.15228 80.0365 6.11796 80.0069 6.07385 79.9773C6.11306 79.9773 6.15228 79.918 6.19639 79.8884C6.216 79.8587 6.2307 79.8587 6.25031 79.8291C6.27972 79.8884 6.31894 79.9476 6.35326 80.0069ZM6.06404 81.34C6.47581 81.34 6.88756 81.4881 7.29442 81.6363H4.9562C5.32385 81.4881 5.69639 81.3696 6.06404 81.34Z" fill="#22262E"/>
</g>
<defs>
<clipPath id="clip0_162_3148">
<rect width="80" height="84" fill="white"/>
</clipPath>
</defs>
</svg>
