<svg width="80" height="84" viewBox="0 0 80 84" fill="none" xmlns="http://www.w3.org/2000/svg">
<path d="M8.80217 77.6474C8.80217 77.6474 5.18043 79.216 3.92157 78.0395C3.54751 77.6899 3.02524 76.3367 3.02524 76.3367C2.84749 76.2599 2.64011 76.1421 2.34386 75.8503C2.31423 75.8349 2.40311 75.8145 2.46236 75.794C2.49198 75.7837 2.52161 75.7735 2.55123 75.7633C2.58086 75.7684 2.58086 75.7786 2.61048 75.7837C2.66974 75.8042 2.69936 75.8247 2.69936 75.8452C2.64011 75.9578 2.72899 76.0551 3.02524 76.1319L3.02524 75.7581C2.96599 75.6506 2.87711 75.5431 2.72899 75.4407C2.66973 75.3998 2.64011 75.3639 2.58086 75.3281C2.43273 75.2257 2.28461 75.1284 2.25498 75.0107C2.22536 74.9134 2.16611 74.8161 2.10685 74.7239C2.01798 74.5908 1.9291 74.4628 1.95873 74.3348C1.98835 74.0225 1.89948 73.7153 1.78098 73.4081C1.6921 73.1419 1.60322 72.8808 1.60322 72.6146C1.60322 72.3586 1.54397 72.1026 1.51435 71.8466C1.48472 71.6674 1.4551 71.4882 1.42547 71.309C1.42547 71.2937 1.39585 71.0479 1.36622 70.6895C1.27735 69.6553 1.09959 67.6739 1.09959 67.5357C1.12922 67.3053 1.51435 65.0577 1.54397 65.0219C1.60322 64.8427 1.66248 64.6584 1.72173 64.4792C1.78098 64.2949 1.84023 64.1105 1.89948 63.9211L1.89948 63.9109C1.9291 63.829 1.95873 63.7317 1.84023 63.6805C1.48472 63.5422 1.66248 63.4399 1.95873 63.3272C1.63285 63.2863 1.63285 63.1992 1.60322 63.1173C1.60322 63.1122 1.60322 63.1071 1.60322 63.0968C1.60322 62.9842 1.5736 62.9125 1.5736 62.8613C1.5736 62.7794 1.5736 62.764 1.54397 62.7487C1.54397 62.7435 1.54397 62.7436 1.54397 62.7384C1.54397 62.7333 1.51435 62.7231 1.51435 62.7077C1.48472 62.7128 1.48472 62.7231 1.4551 62.7282C1.39585 62.7436 1.36622 62.764 1.36622 62.7794C1.3366 62.8408 1.3366 62.8971 1.30697 62.9586C1.2181 63.2095 1.12922 63.4603 1.09959 63.7112C1.06997 63.8494 1.06997 63.9928 1.09959 64.131C1.09959 64.2693 1.09959 64.4126 1.09959 64.5509C1.09959 64.5611 0.773716 66.4349 0.744091 66.4452C0.24046 67.0493 0.447838 67.6739 0.655215 68.273C0.744091 68.5699 0.862592 68.8669 0.862592 69.1485C0.892217 69.5222 0.862592 69.8959 0.832966 70.2697C0.803341 70.454 0.803341 70.6434 0.803341 70.8278C0.803341 70.8636 0.773716 70.9046 0.744091 70.9558C0.68484 71.0377 0.655215 71.1401 0.655215 71.2322C0.714465 71.524 0.803341 71.6572 0.892217 71.7749C0.921842 71.821 0.951468 71.862 0.981093 71.908C0.981093 71.9336 1.01072 71.9797 0.951468 71.99C0.595964 72.0719 0.625589 72.1691 0.68484 72.2715C0.714465 72.3074 0.714465 72.3432 0.714465 72.3791C0.714465 72.6043 0.714465 72.7477 0.68484 72.8347C0.68484 72.9576 0.68484 72.9832 0.655214 73.0088C0.655214 73.0139 0.625589 73.019 0.625589 73.0293C0.595964 73.0446 0.566338 73.06 0.536713 73.0907C0.536713 73.0754 0.507088 73.06 0.477463 73.0446C0.447837 73.019 0.418212 72.9986 0.418212 72.973C0.210835 71.2937 0.210835 71.0428 0.24046 70.6076C0.24046 70.3926 0.270086 70.1366 0.270086 69.64C0.270086 69.2406 0.210835 68.8566 0.151584 68.4573C-0.0261673 67.3514 -0.203919 66.1022 0.595964 63.9262C0.892217 63.1327 1.01072 62.334 1.09959 61.5353C1.12922 61.2946 1.18847 61.054 1.2181 60.8134C1.24772 60.7161 1.27735 60.6188 1.27735 60.5267C1.3366 60.2707 1.36622 60.0147 1.42547 59.7587L1.42547 59.7382C1.48472 59.3901 1.42547 59.0368 1.39585 58.6886C1.3366 58.2893 1.30697 57.8951 1.39585 57.4957C1.5736 56.6612 1.75135 55.8216 1.4551 54.9768C1.30697 54.5365 1.24772 54.0962 1.18847 53.6507C1.15885 53.4459 1.12922 53.236 1.09959 53.0312C1.09959 53.021 1.09959 53.0159 1.09959 53.0108C1.09959 53.0056 1.09959 53.0005 1.09959 52.9954C1.09959 52.98 1.12922 52.9698 1.18847 52.9186C1.2181 52.8981 1.24772 52.8725 1.30697 52.8367C1.3366 52.8521 1.36622 52.8674 1.39585 52.8828C1.4551 52.9084 1.51435 52.9391 1.54397 52.9698C1.5736 53.0005 1.5736 53.0312 1.5736 53.062C1.5736 53.0876 1.5736 53.1132 1.60323 53.1439C1.63285 53.1848 1.72173 53.2258 1.78098 53.2668C1.8106 53.277 1.8106 53.2872 1.84023 53.2924C1.89948 53.2463 1.98835 53.2053 2.01798 53.1592C2.0476 53.1183 2.07723 53.0773 2.10686 53.0364C2.13648 52.98 2.19573 52.9237 2.25498 52.8725C2.28461 52.8469 2.46236 52.8162 2.52161 52.8162L2.52161 51.6284L2.49198 51.5465C2.37348 51.0038 2.07723 49.6522 2.13648 49.5702C2.13648 49.5242 2.22536 49.3501 2.31423 49.1351C2.37348 48.9661 2.46236 48.7664 2.52161 48.5924L2.52161 46.7646C2.52161 46.7646 2.52161 46.7646 2.49198 46.7697C2.46236 46.7748 2.40311 46.7851 2.40311 46.7902C2.37348 46.8209 2.37348 46.8465 2.34386 46.8772C2.22536 47.0308 2.10686 47.1844 2.04761 47.338C2.01798 47.425 2.01798 47.5121 2.01798 47.5991C2.01798 47.6759 2.01798 47.7527 2.01798 47.8295C2.01798 47.8346 1.5736 48.9303 1.54397 48.9354C0.862593 49.2887 1.15885 49.6573 1.42547 50.0105C1.54397 50.1846 1.6921 50.3536 1.6921 50.5174C1.72173 50.758 1.66248 50.9936 1.63285 51.2342C1.60323 51.3212 1.60323 51.4134 1.5736 51.5004C1.5736 51.5209 1.54397 51.5414 1.51435 51.5721C1.4551 51.6233 1.36622 51.6847 1.39585 51.741C1.48472 51.9151 1.60323 51.9919 1.72173 52.0585C1.75135 52.0841 1.8106 52.1046 1.84023 52.1302C1.86985 52.1455 1.86985 52.1711 1.78098 52.1762C1.30697 52.2223 1.36622 52.2838 1.42547 52.3401C1.4551 52.3605 1.4551 52.381 1.4551 52.4015C1.42547 52.5397 1.42547 52.6217 1.42547 52.6729C1.42547 52.7394 1.42547 52.7548 1.39585 52.7701C1.39585 52.7753 1.36622 52.7804 1.36622 52.7855C1.3366 52.7906 1.30697 52.806 1.24772 52.8213C1.24772 52.8162 1.2181 52.8111 1.18847 52.8008C1.15885 52.7855 1.09959 52.7701 1.09959 52.7497C0.803342 51.7718 0.832967 51.6233 0.862593 51.3673C0.892218 51.2444 0.892218 51.0908 0.892218 50.799C0.892218 50.5635 0.803342 50.3433 0.714466 50.1078C0.477464 49.4627 0.240461 48.7306 1.3366 47.4609C1.75135 46.995 1.89948 46.5291 1.98835 46.0632C2.01798 45.9403 2.07723 45.8123 2.13648 45.6894C2.16611 45.6177 2.22536 45.5461 2.25498 45.4744C2.31423 45.3208 2.40311 45.1672 2.43273 45.0136L2.43273 44.5989C2.43273 44.5426 2.40311 44.4863 2.40311 44.4299C2.34386 44.1893 2.28461 43.9487 2.40311 43.7029L2.46236 43.6108L2.46236 42.1721C2.28461 41.9417 2.22536 41.7062 2.16611 41.4707C2.13648 41.3427 2.07723 41.2198 2.04761 41.0918C2.01798 41.0406 2.10686 41.0099 2.16611 40.9689C2.25498 40.9229 2.37348 40.8717 2.31423 40.7795L2.31423 38.0609C2.55124 37.9534 2.84749 37.7793 3.32149 37.3595C3.35112 37.339 3.26224 37.3083 3.14374 37.2775C3.08449 37.2622 3.05487 37.2468 3.02524 37.2315C2.99561 37.2417 2.96599 37.2519 2.96599 37.2622C2.90674 37.2929 2.81786 37.3236 2.84749 37.3492C2.93636 37.5182 2.78824 37.6513 2.37348 37.7639L2.37348 37.2212C2.46236 37.0676 2.61049 36.9089 2.78824 36.7656C2.84749 36.7092 2.93636 36.6529 3.02524 36.6017C3.23262 36.4532 3.43999 36.3099 3.49925 36.1358C3.52887 35.9976 3.61775 35.8593 3.70662 35.716C3.82512 35.5266 3.94363 35.3371 3.94363 35.1477C3.88437 34.6971 4.0325 34.2517 4.18063 33.8063C4.29913 33.4223 4.44726 33.0383 4.44726 32.6543C4.44726 32.2806 4.50651 31.912 4.59538 31.5382C4.65463 31.2771 4.68426 31.016 4.71388 30.76C4.71388 30.7395 4.74351 30.3811 4.80276 29.864C4.95089 28.3639 5.18789 25.4815 5.15826 25.2869C5.12864 24.9541 4.53613 21.6877 4.53613 21.6416C4.47688 21.3805 4.38801 21.1142 4.29913 20.8531C4.21025 20.5818 4.12138 20.3156 4.06213 20.0442L4.06213 20.034C4.0325 19.9162 3.97325 19.7729 4.18063 19.6961C4.71388 19.4964 4.41763 19.3428 4.0325 19.1841C4.50651 19.1226 4.50651 18.9998 4.53613 18.8769C4.53613 18.8666 4.53613 18.8564 4.53613 18.8513C4.56576 18.6875 4.56576 18.5799 4.56576 18.5083C4.56576 18.3905 4.56576 18.3649 4.59538 18.3444C4.59538 18.3393 4.59538 18.3342 4.62501 18.3291C4.62501 18.3188 4.65463 18.3035 4.68426 18.283C4.71388 18.2932 4.74351 18.3035 4.74351 18.3137C4.80276 18.3393 4.86201 18.3598 4.86201 18.3854C4.89164 18.4724 4.92126 18.5595 4.95089 18.6465C5.06939 19.01 5.18789 19.3786 5.24714 19.7421C5.27676 19.9418 5.27676 20.1466 5.27676 20.3514C5.27676 20.5562 5.27676 20.7559 5.30639 20.9607C5.30639 20.976 5.78039 23.6946 5.81002 23.7151C6.52103 24.5957 6.22477 25.4968 5.92852 26.3672C5.78039 26.8024 5.63227 27.2273 5.63227 27.6369C5.60264 28.1796 5.66189 28.7223 5.69152 29.2599C5.72114 29.5312 5.75077 29.8026 5.75077 30.0739C5.75077 30.1251 5.78039 30.1866 5.83964 30.2634C5.8989 30.3863 5.98777 30.5296 5.95815 30.6678C5.86927 31.0877 5.75077 31.2873 5.63227 31.4563C5.60264 31.5229 5.54339 31.5792 5.51377 31.6457C5.48414 31.6867 5.48414 31.7481 5.54339 31.7686C6.04702 31.8864 5.98777 32.0297 5.92852 32.1731C5.8989 32.2243 5.86927 32.2806 5.8989 32.3318C5.92852 32.6595 5.92852 32.8642 5.92852 32.9922C5.92852 33.1714 5.92852 33.2073 5.95815 33.2431C5.95815 33.2534 5.98777 33.2585 5.98777 33.2687C6.0174 33.2892 6.04702 33.3148 6.10627 33.3609C6.1359 33.3404 6.1359 33.3199 6.16552 33.2994C6.19515 33.2636 6.2544 33.2329 6.2544 33.197C6.2544 33.1356 6.28402 33.069 6.28402 33.0076L6.28402 20.8275C6.19515 20.5818 6.10627 20.3258 6.0174 20.0596C5.60264 18.9076 5.39527 17.7505 5.30639 16.5883C5.27677 16.2402 5.18789 15.8869 5.12864 15.5388C5.09901 15.4005 5.06939 15.2572 5.03976 15.1189C4.95089 14.7503 4.89164 14.3766 4.83239 14.0079L4.83239 13.9772C4.74351 13.4703 4.80276 12.9635 4.86201 12.4515C4.92126 11.873 4.98051 11.2995 4.86201 10.7159C4.59538 9.5076 4.35838 8.28397 4.77313 7.06033C4.98051 6.42035 5.06939 5.78037 5.15826 5.14039C5.18789 4.84344 5.24714 4.54137 5.27677 4.24442C5.27677 4.22906 5.27677 4.22394 5.27677 4.21371C5.27677 4.20347 5.27677 4.19835 5.27677 4.19323C5.27677 4.17275 5.24714 4.15739 5.12864 4.08059C5.06939 4.04987 5.03976 4.01403 4.95089 3.96283C4.92126 3.98331 4.86201 4.00379 4.80276 4.02939C4.71388 4.07035 4.62501 4.11131 4.56576 4.15227C4.53613 4.19323 4.50651 4.2393 4.50651 4.28538C4.50651 4.32634 4.50651 4.36218 4.47688 4.40314C4.41763 4.46458 4.32876 4.52089 4.21025 4.57721C4.18063 4.59257 4.151 4.60281 4.151 4.61817C4.06213 4.55673 3.94363 4.49018 3.88438 4.42362C3.82512 4.36218 3.7955 4.30586 3.73625 4.24442C3.677 4.16251 3.61775 4.08059 3.5585 4.00379C3.41037 3.97307 3.23262 3.93211 3.11412 3.92188L3.05487 3.92188C2.72899 3.97819 2.49199 4.02427 2.34386 4.06011L2.34386 3.92188L3.05487 3.92188C3.05487 3.92188 3.08449 3.92188 3.11412 3.92188L6.1359 3.92188L7.02466 3.92188L11.7647 3.92188L11.7647 77.6474L8.80217 77.6474ZM2.64011 65.8206C2.72899 65.4878 2.78824 65.2216 2.78824 64.9912C2.81786 64.3665 2.84749 63.9826 2.84749 63.7419C2.84749 63.3579 2.84749 63.3426 2.90674 63.3272L2.90674 63.3221L2.90674 63.317C2.90674 63.317 2.90674 63.3119 2.93636 63.3119C2.96599 63.2965 2.99561 63.2811 3.02524 63.2658L3.02524 64.7608L3.02524 64.7659C3.02524 64.7915 2.99561 64.8171 3.02524 64.8324L3.02524 65.4673C3.02524 65.4775 2.99561 65.4929 2.99561 65.5031C2.93636 65.5441 2.90674 65.5902 2.93636 65.626C2.93636 65.6567 2.99561 65.6875 3.05486 65.7182L3.05486 70.4335C3.02524 70.3516 2.99561 70.2748 2.93636 70.1929C2.87711 70.0956 2.84749 69.9983 2.81786 69.9011C2.78824 69.8089 2.81786 69.7116 2.81786 69.6195C2.84749 69.5324 2.84749 69.4505 2.84749 69.3635C2.81786 69.1689 2.72899 68.9693 2.64011 68.7594C2.46236 68.3446 2.28461 67.8839 2.40311 67.3002C2.43273 67.162 2.43273 67.0186 2.46236 66.8804C2.46236 66.7677 2.49198 66.6551 2.49198 66.5425C2.52161 66.2711 2.58086 66.0305 2.64011 65.8206ZM2.0476 62.7896C2.07723 62.8101 2.07723 62.8306 1.98835 63.0354C1.95873 63.1019 1.9291 63.189 1.89948 63.2965C1.89948 63.2299 1.89948 63.1736 1.89948 63.1275C1.89948 62.8408 1.89948 62.8152 1.9291 62.7896L1.9291 62.7845C1.9291 62.7794 1.95873 62.7691 1.95873 62.7589C1.95873 62.7691 1.98835 62.7794 1.98835 62.7845C2.0476 62.7794 2.0476 62.7845 2.0476 62.7896C2.0476 62.7845 2.0476 62.7845 2.0476 62.7896ZM1.39585 61.438C1.42547 61.2895 1.42547 61.1769 1.42547 61.0898C1.42547 60.8492 1.42547 60.8287 1.4551 60.8083C1.4551 60.8031 1.4551 60.8031 1.4551 60.8031C1.4551 60.798 1.4551 60.7878 1.48472 60.7775C1.48472 60.7878 1.51435 60.7929 1.51435 60.798C1.60322 60.8441 1.63285 60.8697 1.5736 62.0114C1.5736 62.0319 1.54397 62.0575 1.51435 62.078C1.48472 62.0626 1.48472 62.0575 1.4551 62.0473C1.4551 62.0421 1.4551 62.0421 1.42547 62.037C1.36622 62.0114 1.36622 61.9858 1.39585 61.7196C1.39585 61.653 1.39585 61.5609 1.39585 61.438ZM2.78824 60.6649C2.78824 60.6291 2.78824 60.5983 2.81786 60.5676C2.87711 60.5164 2.96599 60.4652 3.02524 60.414L3.02524 62.5951C2.93636 61.9602 2.87711 61.3254 2.78824 60.6905C2.78824 60.6803 2.78824 60.6751 2.78824 60.6649ZM2.90674 60.071C2.87711 60.0812 2.87711 60.0966 2.87711 60.1068C2.81786 59.9993 2.81786 59.9891 2.81786 59.9174C2.81786 59.8765 2.81786 59.8099 2.78824 59.687C2.75861 59.4259 2.72899 59.2365 2.69936 59.0931C2.66974 58.8525 2.64011 58.7398 2.64011 58.6272C2.64011 58.5248 2.66974 58.4224 2.69936 58.2227C2.69936 58.1818 2.72899 58.1357 2.72899 58.0845C2.72899 58.0436 2.75861 57.9975 2.84749 57.9719C2.90674 57.9565 2.96599 57.9412 3.02524 57.9258L3.02524 59.0112C2.90674 59.0573 2.90674 59.1187 3.02524 59.1955L3.02524 59.7741C2.96599 59.7638 2.96599 59.7894 2.99561 59.8406C2.99561 59.8816 2.99561 59.943 2.99561 60.0198C2.96599 60.0352 2.93636 60.0556 2.90674 60.071ZM1.66248 58.2176C1.66248 58.1408 1.6921 58.064 1.72173 57.9616L1.72173 57.9104L1.72173 57.8848C1.72173 57.8644 1.78098 57.849 1.84023 57.8336C1.86985 57.8285 1.86985 57.8234 1.89948 57.8183C1.9291 57.8285 1.9291 57.8388 1.95873 57.849C1.98835 57.8644 2.01798 57.8797 2.0476 57.9002C2.07723 57.9156 2.0476 57.9309 2.0476 57.9514C2.0476 57.9616 2.0476 57.9668 2.0476 57.977C2.01798 58.1306 1.98835 58.2893 1.95873 58.4429C1.9291 58.5965 1.89948 58.7552 1.86985 58.9088L1.9291 58.9088C1.9291 59.0061 1.9291 59.088 1.9291 59.1546C1.9291 59.4361 1.9291 59.4925 1.89948 59.5437C1.89948 59.559 1.89948 59.5693 1.86985 59.5897C1.86985 59.6153 1.84023 59.6512 1.8106 59.7075C1.78098 59.6358 1.78098 59.559 1.75135 59.4873C1.75135 59.3952 1.72173 59.3082 1.72173 59.2314C1.66248 58.5914 1.63285 58.4019 1.66248 58.2176ZM2.84749 57.7517C2.75861 57.7415 2.72899 57.6749 2.72899 57.6391C2.75861 57.4753 2.90674 57.1066 3.02524 56.8302L3.02524 57.7773C2.96599 57.7671 2.93636 57.762 2.84749 57.7517ZM2.22536 57.0554C2.19573 57.0605 2.13648 57.0708 2.07723 57.081C2.0476 57.0554 2.0476 57.0349 2.01798 57.0196C1.98835 56.9735 1.95873 56.9633 1.98835 56.953C1.98835 56.9479 2.01798 56.9479 2.0476 56.9428C2.07723 56.9377 2.10686 56.9325 2.16611 56.9223C2.19573 56.9428 2.22536 56.9581 2.25498 56.9684C2.31423 57.0093 2.34386 57.0196 2.31423 57.0349C2.31423 57.0401 2.28461 57.0452 2.22536 57.0554ZM1.9291 56.5486C1.89948 56.523 1.86985 56.5025 1.84023 56.482C1.89948 56.3796 1.9291 56.3028 1.95873 56.2158C1.98835 56.2363 2.01798 56.2618 2.0476 56.2823C2.10686 56.3386 2.19573 56.395 2.19573 56.4564C2.19573 56.5025 2.16611 56.5537 2.10686 56.5998C2.07723 56.6202 2.07723 56.6356 2.0476 56.6561C2.01798 56.6254 1.95873 56.5844 1.9291 56.5486ZM1.95873 55.8727C1.9291 55.8523 1.9291 55.8318 1.9291 55.5707C1.9291 55.5297 1.9291 55.4836 1.9291 55.4273C1.9291 55.3505 1.9291 55.2891 1.9291 55.2328C1.9291 54.9563 1.9291 54.9256 1.98835 54.8949C1.98835 54.8897 2.01798 54.8897 2.01798 54.8846C2.0476 54.8744 2.07723 54.8641 2.10686 54.8437C2.13648 54.859 2.13648 54.8641 2.16611 54.8744L2.16611 54.8795C2.22536 54.9153 2.22536 54.9512 2.13648 55.5604C2.13648 55.6423 2.10686 55.7294 2.10686 55.8318C2.10686 55.8471 2.07723 55.8574 2.07723 55.8727C2.07723 55.883 2.0476 55.8881 2.0476 55.8983C2.01798 55.8881 2.01798 55.8779 2.01798 55.8727C1.98835 55.8727 1.95873 55.8727 1.95873 55.8727ZM1.89948 54.5672C1.86985 54.5416 1.8106 54.516 1.78098 54.4955C1.78098 54.4802 1.8106 54.4699 1.8106 54.4546C1.84023 54.4238 1.86985 54.3931 1.86985 54.3675C1.89948 54.3982 1.9291 54.4238 1.9291 54.4443C1.98835 54.5057 1.98835 54.5211 1.98835 54.5314C1.98835 54.5365 1.95873 54.5365 1.95873 54.5416C1.9291 54.5467 1.9291 54.557 1.89948 54.5672ZM2.46236 46.2628L2.46236 46.1912C2.43273 46.2219 2.43273 46.2424 2.46236 46.2628ZM2.49199 14.5046C2.46236 14.4892 2.46236 14.4687 2.43274 14.4534C2.40311 14.4278 2.37348 14.4073 2.34386 14.3817C2.31423 14.269 2.31423 14.182 2.31423 14.1257C2.31423 14.0489 2.31423 14.0131 2.25498 14.0233L2.25498 13.1888C2.40311 13.0812 2.43274 12.9891 2.25498 12.9225L2.25498 11.3456C2.34386 11.3661 2.40311 11.3866 2.49199 11.4122C2.61049 11.4531 2.64011 11.5197 2.64011 11.5811C2.64011 11.6528 2.66974 11.7194 2.66974 11.7808C2.72899 12.0675 2.75861 12.216 2.75861 12.3696C2.75861 12.5334 2.72899 12.6973 2.69936 13.0454C2.66974 13.2553 2.64011 13.5267 2.58086 13.9107C2.55124 14.0898 2.55124 14.182 2.55124 14.2434C2.61049 14.3305 2.61049 14.351 2.49199 14.5046ZM3.08449 23.8482C2.99562 23.454 2.90674 23.1059 2.84749 22.7987C2.72899 22.3174 2.64011 21.9283 2.61049 21.5955C2.58086 20.6893 2.55124 20.1312 2.52161 19.778C2.49199 19.2199 2.49199 19.1943 2.46236 19.1738C2.46236 19.1687 2.43273 19.1636 2.43273 19.1585C2.37348 19.138 2.34386 19.1175 2.31423 19.097L2.31423 21.273L2.31423 21.2781C2.34386 21.3139 2.34386 21.3498 2.31423 21.3754L2.31423 22.2918C2.34386 22.3072 2.34386 22.3276 2.37348 22.343C2.43274 22.4044 2.52161 22.4659 2.49199 22.5222C2.46236 22.5683 2.40311 22.6092 2.34386 22.6553L2.34386 29.5005C2.37348 29.3879 2.43273 29.2701 2.49199 29.1524C2.55124 29.009 2.64011 28.8708 2.66974 28.7274C2.69936 28.5892 2.66974 28.4561 2.64011 28.3178C2.58086 28.1898 2.55124 28.067 2.58086 27.9441C2.64011 27.6574 2.75861 27.3707 2.87711 27.0635C3.11412 26.4593 3.41037 25.7887 3.20299 24.9439C3.14374 24.7391 3.14374 24.5343 3.14374 24.3295C3.11412 24.1759 3.11412 24.0121 3.08449 23.8482ZM3.677 18.3956C3.64737 18.4263 3.64737 18.4571 3.73625 18.7489C3.76587 18.8462 3.7955 18.969 3.85475 19.1329C3.85475 19.0356 3.85475 18.9537 3.85475 18.882C3.82512 18.4622 3.82512 18.4263 3.7955 18.3956C3.7955 18.3905 3.7955 18.3905 3.7955 18.3854C3.7955 18.3751 3.76587 18.3649 3.76587 18.3444C3.73625 18.3649 3.73625 18.3751 3.73625 18.3854C3.70662 18.3905 3.677 18.3905 3.677 18.3956ZM4.56576 17.3153C4.62501 17.2795 4.62501 17.2437 4.62501 16.8597C4.62501 16.7522 4.62501 16.6139 4.62501 16.4398L4.59538 16.4398C4.59538 16.2248 4.59538 16.061 4.59538 15.9381C4.59538 15.5951 4.59538 15.5592 4.56576 15.5285L4.56576 15.5234L4.56576 15.5183C4.56576 15.508 4.53613 15.4978 4.53613 15.4773C4.50651 15.4927 4.50651 15.4978 4.47688 15.508C4.35838 15.5797 4.29913 15.6104 4.38801 17.2693C4.38801 17.3 4.41763 17.3358 4.47688 17.3665C4.50651 17.3461 4.53613 17.3358 4.56576 17.3256C4.56576 17.3256 4.56576 17.3205 4.56576 17.3153ZM2.61049 15.3135C2.61049 15.2623 2.61049 15.2162 2.58086 15.1701C2.49199 15.0933 2.37348 15.0217 2.28461 14.9449L2.28461 18.1089C2.40311 17.1925 2.52161 16.2709 2.61049 15.3493C2.61049 15.3391 2.61049 15.3288 2.61049 15.3135ZM4.18063 11.3917C4.21025 11.5453 4.23988 11.6579 4.2695 11.7654C4.29913 12.0317 4.2695 12.303 4.151 13.2246C4.151 13.3372 4.12138 13.4601 4.09175 13.5983C4.06213 13.7059 4.06213 13.8134 4.00288 13.9158C3.97325 13.8339 3.94363 13.7827 3.94363 13.7468C3.94363 13.7212 3.914 13.7007 3.914 13.6803C3.88438 13.5983 3.88438 13.5164 3.88438 13.112C3.88438 13.0147 3.88438 12.8969 3.88438 12.7536L3.97325 12.7536C3.914 12.5283 3.88438 12.303 3.82512 12.0778C3.76587 11.8525 3.73625 11.6272 3.677 11.4019C3.677 11.3917 3.677 11.3763 3.677 11.3661C3.677 11.3405 3.64737 11.3149 3.677 11.2944C3.70662 11.2688 3.73625 11.2432 3.7955 11.2227C3.82512 11.2074 3.85475 11.192 3.88438 11.1767C3.914 11.1818 3.94363 11.192 3.97325 11.1971C4.06213 11.2227 4.151 11.2483 4.151 11.2739C4.151 11.32 4.151 11.3559 4.18063 11.3917ZM2.66974 10.9207C2.69936 10.977 2.64011 11.0743 2.52161 11.0896C2.43274 11.0999 2.37348 11.1101 2.28461 11.1255L2.28461 9.75336C2.43274 10.1527 2.61049 10.6852 2.66974 10.9207ZM3.44 10.0759C3.38075 10.0657 3.32149 10.0554 3.29187 10.0452C3.26224 10.0298 3.29187 10.0093 3.38075 9.95303C3.41037 9.93255 3.44 9.91207 3.49925 9.88647C3.5585 9.90183 3.61775 9.90695 3.64737 9.91207C3.677 9.91719 3.70662 9.92231 3.73625 9.92743C3.76587 9.94279 3.76587 9.95815 3.70662 10.0247C3.677 10.0503 3.64737 10.0759 3.61775 10.1169C3.5585 10.0964 3.49925 10.0861 3.44 10.0759ZM3.97325 9.24649C3.94363 9.27721 3.914 9.30793 3.85475 9.34377C3.7955 9.39497 3.73625 9.45129 3.677 9.5076C3.64737 9.48201 3.61775 9.45129 3.58812 9.42569C3.52887 9.35401 3.44 9.28233 3.46962 9.21577C3.46962 9.13386 3.58812 9.04682 3.677 8.9649C3.70662 8.93418 3.76587 8.89835 3.7955 8.86763C3.85475 8.98538 3.914 9.10314 3.97325 9.24649ZM3.85475 7.91534C3.85475 8.29421 3.85475 8.32493 3.7955 8.35564C3.7955 8.35564 3.7955 8.35564 3.7955 8.36076C3.7955 8.36076 3.7955 8.36076 3.7955 8.36588L3.7955 8.371C3.76587 8.38124 3.76587 8.39148 3.73625 8.41196C3.73625 8.40172 3.70662 8.38636 3.70662 8.371C3.677 8.35052 3.64737 8.33004 3.64737 8.30957C3.61775 8.16109 3.61775 8.02798 3.58812 7.91022C3.44 7.02961 3.44 6.97329 3.52887 6.92721C3.52887 6.92209 3.52887 6.92209 3.5585 6.91697C3.58812 6.90673 3.58812 6.89649 3.61775 6.87601C3.677 6.90673 3.70662 6.92209 3.76587 6.93233C3.7955 6.93745 3.7955 6.94257 3.7955 6.94769C3.88438 6.98865 3.88438 7.03473 3.88438 7.43408C3.88438 7.51087 3.88438 7.60303 3.88438 7.71567C3.85475 7.78734 3.85475 7.8539 3.85475 7.91534ZM3.914 6.46131C3.88438 6.44595 3.85475 6.43059 3.82512 6.42547C3.7955 6.42035 3.7955 6.41523 3.7955 6.41011C3.76587 6.38963 3.7955 6.37427 3.85475 6.28211C3.88438 6.2514 3.914 6.21556 3.94363 6.16948C3.94363 6.21044 4.00288 6.2514 4.0325 6.29747C4.06213 6.31795 4.06213 6.33331 4.09175 6.35379C4.0325 6.38451 3.97325 6.42547 3.914 6.46131ZM2.58086 6.15924C2.58086 6.5893 2.43274 7.01937 2.28461 7.44432L2.28461 5.00216C2.43274 5.38615 2.55124 5.77525 2.58086 6.15924Z" fill="#2A2F39"/>
<path d="M71.1978 5.48936L76.9748 5.48936L76.9748 6.80003C77.1525 6.87683 77.3599 6.99458 77.6561 7.28641C77.6858 7.30177 77.5969 7.32225 77.5376 7.34273C77.508 7.35297 77.4784 7.36321 77.4488 7.37345C77.4191 7.36833 77.4191 7.3581 77.3895 7.35298C77.3303 7.3325 77.3006 7.31201 77.3006 7.29153C77.3599 7.1789 77.271 7.08162 76.9748 7.00482L76.9748 7.37858C77.034 7.48609 77.1229 7.5936 77.271 7.696C77.3303 7.73696 77.3599 7.7728 77.4191 7.80864C77.5673 7.91104 77.7154 8.00831 77.745 8.12606C77.7746 8.22334 77.8339 8.32062 77.8931 8.41277C77.982 8.54589 78.0709 8.67389 78.0413 8.80189C78.0116 9.11419 78.1005 9.42138 78.219 9.72857C78.3079 9.9948 78.3968 10.2559 78.3968 10.5221C78.3968 10.7781 78.456 11.0341 78.4857 11.2901C78.5153 11.4693 78.5449 11.6485 78.5745 11.8277C78.5745 11.8431 78.6042 12.0888 78.6338 12.4472C78.7227 13.4814 78.9004 15.4628 78.9004 15.601C78.8708 15.8314 78.4857 18.079 78.456 18.1148C78.3968 18.294 78.3375 18.4783 78.2783 18.6575C78.219 18.8419 78.1598 19.0262 78.1005 19.2156L78.1005 19.2259C78.0709 19.3078 78.0413 19.405 78.1598 19.4562C78.5153 19.5945 78.3375 19.6969 78.0413 19.8095C78.3671 19.8505 78.3671 19.9375 78.3968 20.0194C78.3968 20.0245 78.3968 20.0297 78.3968 20.0399C78.3968 20.1525 78.4264 20.2242 78.4264 20.2754C78.4264 20.3573 78.4264 20.3727 78.456 20.3881C78.456 20.3932 78.456 20.3932 78.456 20.3983C78.456 20.4034 78.4857 20.4137 78.4857 20.429C78.5153 20.4239 78.5153 20.4136 78.5449 20.4085C78.6042 20.3932 78.6338 20.3727 78.6338 20.3573C78.6634 20.2959 78.6634 20.2396 78.693 20.1781C78.7819 19.9273 78.8708 19.6764 78.9004 19.4255C78.93 19.2873 78.93 19.1439 78.9004 19.0057C78.9004 18.8675 78.9004 18.7241 78.9004 18.5859C78.9004 18.5756 79.2263 16.7018 79.2559 16.6915C79.7595 16.0874 79.5522 15.4628 79.3448 14.8638C79.2559 14.5668 79.1374 14.2699 79.1374 13.9883C79.1078 13.6145 79.1374 13.2408 79.167 12.867C79.1967 12.6827 79.1967 12.4933 79.1967 12.309C79.1967 12.2731 79.2263 12.2322 79.2559 12.181C79.3152 12.099 79.3448 11.9967 79.3448 11.9045C79.2855 11.6127 79.1967 11.4795 79.1078 11.3618C79.0782 11.3157 79.0485 11.2748 79.0189 11.2287C79.0189 11.2031 78.9893 11.157 79.0485 11.1468C79.404 11.0648 79.3744 10.9676 79.3152 10.8652C79.2855 10.8293 79.2855 10.7935 79.2855 10.7577C79.2855 10.5324 79.2855 10.389 79.3152 10.302C79.3152 10.1791 79.3152 10.1535 79.3448 10.1279C79.3448 10.1228 79.3744 10.1177 79.3744 10.1074C79.404 10.0921 79.4337 10.0767 79.4633 10.046C79.4633 10.0614 79.4929 10.0767 79.5225 10.0921C79.5522 10.1177 79.5818 10.1382 79.5818 10.1638C79.7892 11.8431 79.7892 12.0939 79.7595 12.5291C79.7595 12.7441 79.7299 13.0001 79.7299 13.4968C79.7299 13.8961 79.7892 14.2801 79.8484 14.6794C80.0262 15.7853 80.2039 17.0346 79.404 19.2105C79.1078 20.0041 78.9893 20.8027 78.9004 21.6014C78.8708 21.8421 78.8115 22.0827 78.7819 22.3233C78.7523 22.4206 78.7227 22.5179 78.7227 22.6101C78.6634 22.866 78.6338 23.122 78.5745 23.378L78.5745 23.3985C78.5153 23.7467 78.5745 24.0999 78.6042 24.4481C78.6634 24.8474 78.693 25.2416 78.6042 25.641C78.4264 26.4755 78.2486 27.3152 78.5449 28.1599C78.693 28.6002 78.7523 29.0406 78.8115 29.486C78.8412 29.6908 78.8708 29.9007 78.9004 30.1055C78.9004 30.1157 78.9004 30.1208 78.9004 30.126C78.9004 30.1311 78.9004 30.1362 78.9004 30.1413C78.9004 30.1567 78.8708 30.1669 78.8115 30.2181C78.7819 30.2386 78.7523 30.2642 78.693 30.3C78.6634 30.2847 78.6338 30.2693 78.6042 30.2539C78.5449 30.2284 78.4857 30.1976 78.456 30.1669C78.4264 30.1362 78.4264 30.1055 78.4264 30.0748C78.4264 30.0492 78.4264 30.0236 78.3968 29.9928C78.3671 29.9519 78.2783 29.9109 78.219 29.87C78.1894 29.8597 78.1894 29.8495 78.1598 29.8444C78.1005 29.8904 78.0116 29.9314 77.982 29.9775C77.9524 30.0184 77.9228 30.0594 77.8931 30.1004C77.8635 30.1567 77.8043 30.213 77.745 30.2642C77.7154 30.2898 77.5376 30.3205 77.4784 30.3205L77.4784 31.5083L77.508 31.5902C77.6265 32.1329 77.9228 33.4846 77.8635 33.5665C77.8635 33.6126 77.7746 33.7866 77.6858 34.0017C77.6265 34.1706 77.5376 34.3703 77.4784 34.5444L77.4784 36.3721C77.4784 36.3721 77.4784 36.3721 77.508 36.367C77.5376 36.3619 77.5969 36.3517 77.5969 36.3465C77.6265 36.3158 77.6265 36.2902 77.6561 36.2595C77.7746 36.1059 77.8931 35.9523 77.9524 35.7987C77.982 35.7117 77.982 35.6246 77.982 35.5376C77.982 35.4608 77.982 35.384 77.982 35.3072C77.982 35.3021 78.4264 34.2065 78.456 34.2013C79.1374 33.8481 78.8412 33.4794 78.5745 33.1262C78.456 32.9521 78.3079 32.7832 78.3079 32.6193C78.2783 32.3787 78.3375 32.1432 78.3671 31.9025C78.3968 31.8155 78.3968 31.7233 78.4264 31.6363C78.4264 31.6158 78.456 31.5953 78.4857 31.5646C78.5449 31.5134 78.6338 31.452 78.6042 31.3957C78.5153 31.2216 78.3968 31.1448 78.2783 31.0782C78.2486 31.0526 78.1894 31.0322 78.1598 31.0066C78.1301 30.9912 78.1301 30.9656 78.219 30.9605C78.693 30.9144 78.6338 30.853 78.5745 30.7967C78.5449 30.7762 78.5449 30.7557 78.5449 30.7352C78.5745 30.597 78.5745 30.5151 78.5745 30.4639C78.5745 30.3973 78.5745 30.3819 78.6042 30.3666C78.6042 30.3615 78.6338 30.3563 78.6338 30.3512C78.6634 30.3461 78.693 30.3308 78.7523 30.3154C78.7523 30.3205 78.7819 30.3256 78.8115 30.3359C78.8412 30.3512 78.9004 30.3666 78.9004 30.3871C79.1967 31.365 79.167 31.5134 79.1374 31.7694C79.1078 31.8923 79.1078 32.0459 79.1078 32.3377C79.1078 32.5732 79.1967 32.7934 79.2855 33.0289C79.5225 33.674 79.7595 34.4061 78.6634 35.6758C78.2486 36.1417 78.1005 36.6077 78.0116 37.0736C77.982 37.1964 77.9228 37.3244 77.8635 37.4473C77.8339 37.519 77.7746 37.5907 77.745 37.6623C77.6858 37.8159 77.5969 37.9695 77.5673 38.1231L77.5673 38.5378C77.5673 38.5941 77.5969 38.6505 77.5969 38.7068C77.6561 38.9474 77.7154 39.188 77.5969 39.4338L77.5376 39.526L77.5376 40.9646C77.7154 41.195 77.7746 41.4305 77.8339 41.666C77.8635 41.794 77.9228 41.9169 77.9524 42.0449C77.982 42.0961 77.8931 42.1268 77.8339 42.1678C77.745 42.2139 77.6265 42.2651 77.6858 42.3572L77.6858 45.0758C77.4488 45.1834 77.1525 45.3574 76.6785 45.7773C76.6489 45.7977 76.7378 45.8285 76.8563 45.8592C76.9155 45.8745 76.9451 45.8899 76.9748 45.9053C77.0044 45.895 77.034 45.8848 77.034 45.8745C77.0933 45.8438 77.1821 45.8131 77.1525 45.7875C77.0636 45.6185 77.2118 45.4854 77.6265 45.3728L77.6265 45.9155C77.5376 46.0691 77.3895 46.2278 77.2118 46.3712C77.1525 46.4275 77.0636 46.4838 76.9748 46.535C76.7674 46.6835 76.56 46.8268 76.5008 47.0009C76.4711 47.1391 76.3823 47.2774 76.2934 47.4207C76.1749 47.6102 76.0564 47.7996 76.0564 47.989C76.1156 48.4396 75.9675 48.885 75.8194 49.3304C75.7009 49.7144 75.5527 50.0984 75.5527 50.4824C75.5527 50.8561 75.4935 51.2248 75.4046 51.5985C75.3454 51.8596 75.3157 52.1207 75.2861 52.3767C75.2861 52.3972 75.2565 52.7556 75.1972 53.2727C75.0491 54.7728 74.8121 57.6553 74.8417 57.8498C74.8714 58.1826 75.4639 61.449 75.4639 61.4951C75.5231 61.7562 75.612 62.0225 75.7009 62.2836C75.7897 62.5549 75.8786 62.8212 75.9379 63.0925L75.9379 63.1028C75.9675 63.2205 76.0267 63.3639 75.8194 63.4407C75.2861 63.6403 75.5824 63.7939 75.9675 63.9526C75.4935 64.0141 75.4935 64.137 75.4639 64.2598C75.4639 64.2701 75.4639 64.2803 75.4639 64.2854C75.4342 64.4493 75.4342 64.5568 75.4342 64.6285C75.4342 64.7462 75.4342 64.7718 75.4046 64.7923C75.4046 64.7974 75.4046 64.8025 75.375 64.8077C75.375 64.8179 75.3454 64.8333 75.3157 64.8537C75.2861 64.8435 75.2565 64.8333 75.2565 64.823C75.1972 64.7974 75.138 64.7769 75.138 64.7513C75.1084 64.6643 75.0787 64.5773 75.0491 64.4902C74.9306 64.1267 74.8121 63.7581 74.7529 63.3946C74.7232 63.1949 74.7232 62.9901 74.7232 62.7853C74.7232 62.5805 74.7232 62.3809 74.6936 62.1761C74.6936 62.1607 74.2196 59.4421 74.19 59.4216C73.479 58.541 73.7752 57.6399 74.0715 56.7695C74.2196 56.3343 74.3677 55.9094 74.3677 55.4998C74.3974 54.9571 74.3381 54.4144 74.3085 53.8768C74.2789 53.6055 74.2492 53.3341 74.2492 53.0628C74.2492 53.0116 74.2196 52.9501 74.1604 52.8733C74.1011 52.7505 74.0122 52.6071 74.0419 52.4689C74.1307 52.049 74.2492 51.8494 74.3677 51.6804C74.3974 51.6139 74.4566 51.5575 74.4862 51.491C74.5159 51.45 74.5159 51.3886 74.4566 51.3681C73.953 51.2504 74.0122 51.107 74.0715 50.9636C74.1011 50.9124 74.1307 50.8561 74.1011 50.8049C74.0715 50.4773 74.0715 50.2725 74.0715 50.1445C74.0715 49.9653 74.0715 49.9294 74.0419 49.8936C74.0419 49.8834 74.0122 49.8782 74.0122 49.868C73.9826 49.8475 73.953 49.8219 73.8937 49.7758C73.8641 49.7963 73.8641 49.8168 73.8345 49.8373C73.8049 49.8731 73.7456 49.9038 73.7456 49.9397C73.7456 50.0011 73.716 50.0677 73.716 50.1291L73.716 62.3092C73.8049 62.5549 73.8937 62.8109 73.9826 63.0772C74.3974 64.2291 74.6047 65.3862 74.6936 66.5484C74.7232 66.8965 74.8121 67.2498 74.8714 67.598C74.901 67.7362 74.9306 67.8795 74.9602 68.0178C75.0491 68.3864 75.1084 68.7602 75.1676 69.1288L75.1676 69.1595C75.2565 69.6664 75.1972 70.1732 75.138 70.6852C75.0787 71.2638 75.0195 71.8372 75.138 72.4208C75.4046 73.6291 75.6416 74.8528 75.2269 76.0764C75.0195 76.7164 74.9306 77.3563 74.8417 77.9963C74.8121 78.2933 74.7529 78.5953 74.7232 78.8923C74.7232 78.9077 74.7232 78.9128 74.7232 78.923C74.7232 78.9333 74.7232 78.9384 74.7232 78.9435C74.7232 78.964 74.7529 78.9793 74.8714 79.0561C74.9306 79.0868 74.9602 79.1227 75.0491 79.1739C75.0787 79.1534 75.138 79.1329 75.1972 79.1073C75.2861 79.0664 75.375 79.0254 75.4342 78.9845C75.4639 78.9435 75.4935 78.8974 75.4935 78.8513C75.4935 78.8104 75.4935 78.7745 75.5231 78.7336C75.5824 78.6721 75.6712 78.6158 75.7897 78.5595C75.8194 78.5441 75.849 78.5339 75.849 78.5185C75.9379 78.58 76.0564 78.6465 76.1156 78.7131C76.1749 78.7745 76.2045 78.8309 76.2638 78.8923C76.323 78.9742 76.3823 79.0561 76.4415 79.1329C76.5896 79.1636 76.7674 79.2046 76.8859 79.2148L76.9451 79.2148C77.271 79.1585 77.508 79.1124 77.6561 79.0766L77.6561 79.2148L76.9451 79.2148C76.9451 79.2148 76.9155 79.2148 76.8859 79.2148L73.8641 79.2148L72.9753 79.2148L68.2353 79.2148L68.2353 5.48936L71.1978 5.48936ZM77.3599 17.3162C77.271 17.6489 77.2118 17.9152 77.2118 18.1456C77.1821 18.7702 77.1525 19.1542 77.1525 19.3948C77.1525 19.7788 77.1525 19.7941 77.0933 19.8095L77.0933 19.8146L77.0933 19.8197C77.0933 19.8197 77.0933 19.8249 77.0636 19.8249C77.034 19.8402 77.0044 19.8556 76.9748 19.8709L76.9748 18.376L76.9748 18.3708C76.9748 18.3452 77.0044 18.3196 76.9748 18.3043L76.9748 17.6694C76.9748 17.6592 77.0044 17.6438 77.0044 17.6336C77.0636 17.5926 77.0933 17.5465 77.0636 17.5107C77.0636 17.48 77.0044 17.4493 76.9451 17.4185L76.9451 12.7032C76.9748 12.7851 77.0044 12.8619 77.0636 12.9438C77.1229 13.0411 77.1525 13.1384 77.1821 13.2357C77.2118 13.3278 77.1821 13.4251 77.1821 13.5172C77.1525 13.6043 77.1525 13.6862 77.1525 13.7732C77.1821 13.9678 77.271 14.1675 77.3599 14.3774C77.5376 14.7921 77.7154 15.2529 77.5969 15.8365C77.5673 15.9748 77.5673 16.1181 77.5376 16.2564C77.5376 16.369 77.508 16.4816 77.508 16.5943C77.4784 16.8656 77.4191 17.1062 77.3599 17.3162ZM77.9524 20.3471C77.9228 20.3266 77.9228 20.3061 78.0116 20.1013C78.0413 20.0348 78.0709 19.9477 78.1005 19.8402C78.1005 19.9068 78.1005 19.9631 78.1005 20.0092C78.1005 20.2959 78.1005 20.3215 78.0709 20.3471L78.0709 20.3522C78.0709 20.3573 78.0413 20.3676 78.0413 20.3778C78.0413 20.3676 78.0116 20.3573 78.0116 20.3522C77.9524 20.3573 77.9524 20.3522 77.9524 20.3471C77.9524 20.3522 77.9524 20.3522 77.9524 20.3471ZM78.6042 21.6987C78.5745 21.8472 78.5745 21.9598 78.5745 22.0469C78.5745 22.2875 78.5745 22.308 78.5449 22.3285C78.5449 22.3336 78.5449 22.3336 78.5449 22.3336C78.5449 22.3387 78.5449 22.3489 78.5153 22.3592C78.5153 22.3489 78.4857 22.3438 78.4857 22.3387C78.3968 22.2926 78.3671 22.267 78.4264 21.1253C78.4264 21.1048 78.456 21.0792 78.4857 21.0587C78.5153 21.0741 78.5153 21.0792 78.5449 21.0895C78.5449 21.0946 78.5449 21.0946 78.5745 21.0997C78.6338 21.1253 78.6338 21.1509 78.6042 21.4171C78.6042 21.4837 78.6042 21.5758 78.6042 21.6987ZM77.2118 22.4718C77.2118 22.5077 77.2118 22.5384 77.1821 22.5691C77.1229 22.6203 77.034 22.6715 76.9748 22.7227L76.9748 20.5416C77.0636 21.1765 77.1229 21.8114 77.2118 22.4462C77.2118 22.4565 77.2118 22.4616 77.2118 22.4718ZM77.0933 23.0657C77.1229 23.0555 77.1229 23.0401 77.1229 23.0299C77.1821 23.1374 77.1821 23.1476 77.1821 23.2193C77.1821 23.2603 77.1821 23.3268 77.2118 23.4497C77.2414 23.7108 77.271 23.9002 77.3006 24.0436C77.3303 24.2842 77.3599 24.3969 77.3599 24.5095C77.3599 24.6119 77.3303 24.7143 77.3006 24.914C77.3006 24.9549 77.271 25.001 77.271 25.0522C77.271 25.0932 77.2414 25.1392 77.1525 25.1648C77.0933 25.1802 77.034 25.1956 76.9748 25.2109L76.9748 24.1255C77.0933 24.0794 77.0933 24.018 76.9748 23.9412L76.9748 23.3627C77.034 23.3729 77.034 23.3473 77.0044 23.2961C77.0044 23.2551 77.0044 23.1937 77.0044 23.1169C77.034 23.1016 77.0636 23.0811 77.0933 23.0657ZM78.3375 24.9191C78.3375 24.9959 78.3079 25.0727 78.2783 25.1751L78.2783 25.2263L78.2783 25.2519C78.2783 25.2724 78.219 25.2877 78.1598 25.3031C78.1301 25.3082 78.1301 25.3133 78.1005 25.3184C78.0709 25.3082 78.0709 25.298 78.0413 25.2877C78.0116 25.2724 77.982 25.257 77.9524 25.2365C77.9228 25.2212 77.9524 25.2058 77.9524 25.1853C77.9524 25.1751 77.9524 25.17 77.9524 25.1597C77.982 25.0061 78.0116 24.8474 78.0413 24.6938C78.0709 24.5402 78.1005 24.3815 78.1301 24.2279L78.0709 24.2279C78.0709 24.1306 78.0709 24.0487 78.0709 23.9822C78.0709 23.7006 78.0709 23.6443 78.1005 23.5931C78.1005 23.5777 78.1005 23.5675 78.1301 23.547C78.1301 23.5214 78.1598 23.4855 78.1894 23.4292C78.219 23.5009 78.219 23.5777 78.2486 23.6494C78.2486 23.7415 78.2783 23.8286 78.2783 23.9054C78.3375 24.5453 78.3671 24.7348 78.3375 24.9191ZM77.1525 25.385C77.2414 25.3952 77.271 25.4618 77.271 25.4976C77.2414 25.6615 77.0933 26.0301 76.9748 26.3066L76.9748 25.3594C77.034 25.3696 77.0636 25.3748 77.1525 25.385ZM77.7746 26.0813C77.8043 26.0762 77.8635 26.0659 77.9228 26.0557C77.9524 26.0813 77.9524 26.1018 77.982 26.1171C78.0116 26.1632 78.0413 26.1734 78.0116 26.1837C78.0116 26.1888 77.982 26.1888 77.9524 26.1939C77.9228 26.199 77.8931 26.2042 77.8339 26.2144C77.8043 26.1939 77.7746 26.1786 77.745 26.1683C77.6858 26.1274 77.6561 26.1171 77.6858 26.1018C77.6858 26.0967 77.7154 26.0915 77.7746 26.0813ZM78.0709 26.5882C78.1005 26.6138 78.1301 26.6342 78.1598 26.6547C78.1005 26.7571 78.0709 26.8339 78.0413 26.9209C78.0116 26.9005 77.982 26.8749 77.9524 26.8544C77.8931 26.7981 77.8043 26.7418 77.8043 26.6803C77.8043 26.6342 77.8339 26.583 77.8931 26.537C77.9228 26.5165 77.9228 26.5011 77.9524 26.4806C77.982 26.5114 78.0413 26.5523 78.0709 26.5882ZM78.0413 27.264C78.0709 27.2845 78.0709 27.3049 78.0709 27.566C78.0709 27.607 78.0709 27.6531 78.0709 27.7094C78.0709 27.7862 78.0709 27.8476 78.0709 27.904C78.0709 28.1804 78.0709 28.2111 78.0116 28.2419C78.0116 28.247 77.982 28.247 77.982 28.2521C77.9524 28.2623 77.9228 28.2726 77.8931 28.2931C77.8635 28.2777 77.8635 28.2726 77.8339 28.2623L77.8339 28.2572C77.7746 28.2214 77.7746 28.1855 77.8635 27.5763C77.8635 27.4944 77.8931 27.4073 77.8931 27.3049C77.8931 27.2896 77.9228 27.2793 77.9228 27.264C77.9228 27.2537 77.9524 27.2486 77.9524 27.2384C77.982 27.2486 77.982 27.2589 77.982 27.264C78.0116 27.264 78.0413 27.264 78.0413 27.264ZM78.1005 28.5695C78.1301 28.5951 78.1894 28.6207 78.219 28.6412C78.219 28.6566 78.1894 28.6668 78.1894 28.6822C78.1598 28.7129 78.1301 28.7436 78.1301 28.7692C78.1005 28.7385 78.0709 28.7129 78.0709 28.6924C78.0116 28.631 78.0116 28.6156 78.0116 28.6054C78.0116 28.6002 78.0413 28.6002 78.0413 28.5951C78.0709 28.59 78.0709 28.5798 78.1005 28.5695ZM77.5376 36.8739L77.5376 36.9456C77.5673 36.9148 77.5673 36.8944 77.5376 36.8739ZM77.508 68.6322C77.5376 68.6475 77.5376 68.668 77.5673 68.6834C77.5969 68.709 77.6265 68.7294 77.6561 68.755C77.6858 68.8677 77.6858 68.9547 77.6858 69.011C77.6858 69.0878 77.6858 69.1237 77.745 69.1134L77.745 69.948C77.5969 70.0555 77.5673 70.1476 77.745 70.2142L77.745 71.7911C77.6561 71.7706 77.5969 71.7501 77.508 71.7245C77.3895 71.6836 77.3599 71.617 77.3599 71.5556C77.3599 71.4839 77.3303 71.4173 77.3303 71.3559C77.271 71.0692 77.2414 70.9207 77.2414 70.7671C77.2414 70.6033 77.271 70.4395 77.3006 70.0913C77.3303 69.8814 77.3599 69.6101 77.4191 69.2261C77.4488 69.0469 77.4488 68.9547 77.4488 68.8933C77.3895 68.8062 77.3895 68.7858 77.508 68.6322ZM76.9155 59.2885C77.0044 59.6827 77.0933 60.0309 77.1525 60.338C77.271 60.8193 77.3599 61.2084 77.3895 61.5412C77.4191 62.4474 77.4488 63.0055 77.4784 63.3587C77.508 63.9168 77.508 63.9424 77.5376 63.9629C77.5376 63.968 77.5673 63.9731 77.5673 63.9782C77.6265 63.9987 77.6561 64.0192 77.6858 64.0397L77.6858 61.8638L77.6858 61.8586C77.6561 61.8228 77.6561 61.787 77.6858 61.7614L77.6858 60.8449C77.6561 60.8296 77.6561 60.8091 77.6265 60.7937C77.5673 60.7323 77.4784 60.6708 77.508 60.6145C77.5376 60.5684 77.5969 60.5275 77.6561 60.4814L77.6561 53.6362C77.6265 53.7488 77.5673 53.8666 77.508 53.9843C77.4488 54.1277 77.3599 54.2659 77.3303 54.4093C77.3006 54.5475 77.3303 54.6806 77.3599 54.8189C77.4191 54.9469 77.4488 55.0697 77.4191 55.1926C77.3599 55.4793 77.2414 55.766 77.1229 56.0732C76.8859 56.6774 76.5896 57.3481 76.797 58.1928C76.8563 58.3976 76.8563 58.6024 76.8563 58.8072C76.8859 58.9608 76.8859 59.1246 76.9155 59.2885ZM76.323 64.7411C76.3526 64.7104 76.3526 64.6797 76.2638 64.3878C76.2341 64.2906 76.2045 64.1677 76.1452 64.0038C76.1452 64.1011 76.1452 64.183 76.1452 64.2547C76.1749 64.6745 76.1749 64.7104 76.2045 64.7411C76.2045 64.7462 76.2045 64.7462 76.2045 64.7513C76.2045 64.7616 76.2341 64.7718 76.2341 64.7923C76.2638 64.7718 76.2638 64.7616 76.2638 64.7513C76.2934 64.7462 76.323 64.7462 76.323 64.7411ZM75.4342 65.8214C75.375 65.8572 75.375 65.8931 75.375 66.277C75.375 66.3846 75.375 66.5228 75.375 66.6969L75.4046 66.6969C75.4046 66.9119 75.4046 67.0757 75.4046 67.1986C75.4046 67.5416 75.4046 67.5775 75.4342 67.6082L75.4342 67.6133L75.4342 67.6184C75.4342 67.6287 75.4639 67.6389 75.4639 67.6594C75.4935 67.644 75.4935 67.6389 75.5231 67.6287C75.6416 67.557 75.7009 67.5263 75.612 65.8675C75.612 65.8367 75.5824 65.8009 75.5231 65.7702C75.4935 65.7907 75.4639 65.8009 75.4342 65.8111C75.4342 65.8111 75.4342 65.8163 75.4342 65.8214ZM77.3895 67.8232C77.3895 67.8744 77.3895 67.9205 77.4191 67.9666C77.508 68.0434 77.6265 68.1151 77.7154 68.1919L77.7154 65.0278C77.5969 65.9443 77.4784 66.8658 77.3895 67.7874C77.3895 67.7976 77.3895 67.8079 77.3895 67.8232ZM75.8194 71.745C75.7897 71.5914 75.7601 71.4788 75.7305 71.3713C75.7009 71.105 75.7305 70.8337 75.849 69.9121C75.849 69.7995 75.8786 69.6766 75.9082 69.5384C75.9379 69.4309 75.9379 69.3233 75.9971 69.2209C76.0267 69.3029 76.0564 69.3541 76.0564 69.3899C76.0564 69.4155 76.086 69.436 76.086 69.4565C76.1156 69.5384 76.1156 69.6203 76.1156 70.0248C76.1156 70.122 76.1156 70.2398 76.1156 70.3831L76.0267 70.3831C76.086 70.6084 76.1156 70.8337 76.1749 71.059C76.2341 71.2842 76.2638 71.5095 76.323 71.7348C76.323 71.745 76.323 71.7604 76.323 71.7706C76.323 71.7962 76.3526 71.8218 76.323 71.8423C76.2934 71.8679 76.2638 71.8935 76.2045 71.914C76.1749 71.9293 76.1453 71.9447 76.1156 71.9601C76.086 71.9549 76.0564 71.9447 76.0267 71.9396C75.9379 71.914 75.849 71.8884 75.849 71.8628C75.849 71.8167 75.849 71.7809 75.8194 71.745ZM77.3303 72.216C77.3006 72.1597 77.3599 72.0624 77.4784 72.0471C77.5673 72.0368 77.6265 72.0266 77.7154 72.0112L77.7154 73.3834C77.5673 72.984 77.3895 72.4516 77.3303 72.216ZM76.56 73.0608C76.6193 73.0711 76.6785 73.0813 76.7081 73.0915C76.7378 73.1069 76.7081 73.1274 76.6193 73.1837C76.5896 73.2042 76.56 73.2246 76.5008 73.2502C76.4415 73.2349 76.3823 73.2298 76.3526 73.2246C76.323 73.2195 76.2934 73.2144 76.2638 73.2093C76.2341 73.1939 76.2341 73.1786 76.2934 73.112C76.323 73.0864 76.3526 73.0608 76.3823 73.0199C76.4415 73.0403 76.5008 73.0506 76.56 73.0608ZM76.0267 73.8902C76.0564 73.8595 76.086 73.8288 76.1452 73.7929C76.2045 73.7417 76.2638 73.6854 76.323 73.6291C76.3526 73.6547 76.3823 73.6854 76.4119 73.711C76.4711 73.7827 76.56 73.8544 76.5304 73.9209C76.5304 74.0029 76.4119 74.0899 76.323 74.1718C76.2934 74.2025 76.2341 74.2384 76.2045 74.2691C76.1452 74.1513 76.086 74.0336 76.0267 73.8902ZM76.1452 75.2214C76.1452 74.8425 76.1452 74.8118 76.2045 74.7811C76.2045 74.7811 76.2045 74.7811 76.2045 74.776C76.2045 74.776 76.2045 74.776 76.2045 74.7708L76.2045 74.7657C76.2341 74.7555 76.2341 74.7452 76.2638 74.7248C76.2638 74.735 76.2934 74.7504 76.2934 74.7657C76.323 74.7862 76.3526 74.8067 76.3526 74.8272C76.3823 74.9756 76.3823 75.1087 76.4119 75.2265C76.56 76.1071 76.56 76.1634 76.4711 76.2095C76.4711 76.2146 76.4711 76.2146 76.4415 76.2197C76.4119 76.23 76.4119 76.2402 76.3823 76.2607C76.323 76.23 76.2934 76.2146 76.2341 76.2044C76.2045 76.1993 76.2045 76.1941 76.2045 76.189C76.1156 76.1481 76.1156 76.102 76.1156 75.7026C76.1156 75.6258 76.1156 75.5337 76.1156 75.4211C76.1452 75.3494 76.1452 75.2828 76.1452 75.2214ZM76.086 76.6754C76.1156 76.6908 76.1452 76.7061 76.1749 76.7112C76.2045 76.7164 76.2045 76.7215 76.2045 76.7266C76.2341 76.7471 76.2045 76.7624 76.1452 76.8546C76.1156 76.8853 76.086 76.9212 76.0564 76.9672C76.0564 76.9263 75.9971 76.8853 75.9675 76.8392C75.9379 76.8188 75.9379 76.8034 75.9082 76.7829C75.9675 76.7522 76.0267 76.7112 76.086 76.6754ZM77.4191 76.9775C77.4191 76.5474 77.5673 76.1173 77.7154 75.6924L77.7154 78.1346C77.5673 77.7506 77.4488 77.3615 77.4191 76.9775Z" fill="#2A2F39"/>
<path d="M4.70626 8.80218L6.20561 4.18063L6.00299 3.02525C6.07897 2.84749 6.19547 2.64012 6.4842 2.34386C6.49939 2.31424 6.51966 2.40312 6.53992 2.46237C6.55005 2.49199 6.56018 2.52162 6.57031 2.55124C6.56524 2.58087 6.55512 2.58087 6.55005 2.61049C6.52979 2.66974 6.50952 2.69937 6.48926 2.69937C6.37783 2.64012 6.28159 2.72899 6.20561 3.02525L6.57538 3.02525C6.68175 2.966 6.78812 2.87712 6.88943 2.72899C6.92995 2.66974 6.96541 2.64012 7.00087 2.58087C7.10218 2.43274 7.19841 2.28461 7.31491 2.25499C7.41116 2.22536 7.5074 2.16611 7.59858 2.10686C7.73028 2.01799 7.85691 1.92911 7.98355 1.95874C8.29253 1.98836 8.59645 1.89949 8.90037 1.78098C9.16377 1.69211 9.42211 1.60323 9.68551 1.60323C9.93877 1.60323 10.192 1.54398 10.4453 1.51436C10.6226 1.48473 10.7999 1.45511 10.9772 1.42548C10.9924 1.42548 11.3165 1.5736 11.6711 1.54398C12.6943 1.4551 14.6571 1.39585 14.7939 1.39585C15.0218 1.42548 17.162 1.51436 17.1974 1.54398C17.3747 1.60323 17.5571 1.66248 17.7344 1.72173C17.9167 1.78098 18.0991 1.84023 18.2865 1.89948L18.2966 1.89948C18.3777 1.92911 18.4739 1.95873 18.5246 1.84023C18.6613 1.48473 18.7626 1.66248 18.8741 1.95873C18.9146 1.63286 19.0007 1.63286 19.0817 1.60323C19.0868 1.60323 19.0919 1.60323 19.102 1.60323C19.2134 1.60323 19.2844 1.57361 19.335 1.57361C19.4161 1.57361 19.4313 1.57361 19.4465 1.54398C19.4515 1.54398 19.4515 1.54398 19.4566 1.54398C19.4616 1.54398 19.4718 1.51436 19.487 1.51436C19.4819 1.48473 19.4718 1.48473 19.4667 1.4551C19.4515 1.39585 19.4313 1.36623 19.4161 1.36623C19.3553 1.3366 19.2996 1.3366 19.2388 1.30698C18.9906 1.2181 18.7424 1.12923 18.4942 1.0996C18.3574 1.06998 18.2156 1.06998 18.0788 1.0996C17.942 1.0996 17.8002 1.0996 17.6634 1.0996C17.6533 1.0996 15.7994 0.773724 15.7893 0.744098C15.1915 0.240468 14.5736 0.447846 13.9809 0.655223C13.6871 0.744098 13.3933 0.8626 13.1147 0.8626C12.745 0.892225 12.3752 0.8626 12.0054 0.832974C11.8231 0.803349 11.6357 0.803349 11.4533 0.803349C11.4179 0.803349 11.3773 0.773724 11.3267 0.744099C11.2456 0.684848 11.1443 0.655223 11.0532 0.655223C10.7644 0.714473 10.6327 0.803349 10.5162 0.892225C10.4706 0.92185 10.4301 0.951476 10.3845 0.981101C10.3592 0.981101 10.3136 1.01073 10.3035 0.951476C10.2224 0.595972 10.1262 0.625598 10.0249 0.684848C9.98943 0.714473 9.95397 0.714473 9.91852 0.714473C9.69564 0.714473 9.55381 0.714474 9.46769 0.684848C9.34613 0.684848 9.32079 0.684848 9.29547 0.655223C9.2904 0.655223 9.28534 0.625598 9.27521 0.625598C9.26001 0.595972 9.24482 0.566347 9.21443 0.536722C9.22963 0.536722 9.24482 0.507097 9.26001 0.477471C9.28534 0.447846 9.30561 0.418221 9.33093 0.418221C10.9924 0.210844 11.2406 0.210844 11.6711 0.240469C11.8839 0.240469 12.1371 0.270094 12.6285 0.270094C13.0236 0.270094 13.4035 0.210843 13.7986 0.151593C14.8927 -0.0261591 16.1286 -0.203911 18.2814 0.595972C19.0666 0.892224 19.8567 1.01073 20.6469 1.0996C20.885 1.12923 21.1231 1.18848 21.3612 1.2181C21.4574 1.24773 21.5536 1.27735 21.6448 1.27735C21.8981 1.3366 22.1514 1.36623 22.4046 1.42548L22.4249 1.42548C22.7693 1.48473 23.1188 1.42548 23.4633 1.39585C23.8584 1.3366 24.2484 1.30698 24.6435 1.39585C25.4692 1.57361 26.2999 1.75136 27.1357 1.4551C27.5713 1.30698 28.0069 1.24773 28.4476 1.18848C28.6502 1.15885 28.8579 1.12923 29.0605 1.0996C29.0706 1.0996 29.0757 1.0996 29.0807 1.0996C29.0858 1.0996 29.0909 1.0996 29.0959 1.0996C29.1111 1.0996 29.1213 1.12923 29.1719 1.18848C29.1922 1.2181 29.2175 1.24773 29.253 1.30698C29.2378 1.3366 29.2226 1.36623 29.2074 1.39585C29.182 1.4551 29.1517 1.51435 29.1213 1.54398C29.0909 1.57361 29.0605 1.57361 29.0301 1.57361C29.0048 1.57361 28.9794 1.57361 28.949 1.60323C28.9085 1.63286 28.868 1.72173 28.8275 1.78098C28.8173 1.81061 28.8072 1.81061 28.8021 1.84023C28.8477 1.89948 28.8883 1.98836 28.9338 2.01798C28.9744 2.04761 29.0149 2.07724 29.0554 2.10686C29.1111 2.13649 29.1669 2.19574 29.2175 2.25499C29.2428 2.28461 29.2732 2.46236 29.2732 2.52161L30.4484 2.52161L30.5294 2.49199C31.0664 2.37349 32.4036 2.07723 32.4847 2.13649C32.5303 2.13649 32.7025 2.22536 32.9152 2.31424C33.0824 2.37349 33.2799 2.46236 33.4521 2.52161L35.2605 2.52161C35.2605 2.52161 35.2605 2.52161 35.2554 2.49199C35.2503 2.46236 35.2402 2.40311 35.2352 2.40311C35.2048 2.37349 35.1794 2.37349 35.149 2.34386C34.9971 2.22536 34.8451 2.10686 34.6932 2.04761C34.607 2.01798 34.5209 2.01798 34.4348 2.01798C34.3588 2.01798 34.2829 2.01798 34.2069 2.01798C34.2018 2.01798 33.1178 1.5736 33.1128 1.54398C32.7633 0.862598 32.3985 1.15885 32.049 1.42548C31.8768 1.54398 31.7097 1.69211 31.5476 1.69211C31.3095 1.72173 31.0765 1.66248 30.8384 1.63286C30.7523 1.60323 30.6611 1.60323 30.575 1.5736C30.5548 1.5736 30.5345 1.54398 30.5041 1.51435C30.4534 1.4551 30.3927 1.36623 30.3369 1.39585C30.1647 1.48473 30.0887 1.60323 30.0229 1.72173C29.9976 1.75136 29.9773 1.81061 29.952 1.84023C29.9368 1.86986 29.9115 1.86986 29.9064 1.78098C29.8608 1.30698 29.8 1.36623 29.7443 1.42548C29.724 1.4551 29.7038 1.4551 29.6835 1.4551C29.5468 1.42548 29.4657 1.42548 29.4151 1.42548C29.3492 1.42548 29.334 1.42548 29.3188 1.39585C29.3137 1.39585 29.3087 1.36623 29.3036 1.36623C29.2985 1.3366 29.2834 1.30698 29.2682 1.24773C29.2732 1.24773 29.2783 1.2181 29.2884 1.18848C29.3036 1.15885 29.3188 1.0996 29.3391 1.0996C30.3066 0.803348 30.4534 0.832973 30.7067 0.862598C30.8283 0.892223 30.9803 0.892223 31.269 0.892223C31.502 0.892223 31.7198 0.803347 31.9528 0.714472C32.591 0.477469 33.3154 0.240467 34.5716 1.3366C35.0325 1.75136 35.4935 1.89948 35.9544 1.98836C36.076 2.01798 36.2026 2.07723 36.3242 2.13648C36.3951 2.16611 36.466 2.22536 36.5369 2.25499C36.6889 2.31424 36.8409 2.40311 36.9928 2.43274L37.4031 2.43274C37.4588 2.43274 37.5146 2.40311 37.5703 2.40311C37.8084 2.34386 38.0464 2.28461 38.2896 2.40311L38.3807 2.46236L39.8041 2.46236C40.032 2.28461 40.265 2.22536 40.4981 2.16611C40.6247 2.13648 40.7463 2.07723 40.8729 2.04761C40.9235 2.01798 40.9539 2.10686 40.9945 2.16611C41.0401 2.25499 41.0907 2.37349 41.1819 2.31424L43.8716 2.31424C43.978 2.55124 44.1502 2.84749 44.5655 3.3215C44.5858 3.35112 44.6162 3.26224 44.6466 3.14374C44.6618 3.08449 44.677 3.05487 44.6922 3.02524C44.682 2.99562 44.6719 2.96599 44.6618 2.96599C44.6314 2.90674 44.601 2.81787 44.5757 2.84749C44.4085 2.93637 44.2768 2.78824 44.1654 2.37349L44.7023 2.37349C44.8543 2.46236 45.0113 2.61049 45.1531 2.78824C45.2088 2.84749 45.2646 2.93637 45.3152 3.02524C45.4621 3.23262 45.6039 3.44 45.7762 3.49925C45.9129 3.52887 46.0497 3.61775 46.1915 3.70662C46.3789 3.82512 46.5664 3.94363 46.7538 3.94363C47.1995 3.88438 47.6402 4.0325 48.0809 4.18063C48.4608 4.29913 48.8407 4.44726 49.2206 4.44726C49.5904 4.44726 49.9551 4.50651 50.3249 4.59538C50.5832 4.65463 50.8415 4.68426 51.0948 4.71388C51.115 4.71388 51.4696 4.74351 51.9812 4.80276C53.4654 4.95089 56.3172 5.18789 56.5097 5.15826C56.8389 5.12864 60.0706 4.53613 60.1162 4.53613C60.3745 4.47688 60.6379 4.388 60.8963 4.29913C61.1647 4.21025 61.4281 4.12138 61.6966 4.06213L61.7067 4.06213C61.8232 4.0325 61.9651 3.97325 62.041 4.18063C62.2386 4.71388 62.3906 4.41763 62.5476 4.0325C62.6084 4.50651 62.7299 4.50651 62.8515 4.53613C62.8616 4.53613 62.8718 4.53613 62.8768 4.53613C63.0389 4.56576 63.1453 4.56576 63.2162 4.56576C63.3327 4.56576 63.358 4.56576 63.3783 4.59538C63.3834 4.59538 63.3884 4.59538 63.3935 4.62501C63.4036 4.62501 63.4188 4.65463 63.4391 4.68426C63.429 4.71388 63.4188 4.74351 63.4087 4.74351C63.3834 4.80276 63.3631 4.86201 63.3378 4.86201C63.2517 4.89163 63.1656 4.92126 63.0794 4.95088C62.7198 5.06939 62.3551 5.18789 61.9955 5.24714C61.7979 5.27676 61.5953 5.27676 61.3927 5.27676C61.1901 5.27676 60.9925 5.27676 60.7899 5.30639C60.7747 5.30639 58.085 5.78039 58.0647 5.81002C57.1935 6.52102 56.302 6.22477 55.4409 5.92852C55.0103 5.78039 54.5899 5.63227 54.1847 5.63227C53.6477 5.60264 53.1108 5.66189 52.5789 5.69152C52.3105 5.72114 52.042 5.75077 51.7736 5.75077C51.7229 5.75077 51.6621 5.78039 51.5861 5.83964C51.4646 5.89889 51.3227 5.98777 51.186 5.95815C50.7706 5.86927 50.5731 5.75077 50.4059 5.63227C50.3401 5.60264 50.2843 5.54339 50.2185 5.51377C50.178 5.48414 50.1172 5.48414 50.0969 5.54339C49.9804 6.04702 49.8386 5.98777 49.6968 5.92852C49.6461 5.89889 49.5904 5.86927 49.5397 5.8989C49.2155 5.92852 49.0129 5.92852 48.8863 5.92852C48.709 5.92852 48.6735 5.92852 48.6381 5.95815C48.628 5.95815 48.6229 5.98777 48.6128 5.98777C48.5925 6.0174 48.5672 6.04702 48.5216 6.10627C48.5419 6.1359 48.5621 6.1359 48.5824 6.16552C48.6178 6.19515 48.6482 6.2544 48.6837 6.2544C48.7445 6.2544 48.8103 6.28402 48.8711 6.28402L60.9216 6.28402C61.1647 6.19515 61.418 6.10627 61.6814 6.01739C62.8211 5.60264 63.9659 5.39526 65.1157 5.30639C65.4602 5.27676 65.8097 5.18789 66.1541 5.12864C66.2909 5.09901 66.4327 5.06939 66.5695 5.03976C66.9342 4.95088 67.304 4.89163 67.6687 4.83238L67.6991 4.83238C68.2005 4.74351 68.702 4.80276 69.2085 4.86201C69.7809 4.92126 70.3482 4.98051 70.9257 4.86201C72.1211 4.59538 73.3317 4.35838 74.5424 4.77313C75.1755 4.98051 75.8087 5.06938 76.4419 5.15826C77.9658 5.31193 77.2553 5.09804 77.6475 5.4902C77.5059 4.75407 77.5153 4.71735 77.6475 5.4902C77.6475 6.51721 77.6474 5.10888 77.6474 6.13589L77.6474 7.02465L77.6474 11.7647L4.70626 11.7647L4.70626 8.80218ZM16.4072 2.64012C16.7365 2.72899 16.9999 2.78824 17.2278 2.78824C17.8458 2.81787 18.2257 2.84749 18.4638 2.84749C18.8437 2.84749 18.8589 2.84749 18.8741 2.90674L18.8791 2.90674L18.8842 2.90674C18.8842 2.90674 18.8893 2.90674 18.8893 2.93637C18.9045 2.96599 18.9197 2.99562 18.9349 3.02524L17.4558 3.02524L17.4507 3.02524C17.4254 3.02524 17.4 2.99562 17.3849 3.02524L16.7568 3.02524C16.7466 3.02524 16.7314 2.99562 16.7213 2.99562C16.6808 2.93637 16.6352 2.90674 16.5997 2.93637C16.5693 2.93637 16.5389 2.99562 16.5085 3.05487L11.8434 3.05487C11.9244 3.02525 12.0004 2.99562 12.0814 2.93637C12.1777 2.87712 12.2739 2.84749 12.3701 2.81787C12.4613 2.78824 12.5576 2.81787 12.6487 2.81787C12.7349 2.84749 12.8159 2.84749 12.902 2.84749C13.0945 2.81787 13.292 2.72899 13.4997 2.64012C13.91 2.46236 14.3659 2.28461 14.9433 2.40311C15.0801 2.43274 15.2219 2.43274 15.3587 2.46236C15.4702 2.46236 15.5816 2.49199 15.693 2.49199C15.9615 2.52162 16.1996 2.58087 16.4072 2.64012ZM19.4059 2.04761C19.3857 2.07724 19.3654 2.07724 19.1628 1.98836C19.0969 1.95873 19.0108 1.92911 18.9045 1.89948C18.9703 1.89948 19.026 1.89948 19.0716 1.89948C19.3553 1.89948 19.3806 1.89948 19.4059 1.92911L19.411 1.92911C19.4161 1.92911 19.4262 1.95873 19.4363 1.95873C19.4262 1.95873 19.4161 1.98836 19.411 1.98836C19.4161 2.04761 19.411 2.04761 19.4059 2.04761C19.411 2.04761 19.411 2.04761 19.4059 2.04761ZM20.7432 1.39585C20.8901 1.42548 21.0015 1.42548 21.0876 1.42548C21.3257 1.42548 21.346 1.42548 21.3662 1.4551C21.3713 1.4551 21.3713 1.4551 21.3713 1.4551C21.3764 1.4551 21.3865 1.4551 21.3966 1.48473C21.3865 1.48473 21.3814 1.51436 21.3764 1.51436C21.3308 1.60323 21.3054 1.63286 20.1759 1.57361C20.1556 1.57361 20.1303 1.54398 20.11 1.51436C20.1252 1.48473 20.1303 1.48473 20.1404 1.4551C20.1455 1.4551 20.1455 1.4551 20.1505 1.42548C20.1759 1.36623 20.2012 1.36623 20.4646 1.39585C20.5304 1.39585 20.6216 1.39585 20.7432 1.39585ZM21.5081 2.78824C21.5435 2.78824 21.5739 2.78824 21.6043 2.81787C21.6549 2.87712 21.7056 2.96599 21.7563 3.02524L19.5984 3.02524C20.2265 2.93637 20.8546 2.87712 21.4827 2.78824C21.4929 2.78824 21.4979 2.78824 21.5081 2.78824ZM22.0956 2.90674C22.0855 2.87712 22.0703 2.87712 22.0602 2.87712C22.1666 2.81787 22.1767 2.81787 22.2476 2.81787C22.2881 2.81787 22.354 2.81787 22.4755 2.78824C22.7339 2.75862 22.9213 2.72899 23.0631 2.69937C23.3012 2.66974 23.4126 2.64012 23.5241 2.64012C23.6254 2.64012 23.7267 2.66974 23.9242 2.69937C23.9648 2.69937 24.0103 2.72899 24.061 2.72899C24.1015 2.72899 24.1471 2.75862 24.1724 2.84749C24.1876 2.90674 24.2028 2.96599 24.218 3.02524L23.1442 3.02524C23.0986 2.90674 23.0378 2.90674 22.9618 3.02524L22.3894 3.02524C22.3996 2.96599 22.3742 2.96599 22.3236 2.99562C22.283 2.99562 22.2223 2.99562 22.1463 2.99562C22.1311 2.96599 22.1108 2.93637 22.0956 2.90674ZM23.9293 1.66248C24.0053 1.66248 24.0813 1.69211 24.1826 1.72173L24.2332 1.72173L24.2585 1.72173C24.2788 1.72173 24.294 1.78098 24.3092 1.84023C24.3143 1.86986 24.3193 1.86986 24.3244 1.89948C24.3143 1.92911 24.3041 1.92911 24.294 1.95873C24.2788 1.98836 24.2636 2.01798 24.2433 2.04761C24.2282 2.07724 24.213 2.04761 24.1927 2.04761C24.1826 2.04761 24.1775 2.04761 24.1674 2.04761C24.0154 2.01798 23.8584 1.98836 23.7064 1.95873C23.5545 1.92911 23.3974 1.89948 23.2455 1.86986L23.2455 1.92911C23.1492 1.92911 23.0682 1.92911 23.0023 1.92911C22.7237 1.92911 22.668 1.92911 22.6174 1.89948C22.6022 1.89948 22.592 1.89948 22.5718 1.86986C22.5464 1.86986 22.511 1.84023 22.4553 1.81061C22.5262 1.78098 22.6022 1.78098 22.6731 1.75136C22.7643 1.75136 22.8504 1.72173 22.9263 1.72173C23.5595 1.66248 23.7469 1.63286 23.9293 1.66248ZM24.3902 2.84749C24.4004 2.75862 24.4662 2.72899 24.5017 2.72899C24.6638 2.75862 25.0285 2.90674 25.302 3.02524L24.3649 3.02524C24.375 2.96599 24.3801 2.93637 24.3902 2.84749ZM25.0791 2.22536C25.0741 2.19574 25.0639 2.13649 25.0538 2.07724C25.0791 2.04761 25.0994 2.04761 25.1146 2.01798C25.1602 1.98836 25.1703 1.95873 25.1804 1.98836C25.1855 1.98836 25.1855 2.01798 25.1906 2.04761C25.1956 2.07724 25.2007 2.10686 25.2108 2.16611C25.1906 2.19574 25.1754 2.22536 25.1652 2.25499C25.1247 2.31424 25.1146 2.34386 25.0994 2.31424C25.0943 2.31424 25.0893 2.28461 25.0791 2.22536ZM25.5806 1.92911C25.6059 1.89948 25.6262 1.86986 25.6465 1.84023C25.7478 1.89948 25.8237 1.92911 25.9098 1.95873C25.8896 1.98836 25.8643 2.01798 25.844 2.04761C25.7883 2.10686 25.7326 2.19574 25.6718 2.19574C25.6262 2.19574 25.5755 2.16611 25.53 2.10686C25.5097 2.07724 25.4945 2.07724 25.4742 2.04761C25.5046 2.01798 25.5451 1.95873 25.5806 1.92911ZM26.2492 1.95873C26.2695 1.92911 26.2898 1.92911 26.5481 1.92911C26.5886 1.92911 26.6342 1.92911 26.6899 1.92911C26.7659 1.92911 26.8267 1.92911 26.8824 1.92911C27.1559 1.92911 27.1863 1.92911 27.2167 1.98836C27.2218 1.98836 27.2218 2.01798 27.2268 2.01798C27.237 2.04761 27.2471 2.07724 27.2674 2.10686C27.2522 2.13649 27.2471 2.13649 27.237 2.16611L27.2319 2.16611C27.1964 2.22536 27.161 2.22536 26.5582 2.13649C26.4772 2.13649 26.3911 2.10686 26.2897 2.10686C26.2746 2.10686 26.2644 2.07724 26.2492 2.07724C26.2391 2.07724 26.234 2.04761 26.2239 2.04761C26.234 2.01798 26.2442 2.01798 26.2492 2.01798C26.2492 1.98836 26.2492 1.95873 26.2492 1.95873ZM27.5409 1.89948C27.5662 1.86986 27.5916 1.81061 27.6118 1.78098C27.627 1.78098 27.6371 1.81061 27.6523 1.81061C27.6827 1.84023 27.7131 1.86986 27.7385 1.86986C27.7081 1.89948 27.6827 1.92911 27.6625 1.92911C27.6017 1.98836 27.5865 1.98836 27.5764 1.98836C27.5713 1.98836 27.5713 1.95873 27.5662 1.95873C27.5612 1.92911 27.551 1.92911 27.5409 1.89948ZM35.7569 2.46236L35.8278 2.46236C35.7974 2.43274 35.7771 2.43274 35.7569 2.46236ZM67.1773 2.49199C67.1925 2.46236 67.2128 2.46236 67.228 2.43273C67.2533 2.40311 67.2736 2.37348 67.2989 2.34386C67.4103 2.31423 67.4964 2.31423 67.5522 2.31423C67.6281 2.31423 67.6636 2.31423 67.6535 2.25498L68.4791 2.25498C68.5855 2.40311 68.6767 2.43273 68.7425 2.25498L70.3026 2.25498C70.2824 2.34386 70.2621 2.40311 70.2368 2.49199C70.1963 2.61049 70.1304 2.64011 70.0696 2.64011C69.9987 2.64011 69.9329 2.66974 69.8721 2.66974C69.5884 2.72899 69.4415 2.75861 69.2896 2.75861C69.1275 2.75861 68.9654 2.72899 68.6209 2.69936C68.4133 2.66974 68.1448 2.64011 67.7649 2.58086C67.5876 2.55124 67.4964 2.55124 67.4357 2.55124C67.3495 2.61049 67.3293 2.61049 67.1773 2.49199ZM57.933 3.08449C58.3231 2.99562 58.6675 2.90674 58.9714 2.84749C59.4476 2.72899 59.8325 2.64011 60.1618 2.61049C61.0584 2.58086 61.6105 2.55124 61.96 2.52161C62.5121 2.49199 62.5374 2.49199 62.5577 2.46236C62.5628 2.46236 62.5678 2.43273 62.5729 2.43273C62.5932 2.37348 62.6134 2.34386 62.6337 2.31423L60.4809 2.31423L60.4758 2.31423C60.4404 2.34386 60.4049 2.34386 60.3796 2.31423L59.4729 2.31423C59.4577 2.34386 59.4374 2.34386 59.4223 2.37348C59.3615 2.43274 59.3007 2.52161 59.245 2.49199C59.1994 2.46236 59.1589 2.40311 59.1133 2.34386L52.3409 2.34386C52.4523 2.37349 52.5688 2.43274 52.6853 2.49199C52.8271 2.55124 52.9639 2.64011 53.1057 2.66974C53.2425 2.69936 53.3742 2.66974 53.511 2.64011C53.6376 2.58086 53.7592 2.55124 53.8807 2.58086C54.1644 2.64011 54.4481 2.75861 54.752 2.87712C55.3497 3.11412 56.0133 3.41037 56.849 3.20299C57.0517 3.14374 57.2543 3.14374 57.4569 3.14374C57.6089 3.11412 57.7709 3.11412 57.933 3.08449ZM63.3276 3.677C63.2973 3.64737 63.2669 3.64737 62.9781 3.73625C62.8819 3.76587 62.7603 3.7955 62.5982 3.85475C62.6945 3.85475 62.7755 3.85475 62.8464 3.85475C63.2618 3.82512 63.2973 3.82512 63.3276 3.7955C63.3327 3.7955 63.3327 3.7955 63.3378 3.7955C63.3479 3.7955 63.358 3.76587 63.3783 3.76587C63.358 3.73625 63.3479 3.73625 63.3378 3.73625C63.3327 3.70662 63.3327 3.677 63.3276 3.677ZM64.3964 4.56576C64.4319 4.62501 64.4673 4.62501 64.8473 4.62501C64.9536 4.62501 65.0904 4.62501 65.2626 4.62501L65.2626 4.59538C65.4754 4.59538 65.6374 4.59538 65.759 4.59538C66.0984 4.59538 66.1339 4.59538 66.1642 4.56576L66.1693 4.56576L66.1744 4.56576C66.1845 4.56576 66.1946 4.53613 66.2149 4.53613C66.1997 4.5065 66.1946 4.5065 66.1845 4.47688C66.1136 4.35838 66.0832 4.29913 64.442 4.388C64.4116 4.388 64.3762 4.41763 64.3458 4.47688C64.366 4.5065 64.3762 4.53613 64.3863 4.56576C64.3863 4.56576 64.3914 4.56576 64.3964 4.56576ZM66.377 2.61049C66.4276 2.61049 66.4732 2.61049 66.5188 2.58086C66.5948 2.49199 66.6657 2.37348 66.7417 2.28461L63.6113 2.28461C64.518 2.40311 65.4298 2.52161 66.3415 2.61049C66.3517 2.61049 66.3618 2.61049 66.377 2.61049ZM70.2571 4.18063C70.1051 4.21025 69.9937 4.23988 69.8873 4.2695C69.6239 4.29913 69.3554 4.2695 68.4437 4.151C68.3322 4.151 68.2107 4.12138 68.0739 4.09175C67.9675 4.06213 67.8611 4.06213 67.7598 4.00287C67.8409 3.97325 67.8915 3.94362 67.927 3.94362C67.9523 3.94362 67.9726 3.914 67.9928 3.914C68.0739 3.88437 68.1549 3.88437 68.5551 3.88437C68.6513 3.88437 68.7678 3.88437 68.9097 3.88437L68.9097 3.97325C69.1325 3.914 69.3554 3.88437 69.5783 3.82512C69.8012 3.76587 70.0241 3.73625 70.2469 3.677C70.2571 3.677 70.2723 3.677 70.2824 3.677C70.3077 3.677 70.333 3.64737 70.3533 3.677C70.3786 3.70662 70.404 3.73625 70.4242 3.7955C70.4394 3.82512 70.4546 3.85475 70.4698 3.88437C70.4647 3.914 70.4546 3.94362 70.4495 3.97325C70.4242 4.06213 70.3989 4.151 70.3736 4.151C70.328 4.151 70.2925 4.151 70.2571 4.18063ZM70.7231 2.66974C70.6674 2.69936 70.5711 2.64011 70.5559 2.52161C70.5458 2.43273 70.5357 2.37348 70.5205 2.28461L71.878 2.28461C71.4829 2.43273 70.9561 2.61049 70.7231 2.66974ZM71.5589 3.43999C71.569 3.38074 71.5791 3.32149 71.5892 3.29187C71.6044 3.26224 71.6247 3.29187 71.6804 3.38074C71.7007 3.41037 71.7209 3.43999 71.7463 3.49924C71.7311 3.5585 71.726 3.61775 71.7209 3.64737C71.7159 3.677 71.7108 3.70662 71.7058 3.73625C71.6906 3.76587 71.6754 3.76587 71.6095 3.70662C71.5842 3.677 71.5589 3.64737 71.5183 3.61775C71.5386 3.5585 71.5487 3.49924 71.5589 3.43999ZM72.3794 3.97325C72.3491 3.94362 72.3187 3.914 72.2832 3.85475C72.2325 3.7955 72.1768 3.73625 72.1211 3.677C72.1464 3.64737 72.1768 3.61775 72.2022 3.58812C72.2731 3.52887 72.344 3.43999 72.4098 3.46962C72.4909 3.46962 72.577 3.58812 72.658 3.677C72.6884 3.70662 72.7239 3.76587 72.7543 3.7955C72.6378 3.85475 72.5213 3.914 72.3794 3.97325ZM73.6964 3.85475C73.3216 3.85475 73.2912 3.85475 73.2608 3.7955C73.2608 3.7955 73.2608 3.7955 73.2558 3.7955C73.2558 3.7955 73.2557 3.7955 73.2507 3.7955L73.2456 3.7955C73.2355 3.76587 73.2254 3.76587 73.2051 3.73625C73.2152 3.73625 73.2304 3.70662 73.2456 3.70662C73.2659 3.677 73.2861 3.64737 73.3064 3.64737C73.4533 3.61775 73.585 3.61775 73.7015 3.58812C74.5727 3.43999 74.6285 3.43999 74.6741 3.52887C74.6791 3.52887 74.6791 3.52887 74.6842 3.5585C74.6943 3.58812 74.7044 3.58812 74.7247 3.61775C74.6943 3.677 74.6791 3.70662 74.669 3.76587C74.6639 3.7955 74.6589 3.7955 74.6538 3.7955C74.6133 3.88437 74.5677 3.88437 74.1726 3.88437C74.0966 3.88437 74.0054 3.88437 73.894 3.88437C73.8231 3.85475 73.7572 3.85475 73.6964 3.85475ZM75.135 3.914C75.1502 3.88437 75.1654 3.85475 75.1705 3.82512C75.1755 3.7955 75.1806 3.7955 75.1857 3.7955C75.2059 3.76587 75.2211 3.7955 75.3123 3.85475C75.3427 3.88437 75.3781 3.914 75.4237 3.94362C75.3832 3.94362 75.3427 4.00287 75.2971 4.0325C75.2768 4.06212 75.2616 4.06212 75.2414 4.09175C75.211 4.0325 75.1705 3.97325 75.135 3.914ZM75.4339 2.58086C75.0084 2.58086 74.5829 2.43273 74.1624 2.28461L76.5786 2.28461C76.1987 2.43273 75.8138 2.55124 75.4339 2.58086Z" fill="#2A2F39"/>
<path d="M74.5101 75.1197C74.5101 75.1197 75.2944 79.216 74.5101 80.2153C73.7258 81.2145 73.2552 80.8966 73.2552 80.8966C73.1817 81.0744 73.0689 81.2818 72.7895 81.578C72.7748 81.6076 72.7552 81.5188 72.7356 81.4595C72.7258 81.4299 72.716 81.4003 72.7062 81.3706C72.7111 81.341 72.7209 81.341 72.7258 81.3114C72.7454 81.2521 72.765 81.2225 72.7846 81.2225C72.8925 81.2818 72.9856 81.1929 73.0591 80.8966L72.7013 80.8966C72.5983 80.9559 72.4954 81.0448 72.3974 81.1929C72.3581 81.2521 72.3238 81.2818 72.2895 81.341C72.1915 81.4891 72.0983 81.6373 71.9856 81.6669C71.8925 81.6965 71.7993 81.7558 71.7111 81.815C71.5836 81.9039 71.4611 81.9928 71.3385 81.9631C71.0395 81.9335 70.7454 82.0224 70.4513 82.1409C70.1964 82.2298 69.9464 82.3186 69.6915 82.3186C69.4464 82.3186 69.2013 82.3779 68.9562 82.4075C68.7846 82.4371 68.6131 82.4668 68.4415 82.4964C68.4268 82.4964 68.1915 82.526 67.8483 82.5556C66.8581 82.6445 64.9611 82.8223 64.8287 82.8223C64.6081 82.7926 62.4562 82.4075 62.4219 82.3779C62.2503 82.3186 62.0738 82.2594 61.9023 82.2001C61.7258 82.1409 61.5493 82.0816 61.368 82.0224L61.3581 82.0224C61.2797 81.9928 61.1866 81.9631 61.1376 82.0816C61.0052 82.4371 60.9072 82.2594 60.7993 81.9631C60.7601 82.289 60.6768 82.289 60.5983 82.3186C60.5934 82.3186 60.5885 82.3186 60.5787 82.3186C60.4709 82.3186 60.4023 82.3483 60.3532 82.3483C60.2748 82.3483 60.2601 82.3483 60.2454 82.3779C60.2405 82.3779 60.2405 82.3779 60.2356 82.3779C60.2307 82.3779 60.2209 82.4075 60.2062 82.4075C60.2111 82.4371 60.2209 82.4371 60.2258 82.4668C60.2405 82.526 60.2601 82.5556 60.2748 82.5556C60.3336 82.5853 60.3876 82.5853 60.4464 82.6149C60.6866 82.7038 60.9268 82.7926 61.167 82.8223C61.2993 82.8519 61.4366 82.8519 61.5689 82.8223C61.7013 82.8223 61.8385 82.8223 61.9709 82.8223C61.9807 82.8223 63.7748 83.1482 63.7846 83.1778C64.363 83.6814 64.9611 83.474 65.5346 83.2667C65.8189 83.1778 66.1032 83.0593 66.3729 83.0593C66.7307 83.0297 67.0885 83.0593 67.4464 83.0889C67.6229 83.1185 67.8042 83.1185 67.9807 83.1185C68.015 83.1185 68.0542 83.1482 68.1032 83.1778C68.1817 83.237 68.2797 83.2667 68.368 83.2667C68.6474 83.2074 68.7748 83.1185 68.8876 83.0296C68.9317 83 68.9709 82.9704 69.015 82.9408C69.0395 82.9408 69.0836 82.9111 69.0934 82.9704C69.1719 83.3259 69.265 83.2963 69.363 83.237C69.3974 83.2074 69.4317 83.2074 69.466 83.2074C69.6817 83.2074 69.8189 83.2074 69.9023 83.237C70.0199 83.237 70.0444 83.237 70.0689 83.2667C70.0738 83.2667 70.0787 83.2963 70.0885 83.2963C70.1033 83.3259 70.1179 83.3555 70.1474 83.3852C70.1327 83.3852 70.118 83.4148 70.1032 83.4444C70.0787 83.474 70.0591 83.5037 70.0346 83.5037C68.4268 83.711 68.1866 83.711 67.7699 83.6814C67.564 83.6814 67.3189 83.6518 66.8434 83.6518C66.4611 83.6518 66.0934 83.711 65.7111 83.7703C64.6523 83.948 63.4562 84.1258 61.3729 83.3259C60.613 83.0297 59.8484 82.9111 59.0836 82.8223C58.8533 82.7926 58.6228 82.7334 58.3925 82.7038C58.2993 82.6741 58.2062 82.6445 58.118 82.6445C57.8729 82.5853 57.6278 82.5556 57.3827 82.4964L57.363 82.4964C57.0297 82.4371 56.6915 82.4964 56.3581 82.526C55.9758 82.5853 55.5983 82.6149 55.216 82.526C54.417 82.3483 53.6131 82.1705 52.8042 82.4668C52.3827 82.6149 51.9611 82.6741 51.5346 82.7334C51.3385 82.763 51.1376 82.7926 50.9415 82.8223C50.9317 82.8223 50.9268 82.8223 50.9219 82.8223C50.917 82.8223 50.9121 82.8223 50.9072 82.8223C50.8925 82.8223 50.8827 82.7926 50.8336 82.7334C50.814 82.7038 50.7895 82.6741 50.7552 82.6149C50.7699 82.5853 50.7846 82.5556 50.7993 82.526C50.8238 82.4668 50.8532 82.4075 50.8827 82.3779C50.9121 82.3483 50.9415 82.3483 50.9709 82.3483C50.9954 82.3483 51.0199 82.3483 51.0493 82.3186C51.0885 82.289 51.1278 82.2001 51.167 82.1409C51.1768 82.1113 51.1866 82.1113 51.1915 82.0816C51.1474 82.0224 51.1081 81.9335 51.064 81.9039C51.0248 81.8743 50.9856 81.8446 50.9464 81.815C50.8925 81.7854 50.8385 81.7261 50.7895 81.6669C50.765 81.6373 50.7356 81.4595 50.7356 81.4003L49.5983 81.4003L49.5199 81.4299C49.0003 81.5484 47.7062 81.8446 47.6278 81.7854C47.5836 81.7854 47.417 81.6965 47.2111 81.6076C47.0493 81.5484 46.8581 81.4595 46.6915 81.4003L44.9415 81.4003C44.9415 81.4003 44.9415 81.4003 44.9464 81.4299C44.9513 81.4595 44.9611 81.5188 44.966 81.5188C44.9954 81.5484 45.0199 81.5484 45.0493 81.578C45.1964 81.6965 45.3434 81.815 45.4905 81.8743C45.5738 81.9039 45.6572 81.9039 45.7405 81.9039C45.814 81.9039 45.8876 81.9039 45.9611 81.9039C45.966 81.9039 47.015 82.3483 47.0199 82.3779C47.3582 83.0593 47.7111 82.763 48.0493 82.4964C48.216 82.3779 48.3778 82.2298 48.5346 82.2298C48.765 82.2001 48.9905 82.2594 49.2209 82.289C49.3042 82.3186 49.3925 82.3186 49.4758 82.3483C49.4954 82.3483 49.515 82.3779 49.5444 82.4075C49.5934 82.4668 49.6523 82.5556 49.7062 82.526C49.8729 82.4371 49.9464 82.3186 50.0101 82.2001C50.0346 82.1705 50.0542 82.1113 50.0787 82.0816C50.0934 82.052 50.118 82.052 50.1229 82.1409C50.167 82.6149 50.2258 82.5556 50.2797 82.4964C50.2993 82.4668 50.3189 82.4668 50.3385 82.4668C50.4709 82.4964 50.5493 82.4964 50.5983 82.4964C50.6621 82.4964 50.6768 82.4964 50.6915 82.526C50.6964 82.526 50.7013 82.5556 50.7062 82.5556C50.7111 82.5853 50.7258 82.6149 50.7405 82.6741C50.7356 82.6741 50.7307 82.7038 50.7209 82.7334C50.7062 82.763 50.6915 82.8223 50.6719 82.8223C49.7356 83.1185 49.5934 83.0889 49.3483 83.0593C49.2307 83.0297 49.0836 83.0297 48.8042 83.0297C48.5787 83.0297 48.368 83.1185 48.1425 83.2074C47.5248 83.4444 46.8238 83.6814 45.6082 82.5853C45.1621 82.1705 44.716 82.0224 44.2699 81.9335C44.1523 81.9039 44.0297 81.8446 43.9121 81.7854C43.8434 81.7558 43.7748 81.6965 43.7062 81.6669C43.5591 81.6076 43.4121 81.5188 43.265 81.4891L42.868 81.4891C42.814 81.4891 42.7601 81.5188 42.7062 81.5188C42.4758 81.578 42.2454 81.6373 42.0101 81.5188L41.9219 81.4595L40.5444 81.4595C40.3238 81.6373 40.0983 81.6965 39.8729 81.7558C39.7503 81.7854 39.6327 81.8446 39.5101 81.8743C39.4611 81.9039 39.4317 81.815 39.3925 81.7558C39.3483 81.6669 39.2993 81.5484 39.2111 81.6076L36.6081 81.6076C36.5052 81.3706 36.3385 81.0744 35.9366 80.6004C35.917 80.5708 35.8876 80.6596 35.8581 80.7781C35.8434 80.8374 35.8287 80.867 35.814 80.8966C35.8238 80.9263 35.8336 80.9559 35.8434 80.9559C35.8729 81.0151 35.9023 81.104 35.9268 81.0744C36.0885 80.9855 36.216 81.1336 36.3238 81.5484L35.8042 81.5484C35.6572 81.4595 35.5052 81.3114 35.368 81.1336C35.314 81.0744 35.2601 80.9855 35.2111 80.8966C35.0689 80.6893 34.9317 80.4819 34.765 80.4226C34.6327 80.393 34.5003 80.3041 34.363 80.2153C34.1817 80.0967 34.0003 79.9782 33.8189 79.9782C33.3876 80.0375 32.9611 79.8894 32.5346 79.7412C32.167 79.6227 31.7993 79.4746 31.4317 79.4746C31.0738 79.4746 30.7209 79.4154 30.3631 79.3265C30.1131 79.2672 29.8631 79.2376 29.618 79.208C29.5983 79.208 29.2552 79.1784 28.7601 79.1191C27.3238 78.971 24.564 78.734 24.3778 78.7636C24.0591 78.7932 20.9317 79.3857 20.8876 79.3857C20.6376 79.445 20.3827 79.5339 20.1327 79.6227C19.8729 79.7116 19.618 79.8005 19.3581 79.8597L19.3483 79.8597C19.2356 79.8894 19.0983 79.9486 19.0248 79.7412C18.8336 79.208 18.6866 79.5042 18.5346 79.8894C18.4758 79.4154 18.3581 79.4154 18.2405 79.3857C18.2307 79.3857 18.2209 79.3857 18.216 79.3857C18.0591 79.3561 17.9562 79.3561 17.8876 79.3561C17.7748 79.3561 17.7503 79.3561 17.7307 79.3265C17.7258 79.3265 17.7209 79.3265 17.716 79.2969C17.7062 79.2969 17.6915 79.2672 17.6719 79.2376C17.6817 79.208 17.6915 79.1784 17.7013 79.1784C17.7258 79.1191 17.7454 79.0599 17.7699 79.0599C17.8532 79.0302 17.9366 79.0006 18.0199 78.971C18.368 78.8525 18.7209 78.734 19.0689 78.6747C19.2601 78.6451 19.4562 78.6451 19.6523 78.6451C19.8483 78.6451 20.0395 78.6451 20.2356 78.6155C20.2503 78.6155 22.8532 78.1415 22.8729 78.1119C23.716 77.4008 24.5787 77.6971 25.4121 77.9934C25.8287 78.1415 26.2356 78.2896 26.6278 78.2896C27.1474 78.3192 27.667 78.26 28.1817 78.2304C28.4415 78.2007 28.7013 78.1711 28.9611 78.1711C29.0101 78.1711 29.0689 78.1415 29.1425 78.0822C29.2601 78.023 29.3974 77.9341 29.5297 77.9637C29.9317 78.0526 30.1229 78.1711 30.2846 78.2896C30.3483 78.3192 30.4023 78.3785 30.466 78.4081C30.5052 78.4377 30.564 78.4377 30.5836 78.3785C30.6964 77.8749 30.8336 77.9341 30.9709 77.9934C31.0199 78.023 31.0738 78.0526 31.1229 78.023C31.4366 77.9934 31.6327 77.9934 31.7552 77.9934C31.9268 77.9934 31.9611 77.9934 31.9954 77.9637C32.0052 77.9637 32.0101 77.9341 32.0199 77.9341C32.0395 77.9045 32.064 77.8749 32.1081 77.8156C32.0885 77.786 32.0689 77.786 32.0493 77.7564C32.015 77.7267 31.9856 77.6675 31.9513 77.6675C31.8925 77.6675 31.8287 77.6379 31.7699 77.6379L20.1081 77.6379C19.8729 77.7267 19.6278 77.8156 19.3729 77.9045C18.2699 78.3192 17.1621 78.5266 16.0493 78.6155C15.716 78.6451 15.3778 78.734 15.0444 78.7932C14.9121 78.8229 14.7748 78.8525 14.6425 78.8821C14.2895 78.971 13.9317 79.0302 13.5787 79.0895L13.5493 79.0895C13.064 79.1784 12.5787 79.1191 12.0885 79.0599C11.5346 79.0006 10.9856 78.9414 10.4268 79.0599C9.26991 79.3265 8.09835 79.5635 6.92678 79.1487C6.31403 78.9414 5.70129 78.8525 5.08854 78.7636C4.80423 78.734 4.51501 78.6747 4.2307 78.6451C4.21599 78.6451 4.21109 78.6451 4.20129 78.6451C4.19148 78.6451 4.18658 78.6451 4.18168 78.6451C4.16207 78.6451 4.14736 78.6747 4.07384 78.7932C4.04442 78.8525 4.01011 78.8821 3.96109 78.971C3.9807 79.0006 4.00031 79.0599 4.02482 79.1191C4.06403 79.208 4.10325 79.2969 4.14246 79.3561C4.18168 79.3857 4.2258 79.4154 4.26991 79.4154C4.30913 79.4154 4.34344 79.4154 4.38266 79.445C4.44148 79.5042 4.4954 79.5931 4.54933 79.7116C4.56403 79.7412 4.57384 79.7709 4.58854 79.7709C4.52972 79.8597 4.46599 79.9783 4.40227 80.0375C4.34344 80.0968 4.28952 80.1264 4.2307 80.1856C4.15227 80.2449 4.07384 80.3041 4.00031 80.3634C3.97089 80.5115 3.93168 80.6893 3.92187 80.8078L3.92187 80.867C3.9758 81.1929 4.01991 81.4299 4.05423 81.578L3.92187 81.578L3.92187 80.867C3.92187 80.867 3.92187 80.8374 3.92187 80.8078L3.92187 77.786L3.92187 76.8972L3.92187 72.1572L74.5101 72.1572L74.5101 75.1197ZM63.1866 81.2818C62.868 81.1929 62.6131 81.1336 62.3925 81.1336C61.7944 81.104 61.4268 81.0744 61.1964 81.0744C60.8287 81.0744 60.814 81.0744 60.7993 81.0151L60.7944 81.0151L60.7895 81.0151C60.7895 81.0151 60.7846 81.0151 60.7846 80.9855C60.7699 80.9559 60.7552 80.9263 60.7405 80.8966L62.1719 80.8966L62.1768 80.8966C62.2013 80.8966 62.2258 80.9263 62.2405 80.8966L62.8483 80.8966C62.8581 80.8966 62.8729 80.9263 62.8827 80.9263C62.9219 80.9855 62.966 81.0151 63.0003 80.9855C63.0297 80.9855 63.0591 80.9263 63.0885 80.867L67.6032 80.867C67.5248 80.8966 67.4513 80.9263 67.3729 80.9855C67.2797 81.0448 67.1866 81.0744 67.0934 81.104C67.0052 81.1336 66.9121 81.104 66.8238 81.104C66.7405 81.0744 66.6621 81.0744 66.5787 81.0744C66.3925 81.104 66.2013 81.1929 66.0003 81.2818C65.6033 81.4595 65.1621 81.6373 64.6032 81.5188C64.4709 81.4891 64.3336 81.4891 64.2013 81.4595C64.0934 81.4595 63.9856 81.4299 63.8778 81.4299C63.6179 81.4003 63.3876 81.341 63.1866 81.2818ZM60.2846 81.8743C60.3042 81.8446 60.3238 81.8446 60.5199 81.9335C60.5836 81.9631 60.667 81.9928 60.7699 82.0224C60.7062 82.0224 60.6523 82.0224 60.6082 82.0224C60.3336 82.0224 60.3091 82.0224 60.2846 81.9928L60.2797 81.9928C60.2748 81.9928 60.265 81.9631 60.2552 81.9631C60.265 81.9631 60.2748 81.9335 60.2797 81.9335C60.2748 81.8743 60.2797 81.8743 60.2846 81.8743C60.2797 81.8743 60.2797 81.8743 60.2846 81.8743ZM58.9905 82.526C58.8483 82.4964 58.7405 82.4964 58.6572 82.4964C58.4268 82.4964 58.4072 82.4964 58.3876 82.4668C58.3827 82.4668 58.3827 82.4668 58.3827 82.4668C58.3778 82.4668 58.368 82.4668 58.3581 82.4371C58.368 82.4371 58.3729 82.4075 58.3778 82.4075C58.4219 82.3186 58.4464 82.289 59.5395 82.3483C59.5591 82.3483 59.5836 82.3779 59.6033 82.4075C59.5885 82.4371 59.5836 82.4371 59.5738 82.4668C59.5689 82.4668 59.5689 82.4668 59.564 82.4964C59.5395 82.5556 59.515 82.5556 59.2601 82.526C59.1964 82.526 59.1081 82.526 58.9905 82.526ZM58.2503 81.1336C58.216 81.1336 58.1866 81.1336 58.1572 81.104C58.1081 81.0448 58.0591 80.9559 58.0101 80.8966L60.0983 80.8966C59.4905 80.9855 58.8827 81.0448 58.2748 81.1336C58.265 81.1336 58.2601 81.1336 58.2503 81.1336ZM57.6817 81.0151C57.6915 81.0448 57.7062 81.0448 57.716 81.0448C57.613 81.104 57.6032 81.104 57.5346 81.104C57.4954 81.104 57.4317 81.104 57.314 81.1336C57.064 81.1633 56.8827 81.1929 56.7454 81.2225C56.515 81.2521 56.4072 81.2818 56.2993 81.2818C56.2013 81.2818 56.1032 81.2521 55.9121 81.2225C55.8729 81.2225 55.8287 81.1929 55.7797 81.1929C55.7405 81.1929 55.6964 81.1633 55.6719 81.0744C55.6572 81.0151 55.6425 80.9559 55.6278 80.8966L56.667 80.8966C56.7111 81.0151 56.7699 81.0151 56.8434 80.8966L57.3974 80.8966C57.3876 80.9559 57.4121 80.9559 57.4611 80.9263C57.5003 80.9263 57.5591 80.9263 57.6327 80.9263C57.6474 80.9559 57.667 80.9855 57.6817 81.0151ZM55.9072 82.2594C55.8336 82.2594 55.7601 82.2298 55.6621 82.2001L55.6131 82.2001L55.5885 82.2001C55.5689 82.2001 55.5542 82.1409 55.5395 82.0816C55.5346 82.052 55.5297 82.052 55.5248 82.0224C55.5346 81.9928 55.5444 81.9928 55.5542 81.9631C55.5689 81.9335 55.5836 81.9039 55.6032 81.8743C55.618 81.8446 55.6327 81.8743 55.6523 81.8743C55.6621 81.8743 55.667 81.8743 55.6768 81.8743C55.8238 81.9039 55.9758 81.9335 56.1229 81.9631C56.2699 81.9928 56.4219 82.0224 56.5689 82.052L56.5689 81.9928C56.6621 81.9928 56.7405 81.9928 56.8042 81.9928C57.0738 81.9928 57.1278 81.9928 57.1768 82.0224C57.1915 82.0224 57.2013 82.0224 57.2209 82.052C57.2454 82.052 57.2797 82.0816 57.3336 82.1113C57.265 82.1409 57.1915 82.1409 57.1229 82.1705C57.0346 82.1705 56.9513 82.2001 56.8778 82.2001C56.265 82.2594 56.0836 82.289 55.9072 82.2594ZM55.4611 81.0744C55.4513 81.1633 55.3876 81.1929 55.3532 81.1929C55.1964 81.1633 54.8434 81.0151 54.5787 80.8966L55.4856 80.8966C55.4758 80.9559 55.4709 80.9855 55.4611 81.0744ZM54.7944 81.6965C54.7993 81.7261 54.8091 81.7854 54.8189 81.8446C54.7944 81.8743 54.7748 81.8743 54.7601 81.9039C54.716 81.9335 54.7062 81.9631 54.6964 81.9335C54.6915 81.9335 54.6915 81.9039 54.6866 81.8743C54.6817 81.8446 54.6768 81.815 54.667 81.7558C54.6866 81.7261 54.7013 81.6965 54.7111 81.6669C54.7503 81.6076 54.7601 81.578 54.7748 81.6076C54.7797 81.6076 54.7846 81.6373 54.7944 81.6965ZM54.3091 81.9928C54.2846 82.0224 54.265 82.052 54.2454 82.0816C54.1474 82.0224 54.0738 81.9928 53.9905 81.9631C54.0101 81.9335 54.0346 81.9039 54.0542 81.8743C54.1081 81.815 54.1621 81.7261 54.2209 81.7261C54.265 81.7261 54.314 81.7558 54.3581 81.815C54.3778 81.8446 54.3925 81.8446 54.4121 81.8743C54.3827 81.9039 54.3434 81.9631 54.3091 81.9928ZM53.6621 81.9631C53.6425 81.9928 53.6229 81.9928 53.3729 81.9928C53.3336 81.9928 53.2895 81.9928 53.2356 81.9928C53.1621 81.9928 53.1032 81.9928 53.0493 81.9928C52.7846 81.9928 52.7552 81.9928 52.7258 81.9335C52.7209 81.9335 52.7209 81.9039 52.716 81.9039C52.7062 81.8743 52.6964 81.8446 52.6768 81.815C52.6915 81.7854 52.6964 81.7854 52.7062 81.7558L52.7111 81.7558C52.7454 81.6965 52.7797 81.6965 53.363 81.7854C53.4415 81.7854 53.5248 81.815 53.6229 81.815C53.6376 81.815 53.6474 81.8446 53.6621 81.8446C53.6719 81.8446 53.6768 81.8743 53.6866 81.8743C53.6768 81.9039 53.667 81.9039 53.6621 81.9039C53.6621 81.9335 53.6621 81.9631 53.6621 81.9631ZM52.4121 82.0224C52.3876 82.052 52.363 82.1113 52.3434 82.1409C52.3287 82.1409 52.3189 82.1113 52.3042 82.1113C52.2748 82.0816 52.2454 82.052 52.2209 82.052C52.2503 82.0224 52.2748 81.9928 52.2944 81.9928C52.3532 81.9335 52.368 81.9335 52.3778 81.9335C52.3827 81.9335 52.3827 81.9631 52.3876 81.9631C52.3925 81.9928 52.4023 81.9928 52.4121 82.0224ZM44.4611 81.4595L44.3925 81.4595C44.4219 81.4891 44.4415 81.4891 44.4611 81.4595ZM14.0542 81.4299C14.0395 81.4595 14.0199 81.4595 14.0052 81.4891C13.9807 81.5188 13.9611 81.5484 13.9366 81.578C13.8287 81.6076 13.7454 81.6076 13.6915 81.6076C13.618 81.6076 13.5836 81.6076 13.5934 81.6669L12.7944 81.6669C12.6915 81.5188 12.6032 81.4891 12.5395 81.6669L11.0297 81.6669C11.0493 81.578 11.0689 81.5188 11.0934 81.4299C11.1327 81.3114 11.1964 81.2818 11.2552 81.2818C11.3238 81.2818 11.3876 81.2521 11.4464 81.2521C11.7209 81.1929 11.8631 81.1633 12.0101 81.1633C12.167 81.1633 12.3238 81.1929 12.6572 81.2225C12.8581 81.2521 13.118 81.2818 13.4856 81.341C13.6572 81.3706 13.7454 81.3706 13.8042 81.3706C13.8876 81.3114 13.9072 81.3114 14.0542 81.4299ZM23.0003 80.8374C22.6229 80.9263 22.2895 81.0151 21.9954 81.0744C21.5346 81.1929 21.1621 81.2818 20.8434 81.3114C19.9758 81.341 19.4415 81.3706 19.1032 81.4003C18.5689 81.4299 18.5444 81.4299 18.5248 81.4595C18.5199 81.4595 18.515 81.4891 18.5101 81.4891C18.4905 81.5484 18.4709 81.578 18.4513 81.6076L20.5346 81.6076L20.5395 81.6076C20.5738 81.578 20.6081 81.578 20.6327 81.6076L21.5101 81.6076C21.5248 81.578 21.5444 81.578 21.5591 81.5484C21.618 81.4891 21.6768 81.4003 21.7307 81.4299C21.7748 81.4595 21.814 81.5188 21.8581 81.578L28.4121 81.578C28.3042 81.5484 28.1915 81.4891 28.0787 81.4299C27.9415 81.3706 27.8091 81.2818 27.6719 81.2521C27.5395 81.2225 27.4121 81.2521 27.2797 81.2818C27.1572 81.341 27.0395 81.3706 26.9219 81.341C26.6474 81.2818 26.3729 81.1633 26.0787 81.0448C25.5003 80.8078 24.8581 80.5115 24.0493 80.7189C23.8532 80.7781 23.6572 80.7781 23.4611 80.7781C23.314 80.8078 23.1572 80.8078 23.0003 80.8374ZM17.7797 80.2449C17.8091 80.2745 17.8385 80.2745 18.118 80.1856C18.2111 80.156 18.3287 80.1264 18.4856 80.0671C18.3925 80.0671 18.314 80.0671 18.2454 80.0671C17.8434 80.0968 17.8091 80.0968 17.7797 80.1264C17.7748 80.1264 17.7748 80.1264 17.7699 80.1264C17.7601 80.1264 17.7503 80.156 17.7307 80.156C17.7503 80.1856 17.7601 80.1856 17.7699 80.1856C17.7748 80.2153 17.7748 80.2449 17.7797 80.2449ZM16.7454 79.3561C16.7111 79.2969 16.6768 79.2969 16.3091 79.2969C16.2062 79.2969 16.0738 79.2969 15.9072 79.2969L15.9072 79.3265C15.7013 79.3265 15.5444 79.3265 15.4268 79.3265C15.0983 79.3265 15.064 79.3265 15.0346 79.3561L15.0297 79.3561L15.0248 79.3561C15.015 79.3561 15.0052 79.3857 14.9856 79.3857C15.0003 79.4154 15.0052 79.4154 15.015 79.445C15.0836 79.5635 15.1131 79.6227 16.7013 79.5339C16.7307 79.5339 16.765 79.5042 16.7944 79.445C16.7748 79.4154 16.765 79.3857 16.7552 79.3561C16.7552 79.3561 16.7503 79.3561 16.7454 79.3561ZM14.8287 81.3114C14.7797 81.3114 14.7356 81.3114 14.6915 81.341C14.618 81.4299 14.5493 81.5484 14.4758 81.6373L17.5052 81.6373C16.6278 81.5188 15.7454 81.4003 14.8631 81.3114C14.8532 81.3114 14.8434 81.3114 14.8287 81.3114ZM11.0738 79.7412C11.2209 79.7116 11.3287 79.682 11.4317 79.6524C11.6866 79.6227 11.9464 79.6524 12.8287 79.7709C12.9366 79.7709 13.0542 79.8005 13.1866 79.8301C13.2895 79.8597 13.3925 79.8597 13.4905 79.919C13.4121 79.9486 13.3631 79.9783 13.3287 79.9783C13.3042 79.9783 13.2846 80.0079 13.265 80.0079C13.1866 80.0375 13.1081 80.0375 12.7209 80.0375C12.6278 80.0375 12.515 80.0375 12.3778 80.0375L12.3778 79.9486C12.1621 80.0079 11.9464 80.0375 11.7307 80.0968C11.515 80.156 11.2993 80.1856 11.0836 80.2449C11.0738 80.2449 11.0591 80.2449 11.0493 80.2449C11.0248 80.2449 11.0003 80.2745 10.9807 80.2449C10.9562 80.2153 10.9317 80.1856 10.9121 80.1264C10.8974 80.0968 10.8827 80.0671 10.868 80.0375C10.8729 80.0079 10.8827 79.9783 10.8876 79.9486C10.9121 79.8597 10.9366 79.7709 10.9611 79.7709C11.0052 79.7709 11.0395 79.7709 11.0738 79.7412ZM10.6229 81.2521C10.6768 81.2225 10.7699 81.2818 10.7846 81.4003C10.7944 81.4891 10.8042 81.5484 10.8189 81.6373L9.50521 81.6373C9.88756 81.4891 10.3974 81.3114 10.6229 81.2521ZM9.81403 80.4819C9.80423 80.5411 9.79442 80.6004 9.78462 80.63C9.76991 80.6596 9.75031 80.63 9.69638 80.5411C9.67678 80.5115 9.65717 80.4819 9.63266 80.4226C9.64736 80.3634 9.65227 80.3041 9.65717 80.2745C9.66207 80.2449 9.66697 80.2153 9.67187 80.1856C9.68658 80.156 9.70129 80.156 9.76501 80.2153C9.78952 80.2449 9.81403 80.2745 9.85325 80.3041C9.83364 80.3634 9.82383 80.4226 9.81403 80.4819ZM9.01991 79.9486C9.04933 79.9783 9.07874 80.0079 9.11305 80.0671C9.16207 80.1264 9.21599 80.1856 9.26991 80.2449C9.2454 80.2745 9.21599 80.3041 9.19148 80.3338C9.12286 80.393 9.05423 80.4819 8.9905 80.4523C8.91207 80.4523 8.82874 80.3338 8.75031 80.2449C8.72089 80.2153 8.68658 80.156 8.65717 80.1264C8.76991 80.0671 8.88266 80.0079 9.01991 79.9486ZM7.7454 80.0671C8.10815 80.0671 8.13756 80.0671 8.16697 80.1264C8.16697 80.1264 8.16697 80.1264 8.17187 80.1264C8.17187 80.1264 8.17187 80.1264 8.17678 80.1264L8.18168 80.1264C8.19148 80.156 8.20129 80.156 8.22089 80.1856C8.21109 80.1856 8.19638 80.2153 8.18168 80.2153C8.16207 80.2449 8.14246 80.2745 8.12285 80.2745C7.9807 80.3041 7.85325 80.3041 7.7405 80.3338C6.89737 80.4819 6.84344 80.4819 6.79933 80.393C6.79442 80.393 6.79442 80.393 6.78952 80.3634C6.77972 80.3338 6.76991 80.3338 6.75031 80.3041C6.77972 80.2449 6.79442 80.2153 6.80423 80.156C6.80913 80.1264 6.81403 80.1264 6.81893 80.1264C6.85815 80.0375 6.90227 80.0375 7.28462 80.0375C7.35815 80.0375 7.44638 80.0375 7.55423 80.0375C7.62285 80.0671 7.68658 80.0671 7.7454 80.0671ZM6.35325 80.0079C6.33854 80.0375 6.32384 80.0671 6.31893 80.0968C6.31403 80.1264 6.30913 80.1264 6.30423 80.1264C6.28462 80.156 6.26991 80.1264 6.18168 80.0671C6.15227 80.0375 6.11795 80.0079 6.07384 79.9783C6.11305 79.9783 6.15227 79.919 6.19638 79.8894C6.21599 79.8597 6.2307 79.8597 6.25031 79.8301C6.27972 79.8894 6.31893 79.9486 6.35325 80.0079ZM6.06403 81.341C6.4758 81.341 6.88756 81.4891 7.29442 81.6373L4.95619 81.6373C5.32384 81.4891 5.69638 81.3706 6.06403 81.341Z" fill="#2A2F39"/>
</svg>
