<svg width="1048" height="29" viewBox="0 0 1048 29" fill="none" xmlns="http://www.w3.org/2000/svg">
<path d="M6.60701e-07 21.6974V7.45722H18.6311C19.7227 7.01906 21.3966 6.50788 25.5449 5.77761C25.7633 5.70459 26.0544 5.92367 26.3455 6.06972C26.4911 6.14275 26.6367 6.21577 26.7822 6.2888C26.7094 6.36183 26.5639 6.36183 26.4911 6.43485C26.2 6.5809 25.9088 6.65393 25.6177 6.65393C24.0166 6.50788 22.6339 6.72696 21.5422 7.45722H26.855C28.3834 7.31117 29.9116 7.09209 31.3672 6.72696C31.9494 6.5809 32.4589 6.50788 32.9684 6.36183C34.4239 5.99669 35.8066 5.63156 37.4805 5.55854C38.8633 5.48551 40.246 5.33946 41.556 5.1934C43.4483 4.97432 45.2678 4.75525 47.0872 4.82827C51.5266 4.9013 55.8933 4.68222 60.26 4.39011C64.0444 4.17103 67.7562 3.95195 71.5406 3.95195C75.1795 3.95195 78.8184 3.8059 82.4572 3.73288C85.0045 3.65985 87.5517 3.58682 90.0989 3.5138C90.3172 3.5138 93.8105 3.44077 98.905 3.36774C113.606 3.14866 141.771 2.71051 143.736 2.71051C147.011 2.78353 178.961 3.73288 179.47 3.8059C182.017 3.95196 184.637 4.09801 187.184 4.24406C189.804 4.39011 192.424 4.53617 195.117 4.68222H195.263C196.427 4.75525 197.81 4.82827 198.538 4.53617C200.503 3.65985 201.958 4.09801 203.559 4.82827C204.142 4.02498 205.379 4.02498 206.543 3.95195C206.616 3.95195 206.689 3.95195 206.834 3.95195C208.436 3.95195 209.454 3.87893 210.182 3.87893C211.347 3.87893 211.565 3.87893 211.783 3.8059C211.856 3.8059 211.856 3.8059 211.929 3.8059C212.002 3.8059 212.147 3.73288 212.366 3.73288C212.293 3.65985 212.147 3.65985 212.074 3.58682C211.856 3.44077 211.565 3.36774 211.347 3.36774C210.473 3.29472 209.673 3.29472 208.799 3.22169C205.233 3.00261 201.667 2.78353 198.101 2.71051C196.136 2.63748 194.098 2.63748 192.133 2.71051C190.168 2.71051 188.131 2.71051 186.166 2.71051C186.02 2.71051 159.383 1.90722 159.238 1.83419C150.65 0.592742 141.771 1.10393 133.256 1.61511C129.035 1.83419 124.814 2.1263 120.811 2.1263C115.498 2.19932 110.186 2.1263 104.873 2.05327C102.253 1.98024 99.5599 1.98024 96.9399 1.98024C96.4305 1.98024 95.8483 1.90722 95.1205 1.83419C93.9561 1.68814 92.5005 1.61511 91.1905 1.61511C87.0422 1.76116 85.1499 1.98024 83.476 2.19932C82.821 2.27235 82.2388 2.34537 81.5838 2.4184C81.22 2.4184 80.565 2.49143 80.4194 2.34537C79.255 1.46906 77.8722 1.54208 76.4166 1.68814C75.9072 1.76116 75.3978 1.76116 74.8884 1.76116C71.6861 1.76116 69.6483 1.76116 68.4111 1.68814C66.6644 1.68814 66.3005 1.68814 65.9366 1.61511C65.8639 1.61511 65.791 1.54208 65.6455 1.54208C65.4271 1.46906 65.2089 1.39603 64.7722 1.32301C64.9906 1.32301 65.2089 1.24998 65.4272 1.17695C65.7911 1.10393 66.0822 1.0309 66.4461 1.0309C90.3172 0.519715 93.8833 0.519715 100.069 0.592742C103.126 0.592742 106.765 0.665768 113.824 0.665768C119.501 0.665768 124.959 0.519715 130.636 0.373663C146.356 -0.0644957 164.114 -0.502654 195.044 1.46906C206.325 2.19932 217.678 2.49143 229.032 2.71051C232.452 2.78353 235.873 2.92959 239.293 3.00261C240.676 3.07564 242.059 3.14867 243.369 3.14867C247.008 3.29472 250.647 3.36774 254.286 3.5138H254.577C259.526 3.65985 264.547 3.5138 269.496 3.44077C275.173 3.29472 280.777 3.22169 286.453 3.44077C298.316 3.87893 310.252 4.31709 322.26 3.58682C328.519 3.22169 334.778 3.07564 341.109 2.92959C344.021 2.85656 347.004 2.78353 349.916 2.71051C350.061 2.71051 350.134 2.71051 350.207 2.71051C350.279 2.71051 350.352 2.71051 350.425 2.71051C350.643 2.71051 350.789 2.78353 351.517 2.92959C351.808 3.00261 352.172 3.07564 352.681 3.22169C352.463 3.29472 352.244 3.36774 352.026 3.44077C351.662 3.58682 351.226 3.73288 350.789 3.8059C350.352 3.87893 349.916 3.87893 349.479 3.87893C349.115 3.87893 348.751 3.87893 348.314 3.95195C347.732 4.02498 347.15 4.24406 346.568 4.39011C346.422 4.46314 346.277 4.46314 346.204 4.53617C346.859 4.68222 347.441 4.9013 348.096 4.97432C348.678 5.04735 349.261 5.12038 349.843 5.1934C350.643 5.26643 351.444 5.41248 352.172 5.55854C352.536 5.63156 352.972 6.06972 352.972 6.21577H369.857L371.021 6.14275C378.735 5.85064 397.949 5.12038 399.113 5.26643C399.768 5.26643 402.243 5.48551 405.299 5.70459C407.701 5.85064 410.539 6.06972 413.014 6.21577H438.996C438.996 6.21577 438.996 6.21577 438.923 6.14275C438.85 6.06972 438.704 5.92367 438.632 5.92367C438.195 5.85064 437.831 5.85064 437.394 5.77761C435.211 5.48551 433.028 5.1934 430.844 5.04735C429.607 4.97432 428.37 4.97432 427.133 4.97432C426.041 4.97432 424.949 4.97432 423.858 4.97432C423.785 4.97432 408.211 3.87893 408.138 3.8059C403.116 2.1263 397.876 2.85656 392.854 3.5138C390.38 3.8059 387.978 4.17103 385.649 4.17103C382.229 4.24406 378.881 4.09801 375.461 4.02498C374.223 3.95196 372.913 3.95196 371.676 3.87893C371.385 3.87893 371.094 3.8059 370.657 3.73288C369.929 3.58682 369.056 3.36774 368.256 3.44077C365.781 3.65985 364.689 3.95196 363.743 4.24406C363.379 4.31709 363.088 4.46314 362.724 4.53617C362.506 4.60919 362.142 4.60919 362.069 4.39011C361.414 3.22169 360.541 3.36774 359.741 3.5138C359.449 3.58682 359.158 3.58682 358.867 3.58682C356.902 3.5138 355.738 3.5138 355.01 3.5138C354.064 3.5138 353.846 3.5138 353.627 3.44077C353.554 3.44077 353.482 3.36774 353.409 3.36774C353.336 3.29472 353.118 3.22169 352.899 3.07564C352.972 3.07564 353.045 3.00261 353.191 2.92959C353.409 2.85656 353.627 2.71051 353.918 2.71051C367.819 1.98024 369.929 2.05327 373.568 2.1263C375.315 2.19932 377.498 2.19932 381.647 2.19932C384.994 2.19932 388.124 1.98024 391.472 1.76116C400.642 1.17695 411.049 0.592742 429.098 3.29472C435.721 4.31709 442.343 4.68222 448.966 4.9013C450.713 4.97432 452.532 5.12038 454.279 5.26643C455.298 5.33946 456.317 5.48551 457.336 5.55854C459.519 5.70459 461.702 5.92367 463.886 5.99669H469.781C470.581 5.99669 471.382 5.92367 472.182 5.92367C475.603 5.77761 479.023 5.63156 482.517 5.92367L483.827 6.06972H504.277C507.552 5.63156 510.9 5.48551 514.248 5.33946C516.067 5.26643 517.814 5.12038 519.633 5.04735C520.361 4.97432 520.798 5.1934 521.38 5.33946C522.035 5.55854 522.763 5.85064 524.073 5.70459H562.718C564.246 6.2888 566.721 7.01906 572.688 8.18748C572.979 8.26051 573.416 8.04143 573.853 7.74933C574.071 7.60327 574.289 7.53025 574.508 7.45722C574.362 7.38419 574.217 7.31117 574.071 7.31117C573.634 7.16512 573.198 6.94604 572.834 7.01906C570.432 7.23814 568.54 6.87301 566.939 5.85064H574.653C576.837 6.06972 579.093 6.43485 581.131 6.87301C581.931 7.01906 582.732 7.23814 583.459 7.45722C585.57 7.96841 587.608 8.47959 590.082 8.62564C592.047 8.69867 594.012 8.91775 596.05 9.13683C598.743 9.42893 601.436 9.72104 604.128 9.72104C610.533 9.57499 616.864 9.94012 623.196 10.3052C628.654 10.5974 634.113 10.9625 639.571 10.9625C644.884 10.9625 650.124 11.1085 655.437 11.3276C659.148 11.4737 662.86 11.5467 666.499 11.6197C666.79 11.6197 671.884 11.6928 679.235 11.8388C700.559 12.2039 741.533 12.7881 744.298 12.7151C749.029 12.6421 795.461 11.1816 796.116 11.1816C799.828 11.0355 803.612 10.8164 807.324 10.5974C811.181 10.3783 814.966 10.1592 818.823 10.0131H818.968C820.642 9.94012 822.68 9.79406 823.772 10.3052C826.61 11.6197 828.793 10.8895 831.049 9.94012C831.923 11.1085 833.669 11.1085 835.416 11.1816C835.562 11.1816 835.707 11.1816 835.78 11.1816C838.109 11.2546 839.637 11.2546 840.656 11.2546C842.33 11.2546 842.694 11.2546 842.985 11.3276C843.058 11.3276 843.131 11.3276 843.203 11.4006C843.349 11.4006 843.567 11.4737 843.858 11.5467C843.713 11.6197 843.567 11.6927 843.422 11.6927C843.058 11.8388 842.767 11.9849 842.403 11.9849C841.166 12.0579 839.928 12.1309 838.691 12.2039C833.524 12.496 828.284 12.7881 823.117 12.9342C820.278 13.0072 817.367 13.0072 814.456 13.0072C811.545 13.0072 808.707 13.0072 805.796 13.0803C805.577 13.0803 766.932 14.2487 766.641 14.3217C754.123 16.0743 741.314 15.3441 728.942 14.6138C722.756 14.2487 716.716 13.8835 710.893 13.8835C703.179 13.8105 695.464 13.9566 687.823 14.0296C683.966 14.1026 680.108 14.1756 676.251 14.1756C675.523 14.1756 674.65 14.2487 673.558 14.3947C671.812 14.5408 669.774 14.7599 667.809 14.6868C661.841 14.4678 659.003 14.1756 656.601 13.8835C655.655 13.8105 654.854 13.6645 653.908 13.5914C653.326 13.5184 652.453 13.5184 652.162 13.6645C650.488 14.9059 648.45 14.7599 646.412 14.6138C645.684 14.5408 644.884 14.4678 644.156 14.5408C639.498 14.6138 636.587 14.6138 634.768 14.6138C632.221 14.6138 631.711 14.6138 631.202 14.6868C631.056 14.6868 630.983 14.7599 630.838 14.7599C630.547 14.8329 630.183 14.9059 629.528 15.052C629.819 15.125 630.11 15.125 630.401 15.198C630.911 15.271 631.347 15.4171 631.857 15.4171C632.73 15.4171 633.676 15.4901 634.549 15.4901H807.688C811.181 15.271 814.82 15.052 818.604 14.8329C834.979 13.8105 851.427 13.2993 867.948 13.0803C872.897 13.0072 877.918 12.7881 882.867 12.6421C884.832 12.5691 886.87 12.496 888.835 12.423C894.075 12.2039 899.388 12.0579 904.628 11.9118H905.064C912.269 11.6928 919.474 11.8388 926.752 11.9849C934.976 12.1309 943.127 12.277 951.424 11.9849C968.599 11.3276 985.993 10.7434 1003.39 11.7658C1012.48 12.277 1021.58 12.496 1030.68 12.7151C1034.9 12.7881 1039.19 12.9342 1043.41 13.0072C1043.63 13.0072 1043.71 13.0072 1043.85 13.0072C1044 13.0072 1044.07 13.0072 1044.14 13.0072C1044.43 13.0072 1044.65 12.9342 1045.74 12.6421C1046.18 12.496 1046.69 12.423 1047.42 12.2039C1047.13 12.1309 1046.84 11.9849 1046.47 11.8388C1045.89 11.6197 1045.31 11.4006 1044.73 11.2546C1044.14 11.1816 1043.49 11.1085 1042.83 11.1085C1042.25 11.1085 1041.74 11.1085 1041.16 11.0355C1040.29 10.8895 1039.48 10.6704 1038.68 10.3783C1038.47 10.3052 1038.32 10.2322 1038.1 10.2322C1038.98 10.0131 1039.92 9.72104 1040.87 9.57499C1041.74 9.42893 1042.54 9.35591 1043.41 9.20985C1044.58 9.0638 1045.74 8.91775 1046.84 8.7717C1047.27 8.40656 1047.85 7.96841 1048 7.6763V7.53025C1047.2 6.72696 1046.54 6.14275 1046.03 5.77761H1048V7.53025C1048 7.53025 1048 7.60327 1048 7.6763V15.125V17.3158V29H6.60701e-07V21.6974ZM168.117 6.50788C172.847 6.72696 176.632 6.87301 179.907 6.87301C188.785 6.94604 194.244 7.01906 197.664 7.01906C203.123 7.01906 203.341 7.01906 203.559 7.16512H203.632H203.705C203.705 7.16512 203.778 7.16512 203.778 7.23814C203.996 7.31117 204.214 7.38419 204.433 7.45722H183.182H183.109C182.745 7.45722 182.381 7.38419 182.163 7.45722H173.138C172.993 7.45722 172.774 7.38419 172.629 7.38419C172.047 7.23814 171.392 7.16512 170.882 7.23814C170.446 7.23814 170.009 7.38419 169.572 7.53025H102.544C103.708 7.45722 104.8 7.38419 105.964 7.23814C107.347 7.09209 108.73 7.01906 110.113 6.94604C111.423 6.87301 112.806 6.94604 114.116 6.94604C115.353 7.01906 116.517 7.01906 117.754 7.01906C120.52 6.94604 123.358 6.72696 126.342 6.50788C132.237 6.06972 138.787 5.63156 147.084 5.92367C149.049 5.99669 151.087 5.99669 153.052 6.06972C154.653 6.06972 156.254 6.14275 157.855 6.14275C161.712 6.21577 165.133 6.36183 168.117 6.50788ZM211.201 5.04735C210.91 5.12038 210.619 5.12038 207.708 4.9013C206.762 4.82827 205.524 4.75525 203.996 4.68222C204.942 4.68222 205.743 4.68222 206.398 4.68222C210.473 4.68222 210.837 4.68222 211.201 4.75525H211.274C211.347 4.75525 211.492 4.82827 211.638 4.82827C211.492 4.82827 211.347 4.9013 211.274 4.9013C211.347 5.04735 211.274 5.04735 211.201 5.04735C211.274 5.04735 211.274 5.04735 211.201 5.04735ZM230.414 3.44077C232.525 3.5138 234.126 3.5138 235.363 3.5138C238.784 3.5138 239.075 3.5138 239.366 3.58682C239.439 3.58682 239.439 3.58682 239.439 3.58682C239.512 3.58682 239.657 3.58682 239.803 3.65985C239.657 3.65985 239.584 3.73288 239.512 3.73288C238.857 3.95196 238.493 4.02498 222.263 3.87893C221.972 3.87893 221.608 3.8059 221.317 3.73288C221.535 3.65985 221.608 3.65985 221.754 3.58682C221.827 3.58682 221.827 3.58682 221.899 3.5138C222.263 3.36774 222.627 3.36774 226.412 3.44077C227.358 3.44077 228.668 3.44077 230.414 3.44077ZM241.404 6.87301C241.913 6.87301 242.35 6.87301 242.787 6.94604C243.514 7.09209 244.242 7.31117 244.97 7.45722H213.967C222.991 7.23814 232.016 7.09209 241.04 6.87301C241.186 6.87301 241.258 6.87301 241.404 6.87301ZM249.846 7.16512C249.701 7.09209 249.482 7.09209 249.337 7.09209C250.865 6.94604 251.011 6.94604 252.029 6.94604C252.612 6.94604 253.558 6.94604 255.304 6.87301C259.016 6.79998 261.709 6.72696 263.747 6.65393C267.167 6.5809 268.768 6.50788 270.369 6.50788C271.825 6.50788 273.281 6.5809 276.119 6.65393C276.701 6.65393 277.356 6.72696 278.084 6.72696C278.666 6.72696 279.321 6.79998 279.685 7.01906C279.903 7.16512 280.122 7.31117 280.34 7.45722H264.911C264.256 7.16511 263.383 7.16511 262.291 7.45722H254.067C254.213 7.31117 253.849 7.31117 253.121 7.38419C252.539 7.38419 251.666 7.38419 250.574 7.38419C250.356 7.31117 250.064 7.23814 249.846 7.16512ZM276.192 4.09801C277.283 4.09801 278.375 4.17103 279.831 4.24406H280.558H280.922C281.213 4.24406 281.432 4.39011 281.65 4.53617C281.723 4.60919 281.796 4.60919 281.868 4.68222C281.723 4.75525 281.577 4.75525 281.432 4.82827C281.213 4.9013 280.995 4.97432 280.704 5.04735C280.485 5.12038 280.267 5.04735 279.976 5.04735C279.83 5.04735 279.758 5.04735 279.612 5.04735C277.429 4.97432 275.173 4.9013 272.989 4.82827C270.806 4.75525 268.55 4.68222 266.367 4.60919V4.75525C264.984 4.75525 263.819 4.75525 262.873 4.75525C258.87 4.75525 258.07 4.75525 257.342 4.68222C257.124 4.68222 256.978 4.68222 256.687 4.60919C256.323 4.60919 255.814 4.53617 255.013 4.46314C256.032 4.39011 257.124 4.39011 258.143 4.31709C259.453 4.31709 260.69 4.24406 261.782 4.24406C270.879 4.09801 273.572 4.02498 276.192 4.09801ZM282.814 7.01906C282.96 6.79998 283.906 6.72696 284.416 6.72696C286.744 6.79998 291.984 7.16511 295.914 7.45722H282.451C282.596 7.31117 282.669 7.23814 282.814 7.01906ZM292.712 5.48551C292.639 5.41248 292.494 5.26643 292.348 5.12038C292.712 5.04735 293.003 5.04735 293.222 4.97432C293.877 4.9013 294.022 4.82827 294.168 4.9013C294.24 4.9013 294.241 4.97432 294.313 5.04735C294.386 5.12038 294.459 5.1934 294.604 5.33946C294.313 5.41248 294.095 5.48551 293.949 5.55854C293.367 5.70459 293.222 5.77761 293.003 5.70459C292.931 5.70459 292.858 5.63156 292.712 5.48551ZM299.917 4.75525C300.281 4.68222 300.572 4.60919 300.863 4.53617C302.319 4.68222 303.411 4.75525 304.648 4.82827C304.357 4.9013 303.993 4.97432 303.702 5.04735C302.901 5.1934 302.101 5.41248 301.227 5.41248C300.572 5.41248 299.844 5.33946 299.189 5.1934C298.898 5.12038 298.68 5.12038 298.389 5.04735C298.826 4.97432 299.408 4.82827 299.917 4.75525ZM309.524 4.82827C309.815 4.75525 310.106 4.75525 313.818 4.75525C314.4 4.75525 315.055 4.75525 315.856 4.75525C316.947 4.75525 317.821 4.75525 318.621 4.75525C322.551 4.75525 322.988 4.75525 323.424 4.9013C323.497 4.9013 323.497 4.97432 323.57 4.97432C323.716 5.04735 323.861 5.12038 324.152 5.1934C323.934 5.26643 323.861 5.26643 323.716 5.33946H323.643C323.133 5.48551 322.624 5.48551 313.963 5.26643C312.799 5.26643 311.562 5.1934 310.106 5.1934C309.888 5.1934 309.742 5.12038 309.524 5.12038C309.378 5.12038 309.306 5.04735 309.16 5.04735C309.306 4.97432 309.451 4.97432 309.524 4.97432C309.524 4.9013 309.524 4.82827 309.524 4.82827ZM328.082 4.68222C328.446 4.60919 328.81 4.46314 329.101 4.39011C329.319 4.39011 329.465 4.46314 329.683 4.46314C330.12 4.53617 330.557 4.60919 330.921 4.60919C330.484 4.68222 330.12 4.75525 329.829 4.75525C328.956 4.9013 328.737 4.9013 328.592 4.9013C328.519 4.9013 328.519 4.82827 328.446 4.82827C328.373 4.75525 328.228 4.75525 328.082 4.68222ZM446.128 6.06972H447.147C446.71 5.99669 446.419 5.99669 446.128 6.06972ZM897.568 6.14275C897.787 6.06972 898.078 6.06972 898.296 5.99669C898.66 5.92367 898.951 5.85064 899.315 5.77761C900.916 5.70459 902.153 5.70459 902.954 5.70459C904.046 5.70459 904.555 5.70459 904.409 5.55854H916.272C917.801 5.92367 919.111 5.99669 920.057 5.55854H942.472C942.181 5.77761 941.89 5.92367 941.526 6.14275C940.944 6.43485 939.998 6.50788 939.124 6.50788C938.106 6.50788 937.159 6.5809 936.286 6.5809C932.211 6.72696 930.1 6.79998 927.917 6.79998C925.588 6.79998 923.259 6.72696 918.31 6.65393C915.326 6.5809 911.469 6.50788 906.011 6.36183C903.463 6.2888 902.153 6.2888 901.28 6.2888C900.043 6.43485 899.752 6.43485 897.568 6.14275ZM764.749 7.60327C770.353 7.38419 775.302 7.16512 779.668 7.01906C786.509 6.72696 792.041 6.50788 796.771 6.43485C809.653 6.36183 817.586 6.2888 822.607 6.21577C830.54 6.14275 830.904 6.14275 831.195 6.06972C831.268 6.06972 831.341 5.99669 831.413 5.99669C831.704 5.85064 831.996 5.77761 832.287 5.70459H801.356H801.283C800.774 5.77761 800.264 5.77761 799.901 5.70459H786.873C786.655 5.77761 786.364 5.77761 786.146 5.85064C785.272 5.99669 784.399 6.21577 783.598 6.14275C782.943 6.06972 782.361 5.92367 781.706 5.77761H684.402C686.003 5.85064 687.677 5.99669 689.351 6.14275C691.389 6.2888 693.354 6.50788 695.392 6.5809C697.357 6.65393 699.249 6.5809 701.214 6.50788C703.033 6.36183 704.78 6.2888 706.527 6.36183C710.602 6.50788 714.678 6.79998 719.044 7.09209C727.632 7.6763 737.166 8.40656 749.174 7.89538C752.086 7.74933 754.997 7.74933 757.908 7.74933C760.091 7.6763 762.42 7.6763 764.749 7.60327ZM842.257 9.0638C841.821 8.99077 841.384 8.99077 837.236 9.20985C835.853 9.28288 834.106 9.35591 831.777 9.50196C833.16 9.50196 834.324 9.50196 835.343 9.50196C841.311 9.42893 841.821 9.42893 842.257 9.35591C842.33 9.35591 842.33 9.35591 842.403 9.35591C842.548 9.35591 842.694 9.28288 842.985 9.28288C842.694 9.20985 842.548 9.20985 842.403 9.20985C842.33 9.13683 842.33 9.0638 842.257 9.0638ZM857.613 11.2546C858.123 11.4006 858.632 11.4006 864.091 11.4006C865.619 11.4006 867.584 11.4006 870.058 11.4006V11.3276C873.115 11.3276 875.444 11.3276 877.191 11.3276C882.067 11.3276 882.576 11.3276 883.013 11.2546H883.086H883.158C883.304 11.2546 883.449 11.1816 883.741 11.1816C883.522 11.1085 883.449 11.1085 883.304 11.0355C882.285 10.7434 881.848 10.5974 858.268 10.8164C857.832 10.8164 857.322 10.8895 856.886 11.0355C857.177 11.1085 857.322 11.1816 857.468 11.2546C857.468 11.2546 857.541 11.2546 857.613 11.2546ZM886.069 6.43485C886.797 6.43485 887.452 6.43485 888.107 6.36183C889.199 6.14275 890.218 5.85064 891.309 5.63156H846.333C859.36 5.92367 872.46 6.21577 885.56 6.43485C885.706 6.43485 885.851 6.43485 886.069 6.43485ZM941.817 10.3052C939.634 10.3783 938.033 10.4513 936.504 10.5243C932.72 10.5974 928.863 10.5243 915.763 10.2322C914.162 10.2322 912.415 10.1592 910.45 10.0862C908.922 10.0131 907.393 10.0131 905.938 9.86709C907.102 9.79406 907.83 9.72104 908.339 9.72104C908.703 9.72104 908.994 9.64801 909.286 9.64801C910.45 9.57499 911.614 9.57499 917.364 9.57499C918.747 9.57499 920.421 9.57499 922.458 9.57499V9.79406C925.661 9.64801 928.863 9.57499 932.065 9.42893C935.267 9.28288 938.469 9.20985 941.672 9.0638C941.817 9.0638 942.036 9.0638 942.181 9.0638C942.545 9.0638 942.909 8.99077 943.2 9.0638C943.564 9.13683 943.928 9.20985 944.219 9.35591C944.437 9.42893 944.656 9.50196 944.874 9.57499C944.801 9.64801 944.656 9.72104 944.583 9.79406C944.219 10.0131 943.855 10.2322 943.491 10.2322C942.836 10.2322 942.327 10.2322 941.817 10.3052ZM948.513 6.5809C947.712 6.65393 946.329 6.50788 946.111 6.21577C945.966 5.99669 945.82 5.85064 945.602 5.63156H965.106C959.429 5.99669 951.861 6.43485 948.513 6.5809ZM960.521 8.47959C960.667 8.33354 960.812 8.18748 960.958 8.11446C961.176 8.04143 961.467 8.11446 962.268 8.33354C962.559 8.40656 962.85 8.47959 963.214 8.62564C962.996 8.7717 962.923 8.91775 962.85 8.99078C962.777 9.0638 962.704 9.13683 962.632 9.20985C962.413 9.28288 962.195 9.28288 961.249 9.13683C960.885 9.0638 960.521 8.99077 959.939 8.91775C960.23 8.7717 960.376 8.62564 960.521 8.47959ZM972.311 9.79406C971.874 9.72104 971.438 9.64801 970.928 9.50196C970.201 9.35591 969.4 9.20985 968.599 9.0638C968.963 8.99077 969.4 8.91775 969.764 8.84472C970.783 8.69867 971.802 8.47959 972.748 8.55262C973.912 8.55262 975.149 8.84472 976.314 9.0638C976.751 9.13683 977.26 9.28288 977.697 9.35591C976.023 9.50196 974.349 9.64801 972.311 9.79406ZM991.233 9.50196C985.848 9.50196 985.411 9.50196 984.974 9.35591C984.974 9.35591 984.974 9.35591 984.902 9.35591C984.902 9.35591 984.902 9.35591 984.829 9.35591H984.756C984.611 9.28288 984.465 9.28288 984.174 9.20985C984.319 9.20985 984.538 9.13683 984.756 9.13683C985.047 9.0638 985.338 8.99078 985.629 8.99078C987.74 8.91775 989.632 8.91775 991.306 8.84472C1003.82 8.47959 1004.62 8.47959 1005.28 8.69867C1005.35 8.69867 1005.35 8.69867 1005.42 8.7717C1005.57 8.84472 1005.72 8.84472 1006.01 8.91775C1005.57 9.0638 1005.35 9.13683 1005.21 9.28288C1005.13 9.35591 1005.06 9.35591 1004.99 9.35591C1004.41 9.57499 1003.75 9.57499 998.074 9.57499C996.983 9.57499 995.673 9.57499 994.072 9.57499C993.053 9.50196 992.107 9.50196 991.233 9.50196ZM1011.9 9.64801C1012.12 9.57499 1012.34 9.50196 1012.41 9.42893C1012.48 9.35591 1012.56 9.35591 1012.63 9.35591C1012.92 9.28288 1013.14 9.35591 1014.45 9.50196C1014.89 9.57499 1015.4 9.64801 1016.05 9.72104C1015.47 9.72104 1014.89 9.86709 1014.23 9.94012C1013.94 10.0131 1013.72 10.0131 1013.43 10.0862C1012.99 9.94012 1012.41 9.79406 1011.9 9.64801ZM1016.2 6.36183C1010.08 6.36183 1003.97 5.99669 997.929 5.63156H1032.64C1027.19 5.99669 1021.65 6.2888 1016.2 6.36183Z" fill="#21242C"/>
</svg>
