<svg width="1048" height="17"  fill="none" xmlns="http://www.w3.org/2000/svg">
<path d="M6.60701e-07 12.7191V4.37147H18.6311C19.7227 4.11462 21.3966 3.81496 25.5449 3.38688C25.7633 3.34407 26.0544 3.47249 26.3455 3.55811C26.4911 3.60092 26.6367 3.64373 26.7822 3.68654C26.7094 3.72935 26.5639 3.72935 26.4911 3.77215C26.2 3.85777 25.9088 3.90058 25.6177 3.90058C24.0166 3.81496 22.6339 3.94339 21.5422 4.37147H26.855C28.3834 4.28586 29.9116 4.15743 31.3672 3.94339C31.9494 3.85777 32.4589 3.81496 32.9684 3.72935C34.4239 3.5153 35.8066 3.30126 37.4805 3.25845C38.8633 3.21564 40.246 3.13003 41.556 3.04441C43.4483 2.91598 45.2678 2.78756 47.0872 2.83037C51.5266 2.87317 55.8933 2.74475 60.26 2.57351C64.0444 2.44509 67.7562 2.31666 71.5406 2.31666C75.1795 2.31666 78.8184 2.23105 82.4572 2.18824C85.0045 2.14543 87.5517 2.10262 90.0989 2.05981C90.3172 2.05981 93.8105 2.017 98.905 1.97419C113.606 1.84577 141.771 1.58892 143.736 1.58892C147.011 1.63173 178.961 2.18824 179.47 2.23105C182.017 2.31666 184.637 2.40228 187.184 2.4879C189.804 2.57351 192.424 2.65913 195.117 2.74475H195.263C196.427 2.78756 197.81 2.83037 198.538 2.65913C200.503 2.14543 201.958 2.40228 203.559 2.83037C204.142 2.35947 205.379 2.35947 206.543 2.31666C206.616 2.31666 206.689 2.31666 206.834 2.31666C208.436 2.31666 209.454 2.27385 210.182 2.27385C211.347 2.27385 211.565 2.27385 211.783 2.23105C211.856 2.23105 211.856 2.23105 211.929 2.23105C212.002 2.23105 212.147 2.18824 212.366 2.18824C212.293 2.14543 212.147 2.14543 212.074 2.10262C211.856 2.017 211.565 1.97419 211.347 1.97419C210.473 1.93139 209.673 1.93139 208.799 1.88858C205.233 1.76015 201.667 1.63173 198.101 1.58892C196.136 1.54611 194.098 1.54611 192.133 1.58892C190.168 1.58892 188.131 1.58892 186.166 1.58892C186.02 1.58892 159.383 1.11802 159.238 1.07521C150.65 0.347469 141.771 0.647129 133.256 0.946789C129.035 1.07521 124.814 1.24645 120.811 1.24645C115.498 1.28926 110.186 1.24645 104.873 1.20364C102.253 1.16083 99.5599 1.16083 96.9399 1.16083C96.4305 1.16083 95.8483 1.11802 95.1205 1.07521C93.9561 0.989598 92.5005 0.946789 91.1905 0.946789C87.0422 1.03241 85.1499 1.16083 83.476 1.28926C82.821 1.33207 82.2388 1.37487 81.5838 1.41768C81.22 1.41768 80.565 1.46049 80.4194 1.37487C79.255 0.861172 77.8722 0.903981 76.4166 0.989598C75.9072 1.03241 75.3978 1.03241 74.8884 1.03241C71.6861 1.03241 69.6483 1.03241 68.4111 0.989598C66.6644 0.989598 66.3005 0.989598 65.9366 0.946789C65.8639 0.946789 65.791 0.903981 65.6455 0.903981C65.4271 0.861172 65.2089 0.818363 64.7722 0.775555C64.9906 0.775555 65.2089 0.732746 65.4272 0.689938C65.7911 0.647129 66.0822 0.604321 66.4461 0.604321C90.3172 0.304661 93.8833 0.304661 100.069 0.347469C103.126 0.347469 106.765 0.390278 113.824 0.390278C119.501 0.390278 124.959 0.304661 130.636 0.219044C146.356 -0.0378078 164.114 -0.294659 195.044 0.861172C206.325 1.28926 217.678 1.46049 229.032 1.58892C232.452 1.63173 235.873 1.71734 239.293 1.76015C240.676 1.80296 242.059 1.84577 243.369 1.84577C247.008 1.93139 250.647 1.97419 254.286 2.05981H254.577C259.526 2.14543 264.547 2.05981 269.496 2.017C275.173 1.93139 280.777 1.88858 286.453 2.017C298.316 2.27385 310.252 2.53071 322.26 2.10262C328.519 1.88858 334.778 1.80296 341.109 1.71734C344.021 1.67453 347.004 1.63173 349.916 1.58892C350.061 1.58892 350.134 1.58892 350.207 1.58892C350.279 1.58892 350.352 1.58892 350.425 1.58892C350.643 1.58892 350.789 1.63173 351.517 1.71734C351.808 1.76015 352.172 1.80296 352.681 1.88858C352.463 1.93139 352.244 1.97419 352.026 2.017C351.662 2.10262 351.226 2.18824 350.789 2.23105C350.352 2.27385 349.916 2.27385 349.479 2.27385C349.115 2.27385 348.751 2.27385 348.314 2.31666C347.732 2.35947 347.15 2.4879 346.568 2.57351C346.422 2.61632 346.277 2.61632 346.204 2.65913C346.859 2.74475 347.441 2.87317 348.096 2.91598C348.678 2.95879 349.261 3.0016 349.843 3.04441C350.643 3.08722 351.444 3.17283 352.172 3.25845C352.536 3.30126 352.972 3.55811 352.972 3.64373H369.857L371.021 3.60092C378.735 3.42969 397.949 3.0016 399.113 3.08722C399.768 3.08722 402.243 3.21564 405.299 3.34407C407.701 3.42969 410.539 3.55811 413.014 3.64373H438.996C438.996 3.64373 438.996 3.64373 438.923 3.60092C438.85 3.55811 438.704 3.47249 438.632 3.47249C438.195 3.42969 437.831 3.42969 437.394 3.38688C435.211 3.21564 433.028 3.04441 430.844 2.95879C429.607 2.91598 428.37 2.91598 427.133 2.91598C426.041 2.91598 424.949 2.91598 423.858 2.91598C423.785 2.91598 408.211 2.27385 408.138 2.23105C403.116 1.24645 397.876 1.67453 392.854 2.05981C390.38 2.23105 387.978 2.44509 385.649 2.44509C382.229 2.4879 378.881 2.40228 375.461 2.35947C374.223 2.31666 372.913 2.31666 371.676 2.27385C371.385 2.27385 371.094 2.23105 370.657 2.18824C369.929 2.10262 369.056 1.97419 368.256 2.017C365.781 2.14543 364.689 2.31666 363.743 2.4879C363.379 2.53071 363.088 2.61632 362.724 2.65913C362.506 2.70194 362.142 2.70194 362.069 2.57351C361.414 1.88858 360.541 1.97419 359.741 2.05981C359.449 2.10262 359.158 2.10262 358.867 2.10262C356.902 2.05981 355.738 2.05981 355.01 2.05981C354.064 2.05981 353.846 2.05981 353.627 2.017C353.554 2.017 353.482 1.97419 353.409 1.97419C353.336 1.93139 353.118 1.88858 352.899 1.80296C352.972 1.80296 353.045 1.76015 353.191 1.71734C353.409 1.67453 353.627 1.58892 353.918 1.58892C367.819 1.16083 369.929 1.20364 373.568 1.24645C375.315 1.28926 377.498 1.28926 381.647 1.28926C384.994 1.28926 388.124 1.16083 391.472 1.03241C400.642 0.689938 411.049 0.347469 429.098 1.93139C435.721 2.53071 442.343 2.74475 448.966 2.87317C450.713 2.91598 452.532 3.0016 454.279 3.08722C455.298 3.13003 456.317 3.21564 457.336 3.25845C459.519 3.34407 461.702 3.47249 463.886 3.5153H469.781C470.581 3.5153 471.382 3.47249 472.182 3.47249C475.603 3.38688 479.023 3.30126 482.517 3.47249L483.827 3.55811H504.277C507.552 3.30126 510.9 3.21564 514.248 3.13003C516.067 3.08722 517.814 3.0016 519.633 2.95879C520.361 2.91598 520.798 3.04441 521.38 3.13003C522.035 3.25845 522.763 3.42969 524.073 3.34407H562.718C564.246 3.68654 566.721 4.11462 572.688 4.79956C572.979 4.84237 573.416 4.71394 573.853 4.54271C574.071 4.45709 574.289 4.41428 574.508 4.37147C574.362 4.32867 574.217 4.28586 574.071 4.28586C573.634 4.20024 573.198 4.07181 572.834 4.11462C570.432 4.24305 568.54 4.02901 566.939 3.42969H574.653C576.837 3.55811 579.093 3.77215 581.131 4.02901C581.931 4.11462 582.732 4.24305 583.459 4.37147C585.57 4.67113 587.608 4.97079 590.082 5.05641C592.047 5.09922 594.012 5.22765 596.05 5.35607C598.743 5.52731 601.436 5.69854 604.128 5.69854C610.533 5.61292 616.864 5.82697 623.196 6.04101C628.654 6.21224 634.113 6.42629 639.571 6.42629C644.884 6.42629 650.124 6.5119 655.437 6.64033C659.148 6.72595 662.86 6.76875 666.499 6.81156C666.79 6.81156 671.884 6.85437 679.235 6.93999C700.559 7.15403 741.533 7.4965 744.298 7.45369C749.029 7.41088 795.461 6.55471 796.116 6.55471C799.828 6.46909 803.612 6.34067 807.324 6.21224C811.181 6.08382 814.966 5.95539 818.823 5.86977H818.968C820.642 5.82697 822.68 5.74135 823.772 6.04101C826.61 6.81156 828.793 6.38348 831.049 5.82697C831.923 6.5119 833.669 6.5119 835.416 6.55471C835.562 6.55471 835.707 6.55471 835.78 6.55471C838.109 6.59752 839.637 6.59752 840.656 6.59752C842.33 6.59752 842.694 6.59752 842.985 6.64033C843.058 6.64033 843.131 6.64033 843.203 6.68314C843.349 6.68314 843.567 6.72595 843.858 6.76875C843.713 6.81156 843.567 6.85437 843.422 6.85437C843.058 6.93999 842.767 7.02561 842.403 7.02561C841.166 7.06841 839.928 7.11122 838.691 7.15403C833.524 7.32527 828.284 7.4965 823.117 7.58212C820.278 7.62492 817.367 7.62493 814.456 7.62493C811.545 7.62493 808.707 7.62493 805.796 7.66773C805.577 7.66773 766.932 8.35267 766.641 8.39548C754.123 9.42288 741.314 8.9948 728.942 8.56671C722.756 8.35267 716.716 8.13863 710.893 8.13863C703.179 8.09582 695.464 8.18144 687.823 8.22424C683.966 8.26705 680.108 8.30986 676.251 8.30986C675.523 8.30986 674.65 8.35267 673.558 8.43829C671.812 8.5239 669.774 8.65233 667.809 8.60952C661.841 8.4811 659.003 8.30986 656.601 8.13863C655.655 8.09582 654.854 8.0102 653.908 7.96739C653.326 7.92458 652.453 7.92459 652.162 8.0102C650.488 8.73795 648.45 8.65233 646.412 8.56671C645.684 8.5239 644.884 8.4811 644.156 8.52391C639.498 8.56671 636.587 8.56671 634.768 8.56671C632.221 8.56671 631.711 8.56671 631.202 8.60952C631.056 8.60952 630.983 8.65233 630.838 8.65233C630.547 8.69514 630.183 8.73795 629.528 8.82356C629.819 8.86637 630.11 8.86637 630.401 8.90918C630.911 8.95199 631.347 9.03761 631.857 9.03761C632.73 9.03761 633.676 9.08042 634.549 9.08042H807.688C811.181 8.95199 814.82 8.82356 818.604 8.69514C834.979 8.09582 851.427 7.79616 867.948 7.66773C872.897 7.62493 877.918 7.4965 882.867 7.41088C884.832 7.36807 886.87 7.32526 888.835 7.28246C894.075 7.15403 899.388 7.06841 904.628 6.9828H905.064C912.269 6.85437 919.474 6.93999 926.752 7.02561C934.976 7.11122 943.127 7.19684 951.424 7.02561C968.599 6.64033 985.993 6.29786 1003.39 6.89718C1012.48 7.19684 1021.58 7.32527 1030.68 7.45369C1034.9 7.4965 1039.19 7.58212 1043.41 7.62493C1043.63 7.62493 1043.71 7.62493 1043.85 7.62493C1044 7.62493 1044.07 7.62493 1044.14 7.62493C1044.43 7.62493 1044.65 7.58212 1045.74 7.41088C1046.18 7.32527 1046.69 7.28246 1047.42 7.15403C1047.13 7.11122 1046.84 7.02561 1046.47 6.93999C1045.89 6.81156 1045.31 6.68314 1044.73 6.59752C1044.14 6.55471 1043.49 6.5119 1042.83 6.5119C1042.25 6.5119 1041.74 6.5119 1041.16 6.46909C1040.29 6.38348 1039.48 6.25505 1038.68 6.08382C1038.47 6.04101 1038.32 5.9982 1038.1 5.9982C1038.98 5.86977 1039.92 5.69854 1040.87 5.61292C1041.74 5.52731 1042.54 5.4845 1043.41 5.39888C1044.58 5.31326 1045.74 5.22765 1046.84 5.14203C1047.27 4.92799 1047.85 4.67113 1048 4.4999V4.41428C1047.2 3.94339 1046.54 3.60092 1046.03 3.38688H1048V4.41428C1048 4.41428 1048 4.45709 1048 4.4999V8.86637V10.1506V17H6.60701e-07V12.7191ZM168.117 3.81496C172.847 3.94339 176.632 4.02901 179.907 4.02901C188.785 4.07181 194.244 4.11462 197.664 4.11462C203.123 4.11462 203.341 4.11462 203.559 4.20024H203.632H203.705C203.705 4.20024 203.778 4.20024 203.778 4.24305C203.996 4.28586 204.214 4.32867 204.433 4.37147H183.182H183.109C182.745 4.37147 182.381 4.32867 182.163 4.37147H173.138C172.993 4.37147 172.774 4.32867 172.629 4.32867C172.047 4.24305 171.392 4.20024 170.882 4.24305C170.446 4.24305 170.009 4.32867 169.572 4.41428H102.544C103.708 4.37147 104.8 4.32867 105.964 4.24305C107.347 4.15743 108.73 4.11462 110.113 4.07181C111.423 4.02901 112.806 4.07181 114.116 4.07181C115.353 4.11462 116.517 4.11462 117.754 4.11462C120.52 4.07181 123.358 3.94339 126.342 3.81496C132.237 3.55811 138.787 3.30126 147.084 3.47249C149.049 3.5153 151.087 3.5153 153.052 3.55811C154.653 3.55811 156.254 3.60092 157.855 3.60092C161.712 3.64373 165.133 3.72935 168.117 3.81496ZM211.201 2.95879C210.91 3.0016 210.619 3.0016 207.708 2.87317C206.762 2.83037 205.524 2.78756 203.996 2.74475C204.942 2.74475 205.743 2.74475 206.398 2.74475C210.473 2.74475 210.837 2.74475 211.201 2.78756H211.274C211.347 2.78756 211.492 2.83037 211.638 2.83037C211.492 2.83037 211.347 2.87317 211.274 2.87317C211.347 2.95879 211.274 2.95879 211.201 2.95879C211.274 2.95879 211.274 2.95879 211.201 2.95879ZM230.414 2.017C232.525 2.05981 234.126 2.05981 235.363 2.05981C238.784 2.05981 239.075 2.05981 239.366 2.10262C239.439 2.10262 239.439 2.10262 239.439 2.10262C239.512 2.10262 239.657 2.10262 239.803 2.14543C239.657 2.14543 239.584 2.18824 239.512 2.18824C238.857 2.31666 238.493 2.35947 222.263 2.27385C221.972 2.27385 221.608 2.23105 221.317 2.18824C221.535 2.14543 221.608 2.14543 221.754 2.10262C221.827 2.10262 221.827 2.10262 221.899 2.05981C222.263 1.97419 222.627 1.97419 226.412 2.017C227.358 2.017 228.668 2.017 230.414 2.017ZM241.404 4.02901C241.913 4.02901 242.35 4.02901 242.787 4.07181C243.514 4.15743 244.242 4.28586 244.97 4.37147H213.967C222.991 4.24305 232.016 4.15743 241.04 4.02901C241.186 4.02901 241.258 4.02901 241.404 4.02901ZM249.846 4.20024C249.701 4.15743 249.482 4.15743 249.337 4.15743C250.865 4.07181 251.011 4.07181 252.029 4.07181C252.612 4.07181 253.558 4.07181 255.304 4.02901C259.016 3.9862 261.709 3.94339 263.747 3.90058C267.167 3.85777 268.768 3.81496 270.369 3.81496C271.825 3.81496 273.281 3.85777 276.119 3.90058C276.701 3.90058 277.356 3.94339 278.084 3.94339C278.666 3.94339 279.321 3.9862 279.685 4.11462C279.903 4.20024 280.122 4.28586 280.34 4.37147H264.911C264.256 4.20024 263.383 4.20024 262.291 4.37147H254.067C254.213 4.28586 253.849 4.28586 253.121 4.32867C252.539 4.32867 251.666 4.32867 250.574 4.32867C250.356 4.28586 250.064 4.24305 249.846 4.20024ZM276.192 2.40228C277.283 2.40228 278.375 2.44509 279.831 2.4879H280.558H280.922C281.213 2.4879 281.432 2.57351 281.65 2.65913C281.723 2.70194 281.796 2.70194 281.868 2.74475C281.723 2.78756 281.577 2.78756 281.432 2.83037C281.213 2.87317 280.995 2.91598 280.704 2.95879C280.485 3.0016 280.267 2.95879 279.976 2.95879C279.83 2.95879 279.758 2.95879 279.612 2.95879C277.429 2.91598 275.173 2.87317 272.989 2.83037C270.806 2.78756 268.55 2.74475 266.367 2.70194V2.78756C264.984 2.78756 263.819 2.78756 262.873 2.78756C258.87 2.78756 258.07 2.78756 257.342 2.74475C257.124 2.74475 256.978 2.74475 256.687 2.70194C256.323 2.70194 255.814 2.65913 255.013 2.61632C256.032 2.57351 257.124 2.57351 258.143 2.53071C259.453 2.53071 260.69 2.4879 261.782 2.4879C270.879 2.40228 273.572 2.35947 276.192 2.40228ZM282.814 4.11462C282.96 3.9862 283.906 3.94339 284.416 3.94339C286.744 3.9862 291.984 4.20024 295.914 4.37147H282.451C282.596 4.28586 282.669 4.24305 282.814 4.11462ZM292.712 3.21564C292.639 3.17283 292.494 3.08722 292.348 3.0016C292.712 2.95879 293.003 2.95879 293.222 2.91598C293.877 2.87317 294.022 2.83037 294.168 2.87317C294.24 2.87317 294.241 2.91598 294.313 2.95879C294.386 3.0016 294.459 3.04441 294.604 3.13003C294.313 3.17283 294.095 3.21564 293.949 3.25845C293.367 3.34407 293.222 3.38688 293.003 3.34407C292.931 3.34407 292.858 3.30126 292.712 3.21564ZM299.917 2.78756C300.281 2.74475 300.572 2.70194 300.863 2.65913C302.319 2.74475 303.411 2.78756 304.648 2.83037C304.357 2.87317 303.993 2.91598 303.702 2.95879C302.901 3.04441 302.101 3.17283 301.227 3.17283C300.572 3.17283 299.844 3.13003 299.189 3.04441C298.898 3.0016 298.68 3.0016 298.389 2.95879C298.826 2.91598 299.408 2.83037 299.917 2.78756ZM309.524 2.83037C309.815 2.78756 310.106 2.78756 313.818 2.78756C314.4 2.78756 315.055 2.78756 315.856 2.78756C316.947 2.78756 317.821 2.78756 318.621 2.78756C322.551 2.78756 322.988 2.78756 323.424 2.87317C323.497 2.87317 323.497 2.91598 323.57 2.91598C323.716 2.95879 323.861 3.0016 324.152 3.04441C323.934 3.08722 323.861 3.08722 323.716 3.13003H323.643C323.133 3.21564 322.624 3.21564 313.963 3.08722C312.799 3.08722 311.562 3.04441 310.106 3.04441C309.888 3.04441 309.742 3.0016 309.524 3.0016C309.378 3.0016 309.306 2.95879 309.16 2.95879C309.306 2.91598 309.451 2.91598 309.524 2.91598C309.524 2.87317 309.524 2.83037 309.524 2.83037ZM328.082 2.74475C328.446 2.70194 328.81 2.61632 329.101 2.57351C329.319 2.57351 329.465 2.61632 329.683 2.61632C330.12 2.65913 330.557 2.70194 330.921 2.70194C330.484 2.74475 330.12 2.78756 329.829 2.78756C328.956 2.87317 328.737 2.87317 328.592 2.87317C328.519 2.87317 328.519 2.83037 328.446 2.83037C328.373 2.78756 328.228 2.78756 328.082 2.74475ZM446.128 3.55811H447.147C446.71 3.5153 446.419 3.5153 446.128 3.55811ZM897.568 3.60092C897.787 3.55811 898.078 3.55811 898.296 3.5153C898.66 3.47249 898.951 3.42969 899.315 3.38688C900.916 3.34407 902.153 3.34407 902.954 3.34407C904.046 3.34407 904.555 3.34407 904.409 3.25845H916.272C917.801 3.47249 919.111 3.5153 920.057 3.25845H942.472C942.181 3.38688 941.89 3.47249 941.526 3.60092C940.944 3.77215 939.998 3.81496 939.124 3.81496C938.106 3.81496 937.159 3.85777 936.286 3.85777C932.211 3.94339 930.1 3.9862 927.917 3.9862C925.588 3.9862 923.259 3.94339 918.31 3.90058C915.326 3.85777 911.469 3.81496 906.011 3.72935C903.463 3.68654 902.153 3.68654 901.28 3.68654C900.043 3.77215 899.752 3.77215 897.568 3.60092ZM764.749 4.45709C770.353 4.32867 775.302 4.20024 779.668 4.11462C786.509 3.94339 792.041 3.81496 796.771 3.77215C809.653 3.72935 817.586 3.68654 822.607 3.64373C830.54 3.60092 830.904 3.60092 831.195 3.55811C831.268 3.55811 831.341 3.5153 831.413 3.5153C831.704 3.42969 831.996 3.38688 832.287 3.34407H801.356H801.283C800.774 3.38688 800.264 3.38688 799.901 3.34407H786.873C786.655 3.38688 786.364 3.38688 786.146 3.42969C785.272 3.5153 784.399 3.64373 783.598 3.60092C782.943 3.55811 782.361 3.47249 781.706 3.38688H684.402C686.003 3.42969 687.677 3.5153 689.351 3.60092C691.389 3.68654 693.354 3.81496 695.392 3.85777C697.357 3.90058 699.249 3.85777 701.214 3.81496C703.033 3.72935 704.78 3.68654 706.527 3.72935C710.602 3.81496 714.678 3.9862 719.044 4.15743C727.632 4.4999 737.166 4.92799 749.174 4.62833C752.086 4.54271 754.997 4.54271 757.908 4.54271C760.091 4.4999 762.42 4.4999 764.749 4.45709ZM842.257 5.31326C841.821 5.27045 841.384 5.27045 837.236 5.39888C835.853 5.44169 834.106 5.4845 831.777 5.57011C833.16 5.57011 834.324 5.57011 835.343 5.57011C841.311 5.52731 841.821 5.52731 842.257 5.4845C842.33 5.4845 842.33 5.4845 842.403 5.4845C842.548 5.4845 842.694 5.44169 842.985 5.44169C842.694 5.39888 842.548 5.39888 842.403 5.39888C842.33 5.35607 842.33 5.31326 842.257 5.31326ZM857.613 6.59752C858.123 6.68314 858.632 6.68314 864.091 6.68314C865.619 6.68314 867.584 6.68314 870.058 6.68314V6.64033C873.115 6.64033 875.444 6.64033 877.191 6.64033C882.067 6.64033 882.576 6.64033 883.013 6.59752H883.086H883.158C883.304 6.59752 883.449 6.55471 883.741 6.55471C883.522 6.5119 883.449 6.5119 883.304 6.46909C882.285 6.29786 881.848 6.21224 858.268 6.34067C857.832 6.34067 857.322 6.38348 856.886 6.46909C857.177 6.5119 857.322 6.55471 857.468 6.59752C857.468 6.59752 857.541 6.59752 857.613 6.59752ZM886.069 3.77215C886.797 3.77215 887.452 3.77215 888.107 3.72935C889.199 3.60092 890.218 3.42969 891.309 3.30126H846.333C859.36 3.47249 872.46 3.64373 885.56 3.77215C885.706 3.77215 885.851 3.77215 886.069 3.77215ZM941.817 6.04101C939.634 6.08382 938.033 6.12663 936.504 6.16943C932.72 6.21224 928.863 6.16943 915.763 5.9982C914.162 5.9982 912.415 5.95539 910.45 5.91258C908.922 5.86977 907.393 5.86977 905.938 5.78416C907.102 5.74135 907.83 5.69854 908.339 5.69854C908.703 5.69854 908.994 5.65573 909.286 5.65573C910.45 5.61292 911.614 5.61292 917.364 5.61292C918.747 5.61292 920.421 5.61292 922.458 5.61292V5.74135C925.661 5.65573 928.863 5.61292 932.065 5.52731C935.267 5.44169 938.469 5.39888 941.672 5.31326C941.817 5.31326 942.036 5.31326 942.181 5.31326C942.545 5.31326 942.909 5.27045 943.2 5.31326C943.564 5.35607 943.928 5.39888 944.219 5.4845C944.437 5.52731 944.656 5.57011 944.874 5.61292C944.801 5.65573 944.656 5.69854 944.583 5.74135C944.219 5.86977 943.855 5.9982 943.491 5.9982C942.836 5.9982 942.327 5.9982 941.817 6.04101ZM948.513 3.85777C947.712 3.90058 946.329 3.81496 946.111 3.64373C945.966 3.5153 945.82 3.42969 945.602 3.30126H965.106C959.429 3.5153 951.861 3.77215 948.513 3.85777ZM960.521 4.97079C960.667 4.88518 960.812 4.79956 960.958 4.75675C961.176 4.71394 961.467 4.75675 962.268 4.88518C962.559 4.92799 962.85 4.97079 963.214 5.05641C962.996 5.14203 962.923 5.22765 962.85 5.27045C962.777 5.31326 962.704 5.35607 962.632 5.39888C962.413 5.44169 962.195 5.44169 961.249 5.35607C960.885 5.31326 960.521 5.27045 959.939 5.22765C960.23 5.14203 960.376 5.05641 960.521 4.97079ZM972.311 5.74135C971.874 5.69854 971.438 5.65573 970.928 5.57011C970.201 5.4845 969.4 5.39888 968.599 5.31326C968.963 5.27045 969.4 5.22765 969.764 5.18484C970.783 5.09922 971.802 4.97079 972.748 5.0136C973.912 5.0136 975.149 5.18484 976.314 5.31326C976.751 5.35607 977.26 5.44169 977.697 5.4845C976.023 5.57011 974.349 5.65573 972.311 5.74135ZM991.233 5.57011C985.848 5.57011 985.411 5.57011 984.974 5.4845C984.974 5.4845 984.974 5.4845 984.902 5.4845C984.902 5.4845 984.902 5.4845 984.829 5.4845H984.756C984.611 5.44169 984.465 5.44169 984.174 5.39888C984.319 5.39888 984.538 5.35607 984.756 5.35607C985.047 5.31326 985.338 5.27045 985.629 5.27045C987.74 5.22765 989.632 5.22765 991.306 5.18484C1003.82 4.97079 1004.62 4.97079 1005.28 5.09922C1005.35 5.09922 1005.35 5.09922 1005.42 5.14203C1005.57 5.18484 1005.72 5.18484 1006.01 5.22765C1005.57 5.31326 1005.35 5.35607 1005.21 5.44169C1005.13 5.4845 1005.06 5.4845 1004.99 5.4845C1004.41 5.61292 1003.75 5.61292 998.074 5.61292C996.983 5.61292 995.673 5.61292 994.072 5.61292C993.053 5.57011 992.107 5.57011 991.233 5.57011ZM1011.9 5.65573C1012.12 5.61292 1012.34 5.57011 1012.41 5.52731C1012.48 5.4845 1012.56 5.4845 1012.63 5.4845C1012.92 5.44169 1013.14 5.4845 1014.45 5.57011C1014.89 5.61292 1015.4 5.65573 1016.05 5.69854C1015.47 5.69854 1014.89 5.78416 1014.23 5.82697C1013.94 5.86977 1013.72 5.86977 1013.43 5.91258C1012.99 5.82697 1012.41 5.74135 1011.9 5.65573ZM1016.2 3.72935C1010.08 3.72935 1003.97 3.5153 997.929 3.30126H1032.64C1027.19 3.5153 1021.65 3.68654 1016.2 3.72935Z" fill="#21242C"/>
</svg>
