<svg width="335" height="280" viewBox="0 0 335 280" fill="none" xmlns="http://www.w3.org/2000/svg">
<circle cx="17.5" cy="17.5" r="7.5" fill="#2A2F39"/>
<circle cx="42.5" cy="17.5" r="7.5" fill="#2A2F39"/>
<circle cx="67.5" cy="17.5" r="7.5" fill="#2A2F39"/>
<circle cx="92.5" cy="17.5" r="7.5" fill="#2A2F39"/>
<circle cx="117.5" cy="17.5" r="7.5" fill="#2A2F39"/>
<circle cx="142.5" cy="17.5" r="7.5" fill="#2A2F39"/>
<circle cx="167.5" cy="17.5" r="7.5" fill="#2A2F39"/>
<circle cx="192.5" cy="17.5" r="7.5" fill="#2A2F39"/>
<circle cx="217.5" cy="17.5" r="7.5" fill="#2A2F39"/>
<circle cx="242.5" cy="17.5" r="7.5" fill="#2A2F39"/>
<circle cx="267.5" cy="17.5" r="7.5" fill="#2A2F39"/>
<circle cx="292.5" cy="17.5" r="7.5" fill="#2A2F39"/>
<circle cx="317.5" cy="17.5" r="7.5" fill="#2A2F39"/>
<circle cx="17.5" cy="52.5" r="7.5" fill="#2A2F39"/>
<circle cx="42.5" cy="52.5" r="7.5" fill="#2A2F39"/>
<circle cx="67.5" cy="52.5" r="7.5" fill="#2A2F39"/>
<circle cx="92.5" cy="52.5" r="7.5" fill="#2A2F39"/>
<circle cx="117.5" cy="52.5" r="7.5" fill="#2A2F39"/>
<circle cx="142.5" cy="52.5" r="7.5" fill="#2A2F39"/>
<circle cx="167.5" cy="52.5" r="7.5" fill="#2A2F39"/>
<circle cx="192.5" cy="52.5" r="7.5" fill="#2A2F39"/>
<circle cx="217.5" cy="52.5" r="7.5" fill="#2A2F39"/>
<circle cx="242.5" cy="52.5" r="7.5" fill="#2A2F39"/>
<circle cx="267.5" cy="52.5" r="7.5" fill="#2A2F39"/>
<circle cx="292.5" cy="52.5" r="7.5" fill="#2A2F39"/>
<circle cx="317.5" cy="52.5" r="7.5" fill="#2A2F39"/>
<circle cx="17.5" cy="87.5" r="7.5" fill="#2A2F39"/>
<circle cx="42.5" cy="87.5" r="7.5" fill="#2A2F39"/>
<circle cx="67.5" cy="87.5" r="7.5" fill="#2A2F39"/>
<circle cx="92.5" cy="87.5" r="7.5" fill="#2A2F39"/>
<circle cx="117.5" cy="87.5" r="7.5" fill="#2A2F39"/>
<circle cx="142.5" cy="87.5" r="7.5" fill="#2A2F39"/>
<circle cx="167.5" cy="87.5" r="7.5" fill="#2A2F39"/>
<circle cx="192.5" cy="87.5" r="7.5" fill="#2A2F39"/>
<circle cx="217.5" cy="87.5" r="7.5" fill="#2A2F39"/>
<circle cx="242.5" cy="87.5" r="7.5" fill="#2A2F39"/>
<circle cx="267.5" cy="87.5" r="7.5" fill="#2A2F39"/>
<circle cx="292.5" cy="87.5" r="7.5" fill="#2A2F39"/>
<circle cx="317.5" cy="87.5" r="7.5" fill="#2A2F39"/>
<circle cx="17.5" cy="122.5" r="7.5" fill="#2A2F39"/>
<circle cx="42.5" cy="122.5" r="7.5" fill="#2A2F39"/>
<circle cx="67.5" cy="122.5" r="7.5" fill="#2A2F39"/>
<circle cx="92.5" cy="122.5" r="7.5" fill="#2A2F39"/>
<circle cx="117.5" cy="122.5" r="7.5" fill="#2A2F39"/>
<circle cx="142.5" cy="122.5" r="7.5" fill="#2A2F39"/>
<circle cx="167.5" cy="122.5" r="7.5" fill="#2A2F39"/>
<circle cx="192.5" cy="122.5" r="7.5" fill="#2A2F39"/>
<circle cx="217.5" cy="122.5" r="7.5" fill="#2A2F39"/>
<circle cx="242.5" cy="122.5" r="7.5" fill="#2A2F39"/>
<circle cx="267.5" cy="122.5" r="7.5" fill="#2A2F39"/>
<circle cx="292.5" cy="122.5" r="7.5" fill="#2A2F39"/>
<circle cx="317.5" cy="122.5" r="7.5" fill="#2A2F39"/>
<circle cx="17.5" cy="157.5" r="7.5" fill="#2A2F39"/>
<circle cx="42.5" cy="157.5" r="7.5" fill="#2A2F39"/>
<circle cx="67.5" cy="157.5" r="7.5" fill="#2A2F39"/>
<circle cx="92.5" cy="157.5" r="7.5" fill="#2A2F39"/>
<circle cx="117.5" cy="157.5" r="7.5" fill="#2A2F39"/>
<circle cx="142.5" cy="157.5" r="7.5" fill="#2A2F39"/>
<circle cx="167.5" cy="157.5" r="7.5" fill="#2A2F39"/>
<circle cx="192.5" cy="157.5" r="7.5" fill="#2A2F39"/>
<circle cx="217.5" cy="157.5" r="7.5" fill="#2A2F39"/>
<circle cx="242.5" cy="157.5" r="7.5" fill="#2A2F39"/>
<circle cx="267.5" cy="157.5" r="7.5" fill="#2A2F39"/>
<circle cx="292.5" cy="157.5" r="7.5" fill="#2A2F39"/>
<circle cx="317.5" cy="157.5" r="7.5" fill="#2A2F39"/>
<circle cx="17.5" cy="192.5" r="7.5" fill="#2A2F39"/>
<circle cx="42.5" cy="192.5" r="7.5" fill="#2A2F39"/>
<circle cx="67.5" cy="192.5" r="7.5" fill="#2A2F39"/>
<circle cx="92.5" cy="192.5" r="7.5" fill="#2A2F39"/>
<circle cx="117.5" cy="192.5" r="7.5" fill="#2A2F39"/>
<circle cx="142.5" cy="192.5" r="7.5" fill="#2A2F39"/>
<circle cx="167.5" cy="192.5" r="7.5" fill="#2A2F39"/>
<circle cx="192.5" cy="192.5" r="7.5" fill="#2A2F39"/>
<circle cx="217.5" cy="192.5" r="7.5" fill="#2A2F39"/>
<circle cx="242.5" cy="192.5" r="7.5" fill="#2A2F39"/>
<circle cx="267.5" cy="192.5" r="7.5" fill="#2A2F39"/>
<circle cx="292.5" cy="192.5" r="7.5" fill="#2A2F39"/>
<circle cx="317.5" cy="192.5" r="7.5" fill="#2A2F39"/>
<circle cx="17.5" cy="227.5" r="7.5" fill="#2A2F39"/>
<circle cx="42.5" cy="227.5" r="7.5" fill="#2A2F39"/>
<circle cx="67.5" cy="227.5" r="7.5" fill="#2A2F39"/>
<circle cx="92.5" cy="227.5" r="7.5" fill="#2A2F39"/>
<circle cx="117.5" cy="227.5" r="7.5" fill="#2A2F39"/>
<circle cx="142.5" cy="227.5" r="7.5" fill="#2A2F39"/>
<circle cx="167.5" cy="227.5" r="7.5" fill="#2A2F39"/>
<circle cx="192.5" cy="227.5" r="7.5" fill="#2A2F39"/>
<circle cx="217.5" cy="227.5" r="7.5" fill="#2A2F39"/>
<circle cx="242.5" cy="227.5" r="7.5" fill="#2A2F39"/>
<circle cx="267.5" cy="227.5" r="7.5" fill="#2A2F39"/>
<circle cx="292.5" cy="227.5" r="7.5" fill="#2A2F39"/>
<circle cx="317.5" cy="227.5" r="7.5" fill="#2A2F39"/>
<circle cx="17.5" cy="262.5" r="7.5" fill="#2A2F39"/>
<circle cx="42.5" cy="262.5" r="7.5" fill="#2A2F39"/>
<circle cx="67.5" cy="262.5" r="7.5" fill="#2A2F39"/>
<circle cx="92.5" cy="262.5" r="7.5" fill="#2A2F39"/>
<circle cx="117.5" cy="262.5" r="7.5" fill="#2A2F39"/>
<circle cx="142.5" cy="262.5" r="7.5" fill="#2A2F39"/>
<circle cx="167.5" cy="262.5" r="7.5" fill="#2A2F39"/>
<circle cx="192.5" cy="262.5" r="7.5" fill="#2A2F39"/>
<circle cx="217.5" cy="262.5" r="7.5" fill="#2A2F39"/>
<circle cx="242.5" cy="262.5" r="7.5" fill="#2A2F39"/>
<circle cx="267.5" cy="262.5" r="7.5" fill="#2A2F39"/>
<circle cx="292.5" cy="262.5" r="7.5" fill="#2A2F39"/>
<circle cx="317.5" cy="262.5" r="7.5" fill="#2A2F39"/>
</svg>
