<svg width="172" height="73" viewBox="0 0 172 73" fill="none" xmlns="http://www.w3.org/2000/svg">
<path d="M51 51H165.356L170 61H51V51Z" fill="#1DBC7B"/>
<path d="M55.0041 63.9V65.904H57.3601V66.536H55.0041V69H54.2281V63.268H57.7601V63.9H55.0041ZM60.3395 66.044C60.5635 66.044 60.7609 66.0173 60.9315 65.964C61.1049 65.908 61.2489 65.8307 61.3635 65.732C61.4809 65.6307 61.5689 65.5107 61.6275 65.372C61.6862 65.2333 61.7155 65.08 61.7155 64.912C61.7155 64.5707 61.6035 64.3133 61.3795 64.14C61.1555 63.9667 60.8195 63.88 60.3715 63.88H59.5235V66.044H60.3395ZM62.9875 69H62.2995C62.1582 69 62.0542 68.9453 61.9875 68.836L60.4995 66.788C60.4542 66.724 60.4049 66.6787 60.3515 66.652C60.3009 66.6227 60.2209 66.608 60.1115 66.608H59.5235V69H58.7515V63.268H60.3715C60.7342 63.268 61.0475 63.3053 61.3115 63.38C61.5755 63.452 61.7929 63.5573 61.9635 63.696C62.1369 63.8347 62.2649 64.0027 62.3475 64.2C62.4302 64.3947 62.4715 64.6133 62.4715 64.856C62.4715 65.0587 62.4395 65.248 62.3755 65.424C62.3115 65.6 62.2182 65.7587 62.0955 65.9C61.9755 66.0387 61.8275 66.1573 61.6515 66.256C61.4782 66.3547 61.2809 66.4293 61.0595 66.48C61.1582 66.536 61.2435 66.6173 61.3155 66.724L62.9875 69ZM69.0085 66.136C69.0085 66.5653 68.9405 66.96 68.8045 67.32C68.6685 67.6773 68.4765 67.9853 68.2285 68.244C67.9805 68.5027 67.6818 68.704 67.3325 68.848C66.9858 68.9893 66.6018 69.06 66.1805 69.06C65.7591 69.06 65.3751 68.9893 65.0285 68.848C64.6818 68.704 64.3845 68.5027 64.1365 68.244C63.8885 67.9853 63.6965 67.6773 63.5605 67.32C63.4245 66.96 63.3565 66.5653 63.3565 66.136C63.3565 65.7067 63.4245 65.3133 63.5605 64.956C63.6965 64.596 63.8885 64.2867 64.1365 64.028C64.3845 63.7667 64.6818 63.564 65.0285 63.42C65.3751 63.276 65.7591 63.204 66.1805 63.204C66.6018 63.204 66.9858 63.276 67.3325 63.42C67.6818 63.564 67.9805 63.7667 68.2285 64.028C68.4765 64.2867 68.6685 64.596 68.8045 64.956C68.9405 65.3133 69.0085 65.7067 69.0085 66.136ZM68.2125 66.136C68.2125 65.784 68.1645 65.468 68.0685 65.188C67.9725 64.908 67.8365 64.672 67.6605 64.48C67.4845 64.2853 67.2711 64.136 67.0205 64.032C66.7698 63.928 66.4898 63.876 66.1805 63.876C65.8738 63.876 65.5951 63.928 65.3445 64.032C65.0938 64.136 64.8791 64.2853 64.7005 64.48C64.5245 64.672 64.3885 64.908 64.2925 65.188C64.1965 65.468 64.1485 65.784 64.1485 66.136C64.1485 66.488 64.1965 66.804 64.2925 67.084C64.3885 67.3613 64.5245 67.5973 64.7005 67.792C64.8791 67.984 65.0938 68.132 65.3445 68.236C65.5951 68.3373 65.8738 68.388 66.1805 68.388C66.4898 68.388 66.7698 68.3373 67.0205 68.236C67.2711 68.132 67.4845 67.984 67.6605 67.792C67.8365 67.5973 67.9725 67.3613 68.0685 67.084C68.1645 66.804 68.2125 66.488 68.2125 66.136ZM74.7627 63.268V69H74.3747C74.3134 69 74.2614 68.9893 74.2187 68.968C74.1787 68.9467 74.1387 68.9107 74.0987 68.86L70.7827 64.54C70.7881 64.6067 70.7921 64.672 70.7947 64.736C70.7974 64.8 70.7987 64.86 70.7987 64.916V69H70.1187V63.268H70.5187C70.5534 63.268 70.5827 63.2707 70.6067 63.276C70.6307 63.2787 70.6521 63.2853 70.6707 63.296C70.6894 63.304 70.7081 63.3173 70.7267 63.336C70.7454 63.352 70.7654 63.3733 70.7867 63.4L74.1027 67.716C74.0974 67.6467 74.0921 67.58 74.0867 67.516C74.0841 67.4493 74.0827 67.3867 74.0827 67.328V63.268H74.7627ZM80.1041 63.92H78.2481V69H77.4761V63.92H75.6161V63.268H80.1041V63.92ZM84.4907 68.368L84.4867 69H80.9547V63.268H84.4867V63.9H81.7307V65.804H83.9627V66.412H81.7307V68.368H84.4907ZM90.2158 63.268V69H89.8278C89.7665 69 89.7145 68.9893 89.6718 68.968C89.6318 68.9467 89.5918 68.9107 89.5518 68.86L86.2358 64.54C86.2412 64.6067 86.2452 64.672 86.2478 64.736C86.2505 64.8 86.2518 64.86 86.2518 64.916V69H85.5718V63.268H85.9718C86.0065 63.268 86.0358 63.2707 86.0598 63.276C86.0838 63.2787 86.1052 63.2853 86.1238 63.296C86.1425 63.304 86.1612 63.3173 86.1798 63.336C86.1985 63.352 86.2185 63.3733 86.2398 63.4L89.5558 67.716C89.5505 67.6467 89.5452 67.58 89.5398 67.516C89.5372 67.4493 89.5358 67.3867 89.5358 67.328V63.268H90.2158ZM96.6492 66.136C96.6492 66.5653 96.5812 66.956 96.4452 67.308C96.3092 67.66 96.1172 67.9613 95.8692 68.212C95.6212 68.4627 95.3226 68.6573 94.9732 68.796C94.6266 68.932 94.2426 69 93.8212 69H91.6812V63.268H93.8212C94.2426 63.268 94.6266 63.3373 94.9732 63.476C95.3226 63.612 95.6212 63.8067 95.8692 64.06C96.1172 64.3107 96.3092 64.612 96.4452 64.964C96.5812 65.316 96.6492 65.7067 96.6492 66.136ZM95.8532 66.136C95.8532 65.784 95.8052 65.4693 95.7092 65.192C95.6132 64.9147 95.4772 64.68 95.3012 64.488C95.1252 64.296 94.9119 64.1493 94.6612 64.048C94.4106 63.9467 94.1306 63.896 93.8212 63.896H92.4572V68.372H93.8212C94.1306 68.372 94.4106 68.3213 94.6612 68.22C94.9119 68.1187 95.1252 67.9733 95.3012 67.784C95.4772 67.592 95.6132 67.3573 95.7092 67.08C95.8052 66.8027 95.8532 66.488 95.8532 66.136ZM104.782 66.136C104.782 66.5653 104.714 66.956 104.578 67.308C104.442 67.66 104.25 67.9613 104.002 68.212C103.754 68.4627 103.455 68.6573 103.106 68.796C102.759 68.932 102.375 69 101.954 69H99.814V63.268H101.954C102.375 63.268 102.759 63.3373 103.106 63.476C103.455 63.612 103.754 63.8067 104.002 64.06C104.25 64.3107 104.442 64.612 104.578 64.964C104.714 65.316 104.782 65.7067 104.782 66.136ZM103.986 66.136C103.986 65.784 103.938 65.4693 103.842 65.192C103.746 64.9147 103.61 64.68 103.434 64.488C103.258 64.296 103.045 64.1493 102.794 64.048C102.543 63.9467 102.263 63.896 101.954 63.896H100.59V68.372H101.954C102.263 68.372 102.543 68.3213 102.794 68.22C103.045 68.1187 103.258 67.9733 103.434 67.784C103.61 67.592 103.746 67.3573 103.842 67.08C103.938 66.8027 103.986 66.488 103.986 66.136ZM109.436 68.368L109.432 69H105.9V63.268H109.432V63.9H106.676V65.804H108.908V66.412H106.676V68.368H109.436ZM115.177 63.268L112.841 69H112.145L109.809 63.268H110.429C110.498 63.268 110.554 63.2853 110.597 63.32C110.64 63.3547 110.672 63.3987 110.693 63.452L112.309 67.496C112.344 67.5867 112.377 67.6853 112.409 67.792C112.444 67.8987 112.474 68.0107 112.501 68.128C112.528 68.0107 112.556 67.8987 112.585 67.792C112.614 67.6853 112.646 67.5867 112.681 67.496L114.293 63.452C114.309 63.4067 114.34 63.3653 114.385 63.328C114.433 63.288 114.49 63.268 114.557 63.268H115.177ZM119.467 68.368L119.463 69H115.931V63.268H119.463V63.9H116.707V65.804H118.939V66.412H116.707V68.368H119.467ZM123.8 68.348V69H120.548V63.268H121.32V68.348H123.8ZM129.688 66.136C129.688 66.5653 129.62 66.96 129.484 67.32C129.348 67.6773 129.156 67.9853 128.908 68.244C128.66 68.5027 128.361 68.704 128.012 68.848C127.665 68.9893 127.281 69.06 126.86 69.06C126.439 69.06 126.055 68.9893 125.708 68.848C125.361 68.704 125.064 68.5027 124.816 68.244C124.568 67.9853 124.376 67.6773 124.24 67.32C124.104 66.96 124.036 66.5653 124.036 66.136C124.036 65.7067 124.104 65.3133 124.24 64.956C124.376 64.596 124.568 64.2867 124.816 64.028C125.064 63.7667 125.361 63.564 125.708 63.42C126.055 63.276 126.439 63.204 126.86 63.204C127.281 63.204 127.665 63.276 128.012 63.42C128.361 63.564 128.66 63.7667 128.908 64.028C129.156 64.2867 129.348 64.596 129.484 64.956C129.62 65.3133 129.688 65.7067 129.688 66.136ZM128.892 66.136C128.892 65.784 128.844 65.468 128.748 65.188C128.652 64.908 128.516 64.672 128.34 64.48C128.164 64.2853 127.951 64.136 127.7 64.032C127.449 63.928 127.169 63.876 126.86 63.876C126.553 63.876 126.275 63.928 126.024 64.032C125.773 64.136 125.559 64.2853 125.38 64.48C125.204 64.672 125.068 64.908 124.972 65.188C124.876 65.468 124.828 65.784 124.828 66.136C124.828 66.488 124.876 66.804 124.972 67.084C125.068 67.3613 125.204 67.5973 125.38 67.792C125.559 67.984 125.773 68.132 126.024 68.236C126.275 68.3373 126.553 68.388 126.86 68.388C127.169 68.388 127.449 68.3373 127.7 68.236C127.951 68.132 128.164 67.984 128.34 67.792C128.516 67.5973 128.652 67.3613 128.748 67.084C128.844 66.804 128.892 66.488 128.892 66.136ZM132.49 66.24C132.712 66.24 132.906 66.2107 133.074 66.152C133.245 66.0933 133.388 66.012 133.502 65.908C133.62 65.8013 133.708 65.6747 133.766 65.528C133.825 65.3813 133.854 65.22 133.854 65.044C133.854 64.6787 133.741 64.3933 133.514 64.188C133.29 63.9827 132.949 63.88 132.49 63.88H131.57V66.24H132.49ZM132.49 63.268C132.853 63.268 133.168 63.3107 133.434 63.396C133.704 63.4787 133.926 63.5973 134.102 63.752C134.278 63.9067 134.409 64.0933 134.494 64.312C134.582 64.5307 134.626 64.7747 134.626 65.044C134.626 65.3107 134.58 65.5547 134.486 65.776C134.393 65.9973 134.256 66.188 134.074 66.348C133.896 66.508 133.673 66.6333 133.406 66.724C133.142 66.812 132.837 66.856 132.49 66.856H131.57V69H130.798V63.268H132.49ZM139.139 68.368L139.135 69H135.603V63.268H139.135V63.9H136.379V65.804H138.611V66.412H136.379V68.368H139.139ZM141.808 66.044C142.032 66.044 142.23 66.0173 142.4 65.964C142.574 65.908 142.718 65.8307 142.832 65.732C142.95 65.6307 143.038 65.5107 143.096 65.372C143.155 65.2333 143.184 65.08 143.184 64.912C143.184 64.5707 143.072 64.3133 142.848 64.14C142.624 63.9667 142.288 63.88 141.84 63.88H140.992V66.044H141.808ZM144.456 69H143.768C143.627 69 143.523 68.9453 143.456 68.836L141.968 66.788C141.923 66.724 141.874 66.6787 141.82 66.652C141.77 66.6227 141.69 66.608 141.58 66.608H140.992V69H140.22V63.268H141.84C142.203 63.268 142.516 63.3053 142.78 63.38C143.044 63.452 143.262 63.5573 143.432 63.696C143.606 63.8347 143.734 64.0027 143.816 64.2C143.899 64.3947 143.94 64.6133 143.94 64.856C143.94 65.0587 143.908 65.248 143.844 65.424C143.78 65.6 143.687 65.7587 143.564 65.9C143.444 66.0387 143.296 66.1573 143.12 66.256C142.947 66.3547 142.75 66.4293 142.528 66.48C142.627 66.536 142.712 66.6173 142.784 66.724L144.456 69Z" fill="#BBC1CC"/>
<path d="M58.0375 31.14C57.0108 31.14 55.9468 31 54.8455 30.72C53.7628 30.44 52.7268 30.0573 51.7375 29.572C50.7668 29.068 49.9455 28.4987 49.2735 27.864C49.7028 27.248 50.1788 26.632 50.7015 26.016C51.2242 25.3813 51.8028 24.756 52.4375 24.14C53.1655 24.924 53.9682 25.652 54.8455 26.324C55.7228 26.9773 56.6002 27.5093 57.4775 27.92C58.3735 28.3307 59.1948 28.536 59.9415 28.536C60.6135 28.536 61.2108 28.3587 61.7335 28.004C62.2748 27.6307 62.5455 27.0987 62.5455 26.408C62.5455 25.7547 62.2935 25.176 61.7895 24.672C61.2855 24.1493 60.6228 23.6733 59.8015 23.244C58.9988 22.796 58.1402 22.3573 57.2255 21.928C56.4228 21.5547 55.6295 21.1627 54.8455 20.752C54.0615 20.3413 53.3428 19.8933 52.6895 19.408C52.0548 18.9227 51.5415 18.3813 51.1495 17.784C50.7762 17.168 50.5895 16.4773 50.5895 15.712C50.5895 14.9467 50.7855 14.2 51.1775 13.472C51.5882 12.744 52.1575 12.0907 52.8855 11.512C53.6135 10.9147 54.4722 10.448 55.4615 10.112C56.4695 9.75733 57.5708 9.58 58.7655 9.58C60.1282 9.58 61.5002 9.81333 62.8815 10.28C64.2815 10.7467 65.4948 11.4187 66.5215 12.296C66.1855 12.9307 65.7282 13.556 65.1495 14.172C64.5895 14.788 64.0388 15.3107 63.4975 15.74C62.3588 14.6573 61.2295 13.752 60.1095 13.024C58.9895 12.2773 57.9348 11.904 56.9455 11.904C56.2175 11.904 55.6668 12.0907 55.2935 12.464C54.9388 12.8187 54.7615 13.2013 54.7615 13.612C54.7615 14.06 54.9668 14.4707 55.3775 14.844C55.7882 15.2173 56.3295 15.5813 57.0015 15.936C57.6735 16.2907 58.4108 16.6547 59.2135 17.028C60.0535 17.42 60.9028 17.84 61.7615 18.288C62.6388 18.736 63.4415 19.2493 64.1695 19.828C64.9162 20.388 65.5135 21.032 65.9615 21.76C66.4095 22.488 66.6335 23.3187 66.6335 24.252C66.6335 25.1853 66.4002 26.072 65.9335 26.912C65.4855 27.7333 64.8602 28.4613 64.0575 29.096C63.2735 29.7307 62.3589 30.2347 61.3135 30.608C60.2868 30.9627 59.1948 31.14 58.0375 31.14ZM69.0393 13.5V9.72H73.7993V13.5H69.0393ZM69.1513 31.056C69.1327 30.44 69.114 29.6093 69.0953 28.564C69.0767 27.5 69.058 26.2867 69.0393 24.924C69.0393 23.5427 69.03 22.068 69.0113 20.5C69.0113 18.932 69.0113 17.3267 69.0113 15.684C69.8513 15.684 70.7287 15.6933 71.6433 15.712C72.5767 15.7307 73.3047 15.7587 73.8273 15.796C73.8273 17.1587 73.818 18.5867 73.7993 20.08C73.7993 21.5733 73.79 23.0293 73.7713 24.448C73.7713 25.848 73.762 27.1173 73.7433 28.256C73.7247 29.3947 73.706 30.2907 73.6873 30.944C72.8287 30.9813 72.0073 31.0093 71.2233 31.028C70.4393 31.0467 69.7487 31.056 69.1513 31.056ZM77.0679 31.056C77.0492 30.4587 77.0306 29.6373 77.0119 28.592C76.9932 27.528 76.9746 26.3053 76.9559 24.924C76.9559 23.524 76.9466 22.0213 76.9279 20.416C76.9279 18.792 76.9279 17.1213 76.9279 15.404C77.3386 15.404 77.8426 15.4133 78.4399 15.432C79.0372 15.432 79.6346 15.4413 80.2319 15.46C80.8479 15.4787 81.3519 15.4973 81.7439 15.516C81.7439 15.9827 81.7439 16.4587 81.7439 16.944C83.3306 15.768 84.9452 15.18 86.5879 15.18C88.0999 15.18 89.3226 15.712 90.2559 16.776C91.1892 17.84 91.8612 19.5387 92.2719 21.872C92.7012 24.2053 92.9159 27.2667 92.9159 31.056C92.4866 31.056 91.9732 31.0467 91.3759 31.028C90.7786 31.028 90.1906 31.0187 89.6119 31C89.0332 30.9813 88.5292 30.9627 88.0999 30.944C88.0999 27.64 88.0066 24.9987 87.8199 23.02C87.6332 21.0413 87.3252 19.6133 86.8959 18.736C86.4666 17.8587 85.8879 17.42 85.1599 17.42C84.5626 17.42 83.9559 17.672 83.3399 18.176C82.7239 18.68 82.1919 19.3427 81.7439 20.164C81.7252 21.7507 81.7066 23.2533 81.6879 24.672C81.6879 26.0907 81.6786 27.3507 81.6599 28.452C81.6412 29.5347 81.6226 30.3653 81.6039 30.944C81.0252 30.9627 80.3159 30.9813 79.4759 31C78.6546 31.0373 77.8519 31.056 77.0679 31.056ZM100.515 31.14C98.9282 31.14 97.6308 30.7573 96.6228 29.992C95.6335 29.208 95.1388 28.1907 95.1388 26.94C95.1388 25.8013 95.5495 24.7467 96.3708 23.776C97.2108 22.8053 98.3682 21.984 99.8428 21.312C101.317 20.6213 103.007 20.1453 104.911 19.884C104.239 18.2413 103.315 17.42 102.139 17.42C101.429 17.42 100.515 17.6907 99.3948 18.232C98.2748 18.7733 97.1362 19.4827 95.9788 20.36L95.1388 17.56C97.9202 15.9733 100.552 15.18 103.035 15.18C104.976 15.18 106.535 15.712 107.711 16.776C108.887 17.8213 109.745 19.5013 110.287 21.816C110.828 24.112 111.099 27.1547 111.099 30.944C110.744 30.9627 110.109 30.9813 109.195 31C108.299 31.0373 107.328 31.056 106.283 31.056C106.283 30.4587 106.273 29.8707 106.255 29.292C104.332 30.524 102.419 31.14 100.515 31.14ZM99.7588 26.744C99.7588 27.3227 99.9828 27.78 100.431 28.116C100.897 28.452 101.513 28.62 102.279 28.62C103.623 28.62 104.92 28.0413 106.171 26.884C106.059 24.9053 105.844 23.2347 105.527 21.872C104.799 22.0213 104.089 22.264 103.399 22.6C102.727 22.936 102.111 23.3373 101.551 23.804C101.009 24.252 100.571 24.7373 100.235 25.26C99.9175 25.764 99.7588 26.2587 99.7588 26.744ZM26.6859 33.748C27.7313 33.636 28.6926 33.552 29.5699 33.496C30.4659 33.4213 31.2966 33.384 32.0619 33.384C32.4913 34.784 32.9859 36.2493 33.5459 37.78C34.1059 39.3107 34.6939 40.8507 35.3099 42.4C35.9446 43.9493 36.5886 45.4427 37.2419 46.88C38.2126 44.7893 39.1366 42.6427 40.0139 40.44C40.9099 38.2373 41.7873 35.8947 42.6459 33.412C43.6539 33.412 44.6526 33.44 45.6419 33.496C46.6313 33.552 47.4713 33.6267 48.1619 33.72C48.1619 34.7467 48.1619 35.9693 48.1619 37.388C48.1806 38.788 48.1899 40.3 48.1899 41.924C48.2086 43.5293 48.2273 45.1347 48.2459 46.74C48.2646 48.3453 48.2833 49.8573 48.3019 51.276C48.3206 52.6947 48.3486 53.9173 48.3859 54.944C47.9566 54.9627 47.4339 54.9813 46.8179 55C46.2019 55.0187 45.5579 55.028 44.8859 55.028C44.2139 55.0467 43.5886 55.056 43.0099 55.056C43.0846 53.1707 43.1406 51.2853 43.1779 49.4C43.2153 47.496 43.2433 45.648 43.2619 43.856C43.2993 42.064 43.3179 40.4027 43.3179 38.872C42.5339 41.0747 41.7219 43.1747 40.8819 45.172C40.0606 47.1693 39.1833 49.1387 38.2499 51.08L33.9379 51.332C32.8739 49.0173 31.8846 46.8053 30.9699 44.696C30.0553 42.568 29.2433 40.5893 28.5339 38.76L29.1499 55.056L25.9859 54.944C26.0419 53.9547 26.0979 52.8253 26.1539 51.556C26.2099 50.2867 26.2566 48.952 26.2939 47.552C26.3499 46.152 26.3966 44.7613 26.4339 43.38C26.4899 41.98 26.5366 40.6547 26.5739 39.404C26.6113 38.1347 26.6393 37.0147 26.6579 36.044C26.6766 35.0547 26.6859 34.2893 26.6859 33.748ZM56.0129 55.14C54.4262 55.14 53.1289 54.7573 52.1209 53.992C51.1315 53.208 50.6369 52.1907 50.6369 50.94C50.6369 49.8013 51.0475 48.7467 51.8689 47.776C52.7089 46.8053 53.8662 45.984 55.3409 45.312C56.8155 44.6213 58.5049 44.1453 60.4089 43.884C59.7369 42.2413 58.8129 41.42 57.6369 41.42C56.9275 41.42 56.0129 41.6907 54.8929 42.232C53.7729 42.7733 52.6342 43.4827 51.4769 44.36L50.6369 41.56C53.4182 39.9733 56.0502 39.18 58.5329 39.18C60.4742 39.18 62.0329 39.712 63.2089 40.776C64.3849 41.8213 65.2435 43.5013 65.7849 45.816C66.3262 48.112 66.5969 51.1547 66.5969 54.944C66.2422 54.9627 65.6075 54.9813 64.6929 55C63.7969 55.0373 62.8262 55.056 61.7809 55.056C61.7809 54.4587 61.7715 53.8707 61.7529 53.292C59.8302 54.524 57.9169 55.14 56.0129 55.14ZM55.2569 50.744C55.2569 51.3227 55.4809 51.78 55.9289 52.116C56.3955 52.452 57.0115 52.62 57.7769 52.62C59.1209 52.62 60.4182 52.0413 61.6689 50.884C61.5569 48.9053 61.3422 47.2347 61.0249 45.872C60.2969 46.0213 59.5875 46.264 58.8969 46.6C58.2249 46.936 57.6089 47.3373 57.0489 47.804C56.5075 48.252 56.0689 48.7373 55.7329 49.26C55.4155 49.764 55.2569 50.2587 55.2569 50.744ZM73.7973 55.056C73.1439 55.056 72.3973 55.0373 71.5573 55C70.7359 54.9813 69.9706 54.9627 69.2613 54.944C69.2426 54.384 69.2239 53.5813 69.2052 52.536C69.1866 51.4907 69.1679 50.2773 69.1493 48.896C69.1493 47.496 69.1399 46.0027 69.1213 44.416C69.1213 42.8107 69.1213 41.1773 69.1213 39.516C69.5319 39.4973 70.0359 39.4787 70.6333 39.46C71.2306 39.4413 71.8279 39.432 72.4253 39.432C73.0226 39.4133 73.5266 39.404 73.9373 39.404C73.9373 39.9453 73.9373 40.4867 73.9373 41.028C74.6653 40.4493 75.4119 40.0013 76.1773 39.684C76.9613 39.348 77.7173 39.18 78.4453 39.18C79.3973 39.18 80.2653 39.4413 81.0493 39.964C81.8333 40.468 82.4679 41.1587 82.9533 42.036C83.4573 42.9133 83.7466 43.9027 83.8213 45.004C83.0746 45.2467 82.3279 45.4613 81.5813 45.648C80.8346 45.8347 80.1253 45.984 79.4533 46.096C79.4533 45.256 79.3413 44.4813 79.1173 43.772C78.9119 43.0627 78.6319 42.4933 78.2773 42.064C77.9226 41.6347 77.5306 41.42 77.1013 41.42C76.5973 41.42 76.0373 41.728 75.4213 42.344C74.8053 42.96 74.3106 43.716 73.9373 44.612C73.9186 46.9827 73.8999 49.1013 73.8813 50.968C73.8626 52.816 73.8346 54.1787 73.7973 55.056ZM87.4376 55.056C87.419 54.664 87.4003 54.0387 87.3816 53.18C87.3816 52.3027 87.3723 51.2573 87.3536 50.044C87.3536 48.8307 87.3443 47.5147 87.3256 46.096C87.3256 44.6773 87.3256 43.2213 87.3256 41.728H84.2736L84.1056 39.152H87.2976C87.2976 37.2667 87.2976 35.484 87.2976 33.804C87.9883 33.804 88.791 33.8133 89.7056 33.832C90.639 33.8507 91.4416 33.8787 92.1136 33.916C92.1136 35.5213 92.1136 37.2667 92.1136 39.152H95.3056L95.1376 41.728H92.0856C92.0856 43.184 92.0763 44.6213 92.0576 46.04C92.0576 47.44 92.0483 48.7373 92.0296 49.932C92.0296 51.1267 92.0203 52.1627 92.0016 53.04C92.0016 53.9173 91.9923 54.552 91.9736 54.944C91.339 54.9813 90.639 55.0093 89.8736 55.028C89.1083 55.0467 88.2963 55.056 87.4376 55.056ZM103.57 55.14C102.058 55.14 100.695 54.7947 99.482 54.104C98.2873 53.3947 97.3353 52.4427 96.626 51.248C95.9353 50.0347 95.59 48.6627 95.59 47.132C95.59 45.6013 95.926 44.2387 96.598 43.044C97.2887 41.8493 98.222 40.9067 99.398 40.216C100.593 39.5253 101.946 39.18 103.458 39.18C104.877 39.18 106.146 39.4973 107.266 40.132C108.405 40.748 109.319 41.616 110.01 42.736C110.719 43.856 111.139 45.172 111.27 46.684L100.154 48.756C100.509 49.9693 101.069 50.9587 101.834 51.724C102.599 52.4707 103.458 52.844 104.41 52.844C105.287 52.844 106.155 52.5453 107.014 51.948C107.873 51.332 108.535 50.548 109.002 49.596L110.99 51.276C110.075 52.508 108.974 53.46 107.686 54.132C106.398 54.804 105.026 55.14 103.57 55.14ZM99.79 46.012C99.79 46.124 99.79 46.2173 99.79 46.292L106.314 45.396C106.183 44.2013 105.801 43.24 105.166 42.512C104.531 41.784 103.757 41.42 102.842 41.42C101.89 41.42 101.143 41.8307 100.602 42.652C100.061 43.4547 99.79 44.5747 99.79 46.012ZM113.093 55.056C113.075 54.4587 113.056 53.6373 113.037 52.592C113.019 51.528 113 50.3053 112.981 48.924C112.981 47.524 112.972 46.0213 112.953 44.416C112.953 42.792 112.953 41.1213 112.953 39.404C113.364 39.404 113.868 39.4133 114.465 39.432C115.063 39.432 115.66 39.4413 116.257 39.46C116.873 39.4787 117.377 39.4973 117.769 39.516C117.769 39.9827 117.769 40.4587 117.769 40.944C119.356 39.768 120.971 39.18 122.613 39.18C124.125 39.18 125.348 39.712 126.281 40.776C127.215 41.84 127.887 43.5387 128.297 45.872C128.727 48.2053 128.941 51.2667 128.941 55.056C128.512 55.056 127.999 55.0467 127.401 55.028C126.804 55.028 126.216 55.0187 125.637 55C125.059 54.9813 124.555 54.9627 124.125 54.944C124.125 51.64 124.032 48.9987 123.845 47.02C123.659 45.0413 123.351 43.6133 122.921 42.736C122.492 41.8587 121.913 41.42 121.185 41.42C120.588 41.42 119.981 41.672 119.365 42.176C118.749 42.68 118.217 43.3427 117.769 44.164C117.751 45.7507 117.732 47.2533 117.713 48.672C117.713 50.0907 117.704 51.3507 117.685 52.452C117.667 53.5347 117.648 54.3653 117.629 54.944C117.051 54.9627 116.341 54.9813 115.501 55C114.68 55.0373 113.877 55.056 113.093 55.056ZM139.172 55.14C138.407 55.14 137.539 55.084 136.568 54.972C135.598 54.8413 134.636 54.6827 133.684 54.496C132.732 54.2907 131.892 54.076 131.164 53.852L132.396 50.464C133.106 50.8747 133.89 51.2667 134.748 51.64C135.626 51.9947 136.484 52.284 137.324 52.508C138.164 52.732 138.883 52.844 139.48 52.844C140.283 52.844 140.871 52.6667 141.244 52.312C141.618 51.9387 141.804 51.5467 141.804 51.136C141.804 50.6507 141.599 50.2493 141.188 49.932C140.778 49.596 140.236 49.3067 139.564 49.064C138.911 48.8027 138.202 48.56 137.436 48.336C136.746 48.1307 136.055 47.9067 135.364 47.664C134.674 47.4213 134.039 47.1413 133.46 46.824C132.9 46.488 132.443 46.0867 132.088 45.62C131.752 45.1533 131.584 44.5933 131.584 43.94C131.584 43.1 131.883 42.3253 132.48 41.616C133.078 40.888 133.927 40.3 135.028 39.852C136.13 39.404 137.436 39.18 138.948 39.18C140.18 39.18 141.422 39.3387 142.672 39.656C143.942 39.9733 145.099 40.4213 146.144 41L144.576 43.66C143.55 43.0067 142.551 42.4747 141.58 42.064C140.628 41.6347 139.723 41.42 138.864 41.42C138.043 41.42 137.418 41.5973 136.988 41.952C136.559 42.3067 136.344 42.6707 136.344 43.044C136.344 43.3987 136.512 43.6973 136.848 43.94C137.184 44.164 137.632 44.36 138.192 44.528C138.771 44.696 139.387 44.864 140.04 45.032C140.768 45.2 141.515 45.4053 142.28 45.648C143.046 45.872 143.755 46.1613 144.408 46.516C145.062 46.8707 145.584 47.328 145.976 47.888C146.368 48.4293 146.564 49.1107 146.564 49.932C146.564 50.94 146.247 51.836 145.612 52.62C144.978 53.404 144.1 54.02 142.98 54.468C141.879 54.916 140.61 55.14 139.172 55.14Z" fill="#E6E6E6"/>
<g clip-path="url(#clip0_75_737)">
<path d="M30.7239 9.77469C30.6386 9.59281 30.5184 9.4295 30.37 9.2941C30.2216 9.15869 30.048 9.05383 29.8591 8.98552C29.6702 8.91721 29.4697 8.88677 29.269 8.89595C29.0683 8.90512 28.8714 8.95374 28.6895 9.03901C28.5076 9.12428 28.3443 9.24455 28.2089 9.39293C28.0735 9.54132 27.9687 9.71492 27.9003 9.90383C27.832 10.0927 27.8016 10.2933 27.8108 10.4939C27.82 10.6946 27.8686 10.8915 27.9538 11.0734L29.1907 13.7115M30.7239 9.77469L30.1055 8.45562C29.9333 8.08829 29.914 7.66759 30.052 7.28607C30.19 6.90455 30.4738 6.59346 30.8412 6.42125C31.2085 6.24903 31.6292 6.22979 32.0107 6.36776C32.3922 6.50572 32.7033 6.7896 32.8755 7.15693L33.494 8.47601M30.7239 9.77469L33.2326 14.9541M29.1907 13.7115C29.0185 13.3442 28.7074 13.0603 28.3259 12.9224C27.9443 12.7844 27.5236 12.8036 27.1563 12.9758C26.789 13.1481 26.5051 13.4592 26.3671 13.8407C26.2292 14.2222 26.2484 14.6429 26.4206 15.0102L29.791 22.1992C30.5291 23.7735 31.8623 24.9901 33.4974 25.5814C35.1325 26.1726 36.9355 26.0902 38.5098 25.3521L40.2844 24.5201C41.5087 23.946 42.4548 22.909 42.9146 21.6372L43.7236 19.4001C44.1835 18.1284 44.1196 16.7262 43.5457 15.5017L42.7139 13.7206C42.6417 13.5645 42.6345 13.3862 42.6938 13.2248C42.7621 13.0358 42.7926 12.8353 42.7834 12.6345C42.7742 12.4338 42.7256 12.2369 42.6403 12.0549C42.555 11.873 42.4347 11.7096 42.2863 11.5742C42.1378 11.4387 41.9642 11.3339 41.7752 11.2655C41.5863 11.1972 41.3857 11.1667 41.185 11.1759C40.9842 11.1851 40.7873 11.2337 40.6053 11.319C40.4234 11.4043 40.2601 11.5246 40.1246 11.673C39.9892 11.8215 39.8843 11.9951 39.816 12.1841C39.4823 13.1049 39.5265 14.1204 39.9388 15.0087M29.1907 13.7115L31.015 17.6028M33.494 8.47601L36.2459 14.3459M33.494 8.47601C33.3217 8.10867 33.3025 7.68797 33.4405 7.30645C33.5784 6.92494 33.8623 6.61385 34.2296 6.44163C34.597 6.26942 35.0177 6.25018 35.3992 6.38814C35.7807 6.52611 36.0918 6.80998 36.264 7.17732L40.5621 16.3449M40.5621 16.3449C40.0425 16.5882 39.576 16.9316 39.1894 17.3554C38.8028 17.7793 38.5036 18.2753 38.309 18.815M40.5621 16.3449L40.5638 16.3441" stroke="#35A770" stroke-width="1.5" stroke-linecap="round" stroke-linejoin="round"/>
</g>
<path d="M37.3203 1.33398C40.4382 1.69304 41.6318 2.70789 42.9826 5.66396" stroke="#35A770" stroke-linecap="round"/>
<path d="M37.3203 3.33203C39.5212 3.55299 40.3637 4.17751 41.3172 5.99663" stroke="#35A770" stroke-linecap="round"/>
<path d="M25.2148 22.8477C22.4833 21.3021 21.7794 19.9024 21.6872 16.6536" stroke="#35A770" stroke-linecap="round"/>
<path d="M25.9932 21.0078C24.0523 19.9468 23.5197 19.0433 23.3504 16.9964" stroke="#35A770" stroke-linecap="round"/>
<defs>
<clipPath id="clip0_75_737">
<rect width="23.3096" height="23.3096" fill="white" transform="translate(20 9.89453) rotate(-25.1186)"/>
</clipPath>
</defs>
</svg>
